<?xml version="1.0" encoding="UTF-8"?>
<svg xmlns="http://www.w3.org/2000/svg" xmlns:xlink="http://www.w3.org/1999/xlink" width="195pt" height="151pt" viewBox="0 0 195 151" version="1.1">
<defs>
<clipPath id="clip1">
  <path d="M 0.695312 147 L 194.960938 147 L 194.960938 149 L 0.695312 149 Z M 0.695312 147 "/>
</clipPath>
</defs>
<g id="surface1">
<path style="fill-rule:nonzero;fill:rgb(88.587952%,71.409607%,71.763611%);fill-opacity:1;stroke-width:0.3985;stroke-linecap:butt;stroke-linejoin:miter;stroke:rgb(61.959839%,4.705811%,5.880737%);stroke-opacity:1;stroke-miterlimit:10;" d="M 32.379219 10.08775 L 32.379219 90.786969 L 75.547187 90.786969 L 75.547187 10.08775 L 32.379219 10.08775 " transform="matrix(1,0,0,-1,0.695,157.994)"/>
<path style="fill-rule:nonzero;fill:rgb(100%,100%,100%);fill-opacity:1;stroke-width:0.3985;stroke-linecap:butt;stroke-linejoin:miter;stroke:rgb(0%,0%,0%);stroke-opacity:1;stroke-miterlimit:10;" d="M 69.074531 18.158062 L 64.754219 18.158062 L 64.754219 13.115094 L 69.074531 13.115094 L 69.074531 18.158062 L 64.754219 18.158062 L 66.914375 18.158062 L 66.914375 13.115094 L 66.914375 15.634625 L 64.754219 15.634625 L 69.074531 15.634625 " transform="matrix(1,0,0,-1,0.695,157.994)"/>
<path style="fill-rule:nonzero;fill:rgb(100%,100%,100%);fill-opacity:1;stroke-width:0.3985;stroke-linecap:butt;stroke-linejoin:miter;stroke:rgb(0%,0%,0%);stroke-opacity:1;stroke-miterlimit:10;" d="M 43.172187 18.158062 L 38.851875 18.158062 L 38.851875 13.115094 L 43.172187 13.115094 L 43.172187 18.158062 L 38.851875 18.158062 L 41.012031 18.158062 L 41.012031 13.115094 L 41.012031 15.634625 L 38.851875 15.634625 L 43.172187 15.634625 " transform="matrix(1,0,0,-1,0.695,157.994)"/>
<path style="fill-rule:nonzero;fill:rgb(59.999084%,59.999084%,59.999084%);fill-opacity:1;stroke-width:0.3985;stroke-linecap:butt;stroke-linejoin:miter;stroke:rgb(0%,0%,0%);stroke-opacity:1;stroke-miterlimit:10;" d="M 58.281562 19.165875 L 58.281562 10.08775 L 49.644844 10.08775 L 49.644844 19.165875 L 58.281562 19.165875 " transform="matrix(1,0,0,-1,0.695,157.994)"/>
<path style="fill:none;stroke-width:0.3985;stroke-linecap:butt;stroke-linejoin:miter;stroke:rgb(0%,0%,0%);stroke-opacity:1;stroke-miterlimit:10;" d="M 53.965156 10.08775 L 53.965156 19.165875 " transform="matrix(1,0,0,-1,0.695,157.994)"/>
<path style="fill-rule:nonzero;fill:rgb(100%,100%,100%);fill-opacity:1;stroke-width:0.3985;stroke-linecap:butt;stroke-linejoin:miter;stroke:rgb(0%,0%,0%);stroke-opacity:1;stroke-miterlimit:10;" d="M 43.172187 28.244 L 38.851875 28.244 L 38.851875 23.201031 L 43.172187 23.201031 L 43.172187 28.244 L 38.851875 28.244 L 41.012031 28.244 L 41.012031 23.201031 L 41.012031 25.724469 L 38.851875 25.724469 L 43.172187 25.724469 " transform="matrix(1,0,0,-1,0.695,157.994)"/>
<path style="fill-rule:nonzero;fill:rgb(100%,100%,100%);fill-opacity:1;stroke-width:0.3985;stroke-linecap:butt;stroke-linejoin:miter;stroke:rgb(0%,0%,0%);stroke-opacity:1;stroke-miterlimit:10;" d="M 43.172187 38.329937 L 38.851875 38.329937 L 38.851875 33.286969 L 43.172187 33.286969 L 43.172187 38.329937 L 38.851875 38.329937 L 41.012031 38.329937 L 41.012031 33.286969 L 41.012031 35.810406 L 38.851875 35.810406 L 43.172187 35.810406 " transform="matrix(1,0,0,-1,0.695,157.994)"/>
<path style="fill-rule:nonzero;fill:rgb(100%,100%,100%);fill-opacity:1;stroke-width:0.3985;stroke-linecap:butt;stroke-linejoin:miter;stroke:rgb(0%,0%,0%);stroke-opacity:1;stroke-miterlimit:10;" d="M 43.172187 48.419781 L 38.851875 48.419781 L 38.851875 43.376812 L 43.172187 43.376812 L 43.172187 48.419781 L 38.851875 48.419781 L 41.012031 48.419781 L 41.012031 43.376812 L 41.012031 45.896344 L 38.851875 45.896344 L 43.172187 45.896344 " transform="matrix(1,0,0,-1,0.695,157.994)"/>
<path style="fill-rule:nonzero;fill:rgb(100%,100%,100%);fill-opacity:1;stroke-width:0.3985;stroke-linecap:butt;stroke-linejoin:miter;stroke:rgb(0%,0%,0%);stroke-opacity:1;stroke-miterlimit:10;" d="M 43.172187 58.505719 L 38.851875 58.505719 L 38.851875 53.46275 L 43.172187 53.46275 L 43.172187 58.505719 L 38.851875 58.505719 L 41.012031 58.505719 L 41.012031 53.46275 L 41.012031 55.986187 L 38.851875 55.986187 L 43.172187 55.986187 " transform="matrix(1,0,0,-1,0.695,157.994)"/>
<path style="fill-rule:nonzero;fill:rgb(100%,100%,100%);fill-opacity:1;stroke-width:0.3985;stroke-linecap:butt;stroke-linejoin:miter;stroke:rgb(0%,0%,0%);stroke-opacity:1;stroke-miterlimit:10;" d="M 43.172187 68.591656 L 38.851875 68.591656 L 38.851875 63.548687 L 43.172187 63.548687 L 43.172187 68.591656 L 38.851875 68.591656 L 41.012031 68.591656 L 41.012031 63.548687 L 41.012031 66.072125 L 38.851875 66.072125 L 43.172187 66.072125 " transform="matrix(1,0,0,-1,0.695,157.994)"/>
<path style="fill-rule:nonzero;fill:rgb(100%,100%,100%);fill-opacity:1;stroke-width:0.3985;stroke-linecap:butt;stroke-linejoin:miter;stroke:rgb(0%,0%,0%);stroke-opacity:1;stroke-miterlimit:10;" d="M 43.172187 78.6815 L 38.851875 78.6815 L 38.851875 73.638531 L 43.172187 73.638531 L 43.172187 78.6815 L 38.851875 78.6815 L 41.012031 78.6815 L 41.012031 73.638531 L 41.012031 76.158062 L 38.851875 76.158062 L 43.172187 76.158062 " transform="matrix(1,0,0,-1,0.695,157.994)"/>
<path style="fill-rule:nonzero;fill:rgb(100%,100%,100%);fill-opacity:1;stroke-width:0.3985;stroke-linecap:butt;stroke-linejoin:miter;stroke:rgb(0%,0%,0%);stroke-opacity:1;stroke-miterlimit:10;" d="M 56.121406 28.244 L 51.805 28.244 L 51.805 23.201031 L 56.121406 23.201031 L 56.121406 28.244 L 51.805 28.244 L 53.965156 28.244 L 53.965156 23.201031 L 53.965156 25.724469 L 51.805 25.724469 L 56.121406 25.724469 " transform="matrix(1,0,0,-1,0.695,157.994)"/>
<path style="fill-rule:nonzero;fill:rgb(100%,100%,100%);fill-opacity:1;stroke-width:0.3985;stroke-linecap:butt;stroke-linejoin:miter;stroke:rgb(0%,0%,0%);stroke-opacity:1;stroke-miterlimit:10;" d="M 56.121406 38.329937 L 51.805 38.329937 L 51.805 33.286969 L 56.121406 33.286969 L 56.121406 38.329937 L 51.805 38.329937 L 53.965156 38.329937 L 53.965156 33.286969 L 53.965156 35.810406 L 51.805 35.810406 L 56.121406 35.810406 " transform="matrix(1,0,0,-1,0.695,157.994)"/>
<path style="fill-rule:nonzero;fill:rgb(100%,100%,100%);fill-opacity:1;stroke-width:0.3985;stroke-linecap:butt;stroke-linejoin:miter;stroke:rgb(0%,0%,0%);stroke-opacity:1;stroke-miterlimit:10;" d="M 56.121406 48.419781 L 51.805 48.419781 L 51.805 43.376812 L 56.121406 43.376812 L 56.121406 48.419781 L 51.805 48.419781 L 53.965156 48.419781 L 53.965156 43.376812 L 53.965156 45.896344 L 51.805 45.896344 L 56.121406 45.896344 " transform="matrix(1,0,0,-1,0.695,157.994)"/>
<path style="fill-rule:nonzero;fill:rgb(100%,100%,100%);fill-opacity:1;stroke-width:0.3985;stroke-linecap:butt;stroke-linejoin:miter;stroke:rgb(0%,0%,0%);stroke-opacity:1;stroke-miterlimit:10;" d="M 56.121406 58.505719 L 51.805 58.505719 L 51.805 53.46275 L 56.121406 53.46275 L 56.121406 58.505719 L 51.805 58.505719 L 53.965156 58.505719 L 53.965156 53.46275 L 53.965156 55.986187 L 51.805 55.986187 L 56.121406 55.986187 " transform="matrix(1,0,0,-1,0.695,157.994)"/>
<path style="fill-rule:nonzero;fill:rgb(100%,100%,100%);fill-opacity:1;stroke-width:0.3985;stroke-linecap:butt;stroke-linejoin:miter;stroke:rgb(0%,0%,0%);stroke-opacity:1;stroke-miterlimit:10;" d="M 56.121406 68.591656 L 51.805 68.591656 L 51.805 63.548687 L 56.121406 63.548687 L 56.121406 68.591656 L 51.805 68.591656 L 53.965156 68.591656 L 53.965156 63.548687 L 53.965156 66.072125 L 51.805 66.072125 L 56.121406 66.072125 " transform="matrix(1,0,0,-1,0.695,157.994)"/>
<path style="fill-rule:nonzero;fill:rgb(100%,100%,100%);fill-opacity:1;stroke-width:0.3985;stroke-linecap:butt;stroke-linejoin:miter;stroke:rgb(0%,0%,0%);stroke-opacity:1;stroke-miterlimit:10;" d="M 56.121406 78.6815 L 51.805 78.6815 L 51.805 73.638531 L 56.121406 73.638531 L 56.121406 78.6815 L 51.805 78.6815 L 53.965156 78.6815 L 53.965156 73.638531 L 53.965156 76.158062 L 51.805 76.158062 L 56.121406 76.158062 " transform="matrix(1,0,0,-1,0.695,157.994)"/>
<path style="fill-rule:nonzero;fill:rgb(100%,100%,100%);fill-opacity:1;stroke-width:0.3985;stroke-linecap:butt;stroke-linejoin:miter;stroke:rgb(0%,0%,0%);stroke-opacity:1;stroke-miterlimit:10;" d="M 69.074531 28.244 L 64.754219 28.244 L 64.754219 23.201031 L 69.074531 23.201031 L 69.074531 28.244 L 64.754219 28.244 L 66.914375 28.244 L 66.914375 23.201031 L 66.914375 25.724469 L 64.754219 25.724469 L 69.074531 25.724469 " transform="matrix(1,0,0,-1,0.695,157.994)"/>
<path style="fill-rule:nonzero;fill:rgb(100%,100%,100%);fill-opacity:1;stroke-width:0.3985;stroke-linecap:butt;stroke-linejoin:miter;stroke:rgb(0%,0%,0%);stroke-opacity:1;stroke-miterlimit:10;" d="M 69.074531 38.329937 L 64.754219 38.329937 L 64.754219 33.286969 L 69.074531 33.286969 L 69.074531 38.329937 L 64.754219 38.329937 L 66.914375 38.329937 L 66.914375 33.286969 L 66.914375 35.810406 L 64.754219 35.810406 L 69.074531 35.810406 " transform="matrix(1,0,0,-1,0.695,157.994)"/>
<path style="fill-rule:nonzero;fill:rgb(100%,100%,100%);fill-opacity:1;stroke-width:0.3985;stroke-linecap:butt;stroke-linejoin:miter;stroke:rgb(0%,0%,0%);stroke-opacity:1;stroke-miterlimit:10;" d="M 69.074531 48.419781 L 64.754219 48.419781 L 64.754219 43.376812 L 69.074531 43.376812 L 69.074531 48.419781 L 64.754219 48.419781 L 66.914375 48.419781 L 66.914375 43.376812 L 66.914375 45.896344 L 64.754219 45.896344 L 69.074531 45.896344 " transform="matrix(1,0,0,-1,0.695,157.994)"/>
<path style="fill-rule:nonzero;fill:rgb(100%,100%,100%);fill-opacity:1;stroke-width:0.3985;stroke-linecap:butt;stroke-linejoin:miter;stroke:rgb(0%,0%,0%);stroke-opacity:1;stroke-miterlimit:10;" d="M 69.074531 58.505719 L 64.754219 58.505719 L 64.754219 53.46275 L 69.074531 53.46275 L 69.074531 58.505719 L 64.754219 58.505719 L 66.914375 58.505719 L 66.914375 53.46275 L 66.914375 55.986187 L 64.754219 55.986187 L 69.074531 55.986187 " transform="matrix(1,0,0,-1,0.695,157.994)"/>
<path style="fill-rule:nonzero;fill:rgb(100%,100%,100%);fill-opacity:1;stroke-width:0.3985;stroke-linecap:butt;stroke-linejoin:miter;stroke:rgb(0%,0%,0%);stroke-opacity:1;stroke-miterlimit:10;" d="M 69.074531 68.591656 L 64.754219 68.591656 L 64.754219 63.548687 L 69.074531 63.548687 L 69.074531 68.591656 L 64.754219 68.591656 L 66.914375 68.591656 L 66.914375 63.548687 L 66.914375 66.072125 L 64.754219 66.072125 L 69.074531 66.072125 " transform="matrix(1,0,0,-1,0.695,157.994)"/>
<path style="fill-rule:nonzero;fill:rgb(100%,100%,100%);fill-opacity:1;stroke-width:0.3985;stroke-linecap:butt;stroke-linejoin:miter;stroke:rgb(0%,0%,0%);stroke-opacity:1;stroke-miterlimit:10;" d="M 69.074531 78.6815 L 64.754219 78.6815 L 64.754219 73.638531 L 69.074531 73.638531 L 69.074531 78.6815 L 64.754219 78.6815 L 66.914375 78.6815 L 66.914375 73.638531 L 66.914375 76.158062 L 64.754219 76.158062 L 69.074531 76.158062 " transform="matrix(1,0,0,-1,0.695,157.994)"/>
<g clip-path="url(#clip1)" clip-rule="nonzero">
<path style="fill:none;stroke-width:0.3985;stroke-linecap:butt;stroke-linejoin:miter;stroke:rgb(0%,0%,0%);stroke-opacity:1;stroke-miterlimit:10;" d="M 0.0003125 10.08775 L 194.265938 10.08775 " transform="matrix(1,0,0,-1,0.695,157.994)"/>
</g>
<path style="fill:none;stroke-width:0.3985;stroke-linecap:butt;stroke-linejoin:miter;stroke:rgb(0%,50.193787%,59.999084%);stroke-opacity:1;stroke-miterlimit:10;" d="M 64.754219 90.786969 C 64.754219 90.786969 70.324531 106.529156 72.465156 111.783062 C 74.605781 117.040875 78.035469 124.552594 80.172187 128.665875 C 82.312812 132.779156 85.7425 138.458844 87.883125 141.427594 C 90.02375 144.396344 93.453437 148.244 95.590156 150.072125 C 97.730781 151.90025 101.160469 153.915875 103.301094 154.603375 C 105.441719 155.286969 108.871406 155.470562 111.008125 155.013531 C 113.14875 154.5565 116.578437 152.908062 118.719062 151.310406 C 120.859687 149.708844 124.289375 146.228375 126.43 143.486187 C 128.566719 140.744 131.996406 135.4315 134.137031 131.544781 C 136.277656 127.661969 139.707344 120.517437 141.847969 115.490094 C 143.984688 110.46275 147.414375 101.482281 149.555 95.314312 C 151.695625 89.146344 155.125313 78.333844 157.265938 71.021344 C 159.402656 63.708844 162.832344 51.068219 164.972969 42.615094 C 167.113594 34.158062 172.683906 10.08775 172.683906 10.08775 " transform="matrix(1,0,0,-1,0.695,157.994)"/>
<path style="fill-rule:nonzero;fill:rgb(0%,50.193787%,59.999084%);fill-opacity:1;stroke-width:0.3985;stroke-linecap:butt;stroke-linejoin:miter;stroke:rgb(0%,50.193787%,59.999084%);stroke-opacity:1;stroke-miterlimit:10;" d="M 66.750312 90.786969 C 66.750312 91.884625 65.855781 92.779156 64.754219 92.779156 C 63.656562 92.779156 62.762031 91.884625 62.762031 90.786969 C 62.762031 89.685406 63.656562 88.794781 64.754219 88.794781 C 65.855781 88.794781 66.750312 89.685406 66.750312 90.786969 Z M 66.750312 90.786969 " transform="matrix(1,0,0,-1,0.695,157.994)"/>
<path style="fill-rule:nonzero;fill:rgb(0%,50.193787%,59.999084%);fill-opacity:1;stroke-width:0.3985;stroke-linecap:butt;stroke-linejoin:miter;stroke:rgb(0%,50.193787%,59.999084%);stroke-opacity:1;stroke-miterlimit:10;" d="M 74.457344 111.783062 C 74.457344 112.884625 73.566719 113.77525 72.465156 113.77525 C 71.363594 113.77525 70.472969 112.884625 70.472969 111.783062 C 70.472969 110.6815 71.363594 109.790875 72.465156 109.790875 C 73.566719 109.790875 74.457344 110.6815 74.457344 111.783062 Z M 74.457344 111.783062 " transform="matrix(1,0,0,-1,0.695,157.994)"/>
<path style="fill-rule:nonzero;fill:rgb(0%,50.193787%,59.999084%);fill-opacity:1;stroke-width:0.3985;stroke-linecap:butt;stroke-linejoin:miter;stroke:rgb(0%,50.193787%,59.999084%);stroke-opacity:1;stroke-miterlimit:10;" d="M 82.168281 128.665875 C 82.168281 129.763531 81.27375 130.658062 80.172187 130.658062 C 79.074531 130.658062 78.18 129.763531 78.18 128.665875 C 78.18 127.564312 79.074531 126.669781 80.172187 126.669781 C 81.27375 126.669781 82.168281 127.564312 82.168281 128.665875 Z M 82.168281 128.665875 " transform="matrix(1,0,0,-1,0.695,157.994)"/>
<path style="fill-rule:nonzero;fill:rgb(0%,50.193787%,59.999084%);fill-opacity:1;stroke-width:0.3985;stroke-linecap:butt;stroke-linejoin:miter;stroke:rgb(0%,50.193787%,59.999084%);stroke-opacity:1;stroke-miterlimit:10;" d="M 89.875312 141.427594 C 89.875312 142.529156 88.984687 143.419781 87.883125 143.419781 C 86.781562 143.419781 85.890937 142.529156 85.890937 141.427594 C 85.890937 140.326031 86.781562 139.435406 87.883125 139.435406 C 88.984687 139.435406 89.875312 140.326031 89.875312 141.427594 Z M 89.875312 141.427594 " transform="matrix(1,0,0,-1,0.695,157.994)"/>
<path style="fill-rule:nonzero;fill:rgb(0%,50.193787%,59.999084%);fill-opacity:1;stroke-width:0.3985;stroke-linecap:butt;stroke-linejoin:miter;stroke:rgb(0%,50.193787%,59.999084%);stroke-opacity:1;stroke-miterlimit:10;" d="M 97.58625 150.072125 C 97.58625 151.173687 96.691719 152.068219 95.590156 152.068219 C 94.4925 152.068219 93.597969 151.173687 93.597969 150.072125 C 93.597969 148.974469 94.4925 148.079937 95.590156 148.079937 C 96.691719 148.079937 97.58625 148.974469 97.58625 150.072125 Z M 97.58625 150.072125 " transform="matrix(1,0,0,-1,0.695,157.994)"/>
<path style="fill-rule:nonzero;fill:rgb(0%,50.193787%,59.999084%);fill-opacity:1;stroke-width:0.3985;stroke-linecap:butt;stroke-linejoin:miter;stroke:rgb(0%,50.193787%,59.999084%);stroke-opacity:1;stroke-miterlimit:10;" d="M 105.293281 154.603375 C 105.293281 155.704937 104.402656 156.595562 103.301094 156.595562 C 102.199531 156.595562 101.308906 155.704937 101.308906 154.603375 C 101.308906 153.501812 102.199531 152.611187 103.301094 152.611187 C 104.402656 152.611187 105.293281 153.501812 105.293281 154.603375 Z M 105.293281 154.603375 " transform="matrix(1,0,0,-1,0.695,157.994)"/>
<path style="fill-rule:nonzero;fill:rgb(0%,50.193787%,59.999084%);fill-opacity:1;stroke-width:0.3985;stroke-linecap:butt;stroke-linejoin:miter;stroke:rgb(0%,50.193787%,59.999084%);stroke-opacity:1;stroke-miterlimit:10;" d="M 113.004219 155.013531 C 113.004219 156.115094 112.109687 157.005719 111.008125 157.005719 C 109.910469 157.005719 109.015937 156.115094 109.015937 155.013531 C 109.015937 153.915875 109.910469 153.021344 111.008125 153.021344 C 112.109687 153.021344 113.004219 153.915875 113.004219 155.013531 Z M 113.004219 155.013531 " transform="matrix(1,0,0,-1,0.695,157.994)"/>
<path style="fill-rule:nonzero;fill:rgb(0%,50.193787%,59.999084%);fill-opacity:1;stroke-width:0.3985;stroke-linecap:butt;stroke-linejoin:miter;stroke:rgb(0%,50.193787%,59.999084%);stroke-opacity:1;stroke-miterlimit:10;" d="M 120.71125 151.310406 C 120.71125 152.408062 119.820625 153.302594 118.719062 153.302594 C 117.6175 153.302594 116.726875 152.408062 116.726875 151.310406 C 116.726875 150.208844 117.6175 149.318219 118.719062 149.318219 C 119.820625 149.318219 120.71125 150.208844 120.71125 151.310406 Z M 120.71125 151.310406 " transform="matrix(1,0,0,-1,0.695,157.994)"/>
<path style="fill-rule:nonzero;fill:rgb(0%,50.193787%,59.999084%);fill-opacity:1;stroke-width:0.3985;stroke-linecap:butt;stroke-linejoin:miter;stroke:rgb(0%,50.193787%,59.999084%);stroke-opacity:1;stroke-miterlimit:10;" d="M 128.422188 143.486187 C 128.422188 144.58775 127.527656 145.478375 126.43 145.478375 C 125.328437 145.478375 124.433906 144.58775 124.433906 143.486187 C 124.433906 142.384625 125.328437 141.494 126.43 141.494 C 127.527656 141.494 128.422188 142.384625 128.422188 143.486187 Z M 128.422188 143.486187 " transform="matrix(1,0,0,-1,0.695,157.994)"/>
<path style="fill-rule:nonzero;fill:rgb(0%,50.193787%,59.999084%);fill-opacity:1;stroke-width:0.3985;stroke-linecap:butt;stroke-linejoin:miter;stroke:rgb(0%,50.193787%,59.999084%);stroke-opacity:1;stroke-miterlimit:10;" d="M 136.129219 131.544781 C 136.129219 132.646344 135.238594 133.536969 134.137031 133.536969 C 133.035469 133.536969 132.144844 132.646344 132.144844 131.544781 C 132.144844 130.447125 133.035469 129.552594 134.137031 129.552594 C 135.238594 129.552594 136.129219 130.447125 136.129219 131.544781 Z M 136.129219 131.544781 " transform="matrix(1,0,0,-1,0.695,157.994)"/>
<path style="fill-rule:nonzero;fill:rgb(0%,50.193787%,59.999084%);fill-opacity:1;stroke-width:0.3985;stroke-linecap:butt;stroke-linejoin:miter;stroke:rgb(0%,50.193787%,59.999084%);stroke-opacity:1;stroke-miterlimit:10;" d="M 143.840156 115.490094 C 143.840156 116.58775 142.945625 117.482281 141.847969 117.482281 C 140.746406 117.482281 139.851875 116.58775 139.851875 115.490094 C 139.851875 114.388531 140.746406 113.497906 141.847969 113.497906 C 142.945625 113.497906 143.840156 114.388531 143.840156 115.490094 Z M 143.840156 115.490094 " transform="matrix(1,0,0,-1,0.695,157.994)"/>
<path style="fill-rule:nonzero;fill:rgb(0%,50.193787%,59.999084%);fill-opacity:1;stroke-width:0.3985;stroke-linecap:butt;stroke-linejoin:miter;stroke:rgb(0%,50.193787%,59.999084%);stroke-opacity:1;stroke-miterlimit:10;" d="M 151.547188 95.314312 C 151.547188 96.415875 150.656563 97.3065 149.555 97.3065 C 148.453438 97.3065 147.562813 96.415875 147.562813 95.314312 C 147.562813 94.21275 148.453438 93.322125 149.555 93.322125 C 150.656563 93.322125 151.547188 94.21275 151.547188 95.314312 Z M 151.547188 95.314312 " transform="matrix(1,0,0,-1,0.695,157.994)"/>
<path style="fill-rule:nonzero;fill:rgb(0%,50.193787%,59.999084%);fill-opacity:1;stroke-width:0.3985;stroke-linecap:butt;stroke-linejoin:miter;stroke:rgb(0%,50.193787%,59.999084%);stroke-opacity:1;stroke-miterlimit:10;" d="M 159.258125 71.021344 C 159.258125 72.122906 158.363594 73.013531 157.265938 73.013531 C 156.164375 73.013531 155.269844 72.122906 155.269844 71.021344 C 155.269844 69.923687 156.164375 69.029156 157.265938 69.029156 C 158.363594 69.029156 159.258125 69.923687 159.258125 71.021344 Z M 159.258125 71.021344 " transform="matrix(1,0,0,-1,0.695,157.994)"/>
<path style="fill-rule:nonzero;fill:rgb(0%,50.193787%,59.999084%);fill-opacity:1;stroke-width:0.3985;stroke-linecap:butt;stroke-linejoin:miter;stroke:rgb(0%,50.193787%,59.999084%);stroke-opacity:1;stroke-miterlimit:10;" d="M 166.965156 42.615094 C 166.965156 43.71275 166.074531 44.607281 164.972969 44.607281 C 163.871406 44.607281 162.980781 43.71275 162.980781 42.615094 C 162.980781 41.513531 163.871406 40.619 164.972969 40.619 C 166.074531 40.619 166.965156 41.513531 166.965156 42.615094 Z M 166.965156 42.615094 " transform="matrix(1,0,0,-1,0.695,157.994)"/>
<path style="fill-rule:nonzero;fill:rgb(0%,50.193787%,59.999084%);fill-opacity:1;stroke-width:0.3985;stroke-linecap:butt;stroke-linejoin:miter;stroke:rgb(0%,50.193787%,59.999084%);stroke-opacity:1;stroke-miterlimit:10;" d="M 174.676094 10.08775 C 174.676094 11.189312 173.781563 12.079937 172.683906 12.079937 C 171.582344 12.079937 170.691719 11.189312 170.691719 10.08775 C 170.691719 8.986187 171.582344 8.095562 172.683906 8.095562 C 173.781563 8.095562 174.676094 8.986187 174.676094 10.08775 Z M 174.676094 10.08775 " transform="matrix(1,0,0,-1,0.695,157.994)"/>
</g>
</svg>
