<svg xmlns="http://www.w3.org/2000/svg" viewBox="0 14 96 68" style="cursor:pointer; position: absolute; top: 0; left: 0; width: 100%; height: 100%;" preserveAspectRatio="none">
    <path fill="#e62117" d="M94.98,28.84c0,0-0.94-6.6-3.81-9.5c-3.64-3.81-7.72-3.83-9.59-4.05c-13.4-0.97-33.52-0.85-33.52-0.85s-20.12-0.12-33.52,0.85c-1.87,0.22-5.95,0.24-9.59,4.05c-2.87,2.9-3.81,9.5-3.81,9.5S0.18,36.58,0,44.33v7.26c0.18,7.75,1.14,15.49,1.14,15.49s0.93,6.6,3.81,9.5c3.64,3.81,8.43,3.69,10.56,4.09c7.53,0.72,31.7,0.89,32.54,0.9c0.01,0,20.14,0.03,33.54-0.94c1.87-0.22,5.95-0.24,9.59-4.05c2.87-2.9,3.81-9.5,3.81-9.5s0.96-7.75,1.02-15.49v-7.26C95.94,36.58,94.98,28.84,94.98,28.84z M38.28,61.41v-27l25.74,13.5L38.28,61.41z"/>
</svg>
