<?xml version="1.0" encoding="UTF-8"?>
<svg xmlns="http://www.w3.org/2000/svg" xmlns:xlink="http://www.w3.org/1999/xlink" width="196.4pt" height="151.18958pt" viewBox="0 0 196.4 151.18958" version="1.1">
<defs>
<clipPath id="clip1">
  <path d="M 0.90625 147 L 195.175781 147 L 195.175781 149 L 0.90625 149 Z M 0.90625 147 "/>
</clipPath>
<clipPath id="clip2">
  <path d="M 60 0 L 180 0 L 180 151.191406 L 60 151.191406 Z M 60 0 "/>
</clipPath>
<clipPath id="clip3">
  <path d="M 165 140 L 182 140 L 182 151.191406 L 165 151.191406 Z M 165 140 "/>
</clipPath>
</defs>
<g id="surface1">
<path style="fill-rule:nonzero;fill:rgb(88.587952%,71.409607%,71.763611%);fill-opacity:1;stroke-width:0.3985;stroke-linecap:butt;stroke-linejoin:miter;stroke:rgb(61.959839%,4.705811%,5.880737%);stroke-opacity:1;stroke-miterlimit:10;" d="M 32.378156 10.086761 L 32.378156 90.786529 L 75.550031 90.786529 L 75.550031 10.086761 L 32.378156 10.086761 " transform="matrix(1,0,0,-1.00009,0.907,158.126731)"/>
<path style="fill-rule:nonzero;fill:rgb(100%,100%,100%);fill-opacity:1;stroke-width:0.3985;stroke-linecap:butt;stroke-linejoin:miter;stroke:rgb(0%,0%,0%);stroke-opacity:1;stroke-miterlimit:10;" d="M 69.073469 18.156347 L 64.757063 18.156347 L 64.757063 13.113832 L 69.073469 13.113832 L 69.073469 18.156347 L 64.757063 18.156347 L 66.913313 18.156347 L 66.913313 13.113832 L 66.913313 15.637042 L 64.757063 15.637042 L 69.073469 15.637042 " transform="matrix(1,0,0,-1.00009,0.907,158.126731)"/>
<path style="fill-rule:nonzero;fill:rgb(100%,100%,100%);fill-opacity:1;stroke-width:0.3985;stroke-linecap:butt;stroke-linejoin:miter;stroke:rgb(0%,0%,0%);stroke-opacity:1;stroke-miterlimit:10;" d="M 43.171125 18.156347 L 38.854719 18.156347 L 38.854719 13.113832 L 43.171125 13.113832 L 43.171125 18.156347 L 38.854719 18.156347 L 41.010969 18.156347 L 41.010969 13.113832 L 41.010969 15.637042 L 38.854719 15.637042 L 43.171125 15.637042 " transform="matrix(1,0,0,-1.00009,0.907,158.126731)"/>
<path style="fill-rule:nonzero;fill:rgb(59.999084%,59.999084%,59.999084%);fill-opacity:1;stroke-width:0.3985;stroke-linecap:butt;stroke-linejoin:miter;stroke:rgb(0%,0%,0%);stroke-opacity:1;stroke-miterlimit:10;" d="M 58.2805 19.164069 L 58.2805 10.086761 L 49.647688 10.086761 L 49.647688 19.164069 L 58.2805 19.164069 " transform="matrix(1,0,0,-1.00009,0.907,158.126731)"/>
<path style="fill:none;stroke-width:0.3985;stroke-linecap:butt;stroke-linejoin:miter;stroke:rgb(0%,0%,0%);stroke-opacity:1;stroke-miterlimit:10;" d="M 53.964094 10.086761 L 53.964094 19.164069 " transform="matrix(1,0,0,-1.00009,0.907,158.126731)"/>
<path style="fill-rule:nonzero;fill:rgb(100%,100%,100%);fill-opacity:1;stroke-width:0.3985;stroke-linecap:butt;stroke-linejoin:miter;stroke:rgb(0%,0%,0%);stroke-opacity:1;stroke-miterlimit:10;" d="M 43.171125 28.245282 L 38.854719 28.245282 L 38.854719 23.198862 L 43.171125 23.198862 L 43.171125 28.245282 L 38.854719 28.245282 L 41.010969 28.245282 L 41.010969 23.198862 L 41.010969 25.722072 L 38.854719 25.722072 L 43.171125 25.722072 " transform="matrix(1,0,0,-1.00009,0.907,158.126731)"/>
<path style="fill-rule:nonzero;fill:rgb(100%,100%,100%);fill-opacity:1;stroke-width:0.3985;stroke-linecap:butt;stroke-linejoin:miter;stroke:rgb(0%,0%,0%);stroke-opacity:1;stroke-miterlimit:10;" d="M 43.171125 38.330312 L 38.854719 38.330312 L 38.854719 33.287797 L 43.171125 33.287797 L 43.171125 38.330312 L 38.854719 38.330312 L 41.010969 38.330312 L 41.010969 33.287797 L 41.010969 35.811008 L 38.854719 35.811008 L 43.171125 35.811008 " transform="matrix(1,0,0,-1.00009,0.907,158.126731)"/>
<path style="fill-rule:nonzero;fill:rgb(100%,100%,100%);fill-opacity:1;stroke-width:0.3985;stroke-linecap:butt;stroke-linejoin:miter;stroke:rgb(0%,0%,0%);stroke-opacity:1;stroke-miterlimit:10;" d="M 43.171125 48.419248 L 38.854719 48.419248 L 38.854719 43.376733 L 43.171125 43.376733 L 43.171125 48.419248 L 38.854719 48.419248 L 41.010969 48.419248 L 41.010969 43.376733 L 41.010969 45.896038 L 38.854719 45.896038 L 43.171125 45.896038 " transform="matrix(1,0,0,-1.00009,0.907,158.126731)"/>
<path style="fill-rule:nonzero;fill:rgb(100%,100%,100%);fill-opacity:1;stroke-width:0.3985;stroke-linecap:butt;stroke-linejoin:miter;stroke:rgb(0%,0%,0%);stroke-opacity:1;stroke-miterlimit:10;" d="M 43.171125 58.504278 L 38.854719 58.504278 L 38.854719 53.461763 L 43.171125 53.461763 L 43.171125 58.504278 L 38.854719 58.504278 L 41.010969 58.504278 L 41.010969 53.461763 L 41.010969 55.984973 L 38.854719 55.984973 L 43.171125 55.984973 " transform="matrix(1,0,0,-1.00009,0.907,158.126731)"/>
<path style="fill-rule:nonzero;fill:rgb(100%,100%,100%);fill-opacity:1;stroke-width:0.3985;stroke-linecap:butt;stroke-linejoin:miter;stroke:rgb(0%,0%,0%);stroke-opacity:1;stroke-miterlimit:10;" d="M 43.171125 68.593214 L 38.854719 68.593214 L 38.854719 63.550699 L 43.171125 63.550699 L 43.171125 68.593214 L 38.854719 68.593214 L 41.010969 68.593214 L 41.010969 63.550699 L 41.010969 66.070003 L 38.854719 66.070003 L 43.171125 66.070003 " transform="matrix(1,0,0,-1.00009,0.907,158.126731)"/>
<path style="fill-rule:nonzero;fill:rgb(100%,100%,100%);fill-opacity:1;stroke-width:0.3985;stroke-linecap:butt;stroke-linejoin:miter;stroke:rgb(0%,0%,0%);stroke-opacity:1;stroke-miterlimit:10;" d="M 43.171125 78.682149 L 38.854719 78.682149 L 38.854719 73.635729 L 43.171125 73.635729 L 43.171125 78.682149 L 38.854719 78.682149 L 41.010969 78.682149 L 41.010969 73.635729 L 41.010969 76.158939 L 38.854719 76.158939 L 43.171125 76.158939 " transform="matrix(1,0,0,-1.00009,0.907,158.126731)"/>
<path style="fill-rule:nonzero;fill:rgb(100%,100%,100%);fill-opacity:1;stroke-width:0.3985;stroke-linecap:butt;stroke-linejoin:miter;stroke:rgb(0%,0%,0%);stroke-opacity:1;stroke-miterlimit:10;" d="M 56.120344 28.245282 L 51.803938 28.245282 L 51.803938 23.198862 L 56.120344 23.198862 L 56.120344 28.245282 L 51.803938 28.245282 L 53.964094 28.245282 L 53.964094 23.198862 L 53.964094 25.722072 L 51.803938 25.722072 L 56.120344 25.722072 " transform="matrix(1,0,0,-1.00009,0.907,158.126731)"/>
<path style="fill-rule:nonzero;fill:rgb(100%,100%,100%);fill-opacity:1;stroke-width:0.3985;stroke-linecap:butt;stroke-linejoin:miter;stroke:rgb(0%,0%,0%);stroke-opacity:1;stroke-miterlimit:10;" d="M 56.120344 38.330312 L 51.803938 38.330312 L 51.803938 33.287797 L 56.120344 33.287797 L 56.120344 38.330312 L 51.803938 38.330312 L 53.964094 38.330312 L 53.964094 33.287797 L 53.964094 35.811008 L 51.803938 35.811008 L 56.120344 35.811008 " transform="matrix(1,0,0,-1.00009,0.907,158.126731)"/>
<path style="fill-rule:nonzero;fill:rgb(100%,100%,100%);fill-opacity:1;stroke-width:0.3985;stroke-linecap:butt;stroke-linejoin:miter;stroke:rgb(0%,0%,0%);stroke-opacity:1;stroke-miterlimit:10;" d="M 56.120344 48.419248 L 51.803938 48.419248 L 51.803938 43.376733 L 56.120344 43.376733 L 56.120344 48.419248 L 51.803938 48.419248 L 53.964094 48.419248 L 53.964094 43.376733 L 53.964094 45.896038 L 51.803938 45.896038 L 56.120344 45.896038 " transform="matrix(1,0,0,-1.00009,0.907,158.126731)"/>
<path style="fill-rule:nonzero;fill:rgb(100%,100%,100%);fill-opacity:1;stroke-width:0.3985;stroke-linecap:butt;stroke-linejoin:miter;stroke:rgb(0%,0%,0%);stroke-opacity:1;stroke-miterlimit:10;" d="M 56.120344 58.504278 L 51.803938 58.504278 L 51.803938 53.461763 L 56.120344 53.461763 L 56.120344 58.504278 L 51.803938 58.504278 L 53.964094 58.504278 L 53.964094 53.461763 L 53.964094 55.984973 L 51.803938 55.984973 L 56.120344 55.984973 " transform="matrix(1,0,0,-1.00009,0.907,158.126731)"/>
<path style="fill-rule:nonzero;fill:rgb(100%,100%,100%);fill-opacity:1;stroke-width:0.3985;stroke-linecap:butt;stroke-linejoin:miter;stroke:rgb(0%,0%,0%);stroke-opacity:1;stroke-miterlimit:10;" d="M 56.120344 68.593214 L 51.803938 68.593214 L 51.803938 63.550699 L 56.120344 63.550699 L 56.120344 68.593214 L 51.803938 68.593214 L 53.964094 68.593214 L 53.964094 63.550699 L 53.964094 66.070003 L 51.803938 66.070003 L 56.120344 66.070003 " transform="matrix(1,0,0,-1.00009,0.907,158.126731)"/>
<path style="fill-rule:nonzero;fill:rgb(100%,100%,100%);fill-opacity:1;stroke-width:0.3985;stroke-linecap:butt;stroke-linejoin:miter;stroke:rgb(0%,0%,0%);stroke-opacity:1;stroke-miterlimit:10;" d="M 56.120344 78.682149 L 51.803938 78.682149 L 51.803938 73.635729 L 56.120344 73.635729 L 56.120344 78.682149 L 51.803938 78.682149 L 53.964094 78.682149 L 53.964094 73.635729 L 53.964094 76.158939 L 51.803938 76.158939 L 56.120344 76.158939 " transform="matrix(1,0,0,-1.00009,0.907,158.126731)"/>
<path style="fill-rule:nonzero;fill:rgb(100%,100%,100%);fill-opacity:1;stroke-width:0.3985;stroke-linecap:butt;stroke-linejoin:miter;stroke:rgb(0%,0%,0%);stroke-opacity:1;stroke-miterlimit:10;" d="M 69.073469 28.245282 L 64.757063 28.245282 L 64.757063 23.198862 L 69.073469 23.198862 L 69.073469 28.245282 L 64.757063 28.245282 L 66.913313 28.245282 L 66.913313 23.198862 L 66.913313 25.722072 L 64.757063 25.722072 L 69.073469 25.722072 " transform="matrix(1,0,0,-1.00009,0.907,158.126731)"/>
<path style="fill-rule:nonzero;fill:rgb(100%,100%,100%);fill-opacity:1;stroke-width:0.3985;stroke-linecap:butt;stroke-linejoin:miter;stroke:rgb(0%,0%,0%);stroke-opacity:1;stroke-miterlimit:10;" d="M 69.073469 38.330312 L 64.757063 38.330312 L 64.757063 33.287797 L 69.073469 33.287797 L 69.073469 38.330312 L 64.757063 38.330312 L 66.913313 38.330312 L 66.913313 33.287797 L 66.913313 35.811008 L 64.757063 35.811008 L 69.073469 35.811008 " transform="matrix(1,0,0,-1.00009,0.907,158.126731)"/>
<path style="fill-rule:nonzero;fill:rgb(100%,100%,100%);fill-opacity:1;stroke-width:0.3985;stroke-linecap:butt;stroke-linejoin:miter;stroke:rgb(0%,0%,0%);stroke-opacity:1;stroke-miterlimit:10;" d="M 69.073469 48.419248 L 64.757063 48.419248 L 64.757063 43.376733 L 69.073469 43.376733 L 69.073469 48.419248 L 64.757063 48.419248 L 66.913313 48.419248 L 66.913313 43.376733 L 66.913313 45.896038 L 64.757063 45.896038 L 69.073469 45.896038 " transform="matrix(1,0,0,-1.00009,0.907,158.126731)"/>
<path style="fill-rule:nonzero;fill:rgb(100%,100%,100%);fill-opacity:1;stroke-width:0.3985;stroke-linecap:butt;stroke-linejoin:miter;stroke:rgb(0%,0%,0%);stroke-opacity:1;stroke-miterlimit:10;" d="M 69.073469 58.504278 L 64.757063 58.504278 L 64.757063 53.461763 L 69.073469 53.461763 L 69.073469 58.504278 L 64.757063 58.504278 L 66.913313 58.504278 L 66.913313 53.461763 L 66.913313 55.984973 L 64.757063 55.984973 L 69.073469 55.984973 " transform="matrix(1,0,0,-1.00009,0.907,158.126731)"/>
<path style="fill-rule:nonzero;fill:rgb(100%,100%,100%);fill-opacity:1;stroke-width:0.3985;stroke-linecap:butt;stroke-linejoin:miter;stroke:rgb(0%,0%,0%);stroke-opacity:1;stroke-miterlimit:10;" d="M 69.073469 68.593214 L 64.757063 68.593214 L 64.757063 63.550699 L 69.073469 63.550699 L 69.073469 68.593214 L 64.757063 68.593214 L 66.913313 68.593214 L 66.913313 63.550699 L 66.913313 66.070003 L 64.757063 66.070003 L 69.073469 66.070003 " transform="matrix(1,0,0,-1.00009,0.907,158.126731)"/>
<path style="fill-rule:nonzero;fill:rgb(100%,100%,100%);fill-opacity:1;stroke-width:0.3985;stroke-linecap:butt;stroke-linejoin:miter;stroke:rgb(0%,0%,0%);stroke-opacity:1;stroke-miterlimit:10;" d="M 69.073469 78.682149 L 64.757063 78.682149 L 64.757063 73.635729 L 69.073469 73.635729 L 69.073469 78.682149 L 64.757063 78.682149 L 66.913313 78.682149 L 66.913313 73.635729 L 66.913313 76.158939 L 64.757063 76.158939 L 69.073469 76.158939 " transform="matrix(1,0,0,-1.00009,0.907,158.126731)"/>
<g clip-path="url(#clip1)" clip-rule="nonzero">
<path style="fill:none;stroke-width:0.3985;stroke-linecap:butt;stroke-linejoin:miter;stroke:rgb(0%,0%,0%);stroke-opacity:1;stroke-miterlimit:10;" d="M -0.00075 10.086761 L 194.268781 10.086761 " transform="matrix(1,0,0,-1.00009,0.907,158.126731)"/>
</g>
<g clip-path="url(#clip2)" clip-rule="nonzero">
<path style="fill:none;stroke-width:0.3985;stroke-linecap:butt;stroke-linejoin:miter;stroke:rgb(0%,50.193787%,59.999084%);stroke-opacity:1;stroke-miterlimit:10;" d="M 64.757063 90.786529 C 64.757063 90.786529 70.327375 106.5273 72.464094 111.784639 C 74.604719 117.038072 78.034406 124.553021 80.175031 128.665932 C 82.31175 132.778843 85.745344 138.45802 87.882063 141.426502 C 90.022688 144.398891 93.452375 148.246201 95.593 150.074162 C 97.729719 151.902122 101.163313 153.917566 103.300031 154.601098 C 105.440656 155.288536 108.870344 155.472113 111.010969 155.015123 C 113.147688 154.558133 116.581281 152.909844 118.718 151.308426 C 120.858625 149.710913 124.288313 146.226852 126.428938 143.484911 C 128.565656 140.74297 131.99925 135.430948 134.135969 131.544579 C 136.276594 127.662116 139.706281 120.514322 141.846906 115.487431 C 143.983625 110.460539 147.417219 101.484785 149.553938 95.313465 C 151.694563 89.146051 155.12425 78.334524 157.264875 71.022683 C 159.401594 63.710841 162.835188 51.067447 164.971906 42.615083 C 167.112531 34.158813 172.682844 10.086761 172.682844 10.086761 " transform="matrix(1,0,0,-1.00009,0.907,158.126731)"/>
</g>
<path style="fill-rule:nonzero;fill:rgb(0%,50.193787%,59.999084%);fill-opacity:1;stroke-width:0.3985;stroke-linecap:butt;stroke-linejoin:miter;stroke:rgb(0%,50.193787%,59.999084%);stroke-opacity:1;stroke-miterlimit:10;" d="M 66.74925 90.786529 C 66.74925 91.884086 65.854719 92.778537 64.757063 92.778537 C 63.6555 92.778537 62.764875 91.884086 62.764875 90.786529 C 62.764875 89.685065 63.6555 88.794521 64.757063 88.794521 C 65.854719 88.794521 66.74925 89.685065 66.74925 90.786529 Z M 66.74925 90.786529 " transform="matrix(1,0,0,-1.00009,0.907,158.126731)"/>
<path style="fill-rule:nonzero;fill:rgb(0%,50.193787%,59.999084%);fill-opacity:1;stroke-width:0.3985;stroke-linecap:butt;stroke-linejoin:miter;stroke:rgb(0%,50.193787%,59.999084%);stroke-opacity:1;stroke-miterlimit:10;" d="M 74.456281 111.784639 C 74.456281 112.882196 73.565656 113.776647 72.464094 113.776647 C 71.362531 113.776647 70.471906 112.882196 70.471906 111.784639 C 70.471906 110.683176 71.362531 109.792631 72.464094 109.792631 C 73.565656 109.792631 74.456281 110.683176 74.456281 111.784639 Z M 74.456281 111.784639 " transform="matrix(1,0,0,-1.00009,0.907,158.126731)"/>
<path style="fill-rule:nonzero;fill:rgb(0%,50.193787%,59.999084%);fill-opacity:1;stroke-width:0.3985;stroke-linecap:butt;stroke-linejoin:miter;stroke:rgb(0%,50.193787%,59.999084%);stroke-opacity:1;stroke-miterlimit:10;" d="M 82.167219 128.665932 C 82.167219 129.76349 81.272688 130.65794 80.175031 130.65794 C 79.073469 130.65794 78.182844 129.76349 78.182844 128.665932 C 78.182844 127.564469 79.073469 126.670018 80.175031 126.670018 C 81.272688 126.670018 82.167219 127.564469 82.167219 128.665932 Z M 82.167219 128.665932 " transform="matrix(1,0,0,-1.00009,0.907,158.126731)"/>
<path style="fill-rule:nonzero;fill:rgb(0%,50.193787%,59.999084%);fill-opacity:1;stroke-width:0.3985;stroke-linecap:butt;stroke-linejoin:miter;stroke:rgb(0%,50.193787%,59.999084%);stroke-opacity:1;stroke-miterlimit:10;" d="M 89.87425 141.426502 C 89.87425 142.527966 88.983625 143.418511 87.882063 143.418511 C 86.784406 143.418511 85.889875 142.527966 85.889875 141.426502 C 85.889875 140.328945 86.784406 139.434494 87.882063 139.434494 C 88.983625 139.434494 89.87425 140.328945 89.87425 141.426502 Z M 89.87425 141.426502 " transform="matrix(1,0,0,-1.00009,0.907,158.126731)"/>
<path style="fill-rule:nonzero;fill:rgb(0%,50.193787%,59.999084%);fill-opacity:1;stroke-width:0.3985;stroke-linecap:butt;stroke-linejoin:miter;stroke:rgb(0%,50.193787%,59.999084%);stroke-opacity:1;stroke-miterlimit:10;" d="M 97.585188 150.074162 C 97.585188 151.175625 96.690656 152.06617 95.593 152.06617 C 94.491438 152.06617 93.600813 151.175625 93.600813 150.074162 C 93.600813 148.972698 94.491438 148.082153 95.593 148.082153 C 96.690656 148.082153 97.585188 148.972698 97.585188 150.074162 Z M 97.585188 150.074162 " transform="matrix(1,0,0,-1.00009,0.907,158.126731)"/>
<path style="fill-rule:nonzero;fill:rgb(0%,50.193787%,59.999084%);fill-opacity:1;stroke-width:0.3985;stroke-linecap:butt;stroke-linejoin:miter;stroke:rgb(0%,50.193787%,59.999084%);stroke-opacity:1;stroke-miterlimit:10;" d="M 105.292219 154.601098 C 105.292219 155.702561 104.401594 156.597012 103.300031 156.597012 C 102.202375 156.597012 101.307844 155.702561 101.307844 154.601098 C 101.307844 153.50354 102.202375 152.60909 103.300031 152.60909 C 104.401594 152.60909 105.292219 153.50354 105.292219 154.601098 Z M 105.292219 154.601098 " transform="matrix(1,0,0,-1.00009,0.907,158.126731)"/>
<path style="fill-rule:nonzero;fill:rgb(0%,50.193787%,59.999084%);fill-opacity:1;stroke-width:0.3985;stroke-linecap:butt;stroke-linejoin:miter;stroke:rgb(0%,50.193787%,59.999084%);stroke-opacity:1;stroke-miterlimit:10;" d="M 113.003156 155.015123 C 113.003156 156.116587 112.108625 157.007131 111.010969 157.007131 C 109.909406 157.007131 109.018781 156.116587 109.018781 155.015123 C 109.018781 153.91366 109.909406 153.023115 111.010969 153.023115 C 112.108625 153.023115 113.003156 153.91366 113.003156 155.015123 Z M 113.003156 155.015123 " transform="matrix(1,0,0,-1.00009,0.907,158.126731)"/>
<path style="fill-rule:nonzero;fill:rgb(0%,50.193787%,59.999084%);fill-opacity:1;stroke-width:0.3985;stroke-linecap:butt;stroke-linejoin:miter;stroke:rgb(0%,50.193787%,59.999084%);stroke-opacity:1;stroke-miterlimit:10;" d="M 120.710188 151.308426 C 120.710188 152.409889 119.819563 153.300434 118.718 153.300434 C 117.620344 153.300434 116.725813 152.409889 116.725813 151.308426 C 116.725813 150.206962 117.620344 149.316417 118.718 149.316417 C 119.819563 149.316417 120.710188 150.206962 120.710188 151.308426 Z M 120.710188 151.308426 " transform="matrix(1,0,0,-1.00009,0.907,158.126731)"/>
<path style="fill-rule:nonzero;fill:rgb(0%,50.193787%,59.999084%);fill-opacity:1;stroke-width:0.3985;stroke-linecap:butt;stroke-linejoin:miter;stroke:rgb(0%,50.193787%,59.999084%);stroke-opacity:1;stroke-miterlimit:10;" d="M 128.421125 143.484911 C 128.421125 144.586374 127.5305 145.476919 126.428938 145.476919 C 125.327375 145.476919 124.43675 144.586374 124.43675 143.484911 C 124.43675 142.387353 125.327375 141.492903 126.428938 141.492903 C 127.5305 141.492903 128.421125 142.387353 128.421125 143.484911 Z M 128.421125 143.484911 " transform="matrix(1,0,0,-1.00009,0.907,158.126731)"/>
<path style="fill-rule:nonzero;fill:rgb(0%,50.193787%,59.999084%);fill-opacity:1;stroke-width:0.3985;stroke-linecap:butt;stroke-linejoin:miter;stroke:rgb(0%,50.193787%,59.999084%);stroke-opacity:1;stroke-miterlimit:10;" d="M 136.128156 131.544579 C 136.128156 132.646043 135.237531 133.540493 134.135969 133.540493 C 133.038313 133.540493 132.143781 132.646043 132.143781 131.544579 C 132.143781 130.447022 133.038313 129.552571 134.135969 129.552571 C 135.237531 129.552571 136.128156 130.447022 136.128156 131.544579 Z M 136.128156 131.544579 " transform="matrix(1,0,0,-1.00009,0.907,158.126731)"/>
<path style="fill-rule:nonzero;fill:rgb(0%,50.193787%,59.999084%);fill-opacity:1;stroke-width:0.3985;stroke-linecap:butt;stroke-linejoin:miter;stroke:rgb(0%,50.193787%,59.999084%);stroke-opacity:1;stroke-miterlimit:10;" d="M 143.839094 115.487431 C 143.839094 116.588894 142.948469 117.483345 141.846906 117.483345 C 140.745344 117.483345 139.854719 116.588894 139.854719 115.487431 C 139.854719 114.389873 140.745344 113.495422 141.846906 113.495422 C 142.948469 113.495422 143.839094 114.389873 143.839094 115.487431 Z M 143.839094 115.487431 " transform="matrix(1,0,0,-1.00009,0.907,158.126731)"/>
<path style="fill-rule:nonzero;fill:rgb(0%,50.193787%,59.999084%);fill-opacity:1;stroke-width:0.3985;stroke-linecap:butt;stroke-linejoin:miter;stroke:rgb(0%,50.193787%,59.999084%);stroke-opacity:1;stroke-miterlimit:10;" d="M 151.546125 95.313465 C 151.546125 96.414928 150.6555 97.305473 149.553938 97.305473 C 148.456281 97.305473 147.56175 96.414928 147.56175 95.313465 C 147.56175 94.212002 148.456281 93.321457 149.553938 93.321457 C 150.6555 93.321457 151.546125 94.212002 151.546125 95.313465 Z M 151.546125 95.313465 " transform="matrix(1,0,0,-1.00009,0.907,158.126731)"/>
<path style="fill-rule:nonzero;fill:rgb(0%,50.193787%,59.999084%);fill-opacity:1;stroke-width:0.3985;stroke-linecap:butt;stroke-linejoin:miter;stroke:rgb(0%,50.193787%,59.999084%);stroke-opacity:1;stroke-miterlimit:10;" d="M 159.257063 71.022683 C 159.257063 72.124146 158.366438 73.014691 157.264875 73.014691 C 156.163313 73.014691 155.272688 72.124146 155.272688 71.022683 C 155.272688 69.921219 156.163313 69.030674 157.264875 69.030674 C 158.366438 69.030674 159.257063 69.921219 159.257063 71.022683 Z M 159.257063 71.022683 " transform="matrix(1,0,0,-1.00009,0.907,158.126731)"/>
<path style="fill-rule:nonzero;fill:rgb(0%,50.193787%,59.999084%);fill-opacity:1;stroke-width:0.3985;stroke-linecap:butt;stroke-linejoin:miter;stroke:rgb(0%,50.193787%,59.999084%);stroke-opacity:1;stroke-miterlimit:10;" d="M 166.964094 42.615083 C 166.964094 43.71264 166.073469 44.607091 164.971906 44.607091 C 163.87425 44.607091 162.979719 43.71264 162.979719 42.615083 C 162.979719 41.51362 163.87425 40.619169 164.971906 40.619169 C 166.073469 40.619169 166.964094 41.51362 166.964094 42.615083 Z M 166.964094 42.615083 " transform="matrix(1,0,0,-1.00009,0.907,158.126731)"/>
<path style=" stroke:none;fill-rule:nonzero;fill:rgb(0%,50.193787%,59.999084%);fill-opacity:1;" d="M 175.582031 148.039062 C 175.582031 146.9375 174.691406 146.046875 173.589844 146.046875 C 172.488281 146.046875 171.597656 146.9375 171.597656 148.039062 C 171.597656 149.140625 172.488281 150.03125 173.589844 150.03125 C 174.691406 150.03125 175.582031 149.140625 175.582031 148.039062 Z M 175.582031 148.039062 "/>
<g clip-path="url(#clip3)" clip-rule="nonzero">
<path style="fill:none;stroke-width:0.3985;stroke-linecap:butt;stroke-linejoin:miter;stroke:rgb(0%,50.193787%,59.999084%);stroke-opacity:1;stroke-miterlimit:10;" d="M 174.675031 10.086761 C 174.675031 11.188224 173.784406 12.078769 172.682844 12.078769 C 171.581281 12.078769 170.690656 11.188224 170.690656 10.086761 C 170.690656 8.985297 171.581281 8.094752 172.682844 8.094752 C 173.784406 8.094752 174.675031 8.985297 174.675031 10.086761 Z M 174.675031 10.086761 " transform="matrix(1,0,0,-1.00009,0.907,158.126731)"/>
</g>
</g>
</svg>
