<?xml version="1.0" encoding="utf-8" standalone="no"?>
<!DOCTYPE svg PUBLIC "-//W3C//DTD SVG 1.1//EN"
  "http://www.w3.org/Graphics/SVG/1.1/DTD/svg11.dtd">
<svg xmlns:xlink="http://www.w3.org/1999/xlink" width="568.8pt" height="409.016386pt" viewBox="0 0 568.8 409.016386" xmlns="http://www.w3.org/2000/svg" version="1.1">
 <metadata>
  <rdf:RDF xmlns:dc="http://purl.org/dc/elements/1.1/" xmlns:cc="http://creativecommons.org/ns#" xmlns:rdf="http://www.w3.org/1999/02/22-rdf-syntax-ns#">
   <cc:Work>
    <dc:type rdf:resource="http://purl.org/dc/dcmitype/StillImage"/>
    <dc:date>2025-03-07T13:34:33.709367</dc:date>
    <dc:format>image/svg+xml</dc:format>
    <dc:creator>
     <cc:Agent>
      <dc:title>Matplotlib v3.8.0, https://matplotlib.org/</dc:title>
     </cc:Agent>
    </dc:creator>
   </cc:Work>
  </rdf:RDF>
 </metadata>
 <defs>
  <style type="text/css">*{stroke-linejoin: round; stroke-linecap: butt}</style>
 </defs>
 <g id="figure_1">
  <g id="patch_1">
   <path d="M 0 409.016386 
L 568.8 409.016386 
L 568.8 0 
L 0 0 
z
" style="fill: #ffffff"/>
  </g>
  <g id="axes_1">
   <g id="patch_2">
    <path d="M 7.2 401.816386 
L 561.6 401.816386 
L 561.6 7.2 
L 7.2 7.2 
z
" style="fill: #ffffff"/>
   </g>
   <g id="patch_3">
    <path d="M 242.695542 222.296907 
Q 289.031854 199.746008 319.653321 243.943098 
" clip-path="url(#p411591ca93)" style="fill: none; stroke: #ff0000; stroke-width: 2; stroke-linecap: round"/>
    <path d="M 253.875241 222.416687 
L 242.695542 222.296907 
L 249.499185 213.425016 
z
" clip-path="url(#p411591ca93)" style="fill: #ff0000; stroke: #ff0000; stroke-width: 2; stroke-linecap: round"/>
   </g>
   <g id="patch_4">
    <path d="M 235.030302 244.88104 
Q 265.651769 289.07813 311.988081 266.527231 
" clip-path="url(#p411591ca93)" style="fill: none; stroke: #ffb300; stroke-width: 2; stroke-linecap: round"/>
    <path d="M 300.808382 266.407451 
L 311.988081 266.527231 
L 305.184438 275.399122 
z
" clip-path="url(#p411591ca93)" style="fill: #ffb300; stroke: #ffb300; stroke-width: 2; stroke-linecap: round"/>
   </g>
   <g id="patch_5">
    <path d="M 244.394606 233.92179 
Q 283.853296 240.397928 281.818393 198.224319 
" clip-path="url(#p411591ca93)" style="fill: none; stroke: #ff0000; stroke-width: 2; stroke-linecap: round"/>
    <path d="M 253.452795 240.475355 
L 244.394606 233.92179 
L 255.072371 230.607378 
z
" clip-path="url(#p411591ca93)" style="fill: #ff0000; stroke: #ff0000; stroke-width: 2; stroke-linecap: round"/>
   </g>
   <g id="patch_6">
    <path d="M 224.43499 213.648685 
Q 222.400087 171.475076 261.858777 177.951214 
" clip-path="url(#p411591ca93)" style="fill: none; stroke: #f0ff00; stroke-width: 2; stroke-linecap: round"/>
    <path d="M 252.800588 171.397649 
L 261.858777 177.951214 
L 251.181012 181.265626 
z
" clip-path="url(#p411591ca93)" style="fill: #f0ff00; stroke: #f0ff00; stroke-width: 2; stroke-linecap: round"/>
   </g>
   <g id="patch_7">
    <path d="M 238.118583 216.268513 
Q 285.734728 162.51866 261.26864 92.63384 
" clip-path="url(#p411591ca93)" style="fill: none; stroke: #ff0000; stroke-width: 2; stroke-linecap: round"/>
    <path d="M 248.492274 212.098795 
L 238.118583 216.268513 
L 241.007023 205.46773 
z
" clip-path="url(#p411591ca93)" style="fill: #ff0000; stroke: #ff0000; stroke-width: 2; stroke-linecap: round"/>
   </g>
   <g id="patch_8">
    <path d="M 219.593891 214.592205 
Q 195.127803 144.707384 242.743947 90.957532 
" clip-path="url(#p411591ca93)" style="fill: none; stroke: #3cff00; stroke-width: 2; stroke-linecap: round"/>
    <path d="M 232.370257 95.12725 
L 242.743947 90.957532 
L 239.855508 101.758315 
z
" clip-path="url(#p411591ca93)" style="fill: #3cff00; stroke: #3cff00; stroke-width: 2; stroke-linecap: round"/>
   </g>
   <g id="patch_9">
    <path d="M 242.08703 221.146395 
Q 284.293622 196.976379 262.564669 150.976909 
" clip-path="url(#p411591ca93)" style="fill: none; stroke: #ff0000; stroke-width: 2; stroke-linecap: round"/>
    <path d="M 253.249576 220.515867 
L 242.08703 221.146395 
L 248.280135 211.838041 
z
" clip-path="url(#p411591ca93)" style="fill: #ff0000; stroke: #ff0000; stroke-width: 2; stroke-linecap: round"/>
   </g>
   <g id="patch_10">
    <path d="M 216.980297 213.250228 
Q 196.20641 169.2726 240.353423 143.991383 
" clip-path="url(#p411591ca93)" style="fill: none; stroke: #ff0000; stroke-width: 2; stroke-linecap: round"/>
    <path d="M 217.23009 202.072679 
L 216.980297 213.250228 
L 208.188134 206.343864 
z
" clip-path="url(#p411591ca93)" style="fill: #ff0000; stroke: #ff0000; stroke-width: 2; stroke-linecap: round"/>
   </g>
   <g id="patch_11">
    <path d="M 365.139574 55.481484 
Q 328.372405 103.51638 273.773063 83.204728 
" clip-path="url(#p411591ca93)" style="fill: none; stroke: #3cff00; stroke-width: 2; stroke-linecap: round"/>
    <path d="M 281.402189 91.377637 
L 273.773063 83.204728 
L 284.888866 82.005172 
z
" clip-path="url(#p411591ca93)" style="fill: #3cff00; stroke: #3cff00; stroke-width: 2; stroke-linecap: round"/>
   </g>
   <g id="patch_12">
    <path d="M 357.393069 35.100428 
Q 302.793727 14.788777 266.026559 62.823672 
" clip-path="url(#p411591ca93)" style="fill: none; stroke: #00d1ff; stroke-width: 2; stroke-linecap: round"/>
    <path d="M 349.763943 26.92752 
L 357.393069 35.100428 
L 346.277267 36.299984 
z
" clip-path="url(#p411591ca93)" style="fill: #00d1ff; stroke: #00d1ff; stroke-width: 2; stroke-linecap: round"/>
   </g>
   <g id="patch_13">
    <path d="M 131.286196 100.593603 
Q 112.841093 156.060653 52.163772 154.839845 
" clip-path="url(#p411591ca93)" style="fill: none; stroke: #0078ff; stroke-width: 2; stroke-linecap: round"/>
    <path d="M 123.386138 108.50493 
L 131.286196 100.593603 
L 132.875223 111.660445 
z
" clip-path="url(#p411591ca93)" style="fill: #0078ff; stroke: #0078ff; stroke-width: 2; stroke-linecap: round"/>
   </g>
   <g id="patch_14">
    <path d="M 120.255018 81.850253 
Q 59.577698 80.629445 41.132595 136.096495 
" clip-path="url(#p411591ca93)" style="fill: none; stroke: #001dff; stroke-width: 2; stroke-linecap: round"/>
    <path d="M 49.032653 128.185168 
L 41.132595 136.096495 
L 39.543568 125.029653 
z
" clip-path="url(#p411591ca93)" style="fill: #001dff; stroke: #001dff; stroke-width: 2; stroke-linecap: round"/>
   </g>
   <g id="matplotlib.axis_1"/>
   <g id="matplotlib.axis_2"/>
   <g id="patch_15">
    <path d="M 303.056879 346.509119 
Q 268.943983 295.76306 236.07857 246.872745 
" clip-path="url(#p411591ca93)" style="fill: none; stroke: #ff0000; stroke-width: 2; stroke-linecap: round"/>
    <path d="M 237.50791 257.961342 
L 236.07857 246.872745 
L 245.807052 252.382431 
z
" clip-path="url(#p411591ca93)" style="fill: #ff0000; stroke: #ff0000; stroke-width: 2; stroke-linecap: round"/>
   </g>
   <g id="patch_16">
    <path d="M 206.759458 236.578036 
Q 157.284539 252.077696 105.675814 268.245842 
" clip-path="url(#p411591ca93)" style="fill: none; stroke: #ff0000; stroke-width: 2; stroke-linecap: round"/>
    <path d="M 195.722009 234.796259 
L 206.759458 236.578036 
L 198.711567 244.338928 
z
" clip-path="url(#p411591ca93)" style="fill: #ff0000; stroke: #ff0000; stroke-width: 2; stroke-linecap: round"/>
   </g>
   <g id="patch_17">
    <path d="M 208.728176 226.213881 
Q 158.054965 212.214338 109.537081 198.810251 
" clip-path="url(#p411591ca93)" style="fill: none; stroke: #ff5900; stroke-width: 2; stroke-linecap: round"/>
    <path d="M 117.84452 206.292661 
L 109.537081 198.810251 
L 120.507473 196.653747 
z
" clip-path="url(#p411591ca93)" style="fill: #ff5900; stroke: #ff5900; stroke-width: 2; stroke-linecap: round"/>
   </g>
   <g id="patch_18">
    <path d="M 318.502484 274.064246 
Q 289.909296 316.0179 260.056797 359.819291 
" clip-path="url(#p411591ca93)" style="fill: none; stroke: #ffb300; stroke-width: 2; stroke-linecap: round"/>
    <path d="M 308.739006 279.511675 
L 318.502484 274.064246 
L 317.00234 285.143486 
z
" clip-path="url(#p411591ca93)" style="fill: #ffb300; stroke: #ffb300; stroke-width: 2; stroke-linecap: round"/>
   </g>
   <g id="patch_19">
    <path d="M 320.285458 243.525484 
Q 305.206839 219.566966 291.319266 197.500908 
" clip-path="url(#p411591ca93)" style="fill: none; stroke: #f0ff00; stroke-width: 2; stroke-linecap: round"/>
    <path d="M 292.414115 208.627511 
L 291.319266 197.500908 
L 300.877458 203.300991 
z
" clip-path="url(#p411591ca93)" style="fill: #f0ff00; stroke: #f0ff00; stroke-width: 2; stroke-linecap: round"/>
   </g>
   <g id="patch_20">
    <path d="M 237.694023 218.963959 
Q 277.955922 180.692793 316.597122 143.96219 
" clip-path="url(#p411591ca93)" style="fill: none; stroke: #96ff00; stroke-width: 2; stroke-linecap: round"/>
    <path d="M 305.904333 147.227809 
L 316.597122 143.96219 
L 312.793943 154.475793 
z
" clip-path="url(#p411591ca93)" style="fill: #96ff00; stroke: #96ff00; stroke-width: 2; stroke-linecap: round"/>
   </g>
   <g id="patch_21">
    <path d="M 239.01749 66.398453 
Q 236.13079 64.649729 231.331578 61.742431 
" clip-path="url(#p411591ca93)" style="fill: none; stroke: #3cff00; stroke-width: 2; stroke-linecap: round"/>
    <path d="M 233.055124 56.940642 
L 239.01749 66.398453 
L 227.873821 65.493659 
z
" clip-path="url(#p411591ca93)" style="fill: #3cff00; stroke: #3cff00; stroke-width: 2; stroke-linecap: round"/>
   </g>
   <g id="patch_22">
    <path d="M 215.710824 245.029475 
Q 186.82318 288.123839 159.180597 329.360833 
" clip-path="url(#p411591ca93)" style="fill: none; stroke: #00ff1e; stroke-width: 2; stroke-linecap: round"/>
    <path d="M 168.901881 323.838457 
L 159.180597 329.360833 
L 160.595467 318.27038 
z
" clip-path="url(#p411591ca93)" style="fill: #00ff1e; stroke: #00ff1e; stroke-width: 2; stroke-linecap: round"/>
   </g>
   <g id="patch_23">
    <path d="M 73.984832 371.42418 
Q 103.087059 361.270415 130.078032 351.853267 
" clip-path="url(#p411591ca93)" style="fill: none; stroke: #00ff1e; stroke-width: 2; stroke-linecap: round"/>
    <path d="M 118.989089 350.426608 
L 130.078032 351.853267 
L 122.283339 359.868425 
z
" clip-path="url(#p411591ca93)" style="fill: #00ff1e; stroke: #00ff1e; stroke-width: 2; stroke-linecap: round"/>
   </g>
   <g id="patch_24">
    <path d="M 338.394591 243.423633 
Q 366.299597 197.958655 393.034919 154.399416 
" clip-path="url(#p411591ca93)" style="fill: none; stroke: #00ff78; stroke-width: 2; stroke-linecap: round"/>
    <path d="M 383.542572 160.306646 
L 393.034919 154.399416 
L 392.065295 165.537631 
z
" clip-path="url(#p411591ca93)" style="fill: #00ff78; stroke: #00ff78; stroke-width: 2; stroke-linecap: round"/>
   </g>
   <g id="patch_25">
    <path d="M 380.305983 58.345435 
Q 389.37125 89.867747 397.81851 119.24109 
" clip-path="url(#p411591ca93)" style="fill: none; stroke: #00ff78; stroke-width: 2; stroke-linecap: round"/>
    <path d="M 399.859945 108.248704 
L 397.81851 119.24109 
L 390.249462 111.012511 
z
" clip-path="url(#p411591ca93)" style="fill: #00ff78; stroke: #00ff78; stroke-width: 2; stroke-linecap: round"/>
   </g>
   <g id="patch_26">
    <path d="M 273.300382 165.759612 
Q 248.826217 116.973209 225.354704 70.185477 
" clip-path="url(#p411591ca93)" style="fill: none; stroke: #00ffd1; stroke-width: 2; stroke-linecap: round"/>
    <path d="M 225.369538 81.365808 
L 225.354704 70.185477 
L 234.307868 76.881809 
z
" clip-path="url(#p411591ca93)" style="fill: #00ffd1; stroke: #00ffd1; stroke-width: 2; stroke-linecap: round"/>
   </g>
   <g id="patch_27">
    <path d="M 338.396054 115.299674 
Q 353.107723 86.232348 366.809629 59.160112 
" clip-path="url(#p411591ca93)" style="fill: none; stroke: #00d1ff; stroke-width: 2; stroke-linecap: round"/>
    <path d="M 357.83268 65.824524 
L 366.809629 59.160112 
L 366.754989 70.340318 
z
" clip-path="url(#p411591ca93)" style="fill: #00d1ff; stroke: #00d1ff; stroke-width: 2; stroke-linecap: round"/>
   </g>
   <g id="patch_28">
    <path d="M 238.468281 77.278026 
Q 196.502633 79.319866 156.770411 81.253039 
" clip-path="url(#p411591ca93)" style="fill: none; stroke: #0078ff; stroke-width: 2; stroke-linecap: round"/>
    <path d="M 167.001583 85.761156 
L 156.770411 81.253039 
L 166.515608 75.772971 
z
" clip-path="url(#p411591ca93)" style="fill: #0078ff; stroke: #0078ff; stroke-width: 2; stroke-linecap: round"/>
   </g>
   <g id="patch_29">
    <path d="M 50.889251 165.626698 
Q 62.931329 174.070938 76.804208 183.798987 
" clip-path="url(#p411591ca93)" style="fill: none; stroke: #001dff; stroke-width: 2; stroke-linecap: round"/>
    <path d="M 56.20616 175.461863 
L 50.889251 165.626698 
L 61.947529 167.27427 
z
" clip-path="url(#p411591ca93)" style="fill: #001dff; stroke: #001dff; stroke-width: 2; stroke-linecap: round"/>
   </g>
   <g id="patch_30">
    <path d="M 153.034181 89.26143 
Q 196.321384 108.831334 237.571069 127.480086 
" clip-path="url(#p411591ca93)" style="fill: none; stroke: #3c00ff; stroke-width: 2; stroke-linecap: round"/>
    <path d="M 230.518766 118.804545 
L 237.571069 127.480086 
L 226.399254 127.916605 
z
" clip-path="url(#p411591ca93)" style="fill: #3c00ff; stroke: #3c00ff; stroke-width: 2; stroke-linecap: round"/>
   </g>
   <g id="patch_31">
    <path d="M 386.026652 137.595687 
Q 329.207801 136.671076 274.624722 135.782848 
" clip-path="url(#p411591ca93)" style="fill: none; stroke: #3c00ff; stroke-width: 2; stroke-linecap: round"/>
    <path d="M 284.542045 140.944894 
L 274.624722 135.782848 
L 284.704753 130.946218 
z
" clip-path="url(#p411591ca93)" style="fill: #3c00ff; stroke: #3c00ff; stroke-width: 2; stroke-linecap: round"/>
   </g>
   <g id="patch_32">
    <path d="M 42.140248 170.097449 
Q 62.160902 213.934296 81.25262 255.737162 
" clip-path="url(#p411591ca93)" style="fill: none; stroke: #9500ff; stroke-width: 2; stroke-linecap: round"/>
    <path d="M 81.646411 244.563759 
L 81.25262 255.737162 
L 72.550173 248.718087 
z
" clip-path="url(#p411591ca93)" style="fill: #9500ff; stroke: #9500ff; stroke-width: 2; stroke-linecap: round"/>
   </g>
   <g id="patch_33">
    <path d="M 101.596756 288.370529 
Q 118.846055 309.41993 137.512649 332.198861 
" clip-path="url(#p411591ca93)" style="fill: none; stroke: #9500ff; stroke-width: 2; stroke-linecap: round"/>
    <path d="M 104.06774 299.274392 
L 101.596756 288.370529 
L 111.802437 292.93606 
z
" clip-path="url(#p411591ca93)" style="fill: #9500ff; stroke: #9500ff; stroke-width: 2; stroke-linecap: round"/>
   </g>
   <g id="patch_34">
    <path d="M 84.319415 289.785374 
Q 73.548417 325.224272 63.427662 358.523734 
" clip-path="url(#p411591ca93)" style="fill: none; stroke: #f000ff; stroke-width: 2; stroke-linecap: round"/>
    <path d="M 71.119556 350.409871 
L 63.427662 358.523734 
L 61.551708 347.501901 
z
" clip-path="url(#p411591ca93)" style="fill: #f000ff; stroke: #f000ff; stroke-width: 2; stroke-linecap: round"/>
   </g>
   <g id="patch_35">
    <path d="M 164.903795 350.085567 
Q 199.390665 359.72967 231.724084 368.77157 
" clip-path="url(#p411591ca93)" style="fill: none; stroke: #ff00b4; stroke-width: 2; stroke-linecap: round"/>
    <path d="M 223.440125 361.263172 
L 231.724084 368.77157 
L 220.746991 370.893698 
z
" clip-path="url(#p411591ca93)" style="fill: #ff00b4; stroke: #ff00b4; stroke-width: 2; stroke-linecap: round"/>
   </g>
   <g id="patch_36">
    <path d="M 419.704655 133.28515 
Q 468.481421 119.739951 515.103652 106.793062 
" clip-path="url(#p411591ca93)" style="fill: none; stroke: #ff005a; stroke-width: 2; stroke-linecap: round"/>
    <path d="M 504.130412 104.651096 
L 515.103652 106.793062 
L 506.806135 114.286474 
z
" clip-path="url(#p411591ca93)" style="fill: #ff005a; stroke: #ff005a; stroke-width: 2; stroke-linecap: round"/>
   </g>
   <g id="patch_37">
    <path d="M 241.855604 235.124587 
Q 277.341812 244.412069 310.664811 253.133395 
" clip-path="url(#p411591ca93)" style="fill: none; stroke: #ffb300; stroke-width: 2; stroke-linecap: round"/>
    <path d="M 302.256618 245.764386 
L 310.664811 253.133395 
L 299.724689 255.438544 
z
" clip-path="url(#p411591ca93)" style="fill: #ffb300; stroke: #ffb300; stroke-width: 2; stroke-linecap: round"/>
   </g>
   <g id="patch_38">
    <path d="M 312.626302 377.897366 
C 317.175292 377.897366 321.538579 376.090033 324.755201 372.873412 
C 327.971822 369.65679 329.779155 365.293503 329.779155 360.744514 
C 329.779155 356.195524 327.971822 351.832237 324.755201 348.615615 
C 321.538579 345.398994 317.175292 343.591661 312.626302 343.591661 
C 308.077313 343.591661 303.714026 345.398994 300.497404 348.615615 
C 297.280783 351.832237 295.47345 356.195524 295.47345 360.744514 
C 295.47345 365.293503 297.280783 369.65679 300.497404 372.873412 
C 303.714026 376.090033 308.077313 377.897366 312.626302 377.897366 
z
" style="fill: #fec7b8; stroke: #000000; stroke-linejoin: miter"/>
   </g>
   <g id="patch_39">
    <path d="M 225.261664 247.934458 
C 229.810653 247.934458 234.173941 246.127125 237.390562 242.910504 
C 240.607183 239.693882 242.414516 235.330595 242.414516 230.781605 
C 242.414516 226.232616 240.607183 221.869329 237.390562 218.652707 
C 234.173941 215.436086 229.810653 213.628753 225.261664 213.628753 
C 220.712674 213.628753 216.349387 215.436086 213.132766 218.652707 
C 209.916144 221.869329 208.108812 226.232616 208.108812 230.781605 
C 208.108812 235.330595 209.916144 239.693882 213.132766 242.910504 
C 216.349387 246.127125 220.712674 247.934458 225.261664 247.934458 
z
" style="fill: #fec7b8; stroke: #000000; stroke-linejoin: miter"/>
   </g>
   <g id="patch_40">
    <path d="M 255.238369 152.620226 
C 259.787358 152.620226 264.150646 150.812894 267.367267 147.596272 
C 270.583888 144.379651 272.391221 140.016364 272.391221 135.467374 
C 272.391221 130.918384 270.583888 126.555097 267.367267 123.338476 
C 264.150646 120.121854 259.787358 118.314522 255.238369 118.314522 
C 250.689379 118.314522 246.326092 120.121854 243.109471 123.338476 
C 239.892849 126.555097 238.085516 130.918384 238.085516 135.467374 
C 238.085516 140.016364 239.892849 144.379651 243.109471 147.596272 
C 246.326092 150.812894 250.689379 152.620226 255.238369 152.620226 
z
" style="fill: #fec7b8; stroke: #000000; stroke-linejoin: miter"/>
   </g>
   <g id="patch_41">
    <path d="M 403.177234 155.02763 
C 407.726223 155.02763 412.089511 153.220298 415.306132 150.003676 
C 418.522753 146.787055 420.330086 142.423768 420.330086 137.874778 
C 420.330086 133.325788 418.522753 128.962501 415.306132 125.74588 
C 412.089511 122.529258 407.726223 120.721926 403.177234 120.721926 
C 398.628244 120.721926 394.264957 122.529258 391.048336 125.74588 
C 387.831714 128.962501 386.024381 133.325788 386.024381 137.874778 
C 386.024381 142.423768 387.831714 146.787055 391.048336 150.003676 
C 394.264957 153.220298 398.628244 155.02763 403.177234 155.02763 
z
" style="fill: #fec7b8; stroke: #000000; stroke-linejoin: miter"/>
   </g>
   <g id="patch_42">
    <path d="M 375.565266 59.013569 
C 380.114255 59.013569 384.477543 57.206237 387.694164 53.989615 
C 390.910785 50.772994 392.718118 46.409707 392.718118 41.860717 
C 392.718118 37.311727 390.910785 32.94844 387.694164 29.731819 
C 384.477543 26.515197 380.114255 24.707865 375.565266 24.707865 
C 371.016276 24.707865 366.652989 26.515197 363.436368 29.731819 
C 360.219746 32.94844 358.412413 37.311727 358.412413 41.860717 
C 358.412413 46.409707 360.219746 50.772994 363.436368 53.989615 
C 366.652989 57.206237 371.016276 59.013569 375.565266 59.013569 
z
" style="fill: #fec7b8; stroke: #000000; stroke-linejoin: miter"/>
   </g>
   <g id="patch_43">
    <path d="M 255.600867 93.597292 
C 260.149856 93.597292 264.513143 91.789959 267.729765 88.573338 
C 270.946386 85.356716 272.753719 80.993429 272.753719 76.444439 
C 272.753719 71.89545 270.946386 67.532163 267.729765 64.315541 
C 264.513143 61.09892 260.149856 59.291587 255.600867 59.291587 
C 251.051877 59.291587 246.68859 61.09892 243.471968 64.315541 
C 240.255347 67.532163 238.448014 71.89545 238.448014 76.444439 
C 238.448014 80.993429 240.255347 85.356716 243.471968 88.573338 
C 246.68859 91.789959 251.051877 93.597292 255.600867 93.597292 
z
" style="fill: #fec7b8; stroke: #000000; stroke-linejoin: miter"/>
   </g>
   <g id="patch_44">
    <path d="M 216.660714 70.007872 
C 221.209704 70.007872 225.572991 68.200539 228.789612 64.983918 
C 232.006234 61.767296 233.813567 57.404009 233.813567 52.85502 
C 233.813567 48.30603 232.006234 43.942743 228.789612 40.726121 
C 225.572991 37.5095 221.209704 35.702167 216.660714 35.702167 
C 212.111725 35.702167 207.748437 37.5095 204.531816 40.726121 
C 201.315195 43.942743 199.507862 48.30603 199.507862 52.85502 
C 199.507862 57.404009 201.315195 61.767296 204.531816 64.983918 
C 207.748437 68.200539 212.111725 70.007872 216.660714 70.007872 
z
" style="fill: #fec7b8; stroke: #000000; stroke-linejoin: miter"/>
   </g>
   <g id="patch_45">
    <path d="M 280.991719 198.244251 
C 285.540709 198.244251 289.903996 196.436918 293.120617 193.220297 
C 296.337239 190.003675 298.144571 185.640388 298.144571 181.091399 
C 298.144571 176.542409 296.337239 172.179122 293.120617 168.9625 
C 289.903996 165.745879 285.540709 163.938546 280.991719 163.938546 
C 276.442729 163.938546 272.079442 165.745879 268.862821 168.9625 
C 265.6462 172.179122 263.838867 176.542409 263.838867 181.091399 
C 263.838867 185.640388 265.6462 190.003675 268.862821 193.220297 
C 272.079442 196.436918 276.442729 198.244251 280.991719 198.244251 
z
" style="fill: #fec7b8; stroke: #000000; stroke-linejoin: miter"/>
   </g>
   <g id="patch_46">
    <path d="M 329.421959 275.195385 
C 333.970949 275.195385 338.334236 273.388052 341.550857 270.171431 
C 344.767479 266.954809 346.574812 262.591522 346.574812 258.042533 
C 346.574812 253.493543 344.767479 249.130256 341.550857 245.913634 
C 338.334236 242.697013 333.970949 240.88968 329.421959 240.88968 
C 324.87297 240.88968 320.509682 242.697013 317.293061 245.913634 
C 314.07644 249.130256 312.269107 253.493543 312.269107 258.042533 
C 312.269107 262.591522 314.07644 266.954809 317.293061 270.171431 
C 320.509682 273.388052 324.87297 275.195385 329.421959 275.195385 
z
" style="fill: #fec7b8; stroke: #000000; stroke-linejoin: miter"/>
   </g>
   <g id="patch_47">
    <path d="M 250.396633 391.146119 
C 254.945623 391.146119 259.30891 389.338787 262.525532 386.122165 
C 265.742153 382.905544 267.549486 378.542257 267.549486 373.993267 
C 267.549486 369.444277 265.742153 365.08099 262.525532 361.864369 
C 259.30891 358.647747 254.945623 356.840415 250.396633 356.840415 
C 245.847644 356.840415 241.484357 358.647747 238.267735 361.864369 
C 235.051114 365.08099 233.243781 369.444277 233.243781 373.993267 
C 233.243781 378.542257 235.051114 382.905544 238.267735 386.122165 
C 241.484357 389.338787 245.847644 391.146119 250.396633 391.146119 
z
" style="fill: #fec7b8; stroke: #000000; stroke-linejoin: miter"/>
   </g>
   <g id="patch_48">
    <path d="M 148.384697 362.618926 
C 152.933686 362.618926 157.296974 360.811593 160.513595 357.594971 
C 163.730216 354.37835 165.537549 350.015063 165.537549 345.466073 
C 165.537549 340.917084 163.730216 336.553796 160.513595 333.337175 
C 157.296974 330.120554 152.933686 328.313221 148.384697 328.313221 
C 143.835707 328.313221 139.47242 330.120554 136.255799 333.337175 
C 133.039177 336.553796 131.231845 340.917084 131.231845 345.466073 
C 131.231845 350.015063 133.039177 354.37835 136.255799 357.594971 
C 139.47242 360.811593 143.835707 362.618926 148.384697 362.618926 
z
" style="fill: #fec7b8; stroke: #000000; stroke-linejoin: miter"/>
   </g>
   <g id="patch_49">
    <path d="M 57.789421 394.22761 
C 62.338411 394.22761 66.701698 392.420277 69.918319 389.203656 
C 73.134941 385.987034 74.942273 381.623747 74.942273 377.074757 
C 74.942273 372.525768 73.134941 368.162481 69.918319 364.945859 
C 66.701698 361.729238 62.338411 359.921905 57.789421 359.921905 
C 53.240432 359.921905 48.877144 361.729238 45.660523 364.945859 
C 42.443902 368.162481 40.636569 372.525768 40.636569 377.074757 
C 40.636569 381.623747 42.443902 385.987034 45.660523 389.203656 
C 48.877144 392.420277 53.240432 394.22761 57.789421 394.22761 
z
" style="fill: #fec7b8; stroke: #000000; stroke-linejoin: miter"/>
   </g>
   <g id="patch_50">
    <path d="M 89.307414 290.526639 
C 93.856403 290.526639 98.21969 288.719306 101.436312 285.502685 
C 104.652933 282.286063 106.460266 277.922776 106.460266 273.373786 
C 106.460266 268.824797 104.652933 264.46151 101.436312 261.244888 
C 98.21969 258.028267 93.856403 256.220934 89.307414 256.220934 
C 84.758424 256.220934 80.395137 258.028267 77.178515 261.244888 
C 73.961894 264.46151 72.154561 268.824797 72.154561 273.373786 
C 72.154561 277.922776 73.961894 282.286063 77.178515 285.502685 
C 80.395137 288.719306 84.758424 290.526639 89.307414 290.526639 
z
" style="fill: #fec7b8; stroke: #000000; stroke-linejoin: miter"/>
   </g>
   <g id="patch_51">
    <path d="M 35.014391 171.647657 
C 39.56338 171.647657 43.926668 169.840324 47.143289 166.623703 
C 50.35991 163.407082 52.167243 159.043794 52.167243 154.494805 
C 52.167243 149.945815 50.35991 145.582528 47.143289 142.365907 
C 43.926668 139.149285 39.56338 137.341953 35.014391 137.341953 
C 30.465401 137.341953 26.102114 139.149285 22.885493 142.365907 
C 19.668871 145.582528 17.861538 149.945815 17.861538 154.494805 
C 17.861538 159.043794 19.668871 163.407082 22.885493 166.623703 
C 26.102114 169.840324 30.465401 171.647657 35.014391 171.647657 
z
" style="fill: #fec7b8; stroke: #000000; stroke-linejoin: miter"/>
   </g>
   <g id="patch_52">
    <path d="M 137.4044 99.348146 
C 141.95339 99.348146 146.316677 97.540813 149.533298 94.324191 
C 152.74992 91.10757 154.557252 86.744283 154.557252 82.195293 
C 154.557252 77.646304 152.74992 73.283016 149.533298 70.066395 
C 146.316677 66.849774 141.95339 65.042441 137.4044 65.042441 
C 132.85541 65.042441 128.492123 66.849774 125.275502 70.066395 
C 122.05888 73.283016 120.251548 77.646304 120.251548 82.195293 
C 120.251548 86.744283 122.05888 91.10757 125.275502 94.324191 
C 128.492123 97.540813 132.85541 99.348146 137.4044 99.348146 
z
" style="fill: #fec7b8; stroke: #000000; stroke-linejoin: miter"/>
   </g>
   <g id="patch_53">
    <path d="M 90.848266 210.799924 
C 95.397256 210.799924 99.760543 208.992591 102.977164 205.77597 
C 106.193786 202.559348 108.001119 198.196061 108.001119 193.647072 
C 108.001119 189.098082 106.193786 184.734795 102.977164 181.518173 
C 99.760543 178.301552 95.397256 176.494219 90.848266 176.494219 
C 86.299277 176.494219 81.935989 178.301552 78.719368 181.518173 
C 75.502747 184.734795 73.695414 189.098082 73.695414 193.647072 
C 73.695414 198.196061 75.502747 202.559348 78.719368 205.77597 
C 81.935989 208.992591 86.299277 210.799924 90.848266 210.799924 
z
" style="fill: #fec7b8; stroke: #000000; stroke-linejoin: miter"/>
   </g>
   <g id="patch_54">
    <path d="M 330.65018 147.756832 
C 335.199169 147.756832 339.562456 145.949499 342.779078 142.732878 
C 345.995699 139.516257 347.803032 135.152969 347.803032 130.60398 
C 347.803032 126.05499 345.995699 121.691703 342.779078 118.475082 
C 339.562456 115.25846 335.199169 113.451128 330.65018 113.451128 
C 326.10119 113.451128 321.737903 115.25846 318.521281 118.475082 
C 315.30466 121.691703 313.497327 126.05499 313.497327 130.60398 
C 313.497327 135.152969 315.30466 139.516257 318.521281 142.732878 
C 321.737903 145.949499 326.10119 147.756832 330.65018 147.756832 
z
" style="fill: #fec7b8; stroke: #000000; stroke-linejoin: miter"/>
   </g>
   <g id="patch_55">
    <path d="M 533.785609 118.757977 
C 538.334599 118.757977 542.697886 116.950644 545.914507 113.734022 
C 549.131129 110.517401 550.938462 106.154114 550.938462 101.605124 
C 550.938462 97.056135 549.131129 92.692847 545.914507 89.476226 
C 542.697886 86.259605 538.334599 84.452272 533.785609 84.452272 
C 529.23662 84.452272 524.873332 86.259605 521.656711 89.476226 
C 518.44009 92.692847 516.632757 97.056135 516.632757 101.605124 
C 516.632757 106.154114 518.44009 110.517401 521.656711 113.734022 
C 524.873332 116.950644 529.23662 118.757977 533.785609 118.757977 
z
" style="fill: #fec7b8; stroke: #000000; stroke-linejoin: miter"/>
   </g>
   <g id="patch_56">
    <path d="M 375.565266 88.031206 
C 381.687544 88.031206 387.559894 85.598799 391.888999 81.269695 
C 396.218103 76.94059 398.65051 71.06824 398.65051 64.945962 
C 398.65051 58.823683 396.218103 52.951333 391.888999 48.622229 
C 387.559894 44.293124 381.687544 41.860717 375.565266 41.860717 
C 369.442987 41.860717 363.570637 44.293124 359.241533 48.622229 
C 354.912428 52.951333 352.480021 58.823683 352.480021 64.945962 
C 352.480021 71.06824 354.912428 76.94059 359.241533 81.269695 
C 363.570637 85.598799 369.442987 88.031206 375.565266 88.031206 
L 375.565266 88.031206 
z
" clip-path="url(#p411591ca93)" style="fill: none; stroke: #00d1ff; stroke-linejoin: miter"/>
   </g>
   <g id="patch_57">
    <path d="M 375.565266 111.116451 
C 384.748683 111.116451 393.557208 107.46784 400.050865 100.974183 
C 406.544522 94.480527 410.193133 85.672002 410.193133 76.488584 
C 410.193133 67.305166 406.544522 58.496641 400.050865 52.002984 
C 393.557208 45.509327 384.748683 41.860717 375.565266 41.860717 
C 366.381848 41.860717 357.573323 45.509327 351.079666 52.002984 
C 344.586009 58.496641 340.937399 67.305166 340.937399 76.488584 
C 340.937399 85.672002 344.586009 94.480527 351.079666 100.974183 
C 357.573323 107.46784 366.381848 111.116451 375.565266 111.116451 
L 375.565266 111.116451 
z
" clip-path="url(#p411591ca93)" style="fill: none; stroke: #00d1ff; stroke-linejoin: miter"/>
   </g>
   <g id="text_1">
    <!-- I -->
    <g transform="translate(311.151302 363.503889) scale(0.1 -0.1)">
     <defs>
      <path id="DejaVuSans-49" d="M 628 4666 
L 1259 4666 
L 1259 0 
L 628 0 
L 628 4666 
z
" transform="scale(0.015625)"/>
     </defs>
     <use xlink:href="#DejaVuSans-49"/>
    </g>
   </g>
   <g id="text_2">
    <!--   -->
    <g transform="translate(223.672601 233.54098) scale(0.1 -0.1)">
     <defs>
      <path id="DejaVuSans-20" transform="scale(0.015625)"/>
     </defs>
     <use xlink:href="#DejaVuSans-20"/>
    </g>
   </g>
   <g id="text_3">
    <!-- a -->
    <g transform="translate(326.357897 260.801908) scale(0.1 -0.1)">
     <defs>
      <path id="DejaVuSans-61" d="M 2194 1759 
Q 1497 1759 1228 1600 
Q 959 1441 959 1056 
Q 959 750 1161 570 
Q 1363 391 1709 391 
Q 2188 391 2477 730 
Q 2766 1069 2766 1631 
L 2766 1759 
L 2194 1759 
z
M 3341 1997 
L 3341 0 
L 2766 0 
L 2766 531 
Q 2569 213 2275 61 
Q 1981 -91 1556 -91 
Q 1019 -91 701 211 
Q 384 513 384 1019 
Q 384 1609 779 1909 
Q 1175 2209 1959 2209 
L 2766 2209 
L 2766 2266 
Q 2766 2663 2505 2880 
Q 2244 3097 1772 3097 
Q 1472 3097 1187 3025 
Q 903 2953 641 2809 
L 641 3341 
Q 956 3463 1253 3523 
Q 1550 3584 1831 3584 
Q 2591 3584 2966 3190 
Q 3341 2797 3341 1997 
z
" transform="scale(0.015625)"/>
     </defs>
     <use xlink:href="#DejaVuSans-61"/>
    </g>
   </g>
   <g id="text_4">
    <!-- m -->
    <g transform="translate(276.121407 183.850774) scale(0.1 -0.1)">
     <defs>
      <path id="DejaVuSans-6d" d="M 3328 2828 
Q 3544 3216 3844 3400 
Q 4144 3584 4550 3584 
Q 5097 3584 5394 3201 
Q 5691 2819 5691 2113 
L 5691 0 
L 5113 0 
L 5113 2094 
Q 5113 2597 4934 2840 
Q 4756 3084 4391 3084 
Q 3944 3084 3684 2787 
Q 3425 2491 3425 1978 
L 3425 0 
L 2847 0 
L 2847 2094 
Q 2847 2600 2669 2842 
Q 2491 3084 2119 3084 
Q 1678 3084 1418 2786 
Q 1159 2488 1159 1978 
L 1159 0 
L 581 0 
L 581 3500 
L 1159 3500 
L 1159 2956 
Q 1356 3278 1631 3431 
Q 1906 3584 2284 3584 
Q 2666 3584 2933 3390 
Q 3200 3197 3328 2828 
z
" transform="scale(0.015625)"/>
     </defs>
     <use xlink:href="#DejaVuSans-6d"/>
    </g>
   </g>
   <g id="text_5">
    <!-- c -->
    <g transform="translate(327.900961 133.363355) scale(0.1 -0.1)">
     <defs>
      <path id="DejaVuSans-63" d="M 3122 3366 
L 3122 2828 
Q 2878 2963 2633 3030 
Q 2388 3097 2138 3097 
Q 1578 3097 1268 2742 
Q 959 2388 959 1747 
Q 959 1106 1268 751 
Q 1578 397 2138 397 
Q 2388 397 2633 464 
Q 2878 531 3122 666 
L 3122 134 
Q 2881 22 2623 -34 
Q 2366 -91 2075 -91 
Q 1284 -91 818 406 
Q 353 903 353 1747 
Q 353 2603 823 3093 
Q 1294 3584 2113 3584 
Q 2378 3584 2631 3529 
Q 2884 3475 3122 3366 
z
" transform="scale(0.015625)"/>
     </defs>
     <use xlink:href="#DejaVuSans-63"/>
    </g>
   </g>
   <g id="text_6">
    <!-- o -->
    <g transform="translate(372.505891 44.620092) scale(0.1 -0.1)">
     <defs>
      <path id="DejaVuSans-6f" d="M 1959 3097 
Q 1497 3097 1228 2736 
Q 959 2375 959 1747 
Q 959 1119 1226 758 
Q 1494 397 1959 397 
Q 2419 397 2687 759 
Q 2956 1122 2956 1747 
Q 2956 2369 2687 2733 
Q 2419 3097 1959 3097 
z
M 1959 3584 
Q 2709 3584 3137 3096 
Q 3566 2609 3566 1747 
Q 3566 888 3137 398 
Q 2709 -91 1959 -91 
Q 1206 -91 779 398 
Q 353 888 353 1747 
Q 353 2609 779 3096 
Q 1206 3584 1959 3584 
z
" transform="scale(0.015625)"/>
     </defs>
     <use xlink:href="#DejaVuSans-6f"/>
    </g>
   </g>
   <g id="text_7">
    <!-- l -->
    <g transform="translate(254.211804 79.203814) scale(0.1 -0.1)">
     <defs>
      <path id="DejaVuSans-6c" d="M 603 4863 
L 1178 4863 
L 1178 0 
L 603 0 
L 603 4863 
z
" transform="scale(0.015625)"/>
     </defs>
     <use xlink:href="#DejaVuSans-6c"/>
    </g>
   </g>
   <g id="text_8">
    <!-- u -->
    <g transform="translate(213.491964 55.614395) scale(0.1 -0.1)">
     <defs>
      <path id="DejaVuSans-75" d="M 544 1381 
L 544 3500 
L 1119 3500 
L 1119 1403 
Q 1119 906 1312 657 
Q 1506 409 1894 409 
Q 2359 409 2629 706 
Q 2900 1003 2900 1516 
L 2900 3500 
L 3475 3500 
L 3475 0 
L 2900 0 
L 2900 538 
Q 2691 219 2414 64 
Q 2138 -91 1772 -91 
Q 1169 -91 856 284 
Q 544 659 544 1381 
z
M 1991 3584 
L 1991 3584 
z
" transform="scale(0.015625)"/>
     </defs>
     <use xlink:href="#DejaVuSans-75"/>
    </g>
   </g>
   <g id="text_9">
    <!-- t -->
    <g transform="translate(135.444244 84.954668) scale(0.1 -0.1)">
     <defs>
      <path id="DejaVuSans-74" d="M 1172 4494 
L 1172 3500 
L 2356 3500 
L 2356 3053 
L 1172 3053 
L 1172 1153 
Q 1172 725 1289 603 
Q 1406 481 1766 481 
L 2356 481 
L 2356 0 
L 1766 0 
Q 1100 0 847 248 
Q 594 497 594 1153 
L 594 3053 
L 172 3053 
L 172 3500 
L 594 3500 
L 594 4494 
L 1172 4494 
z
" transform="scale(0.015625)"/>
     </defs>
     <use xlink:href="#DejaVuSans-74"/>
    </g>
   </g>
   <g id="text_10">
    <!-- i -->
    <g transform="translate(33.625328 157.25418) scale(0.1 -0.1)">
     <defs>
      <path id="DejaVuSans-69" d="M 603 3500 
L 1178 3500 
L 1178 0 
L 603 0 
L 603 3500 
z
M 603 4863 
L 1178 4863 
L 1178 4134 
L 603 4134 
L 603 4863 
z
" transform="scale(0.015625)"/>
     </defs>
     <use xlink:href="#DejaVuSans-69"/>
    </g>
   </g>
   <g id="text_11">
    <!-- e -->
    <g transform="translate(86.230851 276.133161) scale(0.1 -0.1)">
     <defs>
      <path id="DejaVuSans-65" d="M 3597 1894 
L 3597 1613 
L 953 1613 
Q 991 1019 1311 708 
Q 1631 397 2203 397 
Q 2534 397 2845 478 
Q 3156 559 3463 722 
L 3463 178 
Q 3153 47 2828 -22 
Q 2503 -91 2169 -91 
Q 1331 -91 842 396 
Q 353 884 353 1716 
Q 353 2575 817 3079 
Q 1281 3584 2069 3584 
Q 2775 3584 3186 3129 
Q 3597 2675 3597 1894 
z
M 3022 2063 
Q 3016 2534 2758 2815 
Q 2500 3097 2075 3097 
Q 1594 3097 1305 2825 
Q 1016 2553 972 2059 
L 3022 2063 
z
" transform="scale(0.015625)"/>
     </defs>
     <use xlink:href="#DejaVuSans-65"/>
    </g>
   </g>
   <g id="text_12">
    <!-- d -->
    <g transform="translate(54.615202 379.834132) scale(0.1 -0.1)">
     <defs>
      <path id="DejaVuSans-64" d="M 2906 2969 
L 2906 4863 
L 3481 4863 
L 3481 0 
L 2906 0 
L 2906 525 
Q 2725 213 2448 61 
Q 2172 -91 1784 -91 
Q 1150 -91 751 415 
Q 353 922 353 1747 
Q 353 2572 751 3078 
Q 1150 3584 1784 3584 
Q 2172 3584 2448 3432 
Q 2725 3281 2906 2969 
z
M 947 1747 
Q 947 1113 1208 752 
Q 1469 391 1925 391 
Q 2381 391 2643 752 
Q 2906 1113 2906 1747 
Q 2906 2381 2643 2742 
Q 2381 3103 1925 3103 
Q 1469 3103 1208 2742 
Q 947 2381 947 1747 
z
" transform="scale(0.015625)"/>
     </defs>
     <use xlink:href="#DejaVuSans-64"/>
    </g>
   </g>
   <g id="text_13">
    <!-- g -->
    <g transform="translate(145.210478 348.225448) scale(0.1 -0.1)">
     <defs>
      <path id="DejaVuSans-67" d="M 2906 1791 
Q 2906 2416 2648 2759 
Q 2391 3103 1925 3103 
Q 1463 3103 1205 2759 
Q 947 2416 947 1791 
Q 947 1169 1205 825 
Q 1463 481 1925 481 
Q 2391 481 2648 825 
Q 2906 1169 2906 1791 
z
M 3481 434 
Q 3481 -459 3084 -895 
Q 2688 -1331 1869 -1331 
Q 1566 -1331 1297 -1286 
Q 1028 -1241 775 -1147 
L 775 -588 
Q 1028 -725 1275 -790 
Q 1522 -856 1778 -856 
Q 2344 -856 2625 -561 
Q 2906 -266 2906 331 
L 2906 616 
Q 2728 306 2450 153 
Q 2172 0 1784 0 
Q 1141 0 747 490 
Q 353 981 353 1791 
Q 353 2603 747 3093 
Q 1141 3584 1784 3584 
Q 2172 3584 2450 3431 
Q 2728 3278 2906 2969 
L 2906 3500 
L 3481 3500 
L 3481 434 
z
" transform="scale(0.015625)"/>
     </defs>
     <use xlink:href="#DejaVuSans-67"/>
    </g>
   </g>
   <g id="text_14">
    <!-- r -->
    <g transform="translate(248.341165 376.752642) scale(0.1 -0.1)">
     <defs>
      <path id="DejaVuSans-72" d="M 2631 2963 
Q 2534 3019 2420 3045 
Q 2306 3072 2169 3072 
Q 1681 3072 1420 2755 
Q 1159 2438 1159 1844 
L 1159 0 
L 581 0 
L 581 3500 
L 1159 3500 
L 1159 2956 
Q 1341 3275 1631 3429 
Q 1922 3584 2338 3584 
Q 2397 3584 2469 3576 
Q 2541 3569 2628 3553 
L 2631 2963 
z
" transform="scale(0.015625)"/>
     </defs>
     <use xlink:href="#DejaVuSans-72"/>
    </g>
   </g>
   <g id="text_15">
    <!-- p -->
    <g transform="translate(400.003015 140.634153) scale(0.1 -0.1)">
     <defs>
      <path id="DejaVuSans-70" d="M 1159 525 
L 1159 -1331 
L 581 -1331 
L 581 3500 
L 1159 3500 
L 1159 2969 
Q 1341 3281 1617 3432 
Q 1894 3584 2278 3584 
Q 2916 3584 3314 3078 
Q 3713 2572 3713 1747 
Q 3713 922 3314 415 
Q 2916 -91 2278 -91 
Q 1894 -91 1617 61 
Q 1341 213 1159 525 
z
M 3116 1747 
Q 3116 2381 2855 2742 
Q 2594 3103 2138 3103 
Q 1681 3103 1420 2742 
Q 1159 2381 1159 1747 
Q 1159 1113 1420 752 
Q 1681 391 2138 391 
Q 2594 391 2855 752 
Q 3116 1113 3116 1747 
z
" transform="scale(0.015625)"/>
     </defs>
     <use xlink:href="#DejaVuSans-70"/>
    </g>
   </g>
   <g id="text_16">
    <!-- h -->
    <g transform="translate(252.069619 138.226749) scale(0.1 -0.1)">
     <defs>
      <path id="DejaVuSans-68" d="M 3513 2113 
L 3513 0 
L 2938 0 
L 2938 2094 
Q 2938 2591 2744 2837 
Q 2550 3084 2163 3084 
Q 1697 3084 1428 2787 
Q 1159 2491 1159 1978 
L 1159 0 
L 581 0 
L 581 4863 
L 1159 4863 
L 1159 2956 
Q 1366 3272 1645 3428 
Q 1925 3584 2291 3584 
Q 2894 3584 3203 3211 
Q 3513 2838 3513 2113 
z
" transform="scale(0.015625)"/>
     </defs>
     <use xlink:href="#DejaVuSans-68"/>
    </g>
   </g>
   <g id="text_17">
    <!-- w -->
    <g transform="translate(86.759204 196.406447) scale(0.1 -0.1)">
     <defs>
      <path id="DejaVuSans-77" d="M 269 3500 
L 844 3500 
L 1563 769 
L 2278 3500 
L 2956 3500 
L 3675 769 
L 4391 3500 
L 4966 3500 
L 4050 0 
L 3372 0 
L 2619 2869 
L 1863 0 
L 1184 0 
L 269 3500 
z
" transform="scale(0.015625)"/>
     </defs>
     <use xlink:href="#DejaVuSans-77"/>
    </g>
   </g>
   <g id="text_18">
    <!-- s -->
    <g transform="translate(531.180922 104.364499) scale(0.1 -0.1)">
     <defs>
      <path id="DejaVuSans-73" d="M 2834 3397 
L 2834 2853 
Q 2591 2978 2328 3040 
Q 2066 3103 1784 3103 
Q 1356 3103 1142 2972 
Q 928 2841 928 2578 
Q 928 2378 1081 2264 
Q 1234 2150 1697 2047 
L 1894 2003 
Q 2506 1872 2764 1633 
Q 3022 1394 3022 966 
Q 3022 478 2636 193 
Q 2250 -91 1575 -91 
Q 1294 -91 989 -36 
Q 684 19 347 128 
L 347 722 
Q 666 556 975 473 
Q 1284 391 1588 391 
Q 1994 391 2212 530 
Q 2431 669 2431 922 
Q 2431 1156 2273 1281 
Q 2116 1406 1581 1522 
L 1381 1569 
Q 847 1681 609 1914 
Q 372 2147 372 2553 
Q 372 3047 722 3315 
Q 1072 3584 1716 3584 
Q 2034 3584 2315 3537 
Q 2597 3491 2834 3397 
z
" transform="scale(0.015625)"/>
     </defs>
     <use xlink:href="#DejaVuSans-73"/>
    </g>
   </g>
  </g>
 </g>
 <defs>
  <clipPath id="p411591ca93">
   <rect x="7.2" y="7.2" width="554.4" height="394.616386"/>
  </clipPath>
 </defs>
</svg>
