<?xml version="1.0" encoding="utf-8" standalone="no"?>
<!DOCTYPE svg PUBLIC "-//W3C//DTD SVG 1.1//EN"
  "http://www.w3.org/Graphics/SVG/1.1/DTD/svg11.dtd">
<!-- Created with matplotlib (https://matplotlib.org/) -->
<svg height="568.8pt" version="1.1" viewBox="0 0 359.84147 568.8" width="359.84147pt" xmlns="http://www.w3.org/2000/svg" xmlns:xlink="http://www.w3.org/1999/xlink">
 <metadata>
  <rdf:RDF xmlns:cc="http://creativecommons.org/ns#" xmlns:dc="http://purl.org/dc/elements/1.1/" xmlns:rdf="http://www.w3.org/1999/02/22-rdf-syntax-ns#">
   <cc:Work>
    <dc:type rdf:resource="http://purl.org/dc/dcmitype/StillImage"/>
    <dc:date>2022-01-18T14:20:22.905618</dc:date>
    <dc:format>image/svg+xml</dc:format>
    <dc:creator>
     <cc:Agent>
      <dc:title>Matplotlib v3.3.1, https://matplotlib.org/</dc:title>
     </cc:Agent>
    </dc:creator>
   </cc:Work>
  </rdf:RDF>
 </metadata>
 <defs>
  <style type="text/css">*{stroke-linecap:butt;stroke-linejoin:round;}</style>
 </defs>
 <g id="figure_1">
  <g id="patch_1">
   <path d="M 0 568.8 
L 359.84147 568.8 
L 359.84147 0 
L 0 0 
z
" style="fill:#ffffff;"/>
  </g>
  <g id="axes_1">
   <g id="patch_2">
    <path d="M 7.2 561.6 
L 352.64147 561.6 
L 352.64147 7.2 
L 7.2 7.2 
z
" style="fill:#ffffff;"/>
   </g>
   <g id="patch_3">
    <path clip-path="url(#pcbc60831d1)" d="M 158.520791 315.916238 
Q 161.029799 276.454822 119.279837 274.947389 
" style="fill:none;stroke:#ff0000;stroke-linecap:round;stroke-width:2;"/>
    <path clip-path="url(#pcbc60831d1)" d="M 164.145247 306.253656 
L 158.520791 315.916238 
L 154.165399 305.619124 
L 164.145247 306.253656 
z
" style="fill:#ff0000;stroke:#ff0000;stroke-linecap:round;stroke-width:2;"/>
   </g>
   <g id="patch_4">
    <path clip-path="url(#pcbc60831d1)" d="M 142.26563 332.731321 
Q 100.515668 331.223887 103.024675 291.762471 
" style="fill:none;stroke:#ffb300;stroke-linecap:round;stroke-width:2;"/>
    <path clip-path="url(#pcbc60831d1)" d="M 97.40022 301.425054 
L 103.024675 291.762471 
L 107.380068 302.059585 
L 97.40022 301.425054 
z
" style="fill:#ffb300;stroke:#ffb300;stroke-linecap:round;stroke-width:2;"/>
   </g>
   <g id="patch_5">
    <path clip-path="url(#pcbc60831d1)" d="M 163.074466 319.212404 
Q 191.286864 249.070289 120.834577 269.545218 
" style="fill:none;stroke:#ffb300;stroke-linecap:round;stroke-width:2;"/>
    <path clip-path="url(#pcbc60831d1)" d="M 131.832644 271.555819 
L 120.834577 269.545218 
L 129.041897 261.953124 
L 131.832644 271.555819 
z
" style="fill:#ffb300;stroke:#ffb300;stroke-linecap:round;stroke-width:2;"/>
   </g>
   <g id="patch_6">
    <path clip-path="url(#pcbc60831d1)" d="M 142.858117 337.509462 
Q 70.258602 358.60842 97.636581 290.540852 
" style="fill:none;stroke:#ffb300;stroke-linecap:round;stroke-width:2;"/>
    <path clip-path="url(#pcbc60831d1)" d="M 89.266116 297.952689 
L 97.636581 290.540852 
L 98.543772 301.684326 
L 89.266116 297.952689 
z
" style="fill:#ffb300;stroke:#ffb300;stroke-linecap:round;stroke-width:2;"/>
   </g>
   <g id="patch_7">
    <path clip-path="url(#pcbc60831d1)" d="M 150.733469 317.216172 
Q 128.84708 264.616771 69.646323 263.742655 
" style="fill:none;stroke:#ff0000;stroke-linecap:round;stroke-width:2;"/>
    <path clip-path="url(#pcbc60831d1)" d="M 151.508127 306.062701 
L 150.733469 317.216172 
L 142.275487 309.904364 
L 151.508127 306.062701 
z
" style="fill:#ff0000;stroke:#ff0000;stroke-linecap:round;stroke-width:2;"/>
   </g>
   <g id="patch_8">
    <path clip-path="url(#pcbc60831d1)" d="M 142.257409 333.054541 
Q 83.056652 332.180425 61.170263 279.581024 
" style="fill:none;stroke:#f0ff00;stroke-linecap:round;stroke-width:2;"/>
    <path clip-path="url(#pcbc60831d1)" d="M 60.395606 290.734494 
L 61.170263 279.581024 
L 69.628245 286.892832 
L 60.395606 290.734494 
z
" style="fill:#f0ff00;stroke:#f0ff00;stroke-linecap:round;stroke-width:2;"/>
   </g>
   <g id="patch_9">
    <path clip-path="url(#pcbc60831d1)" d="M 173.262978 326.097587 
Q 212.662517 308.24336 197.889526 265.216585 
" style="fill:none;stroke:#ff0000;stroke-linecap:round;stroke-width:2;"/>
    <path clip-path="url(#pcbc60831d1)" d="M 184.435174 326.524241 
L 173.262978 326.097587 
L 180.307619 317.415823 
L 184.435174 326.524241 
z
" style="fill:#ff0000;stroke:#ff0000;stroke-linecap:round;stroke-width:2;"/>
   </g>
   <g id="patch_10">
    <path clip-path="url(#pcbc60831d1)" d="M 152.493514 318.938912 
Q 137.720523 275.912137 177.120062 258.057911 
" style="fill:none;stroke:#3cff00;stroke-linecap:round;stroke-width:2;"/>
    <path clip-path="url(#pcbc60831d1)" d="M 165.947866 257.631256 
L 177.120062 258.057911 
L 170.075421 266.739675 
L 165.947866 257.631256 
z
" style="fill:#3cff00;stroke:#3cff00;stroke-linecap:round;stroke-width:2;"/>
   </g>
   <g id="patch_11">
    <path clip-path="url(#pcbc60831d1)" d="M 173.262444 326.096408 
Q 223.884492 303.15207 221.478361 245.38701 
" style="fill:none;stroke:#ff0000;stroke-linecap:round;stroke-width:2;"/>
    <path clip-path="url(#pcbc60831d1)" d="M 184.434672 326.522231 
L 173.262444 326.096408 
L 180.306439 317.41412 
L 184.434672 326.522231 
z
" style="fill:#ff0000;stroke:#ff0000;stroke-linecap:round;stroke-width:2;"/>
   </g>
   <g id="patch_12">
    <path clip-path="url(#pcbc60831d1)" d="M 156.692853 315.896253 
Q 154.379782 260.365323 207.038466 236.497884 
" style="fill:none;stroke:#ff0000;stroke-linecap:round;stroke-width:2;"/>
    <path clip-path="url(#pcbc60831d1)" d="M 161.272345 305.696828 
L 156.692853 315.896253 
L 151.281009 306.113005 
L 161.272345 305.696828 
z
" style="fill:#ff0000;stroke:#ff0000;stroke-linecap:round;stroke-width:2;"/>
   </g>
   <g id="patch_13">
    <path clip-path="url(#pcbc60831d1)" d="M 174.749689 331.782957 
Q 258.636848 324.545444 226.486695 244.312327 
" style="fill:none;stroke:#ff0000;stroke-linecap:round;stroke-width:2;"/>
    <path clip-path="url(#pcbc60831d1)" d="M 185.142465 335.904876 
L 174.749689 331.782957 
L 184.28289 325.941888 
L 185.142465 335.904876 
z
" style="fill:#ff0000;stroke:#ff0000;stroke-linecap:round;stroke-width:2;"/>
   </g>
   <g id="patch_14">
    <path clip-path="url(#pcbc60831d1)" d="M 150.945855 317.129437 
Q 119.627426 238.971949 205.742377 231.54223 
" style="fill:none;stroke:#ff0000;stroke-linecap:round;stroke-width:2;"/>
    <path clip-path="url(#pcbc60831d1)" d="M 151.867521 305.987152 
L 150.945855 317.129437 
L 142.585026 309.706733 
L 151.867521 305.987152 
z
" style="fill:#ff0000;stroke:#ff0000;stroke-linecap:round;stroke-width:2;"/>
   </g>
   <g id="patch_15">
    <path clip-path="url(#pcbc60831d1)" d="M 246.731967 190.214619 
Q 252.561632 236.087708 209.851186 246.686876 
" style="fill:none;stroke:#3cff00;stroke-linecap:round;stroke-width:2;"/>
    <path clip-path="url(#pcbc60831d1)" d="M 220.761078 249.131103 
L 209.851186 246.686876 
L 218.352503 239.425498 
L 220.761078 249.131103 
z
" style="fill:#3cff00;stroke:#3cff00;stroke-linecap:round;stroke-width:2;"/>
   </g>
   <g id="patch_16">
    <path clip-path="url(#pcbc60831d1)" d="M 227.935596 179.3647 
Q 185.225149 189.963869 191.054814 235.836957 
" style="fill:none;stroke:#00d1ff;stroke-linecap:round;stroke-width:2;"/>
    <path clip-path="url(#pcbc60831d1)" d="M 217.025703 176.920473 
L 227.935596 179.3647 
L 219.434279 186.626078 
L 217.025703 176.920473 
z
" style="fill:#00d1ff;stroke:#00d1ff;stroke-linecap:round;stroke-width:2;"/>
   </g>
   <g id="patch_17">
    <path clip-path="url(#pcbc60831d1)" d="M 311.157784 310.764015 
Q 345.998365 347.101192 319.474626 392.498123 
" style="fill:none;stroke:#0078ff;stroke-linecap:round;stroke-width:2;"/>
    <path clip-path="url(#pcbc60831d1)" d="M 314.46957 321.442595 
L 311.157784 310.764015 
L 321.687719 314.521734 
L 314.46957 321.442595 
z
" style="fill:#0078ff;stroke:#0078ff;stroke-linecap:round;stroke-width:2;"/>
   </g>
   <g id="patch_18">
    <path clip-path="url(#pcbc60831d1)" d="M 291.469099 311.297022 
Q 264.94536 356.693953 299.785941 393.03113 
" style="fill:none;stroke:#001dff;stroke-linecap:round;stroke-width:2;"/>
    <path clip-path="url(#pcbc60831d1)" d="M 296.474155 382.35255 
L 299.785941 393.03113 
L 289.256005 389.27341 
L 296.474155 382.35255 
z
" style="fill:#001dff;stroke:#001dff;stroke-linecap:round;stroke-width:2;"/>
   </g>
   <g id="matplotlib.axis_1"/>
   <g id="matplotlib.axis_2"/>
   <g id="patch_19">
    <path clip-path="url(#pcbc60831d1)" d="M 43.901993 354.717084 
Q 93.210558 345.404544 140.321899 336.506977 
" style="fill:none;stroke:#ff0000;stroke-linecap:round;stroke-width:2;"/>
    <path clip-path="url(#pcbc60831d1)" d="M 129.567702 333.449651 
L 140.321899 336.506977 
L 131.423519 343.275939 
L 129.567702 333.449651 
z
" style="fill:#ff0000;stroke:#ff0000;stroke-linecap:round;stroke-width:2;"/>
   </g>
   <g id="patch_20">
    <path clip-path="url(#pcbc60831d1)" d="M 163.942599 349.405292 
Q 180.63941 390.667907 198.174973 434.003321 
" style="fill:none;stroke:#ff0000;stroke-linecap:round;stroke-width:2;"/>
    <path clip-path="url(#pcbc60831d1)" d="M 163.058696 360.550637 
L 163.942599 349.405292 
L 172.328534 356.799621 
L 163.058696 360.550637 
z
" style="fill:#ff0000;stroke:#ff0000;stroke-linecap:round;stroke-width:2;"/>
   </g>
   <g id="patch_21">
    <path clip-path="url(#pcbc60831d1)" d="M 169.995222 341.742723 
Q 204.318116 364.839647 236.785869 386.68819 
" style="fill:none;stroke:#ff5900;stroke-linecap:round;stroke-width:2;"/>
    <path clip-path="url(#pcbc60831d1)" d="M 231.280893 376.957042 
L 236.785869 386.68819 
L 225.697966 385.253482 
L 231.280893 376.957042 
z
" style="fill:#ff5900;stroke:#ff5900;stroke-linecap:round;stroke-width:2;"/>
   </g>
   <g id="patch_22">
    <path clip-path="url(#pcbc60831d1)" d="M 98.702221 290.929612 
Q 84.315474 334.753186 69.231275 380.701274 
" style="fill:none;stroke:#ffb300;stroke-linecap:round;stroke-width:2;"/>
    <path clip-path="url(#pcbc60831d1)" d="M 90.832562 298.871177 
L 98.702221 290.929612 
L 100.333678 301.990278 
L 90.832562 298.871177 
z
" style="fill:#ffb300;stroke:#ffb300;stroke-linecap:round;stroke-width:2;"/>
   </g>
   <g id="patch_23">
    <path clip-path="url(#pcbc60831d1)" d="M 89.319072 271.154076 
Q 79.307715 268.959577 71.480567 267.243859 
" style="fill:none;stroke:#f0ff00;stroke-linecap:round;stroke-width:2;"/>
    <path clip-path="url(#pcbc60831d1)" d="M 80.178061 274.269071 
L 71.480567 267.243859 
L 82.319233 264.500992 
L 80.178061 274.269071 
z
" style="fill:#f0ff00;stroke:#f0ff00;stroke-linecap:round;stroke-width:2;"/>
   </g>
   <g id="patch_24">
    <path clip-path="url(#pcbc60831d1)" d="M 170.281928 325.256504 
Q 205.652182 303.20173 239.125009 282.330078 
" style="fill:none;stroke:#96ff00;stroke-linecap:round;stroke-width:2;"/>
    <path clip-path="url(#pcbc60831d1)" d="M 227.993924 283.378384 
L 239.125009 282.330078 
L 233.285003 291.86393 
L 227.993924 283.378384 
z
" style="fill:#96ff00;stroke:#96ff00;stroke-linecap:round;stroke-width:2;"/>
   </g>
   <g id="patch_25">
    <path clip-path="url(#pcbc60831d1)" d="M 177.522555 242.867278 
Q 145.374859 226.193833 111.242192 208.490879 
" style="fill:none;stroke:#3cff00;stroke-linecap:round;stroke-width:2;"/>
    <path clip-path="url(#pcbc60831d1)" d="M 170.947542 233.824646 
L 177.522555 242.867278 
L 166.343441 242.701709 
L 170.947542 233.824646 
z
" style="fill:#3cff00;stroke:#3cff00;stroke-linecap:round;stroke-width:2;"/>
   </g>
   <g id="patch_26">
    <path clip-path="url(#pcbc60831d1)" d="M 154.602472 348.175988 
Q 146.421563 391.48025 138.655742 432.58731 
" style="fill:none;stroke:#00ff1e;stroke-linecap:round;stroke-width:2;"/>
    <path clip-path="url(#pcbc60831d1)" d="M 145.425172 423.689286 
L 138.655742 432.58731 
L 135.598981 421.832952 
L 145.425172 423.689286 
z
" style="fill:#00ff1e;stroke:#00ff1e;stroke-linecap:round;stroke-width:2;"/>
   </g>
   <g id="patch_27">
    <path clip-path="url(#pcbc60831d1)" d="M 162.844403 521.610551 
Q 151.835417 492.72973 141.622889 465.938323 
" style="fill:none;stroke:#00ff1e;stroke-linecap:round;stroke-width:2;"/>
    <path clip-path="url(#pcbc60831d1)" d="M 140.51268 477.063405 
L 141.622889 465.938323 
L 149.856828 473.501539 
L 140.51268 477.063405 
z
" style="fill:#00ff1e;stroke:#00ff1e;stroke-linecap:round;stroke-width:2;"/>
   </g>
   <g id="patch_28">
    <path clip-path="url(#pcbc60831d1)" d="M 110.474067 260.630999 
Q 133.408721 210.864121 155.407499 163.128039 
" style="fill:none;stroke:#00ff78;stroke-linecap:round;stroke-width:2;"/>
    <path clip-path="url(#pcbc60831d1)" d="M 146.681135 170.117357 
L 155.407499 163.128039 
L 155.763135 174.302722 
L 146.681135 170.117357 
z
" style="fill:#00ff78;stroke:#00ff78;stroke-linecap:round;stroke-width:2;"/>
   </g>
   <g id="patch_29">
    <path clip-path="url(#pcbc60831d1)" d="M 230.46232 170.30631 
Q 203.754743 161.25118 179.164829 152.914038 
" style="fill:none;stroke:#00ff78;stroke-linecap:round;stroke-width:2;"/>
    <path clip-path="url(#pcbc60831d1)" d="M 187.029834 160.860213 
L 179.164829 152.914038 
L 190.240771 151.389739 
L 187.029834 160.860213 
z
" style="fill:#00ff78;stroke:#00ff78;stroke-linecap:round;stroke-width:2;"/>
   </g>
   <g id="patch_30">
    <path clip-path="url(#pcbc60831d1)" d="M 63.166502 251.088077 
Q 76.135206 232.514682 87.823774 215.77466 
" style="fill:none;stroke:#00ffd1;stroke-linecap:round;stroke-width:2;"/>
    <path clip-path="url(#pcbc60831d1)" d="M 77.99929 221.111279 
L 87.823774 215.77466 
L 86.198379 226.836219 
L 77.99929 221.111279 
z
" style="fill:#00ffd1;stroke:#00ffd1;stroke-linecap:round;stroke-width:2;"/>
   </g>
   <g id="patch_31">
    <path clip-path="url(#pcbc60831d1)" d="M 252.490055 258.028497 
Q 249.354052 224.14977 246.424151 192.497592 
" style="fill:none;stroke:#00d1ff;stroke-linecap:round;stroke-width:2;"/>
    <path clip-path="url(#pcbc60831d1)" d="M 242.367151 202.915881 
L 246.424151 192.497592 
L 252.324582 201.994166 
L 242.367151 202.915881 
z
" style="fill:#00d1ff;stroke:#00d1ff;stroke-linecap:round;stroke-width:2;"/>
   </g>
   <g id="patch_32">
    <path clip-path="url(#pcbc60831d1)" d="M 206.813249 257.051083 
Q 246.041792 274.54179 283.228069 291.12192 
" style="fill:none;stroke:#0078ff;stroke-linecap:round;stroke-width:2;"/>
    <path clip-path="url(#pcbc60831d1)" d="M 276.130897 282.483046 
L 283.228069 291.12192 
L 272.058666 291.616333 
L 276.130897 282.483046 
z
" style="fill:#0078ff;stroke:#0078ff;stroke-linecap:round;stroke-width:2;"/>
   </g>
   <g id="patch_33">
    <path clip-path="url(#pcbc60831d1)" d="M 294.625626 402.981134 
Q 281.522823 400.994803 266.20921 398.673321 
" style="fill:none;stroke:#001dff;stroke-linecap:round;stroke-width:2;"/>
    <path clip-path="url(#pcbc60831d1)" d="M 285.488007 396.538781 
L 294.625626 402.981134 
L 283.989172 406.425818 
L 285.488007 396.538781 
z
" style="fill:#001dff;stroke:#001dff;stroke-linecap:round;stroke-width:2;"/>
   </g>
   <g id="patch_34">
    <path clip-path="url(#pcbc60831d1)" d="M 287.669991 288.265835 
Q 259.982409 264.222738 233.983173 241.645753 
" style="fill:none;stroke:#3c00ff;stroke-linecap:round;stroke-width:2;"/>
    <path clip-path="url(#pcbc60831d1)" d="M 238.255365 251.977664 
L 233.983173 241.645753 
L 244.812017 244.427146 
L 238.255365 251.977664 
z
" style="fill:#3c00ff;stroke:#3c00ff;stroke-linecap:round;stroke-width:2;"/>
   </g>
   <g id="patch_35">
    <path clip-path="url(#pcbc60831d1)" d="M 171.395324 159.739888 
Q 191.768125 188.783462 210.856837 215.996432 
" style="fill:none;stroke:#3c00ff;stroke-linecap:round;stroke-width:2;"/>
    <path clip-path="url(#pcbc60831d1)" d="M 209.207571 204.938407 
L 210.856837 215.996432 
L 201.020857 210.68103 
L 209.207571 204.938407 
z
" style="fill:#3c00ff;stroke:#3c00ff;stroke-linecap:round;stroke-width:2;"/>
   </g>
   <g id="patch_36">
    <path clip-path="url(#pcbc60831d1)" d="M 297.717466 411.138522 
Q 257.844116 426.823063 220.051634 441.689076 
" style="fill:none;stroke:#9500ff;stroke-linecap:round;stroke-width:2;"/>
    <path clip-path="url(#pcbc60831d1)" d="M 231.187843 442.681469 
L 220.051634 441.689076 
L 227.527274 433.375544 
L 231.187843 442.681469 
z
" style="fill:#9500ff;stroke:#9500ff;stroke-linecap:round;stroke-width:2;"/>
   </g>
   <g id="patch_37">
    <path clip-path="url(#pcbc60831d1)" d="M 186.46964 448.470338 
Q 169.644088 448.869782 150.583098 449.322297 
" style="fill:none;stroke:#9500ff;stroke-linecap:round;stroke-width:2;"/>
    <path clip-path="url(#pcbc60831d1)" d="M 176.353789 443.709083 
L 186.46964 448.470338 
L 176.591125 453.706266 
L 176.353789 443.709083 
z
" style="fill:#9500ff;stroke:#9500ff;stroke-linecap:round;stroke-width:2;"/>
   </g>
   <g id="patch_38">
    <path clip-path="url(#pcbc60831d1)" d="M 198.158228 462.10477 
Q 186.053264 491.917387 174.789522 519.658206 
" style="fill:none;stroke:#f000ff;stroke-linecap:round;stroke-width:2;"/>
    <path clip-path="url(#pcbc60831d1)" d="M 183.184263 512.273875 
L 174.789522 519.658206 
L 173.918902 508.511815 
L 183.184263 512.273875 
z
" style="fill:#f000ff;stroke:#f000ff;stroke-linecap:round;stroke-width:2;"/>
   </g>
   <g id="patch_39">
    <path clip-path="url(#pcbc60831d1)" d="M 123.410745 440.436173 
Q 99.964304 422.394082 78.289991 405.715647 
" style="fill:none;stroke:#ff00b4;stroke-linecap:round;stroke-width:2;"/>
    <path clip-path="url(#pcbc60831d1)" d="M 83.165961 415.776707 
L 78.289991 405.715647 
L 89.264421 407.851507 
L 83.165961 415.776707 
z
" style="fill:#ff00b4;stroke:#ff00b4;stroke-linecap:round;stroke-width:2;"/>
   </g>
   <g id="patch_40">
    <path clip-path="url(#pcbc60831d1)" d="M 160.492488 132.326716 
Q 154.320964 90.175286 148.473377 50.236336 
" style="fill:none;stroke:#ff005a;stroke-linecap:round;stroke-width:2;"/>
    <path clip-path="url(#pcbc60831d1)" d="M 144.974808 60.855189 
L 148.473377 50.236336 
L 154.869317 59.406502 
L 144.974808 60.855189 
z
" style="fill:#ff005a;stroke:#ff005a;stroke-linecap:round;stroke-width:2;"/>
   </g>
   <g id="patch_41">
    <path clip-path="url(#pcbc60831d1)" d="M 147.243224 322.037537 
Q 130.772733 303.839355 115.802724 287.299049 
" style="fill:none;stroke:#ffb300;stroke-linecap:round;stroke-width:2;"/>
    <path clip-path="url(#pcbc60831d1)" d="M 118.805957 298.068477 
L 115.802724 287.299049 
L 126.220207 291.358119 
L 118.805957 298.068477 
z
" style="fill:#ffb300;stroke:#ffb300;stroke-linecap:round;stroke-width:2;"/>
   </g>
   <g id="patch_42">
    <path d="M 29.004233 372.691841 
C 33.025011 372.691841 36.881649 371.094369 39.724769 368.251249 
C 42.567888 365.40813 44.16536 361.551491 44.16536 357.530713 
C 44.16536 353.509935 42.567888 349.653297 39.724769 346.810177 
C 36.881649 343.967058 33.025011 342.369586 29.004233 342.369586 
C 24.983455 342.369586 21.126816 343.967058 18.283697 346.810177 
C 15.440577 349.653297 13.843105 353.509935 13.843105 357.530713 
C 13.843105 361.551491 15.440577 365.40813 18.283697 368.251249 
C 21.126816 371.094369 24.983455 372.691841 29.004233 372.691841 
z
" style="fill:#fec7b8;stroke:#000000;stroke-linejoin:miter;"/>
   </g>
   <g id="patch_43">
    <path d="M 157.416884 348.439502 
C 161.437662 348.439502 165.294301 346.84203 168.13742 343.998911 
C 170.98054 341.155792 172.578012 337.299153 172.578012 333.278375 
C 172.578012 329.257597 170.98054 325.400959 168.13742 322.557839 
C 165.294301 319.71472 161.437662 318.117248 157.416884 318.117248 
C 153.396106 318.117248 149.539468 319.71472 146.696348 322.557839 
C 143.853229 325.400959 142.255757 329.257597 142.255757 333.278375 
C 142.255757 337.299153 143.853229 341.155792 146.696348 343.998911 
C 149.539468 346.84203 153.396106 348.439502 157.416884 348.439502 
z
" style="fill:#fec7b8;stroke:#000000;stroke-linejoin:miter;"/>
   </g>
   <g id="patch_44">
    <path d="M 104.128582 289.561462 
C 108.14936 289.561462 112.005999 287.96399 114.849118 285.12087 
C 117.692238 282.277751 119.28971 278.421112 119.28971 274.400334 
C 119.28971 270.379556 117.692238 266.522918 114.849118 263.679798 
C 112.005999 260.836679 108.14936 259.239207 104.128582 259.239207 
C 100.107804 259.239207 96.251166 260.836679 93.408046 263.679798 
C 90.564927 266.522918 88.967455 270.379556 88.967455 274.400334 
C 88.967455 278.421112 90.564927 282.277751 93.408046 285.12087 
C 96.251166 287.96399 100.107804 289.561462 104.128582 289.561462 
z
" style="fill:#fec7b8;stroke:#000000;stroke-linejoin:miter;"/>
   </g>
   <g id="patch_45">
    <path d="M 54.486848 278.679948 
C 58.507626 278.679948 62.364265 277.082476 65.207384 274.239357 
C 68.050503 271.396237 69.647976 267.539599 69.647976 263.518821 
C 69.647976 259.498043 68.050503 255.641404 65.207384 252.798285 
C 62.364265 249.955165 58.507626 248.357693 54.486848 248.357693 
C 50.46607 248.357693 46.609432 249.955165 43.766312 252.798285 
C 40.923193 255.641404 39.325721 259.498043 39.325721 263.518821 
C 39.325721 267.539599 40.923193 271.396237 43.766312 274.239357 
C 46.609432 277.082476 50.46607 278.679948 54.486848 278.679948 
z
" style="fill:#fec7b8;stroke:#000000;stroke-linejoin:miter;"/>
   </g>
   <g id="patch_46">
    <path d="M 253.887479 288.286213 
C 257.908257 288.286213 261.764895 286.688741 264.608015 283.845622 
C 267.451134 281.002502 269.048606 277.145864 269.048606 273.125086 
C 269.048606 269.104308 267.451134 265.247669 264.608015 262.40455 
C 261.764895 259.56143 257.908257 257.963958 253.887479 257.963958 
C 249.866701 257.963958 246.010062 259.56143 243.166943 262.40455 
C 240.323824 265.247669 238.726352 269.104308 238.726352 273.125086 
C 238.726352 277.145864 240.323824 281.002502 243.166943 283.845622 
C 246.010062 286.688741 249.866701 288.286213 253.887479 288.286213 
z
" style="fill:#fec7b8;stroke:#000000;stroke-linejoin:miter;"/>
   </g>
   <g id="patch_47">
    <path d="M 244.820626 190.335582 
C 248.841404 190.335582 252.698042 188.73811 255.541162 185.89499 
C 258.384281 183.051871 259.981753 179.195232 259.981753 175.174454 
C 259.981753 171.153676 258.384281 167.297038 255.541162 164.453918 
C 252.698042 161.610799 248.841404 160.013327 244.820626 160.013327 
C 240.799848 160.013327 236.943209 161.610799 234.10009 164.453918 
C 231.25697 167.297038 229.659498 171.153676 229.659498 175.174454 
C 229.659498 179.195232 231.25697 183.051871 234.10009 185.89499 
C 236.943209 188.73811 240.799848 190.335582 244.820626 190.335582 
z
" style="fill:#fec7b8;stroke:#000000;stroke-linejoin:miter;"/>
   </g>
   <g id="patch_48">
    <path d="M 192.966156 266.03825 
C 196.986934 266.03825 200.843572 264.440778 203.686692 261.597658 
C 206.529811 258.754539 208.127283 254.8979 208.127283 250.877122 
C 208.127283 246.856344 206.529811 242.999706 203.686692 240.156586 
C 200.843572 237.313467 196.986934 235.715995 192.966156 235.715995 
C 188.945378 235.715995 185.088739 237.313467 182.24562 240.156586 
C 179.4025 242.999706 177.805028 246.856344 177.805028 250.877122 
C 177.805028 254.8979 179.4025 258.754539 182.24562 261.597658 
C 185.088739 264.440778 188.945378 266.03825 192.966156 266.03825 
z
" style="fill:#fec7b8;stroke:#000000;stroke-linejoin:miter;"/>
   </g>
   <g id="patch_49">
    <path d="M 97.783563 216.671671 
C 101.804341 216.671671 105.66098 215.074199 108.504099 212.23108 
C 111.347218 209.38796 112.94469 205.531322 112.94469 201.510544 
C 112.94469 197.489766 111.347218 193.633127 108.504099 190.790008 
C 105.66098 187.946888 101.804341 186.349416 97.783563 186.349416 
C 93.762785 186.349416 89.906147 187.946888 87.063027 190.790008 
C 84.219908 193.633127 82.622436 197.489766 82.622436 201.510544 
C 82.622436 205.531322 84.219908 209.38796 87.063027 212.23108 
C 89.906147 215.074199 93.762785 216.671671 97.783563 216.671671 
z
" style="fill:#fec7b8;stroke:#000000;stroke-linejoin:miter;"/>
   </g>
   <g id="patch_50">
    <path d="M 299.117428 313.367586 
C 303.138206 313.367586 306.994844 311.770114 309.837964 308.926994 
C 312.681083 306.083875 314.278555 302.227236 314.278555 298.206458 
C 314.278555 294.18568 312.681083 290.329042 309.837964 287.485922 
C 306.994844 284.642803 303.138206 283.045331 299.117428 283.045331 
C 295.09665 283.045331 291.240011 284.642803 288.396892 287.485922 
C 285.553772 290.329042 283.9563 294.18568 283.9563 298.206458 
C 283.9563 302.227236 285.553772 306.083875 288.396892 308.926994 
C 291.240011 311.770114 295.09665 313.367586 299.117428 313.367586 
z
" style="fill:#fec7b8;stroke:#000000;stroke-linejoin:miter;"/>
   </g>
   <g id="patch_51">
    <path d="M 311.826297 420.749814 
C 315.847075 420.749814 319.703714 419.152342 322.546833 416.309222 
C 325.389953 413.466103 326.987425 409.609464 326.987425 405.588686 
C 326.987425 401.567908 325.389953 397.71127 322.546833 394.86815 
C 319.703714 392.025031 315.847075 390.427559 311.826297 390.427559 
C 307.805519 390.427559 303.948881 392.025031 301.105761 394.86815 
C 298.262642 397.71127 296.66517 401.567908 296.66517 405.588686 
C 296.66517 409.609464 298.262642 413.466103 301.105761 416.309222 
C 303.948881 419.152342 307.805519 420.749814 311.826297 420.749814 
z
" style="fill:#fec7b8;stroke:#000000;stroke-linejoin:miter;"/>
   </g>
   <g id="patch_52">
    <path d="M 203.861935 463.218567 
C 207.882713 463.218567 211.739352 461.621095 214.582471 458.777975 
C 217.42559 455.934856 219.023062 452.078217 219.023062 448.057439 
C 219.023062 444.036661 217.42559 440.180023 214.582471 437.336903 
C 211.739352 434.493784 207.882713 432.896312 203.861935 432.896312 
C 199.841157 432.896312 195.984519 434.493784 193.141399 437.336903 
C 190.29828 440.180023 188.700808 444.036661 188.700808 448.057439 
C 188.700808 452.078217 190.29828 455.934856 193.141399 458.777975 
C 195.984519 461.621095 199.841157 463.218567 203.861935 463.218567 
z
" style="fill:#fec7b8;stroke:#000000;stroke-linejoin:miter;"/>
   </g>
   <g id="patch_53">
    <path d="M 168.244593 550.938462 
C 172.265371 550.938462 176.12201 549.34099 178.965129 546.49787 
C 181.808248 543.654751 183.40572 539.798112 183.40572 535.777334 
C 183.40572 531.756556 181.808248 527.899918 178.965129 525.056798 
C 176.12201 522.213679 172.265371 520.616207 168.244593 520.616207 
C 164.223815 520.616207 160.367176 522.213679 157.524057 525.056798 
C 154.680938 527.899918 153.083466 531.756556 153.083466 535.777334 
C 153.083466 539.798112 154.680938 543.654751 157.524057 546.49787 
C 160.367176 549.34099 164.223815 550.938462 168.244593 550.938462 
z
" style="fill:#fec7b8;stroke:#000000;stroke-linejoin:miter;"/>
   </g>
   <g id="patch_54">
    <path d="M 135.426242 464.843253 
C 139.44702 464.843253 143.303658 463.245781 146.146778 460.402661 
C 148.989897 457.559542 150.587369 453.702903 150.587369 449.682125 
C 150.587369 445.661348 148.989897 441.804709 146.146778 438.96159 
C 143.303658 436.11847 139.44702 434.520998 135.426242 434.520998 
C 131.405464 434.520998 127.548825 436.11847 124.705706 438.96159 
C 121.862586 441.804709 120.265114 445.661348 120.265114 449.682125 
C 120.265114 453.702903 121.862586 457.559542 124.705706 460.402661 
C 127.548825 463.245781 131.405464 464.843253 135.426242 464.843253 
z
" style="fill:#fec7b8;stroke:#000000;stroke-linejoin:miter;"/>
   </g>
   <g id="patch_55">
    <path d="M 64.502366 410.267165 
C 68.523144 410.267165 72.379783 408.669693 75.222902 405.826574 
C 78.066022 402.983454 79.663494 399.126816 79.663494 395.106038 
C 79.663494 391.08526 78.066022 387.228621 75.222902 384.385502 
C 72.379783 381.542382 68.523144 379.94491 64.502366 379.94491 
C 60.481588 379.94491 56.62495 381.542382 53.78183 384.385502 
C 50.938711 387.228621 49.341239 391.08526 49.341239 395.106038 
C 49.341239 399.126816 50.938711 402.983454 53.78183 405.826574 
C 56.62495 408.669693 60.481588 410.267165 64.502366 410.267165 
z
" style="fill:#fec7b8;stroke:#000000;stroke-linejoin:miter;"/>
   </g>
   <g id="patch_56">
    <path d="M 162.68886 162.489034 
C 166.709638 162.489034 170.566277 160.891562 173.409396 158.048443 
C 176.252515 155.205323 177.849987 151.348685 177.849987 147.327907 
C 177.849987 143.307129 176.252515 139.45049 173.409396 136.607371 
C 170.566277 133.764251 166.709638 132.166779 162.68886 132.166779 
C 158.668082 132.166779 154.811443 133.764251 151.968324 136.607371 
C 149.125205 139.45049 147.527733 143.307129 147.527733 147.327907 
C 147.527733 151.348685 149.125205 155.205323 151.968324 158.048443 
C 154.811443 160.891562 158.668082 162.489034 162.68886 162.489034 
z
" style="fill:#fec7b8;stroke:#000000;stroke-linejoin:miter;"/>
   </g>
   <g id="patch_57">
    <path d="M 220.84739 245.400145 
C 224.868168 245.400145 228.724806 243.802673 231.567926 240.959554 
C 234.411045 238.116435 236.008517 234.259796 236.008517 230.239018 
C 236.008517 226.21824 234.411045 222.361602 231.567926 219.518482 
C 228.724806 216.675363 224.868168 215.077891 220.84739 215.077891 
C 216.826612 215.077891 212.969973 216.675363 210.126854 219.518482 
C 207.283734 222.361602 205.686262 226.21824 205.686262 230.239018 
C 205.686262 234.259796 207.283734 238.116435 210.126854 240.959554 
C 212.969973 243.802673 216.826612 245.400145 220.84739 245.400145 
z
" style="fill:#fec7b8;stroke:#000000;stroke-linejoin:miter;"/>
   </g>
   <g id="patch_58">
    <path d="M 251.219348 411.562046 
C 255.240126 411.562046 259.096765 409.964574 261.939884 407.121455 
C 264.783003 404.278335 266.380475 400.421697 266.380475 396.400919 
C 266.380475 392.380141 264.783003 388.523502 261.939884 385.680383 
C 259.096765 382.837263 255.240126 381.239791 251.219348 381.239791 
C 247.19857 381.239791 243.341932 382.837263 240.498812 385.680383 
C 237.655693 388.523502 236.058221 392.380141 236.058221 396.400919 
C 236.058221 400.421697 237.655693 404.278335 240.498812 407.121455 
C 243.341932 409.964574 247.19857 411.562046 251.219348 411.562046 
z
" style="fill:#fec7b8;stroke:#000000;stroke-linejoin:miter;"/>
   </g>
   <g id="patch_59">
    <path d="M 145.953069 48.183793 
C 149.973847 48.183793 153.830485 46.586321 156.673605 43.743202 
C 159.516724 40.900082 161.114196 37.043444 161.114196 33.022666 
C 161.114196 29.001888 159.516724 25.145249 156.673605 22.30213 
C 153.830485 19.45901 149.973847 17.861538 145.953069 17.861538 
C 141.932291 17.861538 138.075652 19.45901 135.232533 22.30213 
C 132.389413 25.145249 130.791941 29.001888 130.791941 33.022666 
C 130.791941 37.043444 132.389413 40.900082 135.232533 43.743202 
C 138.075652 46.586321 141.932291 48.183793 145.953069 48.183793 
z
" style="fill:#fec7b8;stroke:#000000;stroke-linejoin:miter;"/>
   </g>
   <g id="patch_60">
    <path clip-path="url(#pcbc60831d1)" d="M 244.820626 215.983799 
C 250.232008 215.983799 255.422483 213.833834 259.248908 210.007409 
C 263.075333 206.180984 265.225298 200.990509 265.225298 195.579127 
C 265.225298 190.167744 263.075333 184.97727 259.248908 181.150844 
C 255.422483 177.324419 250.232008 175.174454 244.820626 175.174454 
C 239.409243 175.174454 234.218769 177.324419 230.392343 181.150844 
C 226.565918 184.97727 224.415953 190.167744 224.415953 195.579127 
C 224.415953 200.990509 226.565918 206.180984 230.392343 210.007409 
C 234.218769 213.833834 239.409243 215.983799 244.820626 215.983799 
z
" style="fill:none;stroke:#00d1ff;stroke-linejoin:miter;"/>
   </g>
   <g id="patch_61">
    <path clip-path="url(#pcbc60831d1)" d="M 244.820626 236.388472 
C 252.937699 236.388472 260.723411 233.163524 266.463049 227.423886 
C 272.202687 221.684249 275.427634 213.898537 275.427634 205.781463 
C 275.427634 197.664389 272.202687 189.878677 266.463049 184.13904 
C 260.723411 178.399402 252.937699 175.174454 244.820626 175.174454 
C 236.703552 175.174454 228.91784 178.399402 223.178202 184.13904 
C 217.438565 189.878677 214.213617 197.664389 214.213617 205.781463 
C 214.213617 213.898537 217.438565 221.684249 223.178202 227.423886 
C 228.91784 233.163524 236.703552 236.388472 244.820626 236.388472 
z
" style="fill:none;stroke:#00d1ff;stroke-linejoin:miter;"/>
   </g>
   <g id="patch_62">
    <path clip-path="url(#pcbc60831d1)" d="M 244.820626 256.793144 
C 255.643391 256.793144 266.02434 252.493214 273.67719 244.840364 
C 281.330041 237.187513 285.629971 226.806564 285.629971 215.983799 
C 285.629971 205.161034 281.330041 194.780085 273.67719 187.127235 
C 266.02434 179.474384 255.643391 175.174454 244.820626 175.174454 
C 233.997861 175.174454 223.616912 179.474384 215.964061 187.127235 
C 208.311211 194.780085 204.011281 205.161034 204.011281 215.983799 
C 204.011281 226.806564 208.311211 237.187513 215.964061 244.840364 
C 223.616912 252.493214 233.997861 256.793144 244.820626 256.793144 
z
" style="fill:none;stroke:#00d1ff;stroke-linejoin:miter;"/>
   </g>
   <g id="patch_63">
    <path clip-path="url(#pcbc60831d1)" d="M 244.820626 277.197817 
C 258.349082 277.197817 271.325269 271.822904 280.891331 262.256841 
C 290.457394 252.690778 295.832307 239.714591 295.832307 226.186135 
C 295.832307 212.657679 290.457394 199.681493 280.891331 190.11543 
C 271.325269 180.549367 258.349082 175.174454 244.820626 175.174454 
C 231.29217 175.174454 218.315983 180.549367 208.74992 190.11543 
C 199.183857 199.681493 193.808945 212.657679 193.808945 226.186135 
C 193.808945 239.714591 199.183857 252.690778 208.74992 262.256841 
C 218.315983 271.822904 231.29217 277.197817 244.820626 277.197817 
z
" style="fill:none;stroke:#00d1ff;stroke-linejoin:miter;"/>
   </g>
   <g id="text_1">
    <!-- I -->
    <g transform="translate(27.529233 360.290088)scale(0.1 -0.1)">
     <defs>
      <path d="M 9.8125 72.90625 
L 19.671875 72.90625 
L 19.671875 0 
L 9.8125 0 
z
" id="DejaVuSans-73"/>
     </defs>
     <use xlink:href="#DejaVuSans-73"/>
    </g>
   </g>
   <g id="text_2">
    <!--   -->
    <g transform="translate(155.827822 336.03775)scale(0.1 -0.1)">
     <defs>
      <path id="DejaVuSans-32"/>
     </defs>
     <use xlink:href="#DejaVuSans-32"/>
    </g>
   </g>
   <g id="text_3">
    <!-- a -->
    <g transform="translate(101.06452 277.159709)scale(0.1 -0.1)">
     <defs>
      <path d="M 34.28125 27.484375 
Q 23.390625 27.484375 19.1875 25 
Q 14.984375 22.515625 14.984375 16.5 
Q 14.984375 11.71875 18.140625 8.90625 
Q 21.296875 6.109375 26.703125 6.109375 
Q 34.1875 6.109375 38.703125 11.40625 
Q 43.21875 16.703125 43.21875 25.484375 
L 43.21875 27.484375 
z
M 52.203125 31.203125 
L 52.203125 0 
L 43.21875 0 
L 43.21875 8.296875 
Q 40.140625 3.328125 35.546875 0.953125 
Q 30.953125 -1.421875 24.3125 -1.421875 
Q 15.921875 -1.421875 10.953125 3.296875 
Q 6 8.015625 6 15.921875 
Q 6 25.140625 12.171875 29.828125 
Q 18.359375 34.515625 30.609375 34.515625 
L 43.21875 34.515625 
L 43.21875 35.40625 
Q 43.21875 41.609375 39.140625 45 
Q 35.0625 48.390625 27.6875 48.390625 
Q 23 48.390625 18.546875 47.265625 
Q 14.109375 46.140625 10.015625 43.890625 
L 10.015625 52.203125 
Q 14.9375 54.109375 19.578125 55.046875 
Q 24.21875 56 28.609375 56 
Q 40.484375 56 46.34375 49.84375 
Q 52.203125 43.703125 52.203125 31.203125 
z
" id="DejaVuSans-97"/>
     </defs>
     <use xlink:href="#DejaVuSans-97"/>
    </g>
   </g>
   <g id="text_4">
    <!-- m -->
    <g transform="translate(49.616536 266.278196)scale(0.1 -0.1)">
     <defs>
      <path d="M 52 44.1875 
Q 55.375 50.25 60.0625 53.125 
Q 64.75 56 71.09375 56 
Q 79.640625 56 84.28125 50.015625 
Q 88.921875 44.046875 88.921875 33.015625 
L 88.921875 0 
L 79.890625 0 
L 79.890625 32.71875 
Q 79.890625 40.578125 77.09375 44.375 
Q 74.3125 48.1875 68.609375 48.1875 
Q 61.625 48.1875 57.5625 43.546875 
Q 53.515625 38.921875 53.515625 30.90625 
L 53.515625 0 
L 44.484375 0 
L 44.484375 32.71875 
Q 44.484375 40.625 41.703125 44.40625 
Q 38.921875 48.1875 33.109375 48.1875 
Q 26.21875 48.1875 22.15625 43.53125 
Q 18.109375 38.875 18.109375 30.90625 
L 18.109375 0 
L 9.078125 0 
L 9.078125 54.6875 
L 18.109375 54.6875 
L 18.109375 46.1875 
Q 21.1875 51.21875 25.484375 53.609375 
Q 29.78125 56 35.6875 56 
Q 41.65625 56 45.828125 52.96875 
Q 50 49.953125 52 44.1875 
z
" id="DejaVuSans-109"/>
     </defs>
     <use xlink:href="#DejaVuSans-109"/>
    </g>
   </g>
   <g id="text_5">
    <!-- c -->
    <g transform="translate(251.13826 275.884461)scale(0.1 -0.1)">
     <defs>
      <path d="M 48.78125 52.59375 
L 48.78125 44.1875 
Q 44.96875 46.296875 41.140625 47.34375 
Q 37.3125 48.390625 33.40625 48.390625 
Q 24.65625 48.390625 19.8125 42.84375 
Q 14.984375 37.3125 14.984375 27.296875 
Q 14.984375 17.28125 19.8125 11.734375 
Q 24.65625 6.203125 33.40625 6.203125 
Q 37.3125 6.203125 41.140625 7.25 
Q 44.96875 8.296875 48.78125 10.40625 
L 48.78125 2.09375 
Q 45.015625 0.34375 40.984375 -0.53125 
Q 36.96875 -1.421875 32.421875 -1.421875 
Q 20.0625 -1.421875 12.78125 6.34375 
Q 5.515625 14.109375 5.515625 27.296875 
Q 5.515625 40.671875 12.859375 48.328125 
Q 20.21875 56 33.015625 56 
Q 37.15625 56 41.109375 55.140625 
Q 45.0625 54.296875 48.78125 52.59375 
z
" id="DejaVuSans-99"/>
     </defs>
     <use xlink:href="#DejaVuSans-99"/>
    </g>
   </g>
   <g id="text_6">
    <!-- o -->
    <g transform="translate(241.761251 177.933829)scale(0.1 -0.1)">
     <defs>
      <path d="M 30.609375 48.390625 
Q 23.390625 48.390625 19.1875 42.75 
Q 14.984375 37.109375 14.984375 27.296875 
Q 14.984375 17.484375 19.15625 11.84375 
Q 23.34375 6.203125 30.609375 6.203125 
Q 37.796875 6.203125 41.984375 11.859375 
Q 46.1875 17.53125 46.1875 27.296875 
Q 46.1875 37.015625 41.984375 42.703125 
Q 37.796875 48.390625 30.609375 48.390625 
z
M 30.609375 56 
Q 42.328125 56 49.015625 48.375 
Q 55.71875 40.765625 55.71875 27.296875 
Q 55.71875 13.875 49.015625 6.21875 
Q 42.328125 -1.421875 30.609375 -1.421875 
Q 18.84375 -1.421875 12.171875 6.21875 
Q 5.515625 13.875 5.515625 27.296875 
Q 5.515625 40.765625 12.171875 48.375 
Q 18.84375 56 30.609375 56 
z
" id="DejaVuSans-111"/>
     </defs>
     <use xlink:href="#DejaVuSans-111"/>
    </g>
   </g>
   <g id="text_7">
    <!-- l -->
    <g transform="translate(191.577093 253.636497)scale(0.1 -0.1)">
     <defs>
      <path d="M 9.421875 75.984375 
L 18.40625 75.984375 
L 18.40625 0 
L 9.421875 0 
z
" id="DejaVuSans-108"/>
     </defs>
     <use xlink:href="#DejaVuSans-108"/>
    </g>
   </g>
   <g id="text_8">
    <!-- u -->
    <g transform="translate(94.614813 204.269919)scale(0.1 -0.1)">
     <defs>
      <path d="M 8.5 21.578125 
L 8.5 54.6875 
L 17.484375 54.6875 
L 17.484375 21.921875 
Q 17.484375 14.15625 20.5 10.265625 
Q 23.53125 6.390625 29.59375 6.390625 
Q 36.859375 6.390625 41.078125 11.03125 
Q 45.3125 15.671875 45.3125 23.6875 
L 45.3125 54.6875 
L 54.296875 54.6875 
L 54.296875 0 
L 45.3125 0 
L 45.3125 8.40625 
Q 42.046875 3.421875 37.71875 1 
Q 33.40625 -1.421875 27.6875 -1.421875 
Q 18.265625 -1.421875 13.375 4.4375 
Q 8.5 10.296875 8.5 21.578125 
z
M 31.109375 56 
z
" id="DejaVuSans-117"/>
     </defs>
     <use xlink:href="#DejaVuSans-117"/>
    </g>
   </g>
   <g id="text_9">
    <!-- t -->
    <g transform="translate(297.157271 300.965833)scale(0.1 -0.1)">
     <defs>
      <path d="M 18.3125 70.21875 
L 18.3125 54.6875 
L 36.8125 54.6875 
L 36.8125 47.703125 
L 18.3125 47.703125 
L 18.3125 18.015625 
Q 18.3125 11.328125 20.140625 9.421875 
Q 21.96875 7.515625 27.59375 7.515625 
L 36.8125 7.515625 
L 36.8125 0 
L 27.59375 0 
Q 17.1875 0 13.234375 3.875 
Q 9.28125 7.765625 9.28125 18.015625 
L 9.28125 47.703125 
L 2.6875 47.703125 
L 2.6875 54.6875 
L 9.28125 54.6875 
L 9.28125 70.21875 
z
" id="DejaVuSans-116"/>
     </defs>
     <use xlink:href="#DejaVuSans-116"/>
    </g>
   </g>
   <g id="text_10">
    <!-- i -->
    <g transform="translate(310.437235 408.348061)scale(0.1 -0.1)">
     <defs>
      <path d="M 9.421875 54.6875 
L 18.40625 54.6875 
L 18.40625 0 
L 9.421875 0 
z
M 9.421875 75.984375 
L 18.40625 75.984375 
L 18.40625 64.59375 
L 9.421875 64.59375 
z
" id="DejaVuSans-105"/>
     </defs>
     <use xlink:href="#DejaVuSans-105"/>
    </g>
   </g>
   <g id="text_11">
    <!-- e -->
    <g transform="translate(200.785373 450.816814)scale(0.1 -0.1)">
     <defs>
      <path d="M 56.203125 29.59375 
L 56.203125 25.203125 
L 14.890625 25.203125 
Q 15.484375 15.921875 20.484375 11.0625 
Q 25.484375 6.203125 34.421875 6.203125 
Q 39.59375 6.203125 44.453125 7.46875 
Q 49.3125 8.734375 54.109375 11.28125 
L 54.109375 2.78125 
Q 49.265625 0.734375 44.1875 -0.34375 
Q 39.109375 -1.421875 33.890625 -1.421875 
Q 20.796875 -1.421875 13.15625 6.1875 
Q 5.515625 13.8125 5.515625 26.8125 
Q 5.515625 40.234375 12.765625 48.109375 
Q 20.015625 56 32.328125 56 
Q 43.359375 56 49.78125 48.890625 
Q 56.203125 41.796875 56.203125 29.59375 
z
M 47.21875 32.234375 
Q 47.125 39.59375 43.09375 43.984375 
Q 39.0625 48.390625 32.421875 48.390625 
Q 24.90625 48.390625 20.390625 44.140625 
Q 15.875 39.890625 15.1875 32.171875 
z
" id="DejaVuSans-101"/>
     </defs>
     <use xlink:href="#DejaVuSans-101"/>
    </g>
   </g>
   <g id="text_12">
    <!-- d -->
    <g transform="translate(165.070374 538.536709)scale(0.1 -0.1)">
     <defs>
      <path d="M 45.40625 46.390625 
L 45.40625 75.984375 
L 54.390625 75.984375 
L 54.390625 0 
L 45.40625 0 
L 45.40625 8.203125 
Q 42.578125 3.328125 38.25 0.953125 
Q 33.9375 -1.421875 27.875 -1.421875 
Q 17.96875 -1.421875 11.734375 6.484375 
Q 5.515625 14.40625 5.515625 27.296875 
Q 5.515625 40.1875 11.734375 48.09375 
Q 17.96875 56 27.875 56 
Q 33.9375 56 38.25 53.625 
Q 42.578125 51.265625 45.40625 46.390625 
z
M 14.796875 27.296875 
Q 14.796875 17.390625 18.875 11.75 
Q 22.953125 6.109375 30.078125 6.109375 
Q 37.203125 6.109375 41.296875 11.75 
Q 45.40625 17.390625 45.40625 27.296875 
Q 45.40625 37.203125 41.296875 42.84375 
Q 37.203125 48.484375 30.078125 48.484375 
Q 22.953125 48.484375 18.875 42.84375 
Q 14.796875 37.203125 14.796875 27.296875 
z
" id="DejaVuSans-100"/>
     </defs>
     <use xlink:href="#DejaVuSans-100"/>
    </g>
   </g>
   <g id="text_13">
    <!-- g -->
    <g transform="translate(132.252023 452.4415)scale(0.1 -0.1)">
     <defs>
      <path d="M 45.40625 27.984375 
Q 45.40625 37.75 41.375 43.109375 
Q 37.359375 48.484375 30.078125 48.484375 
Q 22.859375 48.484375 18.828125 43.109375 
Q 14.796875 37.75 14.796875 27.984375 
Q 14.796875 18.265625 18.828125 12.890625 
Q 22.859375 7.515625 30.078125 7.515625 
Q 37.359375 7.515625 41.375 12.890625 
Q 45.40625 18.265625 45.40625 27.984375 
z
M 54.390625 6.78125 
Q 54.390625 -7.171875 48.1875 -13.984375 
Q 42 -20.796875 29.203125 -20.796875 
Q 24.46875 -20.796875 20.265625 -20.09375 
Q 16.0625 -19.390625 12.109375 -17.921875 
L 12.109375 -9.1875 
Q 16.0625 -11.328125 19.921875 -12.34375 
Q 23.78125 -13.375 27.78125 -13.375 
Q 36.625 -13.375 41.015625 -8.765625 
Q 45.40625 -4.15625 45.40625 5.171875 
L 45.40625 9.625 
Q 42.625 4.78125 38.28125 2.390625 
Q 33.9375 0 27.875 0 
Q 17.828125 0 11.671875 7.65625 
Q 5.515625 15.328125 5.515625 27.984375 
Q 5.515625 40.671875 11.671875 48.328125 
Q 17.828125 56 27.875 56 
Q 33.9375 56 38.28125 53.609375 
Q 42.625 51.21875 45.40625 46.390625 
L 45.40625 54.6875 
L 54.390625 54.6875 
z
" id="DejaVuSans-103"/>
     </defs>
     <use xlink:href="#DejaVuSans-103"/>
    </g>
   </g>
   <g id="text_14">
    <!-- r -->
    <g transform="translate(62.446898 397.865413)scale(0.1 -0.1)">
     <defs>
      <path d="M 41.109375 46.296875 
Q 39.59375 47.171875 37.8125 47.578125 
Q 36.03125 48 33.890625 48 
Q 26.265625 48 22.1875 43.046875 
Q 18.109375 38.09375 18.109375 28.8125 
L 18.109375 0 
L 9.078125 0 
L 9.078125 54.6875 
L 18.109375 54.6875 
L 18.109375 46.1875 
Q 20.953125 51.171875 25.484375 53.578125 
Q 30.03125 56 36.53125 56 
Q 37.453125 56 38.578125 55.875 
Q 39.703125 55.765625 41.0625 55.515625 
z
" id="DejaVuSans-114"/>
     </defs>
     <use xlink:href="#DejaVuSans-114"/>
    </g>
   </g>
   <g id="text_15">
    <!-- p -->
    <g transform="translate(159.514641 150.087282)scale(0.1 -0.1)">
     <defs>
      <path d="M 18.109375 8.203125 
L 18.109375 -20.796875 
L 9.078125 -20.796875 
L 9.078125 54.6875 
L 18.109375 54.6875 
L 18.109375 46.390625 
Q 20.953125 51.265625 25.265625 53.625 
Q 29.59375 56 35.59375 56 
Q 45.5625 56 51.78125 48.09375 
Q 58.015625 40.1875 58.015625 27.296875 
Q 58.015625 14.40625 51.78125 6.484375 
Q 45.5625 -1.421875 35.59375 -1.421875 
Q 29.59375 -1.421875 25.265625 0.953125 
Q 20.953125 3.328125 18.109375 8.203125 
z
M 48.6875 27.296875 
Q 48.6875 37.203125 44.609375 42.84375 
Q 40.53125 48.484375 33.40625 48.484375 
Q 26.265625 48.484375 22.1875 42.84375 
Q 18.109375 37.203125 18.109375 27.296875 
Q 18.109375 17.390625 22.1875 11.75 
Q 26.265625 6.109375 33.40625 6.109375 
Q 40.53125 6.109375 44.609375 11.75 
Q 48.6875 17.390625 48.6875 27.296875 
z
" id="DejaVuSans-112"/>
     </defs>
     <use xlink:href="#DejaVuSans-112"/>
    </g>
   </g>
   <g id="text_16">
    <!-- h -->
    <g transform="translate(217.67864 232.998393)scale(0.1 -0.1)">
     <defs>
      <path d="M 54.890625 33.015625 
L 54.890625 0 
L 45.90625 0 
L 45.90625 32.71875 
Q 45.90625 40.484375 42.875 44.328125 
Q 39.84375 48.1875 33.796875 48.1875 
Q 26.515625 48.1875 22.3125 43.546875 
Q 18.109375 38.921875 18.109375 30.90625 
L 18.109375 0 
L 9.078125 0 
L 9.078125 75.984375 
L 18.109375 75.984375 
L 18.109375 46.1875 
Q 21.34375 51.125 25.703125 53.5625 
Q 30.078125 56 35.796875 56 
Q 45.21875 56 50.046875 50.171875 
Q 54.890625 44.34375 54.890625 33.015625 
z
" id="DejaVuSans-104"/>
     </defs>
     <use xlink:href="#DejaVuSans-104"/>
    </g>
   </g>
   <g id="text_17">
    <!-- w -->
    <g transform="translate(247.130286 399.160294)scale(0.1 -0.1)">
     <defs>
      <path d="M 4.203125 54.6875 
L 13.1875 54.6875 
L 24.421875 12.015625 
L 35.59375 54.6875 
L 46.1875 54.6875 
L 57.421875 12.015625 
L 68.609375 54.6875 
L 77.59375 54.6875 
L 63.28125 0 
L 52.6875 0 
L 40.921875 44.828125 
L 29.109375 0 
L 18.5 0 
z
" id="DejaVuSans-119"/>
     </defs>
     <use xlink:href="#DejaVuSans-119"/>
    </g>
   </g>
   <g id="text_18">
    <!-- s -->
    <g transform="translate(143.348381 35.782041)scale(0.1 -0.1)">
     <defs>
      <path d="M 44.28125 53.078125 
L 44.28125 44.578125 
Q 40.484375 46.53125 36.375 47.5 
Q 32.28125 48.484375 27.875 48.484375 
Q 21.1875 48.484375 17.84375 46.4375 
Q 14.5 44.390625 14.5 40.28125 
Q 14.5 37.15625 16.890625 35.375 
Q 19.28125 33.59375 26.515625 31.984375 
L 29.59375 31.296875 
Q 39.15625 29.25 43.1875 25.515625 
Q 47.21875 21.78125 47.21875 15.09375 
Q 47.21875 7.46875 41.1875 3.015625 
Q 35.15625 -1.421875 24.609375 -1.421875 
Q 20.21875 -1.421875 15.453125 -0.5625 
Q 10.6875 0.296875 5.421875 2 
L 5.421875 11.28125 
Q 10.40625 8.6875 15.234375 7.390625 
Q 20.0625 6.109375 24.8125 6.109375 
Q 31.15625 6.109375 34.5625 8.28125 
Q 37.984375 10.453125 37.984375 14.40625 
Q 37.984375 18.0625 35.515625 20.015625 
Q 33.0625 21.96875 24.703125 23.78125 
L 21.578125 24.515625 
Q 13.234375 26.265625 9.515625 29.90625 
Q 5.8125 33.546875 5.8125 39.890625 
Q 5.8125 47.609375 11.28125 51.796875 
Q 16.75 56 26.8125 56 
Q 31.78125 56 36.171875 55.265625 
Q 40.578125 54.546875 44.28125 53.078125 
z
" id="DejaVuSans-115"/>
     </defs>
     <use xlink:href="#DejaVuSans-115"/>
    </g>
   </g>
  </g>
 </g>
 <defs>
  <clipPath id="pcbc60831d1">
   <rect height="554.4" width="345.44147" x="7.2" y="7.2"/>
  </clipPath>
 </defs>
</svg>
