<svg xmlns="http://www.w3.org/2000/svg" id="prefigure-worksheet-vectors-figure" viewBox="0 0 345 425">
  <defs>
    <clipPath id="prefigure-worksheet-vectors-clipPath-0">
      <rect x="5.0" y="20.0" width="320.0" height="400.0"/>
    </clipPath>
    <clipPath id="prefigure-worksheet-vectors-clipPath-1">
      <rect x="5.0" y="20.0" width="320.0" height="400.0"/>
    </clipPath>
    <marker id="prefigure-worksheet-vectors-arrow-head-end-3_None_24_60-black" markerWidth="13.5" markerHeight="12.0" markerUnits="userSpaceOnUse" orient="auto-start-reverse" refX="9.8" refY="6.0">
      <path d="M 13.5 6.0L 0.0 12.0L 2.6 7.5L 2.6 4.5L 0.0 0.0Z" fill="black" stroke="none"/>
    </marker>
    <marker id="prefigure-worksheet-vectors-arrow-head-end-3_None_24_60-black-outline" markerWidth="17.5" markerHeight="16.0" markerUnits="userSpaceOnUse" orient="auto-start-reverse" refX="11.8" refY="8.0">
      <path d="M 16.3 9.8 L 2.8 15.8 A 2 2 0 0 1 0.0 14.0 L 0.0 2.0 A 2 2 0 0 1 2.8 0.2 L 16.3 6.2 A 2 2 0 0 1 16.3 9.8 Z" fill="white" stroke="none"/>
    </marker>
  </defs>
  <g id="prefigure-worksheet-vectors-grid" stroke="#ccc" stroke-width="1">
    <line x1="5.0" y1="420.0" x2="5.0" y2="20.0"/>
    <line x1="45.0" y1="420.0" x2="45.0" y2="20.0"/>
    <line x1="85.0" y1="420.0" x2="85.0" y2="20.0"/>
    <line x1="125.0" y1="420.0" x2="125.0" y2="20.0"/>
    <line x1="165.0" y1="420.0" x2="165.0" y2="20.0"/>
    <line x1="205.0" y1="420.0" x2="205.0" y2="20.0"/>
    <line x1="245.0" y1="420.0" x2="245.0" y2="20.0"/>
    <line x1="285.0" y1="420.0" x2="285.0" y2="20.0"/>
    <line x1="325.0" y1="420.0" x2="325.0" y2="20.0"/>
    <line x1="5.0" y1="420.0" x2="325.0" y2="420.0"/>
    <line x1="5.0" y1="380.0" x2="325.0" y2="380.0"/>
    <line x1="5.0" y1="340.0" x2="325.0" y2="340.0"/>
    <line x1="5.0" y1="300.0" x2="325.0" y2="300.0"/>
    <line x1="5.0" y1="260.0" x2="325.0" y2="260.0"/>
    <line x1="5.0" y1="220.0" x2="325.0" y2="220.0"/>
    <line x1="5.0" y1="180.0" x2="325.0" y2="180.0"/>
    <line x1="5.0" y1="140.0" x2="325.0" y2="140.0"/>
    <line x1="5.0" y1="100.0" x2="325.0" y2="100.0"/>
    <line x1="5.0" y1="60.0" x2="325.0" y2="60.0"/>
    <line x1="5.0" y1="20.0" x2="325.0" y2="20.0"/>
  </g>
  <g id="prefigure-worksheet-vectors-axes" stroke="black" stroke-width="2">
    <line id="prefigure-worksheet-vectors-line-20" x1="5.0" y1="420.0" x2="325.0" y2="420.0" stroke="black" stroke-width="2"/>
    <line id="prefigure-worksheet-vectors-line-21" x1="5.0" y1="420.0" x2="5.0" y2="20.0" stroke="black" stroke-width="2"/>
  </g>
  <g id="prefigure-worksheet-vectors-label-0" transform="translate(330.0,420.0) translate(0.0,-4.1)">
    <g id="prefigure-worksheet-vectors-g-0">
      <svg xmlns:xlink="http://www.w3.org/1999/xlink" style="vertical-align: -0.200px" width="10.352px" height="8.200px" role="img" focusable="false" viewBox="0 -442 572 453" x="0.0" y="0.0">
        <defs>
          <path id="prefigure-worksheet-vectors-MJX-2-TEX-I-1D465" d="M52 289Q59 331 106 386T222 442Q257 442 286 424T329 379Q371 442 430 442Q467 442 494 420T522 361Q522 332 508 314T481 292T458 288Q439 288 427 299T415 328Q415 374 465 391Q454 404 425 404Q412 404 406 402Q368 386 350 336Q290 115 290 78Q290 50 306 38T341 26Q378 26 414 59T463 140Q466 150 469 151T485 153H489Q504 153 504 145Q504 144 502 134Q486 77 440 33T333 -11Q263 -11 227 52Q186 -10 133 -10H127Q78 -10 57 16T35 71Q35 103 54 123T99 143Q142 143 142 101Q142 81 130 66T107 46T94 41L91 40Q91 39 97 36T113 29T132 26Q168 26 194 71Q203 87 217 139T245 247T261 313Q266 340 266 352Q266 380 251 392T217 404Q177 404 142 372T93 290Q91 281 88 280T72 278H58Q52 284 52 289Z"/>
        </defs>
        <g stroke="currentColor" fill="currentColor" stroke-width="0" transform="scale(1,-1)">
          <g data-mml-node="math">
            <g data-mml-node="mi" data-semantic-type="identifier" data-semantic-role="latinletter" data-semantic-font="italic" data-semantic-annotation="clearspeak:simple" data-semantic-id="0" data-semantic-speech="x">
              <use data-c="1D465" xlink:href="#prefigure-worksheet-vectors-MJX-2-TEX-I-1D465"/>
            </g>
          </g>
        </g>
      </svg>
    </g>
  </g>
  <g id="prefigure-worksheet-vectors-label-1" transform="translate(5.0,15.0) translate(-4.4,-11.7)">
    <g id="prefigure-worksheet-vectors-g-1">
      <svg xmlns:xlink="http://www.w3.org/1999/xlink" style="vertical-align: -3.712px" width="8.872px" height="11.712px" role="img" focusable="false" viewBox="0 -442 490 647" x="0.0" y="0.0">
        <defs>
          <path id="prefigure-worksheet-vectors-MJX-3-TEX-I-1D466" d="M21 287Q21 301 36 335T84 406T158 442Q199 442 224 419T250 355Q248 336 247 334Q247 331 231 288T198 191T182 105Q182 62 196 45T238 27Q261 27 281 38T312 61T339 94Q339 95 344 114T358 173T377 247Q415 397 419 404Q432 431 462 431Q475 431 483 424T494 412T496 403Q496 390 447 193T391 -23Q363 -106 294 -155T156 -205Q111 -205 77 -183T43 -117Q43 -95 50 -80T69 -58T89 -48T106 -45Q150 -45 150 -87Q150 -107 138 -122T115 -142T102 -147L99 -148Q101 -153 118 -160T152 -167H160Q177 -167 186 -165Q219 -156 247 -127T290 -65T313 -9T321 21L315 17Q309 13 296 6T270 -6Q250 -11 231 -11Q185 -11 150 11T104 82Q103 89 103 113Q103 170 138 262T173 379Q173 380 173 381Q173 390 173 393T169 400T158 404H154Q131 404 112 385T82 344T65 302T57 280Q55 278 41 278H27Q21 284 21 287Z"/>
        </defs>
        <g stroke="currentColor" fill="currentColor" stroke-width="0" transform="scale(1,-1)">
          <g data-mml-node="math">
            <g data-mml-node="mi" data-semantic-type="identifier" data-semantic-role="latinletter" data-semantic-font="italic" data-semantic-annotation="clearspeak:simple" data-semantic-id="0" data-semantic-speech="y">
              <use data-c="1D466" xlink:href="#prefigure-worksheet-vectors-MJX-3-TEX-I-1D466"/>
            </g>
          </g>
        </g>
      </svg>
    </g>
  </g>
  <g id="prefigure-worksheet-vectors-vector-a">
    <g transform="translate(131.0,66.0) translate(0.0,-0.0)">
      <g id="prefigure-worksheet-vectors-g-2">
        <svg xmlns:xlink="http://www.w3.org/1999/xlink" style="vertical-align: -0.184px" width="9.576px" height="15.472px" role="img" focusable="false" viewBox="0 -845 529 855" x="0.0" y="0.0">
          <defs>
            <path id="prefigure-worksheet-vectors-MJX-4-TEX-I-1D44E" d="M33 157Q33 258 109 349T280 441Q331 441 370 392Q386 422 416 422Q429 422 439 414T449 394Q449 381 412 234T374 68Q374 43 381 35T402 26Q411 27 422 35Q443 55 463 131Q469 151 473 152Q475 153 483 153H487Q506 153 506 144Q506 138 501 117T481 63T449 13Q436 0 417 -8Q409 -10 393 -10Q359 -10 336 5T306 36L300 51Q299 52 296 50Q294 48 292 46Q233 -10 172 -10Q117 -10 75 30T33 157ZM351 328Q351 334 346 350T323 385T277 405Q242 405 210 374T160 293Q131 214 119 129Q119 126 119 118T118 106Q118 61 136 44T179 26Q217 26 254 59T298 110Q300 114 325 217T351 328Z"/>
            <path id="prefigure-worksheet-vectors-MJX-4-TEX-N-20D7" d="M377 694Q377 702 382 708T397 714Q404 714 409 709Q414 705 419 690Q429 653 460 633Q471 626 471 615Q471 606 468 603T454 594Q411 572 379 531Q377 529 374 525T369 519T364 517T357 516Q350 516 344 521T337 536Q337 555 384 595H213L42 596Q29 605 29 615Q29 622 42 635H401Q377 673 377 694Z"/>
          </defs>
          <g stroke="currentColor" fill="currentColor" stroke-width="0" transform="scale(1,-1)">
            <g data-mml-node="math">
              <g data-mml-node="TeXAtom" data-mjx-texclass="ORD">
                <g data-mml-node="mover" data-semantic-type="overscore" data-semantic-role="latinletter" data-semantic-id="2" data-semantic-children="0,1" data-semantic-attributes="texclass:ORD" data-semantic-speech="ModifyingAbove a With right arrow">
                  <g data-mml-node="mi" data-semantic-type="identifier" data-semantic-role="latinletter" data-semantic-font="italic" data-semantic-annotation="clearspeak:simple" data-semantic-id="0" data-semantic-parent="2" data-semantic-speech="a" data-semantic-prefix="Base">
                    <use data-c="1D44E" xlink:href="#prefigure-worksheet-vectors-MJX-4-TEX-I-1D44E"/>
                  </g>
                  <g data-mml-node="mo" data-semantic-type="relation" data-semantic-role="overaccent" data-semantic-annotation="accent:arrow" data-semantic-id="1" data-semantic-parent="2" data-semantic-speech="right arrow" data-semantic-prefix="Overscript" transform="translate(264.5,31) translate(-250 0)">
                    <use data-c="20D7" xlink:href="#prefigure-worksheet-vectors-MJX-4-TEX-N-20D7"/>
                  </g>
                </g>
              </g>
            </g>
          </g>
        </svg>
      </g>
    </g>
    <path stroke="black" stroke-width="3" fill="none" marker-end="url(#prefigure-worksheet-vectors-arrow-head-end-3_None_24_60-black)" d="M 5.0 420.0 L 123.8 63.5"/>
  </g>
  <g id="prefigure-worksheet-vectors-vector-b">
    <g transform="translate(159.0,334.0) translate(-7.8,-20.1)">
      <g id="prefigure-worksheet-vectors-g-3">
        <svg xmlns:xlink="http://www.w3.org/1999/xlink" style="vertical-align: -0.200px" width="7.768px" height="20.056px" role="img" focusable="false" viewBox="0 -1097 429 1108" x="0.0" y="0.0">
          <defs>
            <path id="prefigure-worksheet-vectors-MJX-5-TEX-I-1D44F" d="M73 647Q73 657 77 670T89 683Q90 683 161 688T234 694Q246 694 246 685T212 542Q204 508 195 472T180 418L176 399Q176 396 182 402Q231 442 283 442Q345 442 383 396T422 280Q422 169 343 79T173 -11Q123 -11 82 27T40 150V159Q40 180 48 217T97 414Q147 611 147 623T109 637Q104 637 101 637H96Q86 637 83 637T76 640T73 647ZM336 325V331Q336 405 275 405Q258 405 240 397T207 376T181 352T163 330L157 322L136 236Q114 150 114 114Q114 66 138 42Q154 26 178 26Q211 26 245 58Q270 81 285 114T318 219Q336 291 336 325Z"/>
            <path id="prefigure-worksheet-vectors-MJX-5-TEX-N-20D7" d="M377 694Q377 702 382 708T397 714Q404 714 409 709Q414 705 419 690Q429 653 460 633Q471 626 471 615Q471 606 468 603T454 594Q411 572 379 531Q377 529 374 525T369 519T364 517T357 516Q350 516 344 521T337 536Q337 555 384 595H213L42 596Q29 605 29 615Q29 622 42 635H401Q377 673 377 694Z"/>
          </defs>
          <g stroke="currentColor" fill="currentColor" stroke-width="0" transform="scale(1,-1)">
            <g data-mml-node="math">
              <g data-mml-node="TeXAtom" data-mjx-texclass="ORD">
                <g data-mml-node="mover" data-semantic-type="overscore" data-semantic-role="latinletter" data-semantic-id="2" data-semantic-children="0,1" data-semantic-attributes="texclass:ORD" data-semantic-speech="ModifyingAbove b With right arrow">
                  <g data-mml-node="mi" data-semantic-type="identifier" data-semantic-role="latinletter" data-semantic-font="italic" data-semantic-annotation="clearspeak:simple" data-semantic-id="0" data-semantic-parent="2" data-semantic-speech="b" data-semantic-prefix="Base">
                    <use data-c="1D44F" xlink:href="#prefigure-worksheet-vectors-MJX-5-TEX-I-1D44F"/>
                  </g>
                  <g data-mml-node="mo" data-semantic-type="relation" data-semantic-role="overaccent" data-semantic-annotation="accent:arrow" data-semantic-id="1" data-semantic-parent="2" data-semantic-speech="right arrow" data-semantic-prefix="Overscript" transform="translate(214.5,283) translate(-250 0)">
                    <use data-c="20D7" xlink:href="#prefigure-worksheet-vectors-MJX-5-TEX-N-20D7"/>
                  </g>
                </g>
              </g>
            </g>
          </g>
        </svg>
      </g>
    </g>
    <path stroke="black" stroke-width="3" fill="none" marker-end="url(#prefigure-worksheet-vectors-arrow-head-end-3_None_24_60-black)" d="M 5.0 420.0 L 161.7 341.6"/>
  </g>
</svg>
