<?xml version="1.0" encoding="UTF-8" standalone="no"?>
<svg xmlns="http://www.w3.org/2000/svg" width="200" height="290" version="1.1">
    <defs>
    <marker style="overflow:visible" id="Arrow1Mstart" refX="0" refY="0" orient="auto">
      <path transform="matrix(0.4,0,0,0.4,4,0)" style="fill:context-stroke;fill-rule:evenodd;stroke:context-stroke;stroke-width:1pt" d="M 0,0 5,-5 -12.5,0 5,5 Z" id="path67873"/>
    </marker>
    <marker style="overflow:visible" id="Arrow1Mend" refX="0" refY="0" orient="auto">
      <path transform="matrix(-0.4,0,0,-0.4,-4,0)" style="fill:context-stroke;fill-rule:evenodd;stroke:context-stroke;stroke-width:1pt" d="M 0,0 5,-5 -12.5,0 5,5 Z" id="path67876"/>
    </marker>
  </defs>
  <g id="layer1">
    <path style="fill:#0000d7;fill-opacity:0.766187;stroke:none;stroke-width:1.091;stroke-linecap:butt;stroke-linejoin:miter;stroke-opacity:1" d="m 17.372508,100.30794 0.138321,0.33409 a 57.650888,41.179206 0 0 1 -0.09364,-0.33409 z m 112.913512,0 a 57.650888,41.179206 0 0 1 -0.0936,0.33409 l 0.13832,-0.33409 z M 19.93887,106.54509 73.851603,237.58485 127.75583,106.56424 A 57.650888,41.179206 0 0 1 73.851603,133.22801 57.650888,41.179206 0 0 1 19.93887,106.54509 Z"/>
    <ellipse style="fill:#0000d7;fill-opacity:0.766187;stroke:#0000d7;stroke-width:1.091;stroke-miterlimit:4;stroke-dasharray:none;stroke-dashoffset:0;stroke-opacity:0.77" cx="73.996323" cy="92.682289" rx="57.650887" ry="41.179207"/>
    <path style="fill:#737373;fill-opacity:0.22;stroke:#000000;stroke-width:1.091;stroke-linecap:butt;stroke-linejoin:miter;stroke-opacity:1" d="m 3.4643166,65.368435 0.1723762,0.419113 A 71.847637,51.660071 0 0 1 3.5199909,65.368435 Z m 140.7188934,0 a 71.847637,51.660071 0 0 1 -0.11667,0.419113 l 0.17237,-0.419113 z M 6.6626561,73.193052 73.851603,237.58485 141.02994,73.21708 A 71.847637,51.660071 0 0 1 73.851603,106.66727 71.847637,51.660071 0 0 1 6.6626561,73.193052 Z"/>
    <ellipse style="fill:#737373;fill-opacity:0.22;stroke:#000000;stroke-width:1.091;stroke-miterlimit:4;stroke-dasharray:none;stroke-dashoffset:0;stroke-opacity:1" cx="74.03196" cy="54.559155" rx="71.847641" ry="51.660072"/>
  </g>
  <g id="layer2">
    <path style="fill:none;stroke:#000000;stroke-width:1.091;stroke-linecap:butt;stroke-linejoin:miter;stroke-miterlimit:4;stroke-dasharray:none;stroke-opacity:1" d="M 73.853765,237.58131 72.90904,54.730149"/>
    <path style="fill:none;stroke:#000000;stroke-width:1.091;stroke-linecap:butt;stroke-linejoin:miter;stroke-miterlimit:4;stroke-dasharray:none;stroke-opacity:1;marker-end:url(#Arrow1Mend)" d="M 72.369111,54.584482 133.01018,28.381903"/>
    <path style="fill:none;stroke:#000000;stroke-width:1.091;stroke-linecap:butt;stroke-linejoin:miter;stroke-miterlimit:4;stroke-dasharray:none;stroke-opacity:1;marker-end:url(#Arrow1Mend)" d="M 73.22276,83.193743 114.17001,65.500727"/>
    <text xml:space="preserve" style="font-size:14.5271px;line-height:1.25;font-family:sans-serif;letter-spacing:0px;word-spacing:0px;stroke-width:1.08953" x="144.71219" y="28.981739"><tspan style="stroke-width:1.08953" x="144.71219" y="28.981739">1.20 m</tspan></text>
    <path style="fill:none;stroke:#000000;stroke-width:1.091;stroke-linecap:butt;stroke-linejoin:miter;stroke-miterlimit:4;stroke-dasharray:none;stroke-opacity:1" d="m 125.53174,111.13971 27.1054,12.87801"/>
    <path style="fill:none;stroke:#000000;stroke-width:1.091;stroke-linecap:butt;stroke-linejoin:miter;stroke-miterlimit:4;stroke-dasharray:none;stroke-opacity:1" d="m 73.851603,237.58485 108.944547,51.7605"/>
    <path style="fill:none;stroke:#000000;stroke-width:1.091;stroke-linecap:butt;stroke-linejoin:miter;stroke-miterlimit:4;stroke-dasharray:none;stroke-opacity:1" d="m 146.01419,54.842445 42.68606,20.280507"/>
    <path style="fill:none;stroke:#000000;stroke-width:1.091;stroke-linecap:butt;stroke-linejoin:miter;stroke-miterlimit:4;stroke-dasharray:none;stroke-opacity:1;marker-start:url(#Arrow1Mstart);marker-end:url(#Arrow1Mend)" d="M 136.78729,264.64413 V 119.36387"/>
    <path style="fill:none;stroke:#000000;stroke-width:1.091;stroke-linecap:butt;stroke-linejoin:miter;stroke-miterlimit:4;stroke-dasharray:none;stroke-opacity:1;marker-start:url(#Arrow1Mstart);marker-end:url(#Arrow1Mend)" d="M 173.14403,281.6654 V 70.390525"/>
    <text xml:space="preserve" style="font-size:14.5271px;line-height:1.25;font-family:sans-serif;letter-spacing:0px;word-spacing:0px;stroke-width:1.08953" x="112.02188" y="177.07877"><tspan style="stroke-width:1.08953" x="112.02188" y="177.07877">3.80 m</tspan></text>
    <text xml:space="preserve" style="font-size:14.5271px;line-height:1.25;font-family:sans-serif;letter-spacing:0px;word-spacing:0px;stroke-width:1.08953" x="147.88332" y="154.78993"><tspan style="stroke-width:1.08953" x="147.88332" y="154.78993">4.00 m</tspan></text>
  </g>
</svg>