<?xml version="1.0" encoding="utf-8" standalone="no"?>
<!DOCTYPE svg PUBLIC "-//W3C//DTD SVG 1.1//EN"
  "http://www.w3.org/Graphics/SVG/1.1/DTD/svg11.dtd">
<!-- Created with matplotlib (http://matplotlib.org/) -->
<svg height="420pt" version="1.1" viewBox="0 0 564 420" width="564pt" xmlns="http://www.w3.org/2000/svg" xmlns:xlink="http://www.w3.org/1999/xlink">
 <defs>
  <style type="text/css">
*{stroke-linecap:butt;stroke-linejoin:round;}
  </style>
 </defs>
 <g id="figure_1">
  <g id="patch_1">
   <path d="
M2.22045e-16 420.48
L564.48 420.48
L564.48 0
L2.22045e-16 0
z
" style="fill:#ffffff;"/>
  </g>
  <g id="axes_1">
   <g id="patch_2">
    <path d="
M7.2 413.28
L557.28 413.28
L557.28 7.2
L7.2 7.2
z
" style="fill:#ffffff;"/>
   </g>
   <g id="PathCollection_1">
    <defs>
     <path d="
M0 1.11803
C0.296506 1.11803 0.580908 1.00023 0.790569 0.790569
C1.00023 0.580908 1.11803 0.296506 1.11803 0
C1.11803 -0.296506 1.00023 -0.580908 0.790569 -0.790569
C0.580908 -1.00023 0.296506 -1.11803 0 -1.11803
C-0.296506 -1.11803 -0.580908 -1.00023 -0.790569 -0.790569
C-1.00023 -0.580908 -1.11803 -0.296506 -1.11803 0
C-1.11803 0.296506 -1.00023 0.580908 -0.790569 0.790569
C-0.580908 1.00023 -0.296506 1.11803 0 1.11803
z
" id="C0_0_af07e0942b"/>
    </defs>
    <g clip-path="url(#pbbce88da59)">
     <use x="17.7784615385" xlink:href="#C0_0_af07e0942b" y="313.951955452"/>
    </g>
    <g clip-path="url(#pbbce88da59)">
     <use x="123.563076923" xlink:href="#C0_0_af07e0942b" y="294.819617628"/>
    </g>
    <g clip-path="url(#pbbce88da59)">
     <use x="229.347692308" xlink:href="#C0_0_af07e0942b" y="170.459421767"/>
    </g>
    <g clip-path="url(#pbbce88da59)">
     <use x="335.132307692" xlink:href="#C0_0_af07e0942b" y="170.459421767"/>
    </g>
    <g clip-path="url(#pbbce88da59)">
     <use x="440.916923077" xlink:href="#C0_0_af07e0942b" y="294.819617628"/>
    </g>
    <g clip-path="url(#pbbce88da59)">
     <use x="546.701538462" xlink:href="#C0_0_af07e0942b" y="313.951955452"/>
    </g>
   </g>
   <g id="PathCollection_2">
    <defs>
     <path d="
M0 1.11803
C0.296506 1.11803 0.580908 1.00023 0.790569 0.790569
C1.00023 0.580908 1.11803 0.296506 1.11803 0
C1.11803 -0.296506 1.00023 -0.580908 0.790569 -0.790569
C0.580908 -1.00023 0.296506 -1.11803 0 -1.11803
C-0.296506 -1.11803 -0.580908 -1.00023 -0.790569 -0.790569
C-1.00023 -0.580908 -1.11803 -0.296506 -1.11803 0
C-1.11803 0.296506 -1.00023 0.580908 -0.790569 0.790569
C-0.580908 1.00023 -0.296506 1.11803 0 1.11803
z
" id="C1_0_af07e0942b"/>
    </defs>
    <g clip-path="url(#pbbce88da59)">
     <use x="17.7784615385" xlink:href="#C1_0_af07e0942b" y="313.951955452"/>
    </g>
    <g clip-path="url(#pbbce88da59)">
     <use x="93.3389010989" xlink:href="#C1_0_af07e0942b" y="303.30710874"/>
    </g>
    <g clip-path="url(#pbbce88da59)">
     <use x="168.899340659" xlink:href="#C1_0_af07e0942b" y="270.310673918"/>
    </g>
    <g clip-path="url(#pbbce88da59)">
     <use x="244.45978022" xlink:href="#C1_0_af07e0942b" y="120.043126148"/>
    </g>
    <g clip-path="url(#pbbce88da59)">
     <use x="320.02021978" xlink:href="#C1_0_af07e0942b" y="120.043126148"/>
    </g>
    <g clip-path="url(#pbbce88da59)">
     <use x="395.580659341" xlink:href="#C1_0_af07e0942b" y="270.310673918"/>
    </g>
    <g clip-path="url(#pbbce88da59)">
     <use x="471.141098901" xlink:href="#C1_0_af07e0942b" y="303.30710874"/>
    </g>
    <g clip-path="url(#pbbce88da59)">
     <use x="546.701538462" xlink:href="#C1_0_af07e0942b" y="313.951955452"/>
    </g>
   </g>
   <g id="PathCollection_3">
    <defs>
     <path d="
M0 1.11803
C0.296506 1.11803 0.580908 1.00023 0.790569 0.790569
C1.00023 0.580908 1.11803 0.296506 1.11803 0
C1.11803 -0.296506 1.00023 -0.580908 0.790569 -0.790569
C0.580908 -1.00023 0.296506 -1.11803 0 -1.11803
C-0.296506 -1.11803 -0.580908 -1.00023 -0.790569 -0.790569
C-1.00023 -0.580908 -1.11803 -0.296506 -1.11803 0
C-1.11803 0.296506 -1.00023 0.580908 -0.790569 0.790569
C-0.580908 1.00023 -0.296506 1.11803 0 1.11803
z
" id="C2_0_af07e0942b"/>
    </defs>
    <g clip-path="url(#pbbce88da59)">
     <use x="17.7784615385" xlink:href="#C2_0_af07e0942b" y="313.951955452"/>
    </g>
    <g clip-path="url(#pbbce88da59)">
     <use x="76.5476923077" xlink:href="#C2_0_af07e0942b" y="306.62717068"/>
    </g>
    <g clip-path="url(#pbbce88da59)">
     <use x="135.316923077" xlink:href="#C2_0_af07e0942b" y="290.239780386"/>
    </g>
    <g clip-path="url(#pbbce88da59)">
     <use x="194.086153846" xlink:href="#C2_0_af07e0942b" y="243.612478156"/>
    </g>
    <g clip-path="url(#pbbce88da59)">
     <use x="252.855384615" xlink:href="#C2_0_af07e0942b" y="88.3347641238"/>
    </g>
    <g clip-path="url(#pbbce88da59)">
     <use x="311.624615385" xlink:href="#C2_0_af07e0942b" y="88.3347641238"/>
    </g>
    <g clip-path="url(#pbbce88da59)">
     <use x="370.393846154" xlink:href="#C2_0_af07e0942b" y="243.612478156"/>
    </g>
    <g clip-path="url(#pbbce88da59)">
     <use x="429.163076923" xlink:href="#C2_0_af07e0942b" y="290.239780386"/>
    </g>
    <g clip-path="url(#pbbce88da59)">
     <use x="487.932307692" xlink:href="#C2_0_af07e0942b" y="306.62717068"/>
    </g>
    <g clip-path="url(#pbbce88da59)">
     <use x="546.701538462" xlink:href="#C2_0_af07e0942b" y="313.951955452"/>
    </g>
   </g>
   <g id="PathCollection_4">
    <defs>
     <path d="
M0 1.11803
C0.296506 1.11803 0.580908 1.00023 0.790569 0.790569
C1.00023 0.580908 1.11803 0.296506 1.11803 0
C1.11803 -0.296506 1.00023 -0.580908 0.790569 -0.790569
C0.580908 -1.00023 0.296506 -1.11803 0 -1.11803
C-0.296506 -1.11803 -0.580908 -1.00023 -0.790569 -0.790569
C-1.00023 -0.580908 -1.11803 -0.296506 -1.11803 0
C-1.11803 0.296506 -1.00023 0.580908 -0.790569 0.790569
C-0.580908 1.00023 -0.296506 1.11803 0 1.11803
z
" id="C3_0_af07e0942b"/>
    </defs>
    <g clip-path="url(#pbbce88da59)">
     <use x="17.7784615385" xlink:href="#C3_0_af07e0942b" y="313.951955452"/>
    </g>
    <g clip-path="url(#pbbce88da59)">
     <use x="65.8623776224" xlink:href="#C3_0_af07e0942b" y="308.379862656"/>
    </g>
    <g clip-path="url(#pbbce88da59)">
     <use x="113.946293706" xlink:href="#C3_0_af07e0942b" y="297.960959871"/>
    </g>
    <g clip-path="url(#pbbce88da59)">
     <use x="162.03020979" xlink:href="#C3_0_af07e0942b" y="275.482107279"/>
    </g>
    <g clip-path="url(#pbbce88da59)">
     <use x="210.114125874" xlink:href="#C3_0_af07e0942b" y="217.184350848"/>
    </g>
    <g clip-path="url(#pbbce88da59)">
     <use x="258.198041958" xlink:href="#C3_0_af07e0942b" y="68.2455621562"/>
    </g>
    <g clip-path="url(#pbbce88da59)">
     <use x="306.281958042" xlink:href="#C3_0_af07e0942b" y="68.2455621562"/>
    </g>
    <g clip-path="url(#pbbce88da59)">
     <use x="354.365874126" xlink:href="#C3_0_af07e0942b" y="217.184350848"/>
    </g>
    <g clip-path="url(#pbbce88da59)">
     <use x="402.44979021" xlink:href="#C3_0_af07e0942b" y="275.482107279"/>
    </g>
    <g clip-path="url(#pbbce88da59)">
     <use x="450.533706294" xlink:href="#C3_0_af07e0942b" y="297.960959871"/>
    </g>
    <g clip-path="url(#pbbce88da59)">
     <use x="498.617622378" xlink:href="#C3_0_af07e0942b" y="308.379862656"/>
    </g>
    <g clip-path="url(#pbbce88da59)">
     <use x="546.701538462" xlink:href="#C3_0_af07e0942b" y="313.951955452"/>
    </g>
   </g>
   <g id="patch_3">
    <path clip-path="url(#pbbce88da59)" d="
M546.702 313.952
L544.191 313.731
L540.813 313.423
L538.136 313.171
L536.394 313.003
L532.63 312.629
L531.962 312.561
L527.339 312.075
L526.195 311.951
L523.551 311.658
L520.937 311.359
L517.049 310.896
L515.267 310.677
L511.849 310.243
L510.33 310.044
L507.784 309.703
L504.719 309.277
L501.269 308.778
L498.211 308.318
L497.168 308.156
L492.4 307.39
L490.229 307.025
L489.466 306.894
L484.743 306.054
L482.536 305.643
L479.591 305.074
L478.068 304.771
L474.018 303.933
L471.322 303.347
L468.534 302.718
L467.156 302.397
L464.105 301.663
L462.887 301.361
L458.301 300.173
L457.033 299.83
L454.213 299.042
L452.089 298.425
L448.563 297.356
L445.185 296.274
L442.75 295.456
L440.892 294.811
L437.666 293.642
L435.882 292.968
L433.244 291.934
L430.422 290.775
L427.508 289.518
L425.358 288.549
L420.951 286.443
L419.007 285.461
L417.531 284.691
L413.356 282.397
L411.534 281.339
L409.71 280.243
L406.357 278.127
L402.485 275.507
L401.717 274.963
L399.322 273.215
L396.928 271.381
L394.339 269.298
L391.923 267.252
L391.079 266.513
L388.718 264.377
L386.358 262.134
L384.041 259.823
L381.097 256.717
L378.386 253.679
L376.706 251.706
L375.027 249.661
L373.349 247.54
L371.355 244.918
L368.647 241.168
L367.214 239.09
L365.78 236.945
L364.423 234.849
L362.114 231.136
L359.805 227.227
L358.347 224.655
L356.698 221.64
L355.049 218.513
L352.828 214.118
L351.376 211.124
L349.924 208.033
L348.526 204.965
L346.81 201.066
L345.094 197.02
L343.382 192.833
L341.669 188.492
L340.069 184.294
L338.785 180.824
L337.501 177.264
L335.653 171.984
L333.806 166.514
L332.719 163.204
L331.631 159.828
L330.174 155.207
L328.717 150.471
L327.579 146.693
L326.441 142.849
L324.768 137.085
L323.096 131.19
L320.971 123.528
L319.105 116.661
L317.24 109.686
L316.288 106.097
L312.03 89.8824
L311.258 86.9353
L309.388 79.8379
L307.519 72.8217
L305.722 66.1969
L303.924 59.7435
L302.534 54.9048
L301.144 50.2249
L300.05 46.6694
L298.961 43.2589
L297.873 39.9869
L296.785 36.866
L295.696 33.9087
L294.964 32.0163
L294.231 30.2071
L293.597 28.7109
L292.963 27.282
L292.328 25.9226
L291.694 24.6347
L290.554 22.5056
L289.984 21.5336
L289.414 20.6251
L288.618 19.465
L287.822 18.4339
L287.026 17.5343
L286.23 16.7687
L285.512 16.1946
L284.794 15.7325
L284.073 15.382
L283.351 15.1463
L282.63 15.026
L281.908 15.0214
L281.071 15.1609
L280.235 15.4554
L279.398 15.9041
L278.562 16.5056
L277.671 17.312
L276.78 18.2869
L275.89 19.4272
L274.999 20.729
L274.417 21.6652
L273.835 22.6673
L273.252 23.7341
L272.67 24.8641
L271.646 26.9997
L270.623 29.3173
L269.796 31.3167
L268.968 33.4239
L268.141 35.6338
L267.314 37.9411
L266.337 40.784
L265.36 43.746
L264.341 46.9535
L263.322 50.2704
L262.303 53.6865
L261.284 57.1915
L260.287 60.6969
L259.29 64.2685
L257.561 70.5942
L255.831 77.0478
L254.214 83.1623
L250.702 96.5534
L250.24 98.315
L247.605 108.314
L244.721 119.078
L242.892 125.771
L241.063 132.333
L238.747 140.427
L237.249 145.524
L235.752 150.507
L234.004 156.175
L232.256 161.677
L230.984 165.577
L229.711 169.388
L228.382 173.272
L227.053 177.057
L225.589 181.114
L224.126 185.052
L223.332 187.14
L221.783 191.115
L220.235 194.964
L218.761 198.512
L217.286 201.95
L215.524 205.917
L213.553 210.178
L211.582 214.258
L210.202 217.011
L208.413 220.456
L206.625 223.767
L204.381 227.737
L202.196 231.417
L200.011 234.921
L198.733 236.894
L197.069 239.38
L195.405 241.776
L193.792 244.015
L192.18 246.176
L190.69 248.105
L188.829 250.429
L186.968 252.661
L184.763 255.193
L182.972 257.162
L179.881 260.39
L178.028 262.226
L174.749 265.306
L171.215 268.401
L170.299 269.167
L167.069 271.759
L164.18 273.938
L160.115 276.803
L159.884 276.959
L157.285 278.669
L154.685 280.295
L154.201 280.589
L151.868 281.97
L147.57 284.361
L144.46 285.977
L141.384 287.489
L140.124 288.084
L138.213 288.963
L133.582 290.975
L132.336 291.489
L130.739 292.132
L127.35 293.441
L123.597 294.808
L120.63 295.83
L117.492 296.859
L116.949 297.031
L114.14 297.902
L111.316 298.74
L106.985 299.955
L106.384 300.118
L102.021 301.254
L100.366 301.666
L96.2041 302.658
L93.5446 303.261
L91.2943 303.754
L90.0775 304.014
L85.7691 304.9
L84.8654 305.079
L80.6434 305.887
L80.0589 305.995
L77.4858 306.461
L73.4868 307.155
L71.4142 307.5
L68.052 308.04
L65.022 308.508
L63.2762 308.769
L59.836 309.267
L58.7369 309.421
L54.5852 309.987
L53.1619 310.174
L50.7573 310.483
L48.1673 310.806
L43.0331 311.418
L42.7042 311.456
L38.6236 311.914
L35.3627 312.265
L34.4245 312.364
L31.6621 312.648
L29.682 312.847
L25.1333 313.286
L22.9631 313.488
L19.6796 313.785
L17.7785 313.952
L17.7785 313.952
L19.4971 316.6
L21.2158 319.107
L22.1161 320.365
L23.3326 322.004
L24.5491 323.575
L25.7656 325.078
L26.9821 326.516
L28.1799 327.867
L29.9177 329.715
L31.6555 331.434
L33.1404 332.802
L35.189 334.539
L36.5135 335.571
L37.838 336.533
L39.3858 337.57
L40.9335 338.514
L43.4782 339.87
L45.0292 340.578
L46.5802 341.2
L48.7777 341.934
L50.3005 342.345
L51.8233 342.677
L53.9961 343.017
L56.1689 343.205
L57.9832 343.248
L58.9879 343.228
L60.6503 343.128
L62.3127 342.946
L64.2285 342.638
L66.1443 342.225
L67.4645 341.883
L69.5148 341.258
L71.5651 340.523
L74.589 339.246
L76.664 338.242
L78.8001 337.103
L80.5065 336.119
L82.213 335.071
L83.5649 334.197
L85.4351 332.925
L87.3052 331.583
L88.7313 330.514
L90.7187 328.96
L92.7061 327.334
L96.0174 324.472
L96.9738 323.611
L99.4081 321.355
L101.529 319.315
L103.65 317.209
L105.848 314.962
L108.533 312.131
L110.874 309.59
L113.495 306.67
L117.012 302.638
L118.605 300.772
L120.39 298.654
L124.044 294.231
L126.037 291.777
L129.182 287.847
L131.822 284.502
L134.998 280.427
L137.644 277
L138.842 275.437
L142.076 271.199
L146.598 265.228
L147.784 263.656
L150.255 260.377
L152.585 257.28
L156.618 251.922
L158.218 249.8
L161.904 244.925
L165.075 240.754
L165.762 239.854
L168.35 236.476
L170.807 233.289
L173.437 229.907
L177.666 224.533
L178.799 223.111
L183.367 217.445
L186.347 213.821
L187.357 212.607
L191.331 207.901
L192.227 206.855
L197.041 201.356
L198.32 199.928
L200.971 197.015
L202.636 195.219
L207.247 190.386
L208.737 188.87
L213.029 184.634
L214.324 183.396
L218.002 179.981
L221.002 177.311
L221.339 177.018
L224.058 174.702
L226.487 172.71
L229.457 170.375
L232.923 167.794
L236.829 165.074
L239.383 163.407
L241.209 162.269
L244.201 160.506
L247.354 158.784
L249.092 157.895
L252.969 156.069
L253.696 155.751
L256.736 154.506
L259.775 153.397
L262.07 152.651
L266.061 151.542
L266.39 151.461
L268.761 150.929
L271.131 150.482
L271.706 150.386
L274.373 150.009
L276.598 149.778
L278.822 149.623
L280.303 149.562
L283.201 149.541
L285.598 149.62
L288.597 149.844
L290.863 150.105
L293.728 150.548
L295.955 150.978
L298.051 151.452
L300.148 151.993
L301.847 152.48
L303.988 153.155
L306.129 153.899
L308.694 154.88
L310.192 155.498
L311.723 156.163
L315.649 158.026
L318.887 159.728
L320.329 160.535
L323.889 162.649
L326.259 164.155
L328.624 165.733
L332.37 168.385
L333.981 169.583
L337.052 171.958
L339.867 174.241
L342.664 176.605
L344.006 177.773
L347.41 180.831
L351.001 184.202
L351.625 184.802
L356.372 189.508
L358.078 191.256
L361.844 195.22
L362.155 195.552
L366.065 199.822
L369.015 203.135
L370.048 204.312
L374.052 208.959
L376.32 211.646
L379.808 215.851
L380.936 217.228
L384.001 221.012
L386.326 223.92
L389.572 228.028
L393.023 232.451
L395.357 235.47
L398.974 240.189
L399.566 240.965
L404.495 247.46
L407.101 250.913
L409.573 254.195
L411.149 256.288
L412.652 258.287
L416.683 263.64
L418.903 266.58
L422.584 271.436
L425.318 275.02
L425.772 275.613
L428.629 279.325
L431.277 282.737
L434.079 286.307
L438.831 292.257
L441.038 294.968
L441.986 296.12
L445.127 299.888
L449.461 304.939
L451.298 307.023
L453.262 309.211
L456.557 312.782
L457.994 314.298
L461.521 317.902
L463.068 319.429
L465.606 321.857
L468.143 324.185
L468.745 324.723
L472.481 327.92
L474.702 329.705
L476.887 331.371
L479.6 333.311
L482.439 335.18
L484.523 336.443
L486.607 337.611
L487.845 338.257
L489.789 339.2
L491.438 339.928
L493.087 340.589
L494.821 341.21
L496.555 341.752
L498.337 342.226
L500.119 342.612
L500.457 342.676
L501.953 342.917
L503.449 343.094
L505.734 343.236
L507.718 343.23
L509.703 343.102
L512.059 342.786
L513.507 342.501
L514.954 342.146
L516.53 341.677
L518.106 341.122
L520.523 340.097
L521.929 339.404
L523.335 338.636
L525.036 337.608
L526.638 336.536
L528.24 335.364
L529.58 334.304
L530.854 333.23
L532.127 332.088
L533.401 330.878
L534.674 329.6
L536.849 327.255
L538.431 325.419
L540.013 323.47
L540.523 322.819
L542.826 319.724
L544.764 316.928
L546.702 313.952
z
" style="fill:#ff0000;opacity:0.2;"/>
   </g>
   <g id="patch_4">
    <path clip-path="url(#pbbce88da59)" d="
M546.702 313.952
L544.892 313.793
L540.727 313.415
L538.427 313.199
L535.94 312.959
L534.45 312.812
L531.251 312.488
L526.807 312.018
L524.866 311.805
L523.007 311.596
L519.948 311.243
L518.016 311.013
L516.131 310.784
L510.964 310.128
L508.516 309.802
L506.961 309.59
L504.724 309.278
L500.476 308.661
L499.184 308.466
L497.182 308.158
L492.704 307.44
L490.285 307.035
L487.078 306.476
L486.125 306.305
L483.305 305.788
L479.56 305.068
L477.263 304.608
L475.59 304.264
L471.498 303.386
L469.727 302.99
L466.815 302.317
L464.319 301.716
L460.96 300.872
L458.764 300.297
L455.126 299.301
L452.501 298.547
L449.782 297.733
L448.621 297.374
L446.441 296.683
L444.216 295.952
L439.662 294.372
L438.92 294.104
L434.124 292.284
L431.55 291.245
L430.52 290.816
L428.329 289.879
L423.956 287.897
L420.596 286.266
L418.786 285.347
L416.961 284.388
L414.615 283.108
L409.916 280.369
L409.283 279.981
L406.757 278.386
L403.864 276.463
L401.78 275.008
L399.327 273.218
L396.874 271.339
L394.431 269.373
L393.571 268.659
L390.43 265.936
L387.866 263.58
L385.982 261.767
L384.098 259.881
L382.235 257.94
L380.452 256.01
L378.67 254.005
L377.822 253.025
L375.759 250.562
L373.696 247.985
L372.058 245.855
L370.419 243.647
L369.07 241.768
L367.651 239.73
L366.231 237.627
L364.735 235.337
L363.24 232.971
L361.494 230.108
L359.749 227.131
L357.962 223.96
L356.539 221.343
L355.115 218.641
L353.748 215.966
L351.616 211.626
L349.484 207.078
L347.556 202.778
L345.463 197.903
L343.794 193.855
L342.125 189.662
L340.337 185.007
L339.176 181.89
L338.015 178.7
L336.854 175.436
L335.692 172.097
L333.82 166.555
L332.429 162.311
L331.183 158.42
L329.937 154.444
L328.691 150.385
L327.445 146.245
L326.267 142.259
L325.09 138.204
L324.614 136.545
L322.23 128.089
L319.846 119.401
L317.722 111.497
L316.259 105.987
L312.648 92.242
L310.363 83.5316
L308.792 77.5888
L307.222 71.7143
L305.611 65.7936
L304 60.013
L302.491 54.7579
L300.982 49.6909
L299.694 45.5414
L298.712 42.4957
L297.729 39.5654
L296.662 36.5237
L295.594 33.6406
L294.527 30.9277
L293.46 28.396
L292.416 26.1053
L291.365 23.9953
L290.315 22.0898
L289.264 20.3971
L288.214 18.9247
L287.239 17.7618
L286.265 16.7988
L285.423 16.1312
L284.582 15.6175
L283.741 15.2593
L282.9 15.0575
L282.346 15.0104
L281.792 15.0315
L281.239 15.1206
L280.685 15.2777
L279.821 15.658
L278.958 16.202
L278.094 16.908
L277.23 17.7737
L276.612 18.4899
L275.994 19.2854
L275.397 20.1277
L274.8 21.0416
L274.203 22.0257
L273.606 23.0786
L272.532 25.1422
L271.457 27.4144
L270.383 29.8853
L269.309 32.5442
L268.401 34.9279
L267.494 37.4308
L266.564 40.1126
L265.634 42.9043
L264.639 46.005
L263.644 49.2129
L262.648 52.5185
L261.653 55.9123
L260.123 61.2812
L258.078 68.6881
L256.032 76.2924
L254.604 81.683
L252.31 90.4155
L247.824 107.486
L245.709 115.417
L243.142 124.864
L241.865 129.474
L239.632 137.362
L237.4 145.017
L236.255 148.847
L235.109 152.61
L233.761 156.95
L232.412 161.191
L231.279 164.68
L229.438 170.194
L227.597 175.519
L225.65 180.948
L224.338 184.489
L223.026 187.936
L221.886 190.855
L220.747 193.705
L219.608 196.487
L218.468 199.203
L216.934 202.755
L215.334 206.337
L213.143 211.042
L210.952 215.526
L209.502 218.377
L208.051 221.138
L207.581 222.013
L205.231 226.257
L202.88 230.284
L200.721 233.801
L199.108 236.32
L197.196 239.193
L195.283 241.947
L193.93 243.826
L192.153 246.211
L190.376 248.504
L188.741 250.537
L187.106 252.499
L186.16 253.603
L183.156 256.963
L181.158 259.082
L179.16 261.112
L178.434 261.83
L175.108 264.979
L171.481 268.175
L169.491 269.832
L167.416 271.488
L165.085 273.269
L162.755 274.969
L160.425 276.593
L158.7 277.749
L156.125 279.404
L152.483 281.611
L149.687 283.206
L147.445 284.427
L146.297 285.033
L141.561 287.404
L139.789 288.241
L137.064 289.478
L134.5 290.589
L131.783 291.714
L129.315 292.691
L127.345 293.443
L124.91 294.339
L121.017 295.699
L118.562 296.513
L115.249 297.563
L112.835 298.294
L110.286 299.036
L108.17 299.631
L104.794 300.54
L102.324 301.177
L99.3253 301.919
L96.8867 302.499
L93.7415 303.218
L92.2893 303.538
L89.6628 304.102
L87.2493 304.602
L83.0884 305.425
L80.2799 305.954
L78.6731 306.248
L77.5192 306.455
L74.0307 307.062
L70.752 307.608
L69.1296 307.87
L65.7365 308.399
L62.0756 308.945
L59.8216 309.269
L57.4998 309.593
L54.8151 309.956
L53.0437 310.189
L50.4116 310.527
L46.4322 311.017
L45.146 311.171
L42.5297 311.476
L38.078 311.974
L36.8963 312.102
L34.1825 312.389
L31.964 312.618
L27.9682 313.015
L24.8899 313.309
L22.7798 313.505
L21.7474 313.599
L17.7785 313.952
L17.7785 313.952
L18.7337 309.604
L19.6889 305.476
L20.6442 301.562
L21.5994 297.855
L22.5865 294.238
L23.139 292.305
L23.6916 290.436
L24.2441 288.632
L24.7967 286.89
L25.9018 283.589
L27.007 280.527
L27.62 278.929
L28.2331 277.4
L28.8462 275.939
L29.4592 274.545
L30.089 273.181
L30.7188 271.886
L31.3486 270.656
L31.9784 269.492
L33.2279 267.37
L34.4774 265.488
L35.268 264.417
L36.0586 263.436
L36.7417 262.659
L37.4249 261.945
L38.7911 260.702
L39.7666 259.959
L40.7421 259.332
L42.0092 258.683
L43.2763 258.213
L44.416 257.936
L45.5556 257.789
L46.6953 257.767
L47.8349 257.863
L48.7598 258.024
L49.6847 258.256
L51.4307 258.876
L53.1768 259.717
L54.4589 260.464
L56.4593 261.83
L58.4597 263.414
L60.2492 264.995
L61.5477 266.229
L62.8463 267.527
L64.3443 269.098
L66.294 271.242
L68.2437 273.481
L69.7931 275.315
L73.3305 279.631
L75.1636 281.912
L79.4825 287.31
L81.0944 289.309
L84.4641 293.41
L85.9149 295.131
L88.0912 297.647
L90.2675 300.071
L92.922 302.882
L94.6122 304.578
L97.3764 307.178
L100.014 309.441
L102.053 311.032
L104.092 312.477
L104.539 312.774
L106.625 314.061
L108.71 315.181
L110.307 315.922
L111.904 316.561
L112.962 316.927
L115.186 317.543
L117.411 317.951
L117.561 317.971
L118.838 318.101
L120.115 318.16
L122.198 318.105
L124.281 317.861
L125.77 317.569
L127.259 317.18
L128.765 316.688
L130.271 316.097
L131.751 315.419
L133.232 314.646
L135.463 313.303
L137.796 311.671
L139.821 310.07
L141.659 308.47
L143.497 306.733
L145.226 304.975
L146.735 303.345
L148.244 301.628
L149.766 299.809
L151.288 297.904
L153.297 295.26
L154.673 293.368
L157.234 289.676
L159.794 285.77
L161.458 283.123
L163.366 279.984
L165.274 276.741
L167.226 273.321
L168.965 270.19
L171.512 265.474
L174.499 259.756
L176.097 256.62
L179.351 250.091
L181.316 246.061
L185.684 236.91
L186.629 234.898
L191.203 225.045
L192.303 222.654
L195.066 216.614
L198.564 208.935
L201.416 202.666
L204.167 196.634
L207.457 189.461
L209.739 184.528
L212.501 178.618
L214.487 174.416
L218.143 166.815
L219.439 164.166
L221.391 160.228
L223.342 156.357
L223.829 155.401
L226.669 149.925
L229.059 145.445
L231.45 141.094
L234.262 136.153
L234.714 135.377
L236.803 131.863
L238.893 128.468
L240.365 126.151
L241.837 123.897
L244.188 120.432
L245.768 118.201
L247.348 116.051
L249.052 113.823
L250.348 112.194
L252.277 109.875
L254.207 107.687
L256.202 105.563
L258.197 103.584
L259.063 102.771
L260.953 101.094
L262.844 99.5521
L263.665 98.9254
L265.04 97.9341
L266.415 97.0165
L268.732 95.6384
L271.05 94.4739
L272.483 93.8614
L273.917 93.332
L274.827 93.0392
L276.669 92.5494
L278.512 92.1982
L279.882 92.0272
L281.275 91.9322
L282.667 91.9168
L285.025 92.0722
L287.024 92.3825
L289.024 92.8563
L290.801 93.4139
L292.578 94.0996
L293.94 94.7114
L295.861 95.7005
L298.24 97.129
L300.331 98.5679
L302.422 100.176
L304.314 101.776
L306.286 103.587
L308.257 105.541
L309.089 106.408
L311.05 108.551
L313.011 110.831
L314.818 113.049
L316.626 115.379
L318.434 117.818
L320.223 120.334
L322.013 122.951
L324.023 126.007
L326.325 129.653
L328.197 132.727
L330.069 135.896
L332.187 139.591
L335.05 144.762
L335.988 146.497
L338.2 150.666
L340.178 154.479
L342.156 158.367
L343.843 161.742
L346.277 166.691
L349.424 173.221
L353.29 181.413
L355.48 186.12
L358.068 191.733
L361.97 200.264
L363.162 202.881
L365.944 208.995
L369.826 217.518
L370.21 218.357
L374.123 226.88
L375.47 229.792
L378.807 236.932
L380.634 240.791
L384.69 249.197
L386.65 253.168
L388.925 257.69
L391.199 262.111
L393.044 265.617
L396.259 271.54
L396.845 272.591
L399.319 276.936
L401.794 281.114
L402.493 282.262
L404.077 284.811
L405.662 287.284
L408.163 291.024
L409.529 292.979
L410.895 294.87
L413.441 298.221
L415.456 300.706
L417.471 303.04
L418.807 304.502
L420.143 305.894
L420.646 306.4
L422.856 308.503
L425.067 310.407
L426.739 311.713
L428.814 313.17
L430.888 314.444
L433.008 315.554
L434.431 316.19
L436.007 316.791
L437.582 317.283
L438.966 317.626
L440.349 317.885
L441.673 318.053
L442.996 318.146
L444.733 318.151
L446.469 318.025
L447.837 317.834
L450.021 317.365
L452.205 316.694
L453.232 316.311
L455.14 315.485
L457.048 314.514
L459.518 313.048
L461.242 311.89
L462.966 310.625
L464.619 309.316
L466.963 307.305
L469.61 304.83
L471.474 302.967
L473.339 301.015
L474.141 300.149
L476.667 297.331
L479.475 294.056
L481.919 291.11
L486.13 285.897
L487.066 284.727
L490.182 280.833
L493.689 276.517
L496.374 273.319
L498.058 271.386
L499.741 269.523
L501.629 267.532
L503.917 265.287
L505.621 263.754
L507.325 262.357
L508.85 261.235
L510.376 260.247
L511.542 259.589
L512.709 259.023
L513.848 258.563
L514.987 258.202
L515.941 257.979
L516.895 257.832
L517.778 257.767
L518.661 257.773
L519.544 257.853
L520.427 258.009
L521.478 258.3
L522.529 258.709
L523.54 259.218
L524.55 259.846
L525.561 260.598
L526.572 261.478
L527.456 262.356
L528.339 263.339
L529.26 264.48
L530.182 265.743
L531.175 267.247
L532.169 268.903
L533.163 270.716
L534.157 272.691
L534.931 274.347
L535.706 276.107
L536.481 277.975
L537.256 279.952
L538.136 282.336
L539.016 284.869
L539.787 287.212
L540.558 289.675
L541.328 292.261
L542.099 294.973
L542.844 297.717
L543.589 300.584
L544.334 303.577
L545.079 306.698
L545.89 310.246
L546.702 313.952
z
" style="fill:#7fff00;opacity:0.2;"/>
   </g>
   <g id="patch_5">
    <path clip-path="url(#pbbce88da59)" d="
M546.702 313.952
L544.453 313.754
L540.76 313.418
L538.077 313.166
L536.617 313.025
L533.167 312.684
L530.13 312.372
L527.741 312.119
L525.43 311.867
L523.28 311.627
L519.549 311.196
L516.53 310.833
L516.015 310.77
L513.381 310.44
L510.308 310.042
L508.04 309.738
L505.42 309.376
L501.861 308.866
L499.629 308.533
L495.215 307.848
L494.613 307.751
L491.772 307.285
L487.577 306.565
L485.029 306.107
L483.239 305.775
L479.407 305.038
L477.2 304.595
L475.751 304.297
L472.59 303.625
L468.405 302.688
L468.003 302.595
L465.541 302.013
L461.205 300.935
L459.113 300.389
L455.155 299.309
L453.367 298.799
L450.614 297.985
L447.244 296.94
L446.375 296.662
L443.863 295.834
L440.864 294.801
L437.558 293.602
L435.973 293.003
L432.898 291.795
L429.578 290.417
L427.875 289.68
L425.151 288.454
L421.608 286.768
L418.675 285.289
L415.456 283.573
L413.33 282.382
L411.999 281.613
L408.373 279.416
L404.907 277.169
L402.008 275.17
L399.788 273.561
L396.591 271.117
L394.445 269.385
L392.99 268.167
L391.002 266.445
L388.83 264.481
L386.658 262.426
L383.38 259.142
L381.636 257.3
L380.02 255.531
L377.786 252.983
L376.215 251.116
L374.644 249.184
L371.679 245.353
L369.443 242.293
L367.118 238.949
L364.713 235.302
L362.307 231.455
L360.89 229.089
L359.472 226.647
L359.237 226.235
L356.899 222.014
L354.562 217.567
L353.312 215.094
L351.898 212.211
L350.483 209.236
L348.348 204.565
L346.212 199.672
L344.93 196.625
L343.648 193.494
L343.127 192.199
L341.442 187.905
L339.757 183.459
L338.615 180.358
L337.473 177.186
L335.36 171.127
L334.256 167.863
L333.153 164.532
L332.049 161.134
L330.945 157.669
L329.695 153.664
L328.445 149.575
L326.719 143.796
L325.57 139.866
L324.421 135.872
L322.123 127.705
L319.573 118.393
L318.076 112.826
L314.851 100.641
L312.542 91.8362
L310.246 83.086
L308.341 75.8938
L306.437 68.815
L305.175 64.215
L303.914 59.7071
L302.477 54.71
L301.041 49.8837
L300.069 46.7297
L299.097 43.6759
L297.858 39.9439
L296.62 36.4077
L295.789 34.1535
L294.958 32.0012
L293.81 29.206
L292.662 26.6287
L292.032 25.3123
L291.403 24.0673
L290.773 22.8956
L290.143 21.7992
L289.514 20.7797
L288.884 19.8388
L288.254 18.9779
L287.625 18.1985
L287.089 17.6008
L286.056 16.6192
L285.023 15.8675
L283.99 15.349
L282.956 15.0662
L282.349 15.0105
L281.741 15.0369
L281.133 15.1453
L280.525 15.3356
L279.776 15.6826
L279.026 16.1529
L278.276 16.7453
L277.527 17.4584
L276.879 18.1706
L276.218 18.9877
L275.557 19.8947
L274.896 20.8897
L274.235 21.9712
L273.309 23.6271
L272.384 25.443
L271.458 27.4129
L270.532 29.5303
L269.583 31.8486
L268.633 34.3074
L267.684 36.8987
L266.734 39.6143
L265.83 42.3082
L264.926 45.1002
L263.526 49.6003
L262.261 53.8286
L260.997 58.1932
L259.733 62.6748
L258.468 67.2551
L256.62 74.0921
L253.883 84.4217
L251.03 95.3021
L249.038 102.89
L245.961 114.481
L244.413 120.216
L242.218 128.203
L240.024 135.993
L238.668 140.7
L236.687 147.408
L234.707 153.914
L233.55 157.62
L232.474 161.002
L231.397 164.32
L230.321 167.574
L229.244 170.763
L228.179 173.857
L226.11 179.684
L224.042 185.275
L222.815 188.482
L220.652 193.939
L219.033 197.864
L217.415 201.655
L215.792 205.324
L213.899 209.444
L212.006 213.397
L210.281 216.856
L208.557 220.185
L207.208 222.702
L204.957 226.737
L202.706 230.573
L200.401 234.309
L199.26 236.087
L197.429 238.849
L195.598 241.502
L193.991 243.743
L192.384 245.906
L191.637 246.886
L188.763 250.51
L186.267 253.48
L184.253 255.761
L182.24 257.945
L180.084 260.184
L177.251 262.975
L174.611 265.431
L173.225 266.668
L171.188 268.423
L169.152 270.107
L167.367 271.527
L164.842 273.45
L162.531 275.129
L160.219 276.733
L158.604 277.812
L156.707 279.037
L152.438 281.638
L150.88 282.536
L148.525 283.845
L144.492 285.96
L142.662 286.871
L140.821 287.756
L138.535 288.817
L134.952 290.396
L131.391 291.872
L128.116 293.152
L127.411 293.419
L125.275 294.207
L121.204 295.636
L118.005 296.694
L117.075 296.991
L112.189 298.485
L110.293 299.034
L107.354 299.855
L105.836 300.265
L101.717 301.33
L99.0125 301.995
L98.4848 302.122
L94.9554 302.944
L91.0736 303.802
L89.7999 304.073
L88.0107 304.446
L84.3094 305.188
L80.5664 305.901
L78.2658 306.322
L77.5193 306.455
L73.2472 307.195
L69.9688 307.735
L67.4026 308.142
L64.5156 308.584
L64.185 308.634
L61.2798 309.06
L57.8575 309.544
L55.3078 309.89
L52.5037 310.26
L50.2122 310.552
L46.249 311.039
L43.109 311.409
L41.6821 311.573
L38.7581 311.899
L37.5278 312.034
L34.392 312.367
L30.935 312.722
L27.136 313.095
L27.0159 313.107
L21.8798 313.587
L20.611 313.702
L17.7785 313.952
L17.7785 313.952
L18.0714 317.319
L18.3643 320.605
L18.6572 323.811
L18.9501 326.938
L19.243 329.987
L19.5359 332.959
L19.8288 335.856
L20.1217 338.677
L20.5435 342.611
L20.9652 346.394
L21.387 350.031
L21.8087 353.523
L22.2305 356.875
L22.6522 360.089
L23.074 363.167
L23.4957 366.113
L23.9284 369
L24.361 371.754
L24.7936 374.378
L25.2263 376.874
L25.6589 379.244
L26.0915 381.493
L26.5242 383.623
L26.9568 385.636
L27.3338 387.297
L27.7108 388.874
L28.0878 390.367
L28.4648 391.78
L28.8337 393.085
L29.2027 394.315
L29.5716 395.472
L29.9406 396.558
L30.5362 398.163
L31.1319 399.591
L31.7275 400.85
L32.3232 401.943
L32.9188 402.878
L33.5145 403.66
L34.1101 404.294
L34.7058 404.787
L35.3475 405.165
L35.9892 405.391
L36.6308 405.471
L37.2725 405.412
L37.7475 405.282
L38.2226 405.081
L38.6976 404.812
L39.1727 404.478
L39.7546 403.981
L40.3366 403.393
L40.9186 402.718
L41.5006 401.959
L42.1215 401.062
L42.7424 400.079
L43.3632 399.015
L43.9841 397.873
L44.6972 396.472
L45.4103 394.981
L46.1234 393.405
L46.8365 391.752
L47.6645 389.741
L48.4925 387.641
L49.4946 384.993
L50.4967 382.239
L51.4988 379.395
L52.5009 376.472
L54.558 370.277
L56.9804 362.755
L61.2028 349.453
L63.4537 342.442
L65.6755 335.677
L66.9209 331.977
L68.1663 328.356
L69.7533 323.87
L70.7248 321.202
L71.6963 318.596
L72.6678 316.057
L73.6393 313.587
L75.3413 309.432
L77.0585 305.475
L78.7757 301.762
L79.9065 299.455
L81.0373 297.258
L82.679 294.268
L84.3207 291.515
L85.7721 289.281
L87.2235 287.232
L88.7339 285.296
L89.8812 283.958
L91.0284 282.733
L92.3125 281.493
L93.5965 280.39
L94.8806 279.42
L96.1646 278.58
L97.1672 278.013
L98.1697 277.521
L99.3988 277.018
L100.517 276.653
L101.634 276.374
L102.86 276.161
L104.085 276.044
L105.311 276.016
L106.536 276.074
L107.724 276.208
L109.747 276.599
L111.827 277.195
L113.906 277.965
L115.619 278.713
L117.332 279.549
L117.787 279.783
L121.335 281.765
L123.872 283.301
L125.686 284.432
L129.233 286.657
L131.99 288.34
L134.915 290.02
L138.197 291.707
L139.987 292.513
L141.683 293.188
L143.991 293.954
L146.3 294.522
L147.728 294.766
L149.156 294.923
L150.489 294.986
L151.987 294.958
L153.485 294.821
L154.661 294.635
L155.837 294.378
L157.728 293.811
L159.619 293.05
L161.357 292.175
L162.935 291.233
L164.512 290.149
L166.022 288.976
L167.532 287.669
L168.15 287.095
L169.71 285.547
L171.27 283.856
L172.382 282.564
L173.493 281.199
L174.605 279.762
L175.716 278.254
L177.036 276.369
L178.187 274.644
L179.338 272.844
L181.007 270.103
L182.675 267.209
L184.629 263.63
L186.317 260.376
L188.005 256.978
L189.938 252.915
L191.871 248.675
L193.686 244.543
L194.919 241.654
L197.392 235.677
L198.943 231.808
L200.494 227.854
L202.942 221.454
L204.656 216.866
L206.371 212.199
L207.928 207.9
L210.721 200.062
L213.228 192.915
L217.626 180.212
L218.519 177.619
L223.216 163.969
L225.825 156.435
L226.979 153.124
L229.223 146.733
L231.468 140.427
L232.965 136.278
L234.618 131.761
L237.107 125.096
L239.595 118.621
L240.444 116.462
L242.432 111.506
L244.42 106.705
L245.148 104.988
L246.949 100.842
L248.749 96.8461
L250.114 93.9203
L251.48 91.0886
L253.26 87.5438
L255.04 84.172
L256.481 81.5752
L257.921 79.0995
L258.936 77.4303
L259.951 75.824
L261.691 73.2187
L263.431 70.8064
L263.905 70.1822
L265.725 67.9285
L267.544 65.8969
L269.241 64.2069
L270.937 62.7169
L272.254 61.6994
L273.572 60.8053
L275.184 59.8802
L276.797 59.1432
L277.744 58.7986
L279.323 58.3694
L280.902 58.1228
L282.677 58.064
L284.452 58.2366
L285.823 58.5281
L287.351 59.0148
L288.879 59.6716
L289.866 60.186
L290.853 60.7707
L291.841 61.4253
L292.828 62.1494
L294.215 63.2832
L295.772 64.7163
L297.329 66.3171
L298.769 67.9446
L300.209 69.7112
L301.606 71.5567
L303.003 73.5288
L304.928 76.4477
L306.454 78.9249
L307.98 81.542
L309.015 83.3935
L310.201 85.5926
L311.388 87.8704
L312.574 90.2248
L313.76 92.6536
L315.841 97.0867
L317.341 100.413
L318.841 103.844
L320.751 108.356
L322.27 112.051
L323.788 115.836
L325.394 119.929
L326.999 124.11
L327.981 126.708
L329.972 132.06
L331.964 137.517
L333.135 140.771
L335.968 148.751
L339.862 159.914
L341.271 163.991
L345.794 177.134
L348.439 184.807
L349.629 188.246
L352.519 196.537
L354.407 201.892
L356.295 207.183
L358.56 213.433
L360.082 217.563
L361.604 221.63
L363.886 227.598
L365.733 232.303
L367.567 236.854
L369.359 241.176
L371.151 245.368
L373.124 249.822
L375.097 254.1
L375.532 255.017
L377.164 258.382
L378.797 261.614
L380.752 265.304
L382.706 268.791
L383.35 269.895
L384.992 272.604
L386.633 275.162
L387.738 276.798
L388.843 278.364
L389.948 279.859
L391.053 281.283
L391.579 281.935
L393.057 283.682
L394.534 285.301
L395.577 286.366
L396.619 287.366
L397.661 288.303
L398.704 289.175
L400.638 290.627
L402.099 291.58
L403.241 292.24
L404.383 292.826
L405.525 293.339
L406.668 293.781
L408.786 294.413
L410.126 294.69
L411.465 294.876
L412.897 294.976
L414.965 294.948
L417.033 294.725
L419.147 294.31
L421.09 293.773
L423.033 293.1
L423.732 292.827
L425.865 291.903
L428.802 290.434
L430.934 289.251
L433.066 287.995
L434.842 286.909
L437.708 285.115
L440.139 283.592
L443.504 281.555
L446.239 280.023
L447.516 279.362
L449.257 278.532
L450.998 277.795
L452.916 277.11
L454.833 276.575
L455.355 276.458
L456.472 276.251
L457.588 276.106
L458.705 276.028
L459.821 276.02
L461.309 276.123
L462.796 276.363
L464.115 276.698
L465.433 277.151
L466.699 277.703
L467.753 278.253
L468.807 278.887
L469.967 279.684
L471.127 280.588
L472.287 281.602
L473.447 282.728
L474.617 283.979
L475.777 285.334
L476.938 286.807
L477.796 287.971
L478.654 289.201
L479.512 290.495
L480.37 291.855
L481.918 294.473
L483.466 297.302
L484.346 299.003
L485.225 300.771
L486.325 303.075
L487.424 305.482
L488.461 307.842
L489.497 310.289
L490.534 312.82
L491.57 315.434
L492.708 318.396
L493.8 321.324
L494.892 324.331
L495.984 327.413
L497.077 330.565
L497.607 332.117
L499.117 336.616
L500.627 341.212
L503.612 350.506
L507.128 361.588
L509.178 367.988
L510.527 372.121
L511.875 376.164
L512.964 379.344
L514.052 382.432
L514.969 384.947
L515.885 387.375
L516.801 389.705
L517.717 391.926
L518.423 393.555
L519.129 395.107
L519.971 396.85
L520.813 398.466
L521.656 399.943
L522.498 401.272
L523.089 402.108
L523.679 402.862
L524.27 403.529
L524.86 404.105
L525.379 404.532
L525.897 404.884
L526.416 405.156
L526.934 405.346
L527.596 405.464
L528.258 405.436
L528.92 405.256
L529.583 404.916
L530.106 404.529
L530.63 404.035
L531.154 403.429
L531.677 402.708
L532.201 401.867
L532.725 400.904
L533.249 399.813
L533.772 398.592
L534.259 397.336
L534.745 395.961
L535.189 394.598
L535.633 393.129
L536.077 391.553
L536.521 389.865
L536.965 388.064
L537.409 386.147
L537.853 384.11
L538.297 381.951
L538.738 379.684
L539.179 377.291
L539.62 374.769
L540.061 372.115
L540.502 369.325
L540.943 366.397
L541.383 363.328
L541.824 360.115
L542.312 356.389
L542.799 352.478
L543.287 348.377
L543.774 344.082
L544.14 340.729
L544.506 337.262
L544.872 333.678
L545.238 329.977
L545.604 326.156
L545.97 322.213
L546.336 318.146
L546.702 313.952
z
" style="fill:#00ffff;opacity:0.2;"/>
   </g>
   <g id="patch_6">
    <path clip-path="url(#pbbce88da59)" d="
M546.702 313.952
L543.484 313.667
L542.564 313.584
L539.399 313.291
L535.049 312.872
L534.602 312.827
L530.34 312.394
L528.401 312.189
L525.397 311.864
L522.332 311.519
L520.902 311.355
L517.822 310.99
L514.3 310.556
L511.44 310.19
L510.696 310.093
L506.819 309.571
L503.558 309.112
L500.314 308.636
L500.135 308.61
L497.055 308.138
L494.606 307.75
L489.847 306.96
L489.516 306.903
L485.632 306.216
L482.23 305.585
L479.193 304.996
L478.38 304.834
L473.639 303.852
L471.451 303.376
L470.04 303.061
L466.937 302.345
L464.571 301.778
L460.92 300.861
L457.827 300.045
L456.51 299.686
L452.37 298.508
L450.505 297.952
L448.942 297.474
L445.579 296.403
L442.822 295.481
L441.352 294.973
L436.453 293.186
L436.072 293.041
L432.174 291.501
L430.723 290.901
L427.297 289.425
L423.862 287.852
L422.926 287.407
L419.232 285.576
L417.478 284.663
L414.968 283.304
L411.537 281.341
L408.275 279.354
L405.483 277.552
L402.65 275.622
L401.144 274.552
L398.764 272.795
L396.396 270.962
L394.028 269.04
L392.4 267.664
L390.53 266.026
L388.661 264.324
L386.453 262.227
L383.627 259.398
L381.328 256.967
L379.426 254.866
L376.35 251.278
L373.766 248.075
L371.991 245.767
L370.216 243.368
L368.225 240.563
L367.045 238.841
L364.564 235.07
L362.407 231.619
L360.25 227.997
L358.86 225.57
L357.47 223.066
L355.832 220.012
L354.194 216.846
L352.41 213.266
L350.833 209.979
L349.255 206.577
L347.985 203.751
L346.716 200.847
L345.155 197.167
L343.595 193.362
L343.139 192.229
L341.665 188.483
L340.192 184.62
L338.671 180.514
L337.151 176.28
L335.947 172.836
L334.743 169.311
L333.68 166.132
L332.617 162.89
L330.49 156.22
L329.205 152.07
L327.247 145.58
L325.289 138.895
L323.495 132.61
L322.187 127.934
L320.878 123.189
L319.449 117.933
L318.019 112.612
L314.364 98.7861
L313.009 93.6176
L310.221 82.993
L308.407 76.1388
L306.592 69.3858
L305.392 64.9996
L303.698 58.9468
L302.003 53.0986
L300.554 48.2919
L299.104 43.6983
L297.753 39.6351
L296.402 35.8069
L295.616 33.6985
L294.831 31.6822
L294.045 29.7624
L293.26 27.9433
L292.656 26.6156
L292.052 25.3518
L291.448 24.1536
L290.843 23.023
L290.109 21.7421
L289.375 20.5659
L288.515 19.324
L287.654 18.2333
L286.794 17.297
L285.934 16.518
L284.886 15.7855
L284.219 15.4439
L283.552 15.2004
L282.885 15.0554
L282.218 15.0092
L281.412 15.0854
L280.605 15.3058
L279.799 15.6698
L278.993 16.1764
L278.01 16.9853
L277.026 18.001
L276.043 19.2193
L275.06 20.6353
L274.441 21.6251
L273.822 22.6895
L273.203 23.8268
L272.585 25.0354
L271.658 26.9746
L270.731 29.0631
L270.082 30.6112
L269.433 32.2268
L268.784 33.9073
L268.135 35.6505
L267.316 37.9348
L266.497 40.3094
L265.679 42.7688
L264.86 45.3076
L264.042 47.9178
L263.224 50.5965
L261.588 56.1385
L260.091 61.395
L258.594 66.7969
L257.694 70.1002
L255.855 76.9595
L254.016 83.9171
L250.764 96.3156
L248.458 105.089
L247.079 110.294
L244.693 119.183
L242.288 127.952
L241.086 132.251
L239.883 136.486
L239.216 138.808
L237.317 145.296
L235.419 151.601
L234.285 155.275
L232.656 160.431
L231.028 165.443
L229.15 171.041
L227.271 176.443
L226.063 179.814
L224.156 184.973
L222.249 189.935
L220.904 193.317
L219.559 196.605
L218.076 200.122
L216.594 203.528
L215.404 206.182
L213.28 210.756
L211.155 215.12
L209.894 217.614
L208.634 220.04
L206.389 224.194
L204.211 228.029
L202.471 230.964
L200.73 233.787
L199.297 236.03
L197.291 239.053
L195.285 241.944
L193.788 244.021
L192.29 246.03
L190.056 248.907
L188.497 250.835
L186.937 252.698
L184.101 255.93
L182.364 257.814
L179.509 260.764
L178.109 262.147
L175.821 264.322
L173.533 266.396
L172.739 267.094
L169.007 270.224
L166.591 272.128
L163.908 274.137
L161.34 275.964
L157.952 278.238
L156.514 279.159
L153.21 281.183
L149.957 283.056
L148.364 283.933
L144.658 285.876
L143.998 286.209
L140.23 288.035
L137.745 289.174
L134.207 290.712
L132.685 291.346
L128.308 293.079
L127.39 293.426
L123.349 294.895
L122.416 295.22
L119.531 296.196
L116.845 297.064
L114.334 297.843
L109.895 299.148
L108.241 299.611
L104.814 300.535
L102.761 301.066
L99.9728 301.762
L96.2491 302.648
L93.6305 303.242
L92.1046 303.579
L89.5346 304.129
L87.5479 304.541
L83.0767 305.427
L82.0347 305.626
L79.684 306.064
L76.8409 306.575
L74.3365 307.01
L71.0588 307.558
L67.9016 308.064
L64.6799 308.559
L61.7851 308.987
L61.411 309.042
L58.7434 309.421
L54.4321 310.007
L52.7267 310.231
L48.5052 310.765
L45.7402 311.1
L44.4318 311.255
L41.4251 311.602
L38.0283 311.979
L36.8182 312.11
L35.0339 312.3
L29.8283 312.832
L29.4766 312.867
L25.1596 313.284
L24.2932 313.365
L21.7196 313.602
L17.7785 313.952
L17.7785 313.952
L17.9369 309.385
L18.0954 304.897
L18.2539 300.489
L18.4124 296.16
L18.5708 291.907
L18.7293 287.732
L18.8878 283.632
L19.0463 279.608
L19.2047 275.657
L19.3632 271.78
L19.5217 267.976
L19.6802 264.244
L19.8387 260.583
L19.9971 256.992
L20.1556 253.471
L20.3141 250.019
L20.5463 245.084
L20.7785 240.293
L21.0107 235.643
L21.2429 231.132
L21.4751 226.759
L21.7073 222.52
L21.9395 218.414
L22.1717 214.438
L22.3827 210.936
L22.5937 207.538
L22.8047 204.243
L23.0158 201.05
L23.2268 197.955
L23.4378 194.959
L23.6489 192.059
L23.8599 189.255
L24.0709 186.543
L24.2819 183.924
L24.493 181.396
L24.704 178.956
L24.915 176.604
L25.126 174.339
L25.3371 172.158
L25.5481 170.061
L25.7986 167.678
L26.049 165.409
L26.2995 163.251
L26.55 161.202
L26.8005 159.26
L27.0509 157.422
L27.3014 155.687
L27.5519 154.053
L27.8024 152.516
L28.0528 151.076
L28.3033 149.731
L28.5538 148.478
L28.8043 147.315
L29.0547 146.24
L29.3052 145.252
L29.5557 144.349
L29.8915 143.268
L30.2272 142.331
L30.563 141.534
L30.8988 140.874
L31.2345 140.344
L31.5703 139.943
L31.9061 139.665
L32.2418 139.506
L32.7262 139.481
L33.2105 139.685
L33.6949 140.108
L34.1793 140.739
L34.7071 141.651
L35.235 142.785
L35.7628 144.127
L36.2906 145.667
L36.7543 147.172
L37.218 148.812
L37.6817 150.579
L38.1454 152.466
L38.6091 154.466
L39.0728 156.571
L39.5365 158.776
L40.0002 161.074
L40.7767 165.11
L41.3538 168.251
L41.931 171.498
L42.5081 174.841
L43.0853 178.269
L43.6624 181.774
L44.2395 185.344
L45.3938 192.648
L46.6638 200.867
L47.9337 209.199
L50.986 229.25
L52.3159 237.833
L53.6457 246.235
L54.3814 250.788
L55.1171 255.262
L55.9301 260.106
L56.7431 264.838
L57.5561 269.448
L58.3691 273.931
L58.9952 277.293
L59.6213 280.572
L60.2473 283.767
L60.8734 286.875
L61.525 290.016
L62.1766 293.06
L62.8282 296.005
L63.4798 298.849
L64.1433 301.641
L64.8067 304.327
L65.7934 308.123
L66.78 311.681
L67.7666 315.001
L68.7533 318.083
L69.6139 320.578
L70.4746 322.894
L71.0231 324.277
L71.5715 325.588
L72.12 326.829
L72.6684 328
L73.3828 329.421
L74.0972 330.725
L74.8116 331.915
L75.5261 332.993
L76.5639 334.362
L77.6018 335.505
L78.6397 336.43
L79.6775 337.143
L80.4505 337.541
L81.2234 337.83
L81.9964 338.014
L82.7693 338.094
L83.6734 338.064
L84.5775 337.904
L85.3845 337.658
L86.1914 337.317
L87.0618 336.849
L87.9322 336.282
L88.8026 335.622
L89.6729 334.873
L90.9893 333.585
L92.3057 332.126
L94.0139 330.008
L95.7221 327.67
L97.7299 324.694
L100.002 321.098
L102.101 317.628
L105.41 312.013
L108.398 306.938
L109.82 304.564
L112.246 300.62
L114.672 296.858
L115.838 295.128
L117.614 292.606
L118.833 290.957
L120.052 289.382
L121.271 287.882
L122.49 286.461
L123.682 285.149
L124.873 283.915
L126.333 282.513
L128.003 281.054
L129.673 279.752
L130.847 278.929
L132.021 278.182
L133.842 277.169
L135.263 276.497
L136.685 275.926
L138.812 275.249
L141.267 274.711
L143.722 274.403
L144.477 274.349
L146.984 274.289
L149.033 274.353
L151.083 274.493
L152.169 274.59
L154.725 274.853
L159.701 275.345
L162.367 275.494
L163.907 275.514
L165.802 275.455
L167.696 275.285
L168.456 275.181
L169.95 274.913
L171.444 274.551
L172.667 274.181
L173.891 273.738
L175.026 273.26
L176.16 272.714
L177.295 272.097
L178.429 271.406
L179.676 270.559
L180.922 269.617
L182.359 268.41
L183.795 267.069
L184.745 266.107
L186.275 264.429
L187.805 262.589
L189.386 260.516
L190.966 258.266
L192.162 256.446
L193.487 254.308
L194.812 252.044
L195.985 249.936
L197.158 247.729
L198.331 245.426
L199.504 243.025
L200.759 240.351
L202.014 237.57
L203.545 234.034
L205.076 230.345
L206.286 227.324
L207.496 224.213
L209.413 219.105
L210.574 215.909
L211.735 212.64
L213.343 207.997
L215.585 201.315
L217.826 194.412
L220.173 186.978
L221.743 181.9
L223.635 175.691
L225.526 169.4
L228.383 159.786
L229.282 156.74
L231.918 147.786
L236.348 132.791
L238.758 124.742
L241.699 115.1
L244.26 106.927
L245.833 102.033
L247.951 95.6159
L250.069 89.4254
L251.771 84.635
L253.123 80.9548
L254.475 77.3929
L255.922 73.7182
L257.369 70.1939
L258.599 67.3232
L259.828 64.5707
L261.348 61.3386
L262.867 58.3006
L263.709 56.7029
L265.005 54.3669
L266.302 52.1837
L267.598 50.157
L268.894 48.2903
L269.21 47.8599
L270.292 46.4599
L271.374 45.1757
L272.456 44.0086
L273.538 42.9602
L274.828 41.8672
L276.118 40.9463
L276.895 40.475
L277.672 40.067
L278.449 39.7226
L279.226 39.4419
L280.704 39.0848
L282.182 38.9596
L283.513 39.0456
L284.845 39.32
L285.155 39.4109
L286.015 39.7162
L286.874 40.0994
L287.734 40.5604
L288.594 41.0988
L289.511 41.7578
L290.427 42.5039
L291.344 43.3364
L292.261 44.2546
L293.563 45.7048
L294.866 47.324
L296.221 49.1847
L297.131 50.5347
L298.042 51.9632
L298.953 53.4691
L299.863 55.0512
L300.91 56.963
L301.957 58.9716
L303.498 62.0986
L305.039 65.4234
L306.584 68.9489
L308.129 72.6572
L309.002 74.8304
L310.121 77.6919
L311.239 80.6385
L312.357 83.6664
L313.476 86.7719
L314.46 89.5668
L315.686 93.1243
L316.912 96.7614
L318.578 101.82
L320.244 107.002
L322.724 114.918
L324.849 121.857
L327.366 130.221
L329.882 138.696
L330.632 141.236
L333.204 149.967
L335.701 158.445
L338.062 166.413
L341.003 176.213
L342.836 182.223
L344.669 188.137
L346.48 193.869
L348.716 200.769
L349.949 204.484
L351.182 208.13
L352.416 211.7
L353.649 215.192
L354.706 218.119
L355.762 220.983
L356.944 224.11
L358.813 228.881
L360.682 233.435
L362.197 236.96
L363.712 240.332
L365.081 243.245
L366.451 246.028
L368.296 249.568
L369.39 251.553
L370.484 253.452
L371.69 255.447
L372.896 257.337
L374.109 259.134
L375.322 260.825
L376.593 262.485
L377.863 264.032
L379.134 265.467
L380.405 266.792
L382.274 268.545
L383.567 269.625
L384.86 270.6
L386.746 271.838
L387.947 272.519
L389.148 273.12
L390.453 273.684
L391.758 274.162
L393.749 274.736
L395.741 275.137
L397.329 275.346
L398.917 275.468
L400.887 275.515
L403.017 275.457
L406.837 275.161
L409.032 274.931
L412.469 274.575
L413.49 274.486
L415.6 274.345
L417.71 274.288
L419.762 274.335
L421.843 274.512
L423.899 274.837
L426.111 275.373
L427.627 275.865
L429.143 276.465
L430.859 277.282
L432.575 278.253
L434.119 279.26
L435.309 280.127
L436.499 281.072
L438.298 282.652
L440.097 284.413
L441.291 285.682
L442.485 287.029
L444.634 289.642
L446.782 292.489
L448.103 294.347
L449.423 296.281
L449.734 296.747
L451.181 298.962
L452.628 301.25
L454.832 304.849
L457.036 308.55
L458.875 311.68
L462.24 317.394
L463.785 319.965
L465.329 322.469
L466.045 323.601
L467.224 325.416
L468.403 327.161
L469.582 328.823
L470.762 330.391
L472.052 331.982
L473.342 333.428
L474.891 334.949
L475.945 335.835
L476.999 336.588
L477.92 337.131
L478.84 337.56
L479.76 337.868
L480.681 338.049
L481.406 338.099
L482.13 338.063
L482.855 337.938
L483.58 337.722
L484.331 337.399
L485.083 336.97
L485.834 336.434
L486.586 335.788
L487.295 335.073
L488.004 334.255
L489.053 332.85
L490.103 331.205
L490.754 330.062
L491.405 328.824
L492.056 327.488
L492.706 326.054
L493.679 323.725
L494.652 321.17
L495.625 318.388
L496.598 315.375
L497.603 312.019
L498.59 308.482
L499.577 304.706
L500.565 300.694
L501.552 296.447
L502.27 293.215
L502.988 289.862
L503.699 286.423
L504.41 282.871
L505.121 279.207
L505.832 275.437
L506.407 272.314
L506.981 269.127
L508.13 262.562
L509.279 255.765
L510.428 248.757
L510.872 246
L511.639 241.172
L512.407 236.278
L513.942 226.329
L516.915 206.772
L517.945 200.03
L518.974 193.367
L520.004 186.827
L521.033 180.457
L521.872 175.43
L522.71 170.58
L523.376 166.875
L524.043 163.319
L524.709 159.929
L525.375 156.722
L525.825 154.669
L526.275 152.715
L526.726 150.867
L527.176 149.13
L527.788 146.961
L528.4 145.029
L528.706 144.157
L529.012 143.351
L529.319 142.614
L529.625 141.948
L530.164 140.954
L530.702 140.201
L530.972 139.92
L531.241 139.704
L531.511 139.555
L531.78 139.476
L532.05 139.468
L532.319 139.534
L532.589 139.674
L532.858 139.892
L533.128 140.189
L533.397 140.567
L533.667 141.029
L533.936 141.576
L534.296 142.443
L534.656 143.472
L535.015 144.668
L535.375 146.036
L535.735 147.581
L536.095 149.31
L536.454 151.228
L536.814 153.342
L537.073 154.986
L537.332 156.737
L537.591 158.597
L537.85 160.568
L538.109 162.652
L538.367 164.851
L538.626 167.169
L538.885 169.608
L539.132 172.046
L539.379 174.598
L539.625 177.267
L539.872 180.054
L540.119 182.961
L540.365 185.992
L540.612 189.148
L540.859 192.432
L541.031 194.803
L541.203 197.24
L541.376 199.741
L541.548 202.308
L541.721 204.943
L541.893 207.645
L542.065 210.415
L542.238 213.255
L542.41 216.166
L542.583 219.147
L542.755 222.201
L542.927 225.327
L543.1 228.528
L543.272 231.803
L543.445 235.154
L543.617 238.582
L543.81 242.507
L544.002 246.53
L544.195 250.653
L544.388 254.878
L544.581 259.204
L544.774 263.634
L544.966 268.17
L545.159 272.812
L545.352 277.561
L545.545 282.42
L545.738 287.39
L545.93 292.472
L546.123 297.668
L546.316 302.979
L546.509 308.406
L546.702 313.952
z
" style="fill:#7f00ff;opacity:0.2;"/>
   </g>
   <g id="line2d_1">
    <path clip-path="url(#pbbce88da59)" d="
M17.7785 313.952
L32.3448 312.579
L46.2415 311.04
L57.1923 309.635
L67.0362 308.199
L78.4482 306.289
L86.5654 304.74
L95.9241 302.723
L104.294 300.671
L111.118 298.797
L119.152 296.321
L126.833 293.635
L133.23 291.121
L137.811 289.144
L142.95 286.729
L147.976 284.143
L152.621 281.531
L159.364 277.308
L163.59 274.369
L169.271 270.01
L172.789 267.05
L178.323 261.939
L181.571 258.652
L186.683 252.996
L189.353 249.784
L194.359 243.237
L197.925 238.113
L200.926 233.475
L204.403 227.699
L208.001 221.232
L211.881 213.651
L215.88 205.129
L219.389 197.014
L222.842 188.411
L226.132 179.625
L229.865 168.931
L233.639 157.337
L237.925 143.238
L242.733 126.348
L248.563 104.692
L258.97 65.4272
L261.444 56.6342
L264.799 45.4974
L266.843 39.2971
L269.334 32.4801
L271.599 27.1038
L273.864 22.6157
L275.182 20.4488
L276.241 18.9572
L277.301 17.6965
L278.361 16.6725
L279.421 15.8901
L280.336 15.4116
L281.251 15.1178
L282.038 15.0137
L283.363 15.1494
L284.439 15.5455
L285.514 16.1959
L286.052 16.6155
L287.127 17.6408
L288.042 18.7054
L289.597 20.9096
L291.115 23.5226
L292.871 27.0808
L294.963 32.0148
L297.007 37.4906
L299.496 44.9161
L302.1 53.4245
L305.836 66.6142
L309.58 80.561
L320.605 122.192
L325.4 139.28
L328.577 150.011
L332.87 163.669
L335.66 172.001
L339.392 182.475
L343.021 191.933
L346.617 200.618
L350.181 208.589
L353.695 215.86
L357.714 223.51
L360.781 228.904
L363.606 233.558
L367.177 239.035
L371.159 244.654
L374.551 249.067
L378.301 253.581
L381.152 256.777
L385.965 261.75
L390.97 266.417
L395.422 270.183
L400.176 273.847
L407.184 278.661
L410.637 280.805
L416.778 284.29
L422.489 287.197
L427.042 289.311
L433.804 292.157
L439.458 294.299
L445.49 296.374
L454.267 299.057
L462.245 301.2
L470.477 303.159
L476.94 304.542
L488.374 306.705
L500.173 308.615
L509.638 309.953
L522.591 311.549
L536.769 313.04
L546.702 313.952
L546.702 313.952" style="fill:none;stroke:#ff0000;stroke-linecap:square;"/>
   </g>
   <g id="line2d_2">
    <path clip-path="url(#pbbce88da59)" d="
M17.7785 313.952
L19.4971 316.6
L21.2158 319.107
L24.5491 323.575
L26.9821 326.516
L29.9177 329.715
L33.1404 332.802
L36.5135 335.571
L39.3858 337.57
L40.9335 338.514
L45.0292 340.578
L46.5802 341.2
L50.3005 342.345
L51.8233 342.677
L53.9961 343.017
L56.1689 343.205
L58.9879 343.228
L62.3127 342.946
L66.1443 342.225
L69.5148 341.258
L71.5651 340.523
L74.589 339.246
L78.8001 337.103
L82.213 335.071
L85.4351 332.925
L88.7313 330.514
L92.7061 327.334
L96.9738 323.611
L101.529 319.315
L105.848 314.962
L110.874 309.59
L117.012 302.638
L124.044 294.231
L131.822 284.502
L142.076 271.199
L173.437 229.907
L183.367 217.445
L191.331 207.901
L197.041 201.356
L202.636 195.219
L208.737 188.87
L214.324 183.396
L221.339 177.018
L226.487 172.71
L229.457 170.375
L232.923 167.794
L239.383 163.407
L244.201 160.506
L249.092 157.895
L253.696 155.751
L256.736 154.506
L262.07 152.651
L266.39 151.461
L271.131 150.482
L274.373 150.009
L278.822 149.623
L283.201 149.541
L285.598 149.62
L290.863 150.105
L295.955 150.978
L300.148 151.993
L303.988 153.155
L308.694 154.88
L311.723 156.163
L315.649 158.026
L320.329 160.535
L326.259 164.155
L328.624 165.733
L333.981 169.583
L339.867 174.241
L344.006 177.773
L351.001 184.202
L356.372 189.508
L362.155 195.552
L370.048 204.312
L376.32 211.646
L384.001 221.012
L393.023 232.451
L404.495 247.46
L428.629 279.325
L434.079 286.307
L441.986 296.12
L449.461 304.939
L453.262 309.211
L457.994 314.298
L463.068 319.429
L468.745 324.723
L474.702 329.705
L479.6 333.311
L484.523 336.443
L487.845 338.257
L491.438 339.928
L494.821 341.21
L498.337 342.226
L501.953 342.917
L503.449 343.094
L505.734 343.236
L507.718 343.23
L509.703 343.102
L513.507 342.501
L516.53 341.677
L518.106 341.122
L521.929 339.404
L525.036 337.608
L528.24 335.364
L530.854 333.23
L533.401 330.878
L534.674 329.6
L538.431 325.419
L540.523 322.819
L542.826 319.724
L546.702 313.952
L546.702 313.952" style="fill:none;"/>
   </g>
   <g id="line2d_3">
    <path clip-path="url(#pbbce88da59)" d="
M17.7785 313.952
L18.7337 309.604
L19.6889 305.476
L21.5994 297.855
L23.6916 290.436
L25.9018 283.589
L28.2331 277.4
L30.089 273.181
L31.9784 269.492
L33.2279 267.37
L35.268 264.417
L36.7417 262.659
L37.4249 261.945
L39.7666 259.959
L40.7421 259.332
L42.0092 258.683
L43.2763 258.213
L44.416 257.936
L45.5556 257.789
L46.6953 257.767
L48.7598 258.024
L49.6847 258.256
L51.4307 258.876
L53.1768 259.717
L54.4589 260.464
L56.4593 261.83
L58.4597 263.414
L61.5477 266.229
L64.3443 269.098
L68.2437 273.481
L73.3305 279.631
L85.9149 295.131
L90.2675 300.071
L94.6122 304.578
L97.3764 307.178
L100.014 309.441
L102.053 311.032
L104.539 312.774
L106.625 314.061
L110.307 315.922
L112.962 316.927
L115.186 317.543
L118.838 318.101
L120.115 318.16
L122.198 318.105
L124.281 317.861
L127.259 317.18
L130.271 316.097
L133.232 314.646
L135.463 313.303
L137.796 311.671
L139.821 310.07
L143.497 306.733
L146.735 303.345
L149.766 299.809
L153.297 295.26
L157.234 289.676
L161.458 283.123
L165.274 276.741
L168.965 270.19
L174.499 259.756
L179.351 250.091
L185.684 236.91
L192.303 222.654
L214.487 174.416
L221.391 160.228
L226.669 149.925
L231.45 141.094
L236.803 131.863
L240.365 126.151
L244.188 120.432
L247.348 116.051
L250.348 112.194
L254.207 107.687
L258.197 103.584
L260.953 101.094
L263.665 98.9254
L266.415 97.0165
L268.732 95.6384
L272.483 93.8614
L274.827 93.0392
L276.669 92.5494
L279.882 92.0272
L282.667 91.9168
L285.025 92.0722
L287.024 92.3825
L289.024 92.8563
L290.801 93.4139
L293.94 94.7114
L295.861 95.7005
L298.24 97.129
L300.331 98.5679
L302.422 100.176
L306.286 103.587
L309.089 106.408
L313.011 110.831
L316.626 115.379
L320.223 120.334
L324.023 126.007
L328.197 132.727
L332.187 139.591
L338.2 150.666
L343.843 161.742
L349.424 173.221
L358.068 191.733
L378.807 236.932
L384.69 249.197
L388.925 257.69
L393.044 265.617
L396.845 272.591
L401.794 281.114
L405.662 287.284
L409.529 292.979
L413.441 298.221
L417.471 303.04
L420.646 306.4
L422.856 308.503
L426.739 311.713
L428.814 313.17
L430.888 314.444
L434.431 316.19
L437.582 317.283
L440.349 317.885
L442.996 318.146
L444.733 318.151
L447.837 317.834
L450.021 317.365
L453.232 316.311
L455.14 315.485
L457.048 314.514
L459.518 313.048
L462.966 310.625
L464.619 309.316
L466.963 307.305
L471.474 302.967
L474.141 300.149
L479.475 294.056
L486.13 285.897
L493.689 276.517
L498.058 271.386
L501.629 267.532
L505.621 263.754
L508.85 261.235
L511.542 259.589
L513.848 258.563
L515.941 257.979
L517.778 257.767
L519.544 257.853
L521.478 258.3
L523.54 259.218
L525.561 260.598
L527.456 262.356
L529.26 264.48
L531.175 267.247
L533.163 270.716
L534.931 274.347
L536.481 277.975
L538.136 282.336
L539.787 287.212
L542.099 294.973
L544.334 303.577
L546.702 313.952
L546.702 313.952" style="fill:none;"/>
   </g>
   <g id="line2d_4">
    <path clip-path="url(#pbbce88da59)" d="
M17.7785 313.952
L19.5359 332.959
L20.9652 346.394
L22.6522 360.089
L24.361 371.754
L25.6589 379.244
L26.9568 385.636
L28.4648 391.78
L29.5716 395.472
L30.5362 398.163
L31.7275 400.85
L32.9188 402.878
L34.1101 404.294
L34.7058 404.787
L35.3475 405.165
L35.9892 405.391
L36.6308 405.471
L37.7475 405.282
L38.6976 404.812
L39.7546 403.981
L40.9186 402.718
L42.1215 401.062
L43.3632 399.015
L44.6972 396.472
L46.8365 391.752
L48.4925 387.641
L51.4988 379.395
L54.558 370.277
L68.1663 328.356
L71.6963 318.596
L73.6393 313.587
L77.0585 305.475
L79.9065 299.455
L82.679 294.268
L85.7721 289.281
L87.2235 287.232
L89.8812 283.958
L92.3125 281.493
L94.8806 279.42
L97.1672 278.013
L99.3988 277.018
L101.634 276.374
L104.085 276.044
L106.536 276.074
L107.724 276.208
L109.747 276.599
L111.827 277.195
L115.619 278.713
L117.787 279.783
L123.872 283.301
L131.99 288.34
L134.915 290.02
L139.987 292.513
L141.683 293.188
L143.991 293.954
L147.728 294.766
L150.489 294.986
L153.485 294.821
L155.837 294.378
L157.728 293.811
L159.619 293.05
L161.357 292.175
L162.935 291.233
L164.512 290.149
L167.532 287.669
L169.71 285.547
L172.382 282.564
L174.605 279.762
L177.036 276.369
L179.338 272.844
L182.675 267.209
L186.317 260.376
L189.938 252.915
L193.686 244.543
L197.392 235.677
L200.494 227.854
L206.371 212.199
L210.721 200.062
L218.519 177.619
L229.223 146.733
L234.618 131.761
L240.444 116.462
L245.148 104.988
L248.749 96.8461
L251.48 91.0886
L255.04 84.172
L257.921 79.0995
L259.951 75.824
L263.431 70.8064
L265.725 67.9285
L267.544 65.8969
L269.241 64.2069
L272.254 61.6994
L273.572 60.8053
L275.184 59.8802
L277.744 58.7986
L279.323 58.3694
L280.902 58.1228
L282.677 58.064
L284.452 58.2366
L285.823 58.5281
L287.351 59.0148
L289.866 60.186
L291.841 61.4253
L294.215 63.2832
L295.772 64.7163
L298.769 67.9446
L301.606 71.5567
L303.003 73.5288
L306.454 78.9249
L309.015 83.3935
L312.574 90.2248
L315.841 97.0867
L318.841 103.844
L322.27 112.051
L326.999 124.11
L331.964 137.517
L335.968 148.751
L349.629 188.246
L356.295 207.183
L361.604 221.63
L365.733 232.303
L369.359 241.176
L373.124 249.822
L377.164 258.382
L380.752 265.304
L383.35 269.895
L386.633 275.162
L388.843 278.364
L391.579 281.935
L394.534 285.301
L396.619 287.366
L398.704 289.175
L400.638 290.627
L403.241 292.24
L405.525 293.339
L406.668 293.781
L408.786 294.413
L411.465 294.876
L412.897 294.976
L414.965 294.948
L417.033 294.725
L419.147 294.31
L421.09 293.773
L423.732 292.827
L425.865 291.903
L430.934 289.251
L434.842 286.909
L443.504 281.555
L447.516 279.362
L450.998 277.795
L452.916 277.11
L455.355 276.458
L457.588 276.106
L459.821 276.02
L461.309 276.123
L462.796 276.363
L464.115 276.698
L466.699 277.703
L468.807 278.887
L471.127 280.588
L473.447 282.728
L475.777 285.334
L477.796 287.971
L479.512 290.495
L481.918 294.473
L484.346 299.003
L486.325 303.075
L488.461 307.842
L491.57 315.434
L494.892 324.331
L497.607 332.117
L500.627 341.212
L512.964 379.344
L515.885 387.375
L518.423 393.555
L519.971 396.85
L521.656 399.943
L523.089 402.108
L524.27 403.529
L525.379 404.532
L526.416 405.156
L526.934 405.346
L527.596 405.464
L528.258 405.436
L528.92 405.256
L530.106 404.529
L531.154 403.429
L532.201 401.867
L533.249 399.813
L534.259 397.336
L535.633 393.129
L536.965 388.064
L538.297 381.951
L539.62 374.769
L540.943 366.397
L542.312 356.389
L543.774 344.082
L545.238 329.977
L546.702 313.952
L546.702 313.952" style="fill:none;"/>
   </g>
   <g id="line2d_5">
    <path clip-path="url(#pbbce88da59)" d="
M17.7785 313.952
L19.2047 275.657
L20.5463 245.084
L21.9395 218.414
L23.2268 197.955
L24.493 181.396
L25.5481 170.061
L26.55 161.202
L27.5519 154.053
L28.5538 148.478
L29.5557 144.349
L30.2272 142.331
L30.8988 140.874
L31.5703 139.943
L32.2418 139.506
L32.7262 139.481
L33.2105 139.685
L33.6949 140.108
L34.1793 140.739
L35.235 142.785
L36.2906 145.667
L37.218 148.812
L38.6091 154.466
L40.0002 161.074
L41.931 171.498
L44.2395 185.344
L47.9337 209.199
L53.6457 246.235
L56.7431 264.838
L59.6213 280.572
L62.1766 293.06
L64.1433 301.641
L65.7934 308.123
L67.7666 315.001
L69.6139 320.578
L71.5715 325.588
L73.3828 329.421
L74.8116 331.915
L76.5639 334.362
L77.6018 335.505
L78.6397 336.43
L80.4505 337.541
L81.9964 338.014
L82.7693 338.094
L83.6734 338.064
L85.3845 337.658
L87.0618 336.849
L88.8026 335.622
L89.6729 334.873
L90.9893 333.585
L92.3057 332.126
L94.0139 330.008
L95.7221 327.67
L97.7299 324.694
L102.101 317.628
L112.246 300.62
L115.838 295.128
L118.833 290.957
L121.271 287.882
L123.682 285.149
L126.333 282.513
L128.003 281.054
L130.847 278.929
L132.021 278.182
L135.263 276.497
L136.685 275.926
L138.812 275.249
L141.267 274.711
L144.477 274.349
L146.984 274.289
L151.083 274.493
L162.367 275.494
L165.802 275.455
L168.456 275.181
L171.444 274.551
L173.891 273.738
L176.16 272.714
L178.429 271.406
L180.922 269.617
L183.795 267.069
L186.275 264.429
L189.386 260.516
L192.162 256.446
L194.812 252.044
L197.158 247.729
L199.504 243.025
L202.014 237.57
L205.076 230.345
L207.496 224.213
L211.735 212.64
L215.585 201.315
L220.173 186.978
L225.526 169.4
L241.699 115.1
L245.833 102.033
L250.069 89.4254
L253.123 80.9548
L255.922 73.7182
L258.599 67.3232
L261.348 61.3386
L263.709 56.7029
L266.302 52.1837
L268.894 48.2903
L270.292 46.4599
L272.456 44.0086
L273.538 42.9602
L274.828 41.8672
L276.895 40.475
L278.449 39.7226
L279.226 39.4419
L280.704 39.0848
L282.182 38.9596
L283.513 39.0456
L285.155 39.4109
L286.874 40.0994
L288.594 41.0988
L290.427 42.5039
L292.261 44.2546
L293.563 45.7048
L296.221 49.1847
L298.042 51.9632
L299.863 55.0512
L301.957 58.9716
L305.039 65.4234
L308.129 72.6572
L311.239 80.6385
L314.46 89.5668
L318.578 101.82
L322.724 114.918
L327.366 130.221
L344.669 188.137
L349.949 204.484
L353.649 215.192
L356.944 224.11
L360.682 233.435
L363.712 240.332
L366.451 246.028
L369.39 251.553
L371.69 255.447
L374.109 259.134
L376.593 262.485
L379.134 265.467
L380.405 266.792
L383.567 269.625
L384.86 270.6
L387.947 272.519
L390.453 273.684
L391.758 274.162
L393.749 274.736
L397.329 275.346
L400.887 275.515
L403.017 275.457
L409.032 274.931
L415.6 274.345
L419.762 274.335
L421.843 274.512
L423.899 274.837
L426.111 275.373
L429.143 276.465
L430.859 277.282
L432.575 278.253
L435.309 280.127
L436.499 281.072
L438.298 282.652
L441.291 285.682
L442.485 287.029
L444.634 289.642
L448.103 294.347
L451.181 298.962
L454.832 304.849
L466.045 323.601
L468.403 327.161
L470.762 330.391
L473.342 333.428
L475.945 335.835
L477.92 337.131
L479.76 337.868
L481.406 338.099
L482.855 337.938
L484.331 337.399
L485.834 336.434
L487.295 335.073
L488.004 334.255
L489.053 332.85
L490.754 330.062
L492.056 327.488
L493.679 323.725
L495.625 318.388
L497.603 312.019
L499.577 304.706
L501.552 296.447
L503.699 286.423
L505.832 275.437
L508.13 262.562
L511.639 241.172
L513.942 226.329
L520.004 186.827
L522.71 170.58
L524.709 159.929
L526.275 152.715
L527.788 146.961
L529.012 143.351
L529.625 141.948
L530.164 140.954
L530.972 139.92
L531.511 139.555
L532.05 139.468
L532.589 139.674
L533.128 140.189
L533.667 141.029
L534.296 142.443
L535.015 144.668
L535.735 147.581
L536.454 151.228
L537.332 156.737
L538.367 164.851
L539.379 174.598
L540.365 185.992
L541.548 202.308
L542.755 222.201
L544.002 246.53
L545.352 277.561
L546.702 313.952
L546.702 313.952" style="fill:none;"/>
   </g>
   <g id="matplotlib.axis_1">
    <g id="xtick_1">
     <g id="line2d_6">
      <defs>
       <path d="
M0 0
L0 -4" id="m93b0483c22" style="stroke:#000000;stroke-width:0.5;"/>
      </defs>
      <g>
       <use style="stroke:#000000;stroke-width:0.5;" x="17.7784615385" xlink:href="#m93b0483c22" y="325.909666593"/>
      </g>
     </g>
     <g id="text_1">
      <!-- -1 -->
      <defs>
       <path d="
M12.4062 8.29688
L28.5156 8.29688
L28.5156 63.9219
L10.9844 60.4062
L10.9844 69.3906
L28.4219 72.9062
L38.2812 72.9062
L38.2812 8.29688
L54.3906 8.29688
L54.3906 0
L12.4062 0
z
" id="BitstreamVeraSans-Roman-31"/>
       <path d="
M4.89062 31.3906
L31.2031 31.3906
L31.2031 23.3906
L4.89062 23.3906
z
" id="BitstreamVeraSans-Roman-2d"/>
      </defs>
      <g transform="translate(13.4995552885 337.508104093)scale(0.1 -0.1)">
       <use xlink:href="#BitstreamVeraSans-Roman-2d"/>
       <use x="36.083984375" xlink:href="#BitstreamVeraSans-Roman-31"/>
      </g>
     </g>
    </g>
    <g id="xtick_2">
     <g id="line2d_7">
      <g>
       <use style="stroke:#000000;stroke-width:0.5;" x="150.009230769" xlink:href="#m93b0483c22" y="325.909666593"/>
      </g>
     </g>
     <g id="text_2">
      <!-- -0.5 -->
      <defs>
       <path d="
M31.7812 66.4062
Q24.1719 66.4062 20.3281 58.9062
Q16.5 51.4219 16.5 36.375
Q16.5 21.3906 20.3281 13.8906
Q24.1719 6.39062 31.7812 6.39062
Q39.4531 6.39062 43.2812 13.8906
Q47.125 21.3906 47.125 36.375
Q47.125 51.4219 43.2812 58.9062
Q39.4531 66.4062 31.7812 66.4062
M31.7812 74.2188
Q44.0469 74.2188 50.5156 64.5156
Q56.9844 54.8281 56.9844 36.375
Q56.9844 17.9688 50.5156 8.26562
Q44.0469 -1.42188 31.7812 -1.42188
Q19.5312 -1.42188 13.0625 8.26562
Q6.59375 17.9688 6.59375 36.375
Q6.59375 54.8281 13.0625 64.5156
Q19.5312 74.2188 31.7812 74.2188" id="BitstreamVeraSans-Roman-30"/>
       <path d="
M10.6875 12.4062
L21 12.4062
L21 0
L10.6875 0
z
" id="BitstreamVeraSans-Roman-2e"/>
       <path d="
M10.7969 72.9062
L49.5156 72.9062
L49.5156 64.5938
L19.8281 64.5938
L19.8281 46.7344
Q21.9688 47.4688 24.1094 47.8281
Q26.2656 48.1875 28.4219 48.1875
Q40.625 48.1875 47.75 41.5
Q54.8906 34.8125 54.8906 23.3906
Q54.8906 11.625 47.5625 5.09375
Q40.2344 -1.42188 26.9062 -1.42188
Q22.3125 -1.42188 17.5469 -0.640625
Q12.7969 0.140625 7.71875 1.70312
L7.71875 11.625
Q12.1094 9.23438 16.7969 8.0625
Q21.4844 6.89062 26.7031 6.89062
Q35.1562 6.89062 40.0781 11.3281
Q45.0156 15.7656 45.0156 23.3906
Q45.0156 31 40.0781 35.4375
Q35.1562 39.8906 26.7031 39.8906
Q22.75 39.8906 18.8125 39.0156
Q14.8906 38.1406 10.7969 36.2812
z
" id="BitstreamVeraSans-Roman-35"/>
      </defs>
      <g transform="translate(140.935012019 337.508104093)scale(0.1 -0.1)">
       <use xlink:href="#BitstreamVeraSans-Roman-2d"/>
       <use x="36.083984375" xlink:href="#BitstreamVeraSans-Roman-30"/>
       <use x="99.70703125" xlink:href="#BitstreamVeraSans-Roman-2e"/>
       <use x="131.494140625" xlink:href="#BitstreamVeraSans-Roman-35"/>
      </g>
     </g>
    </g>
    <g id="xtick_3">
     <g id="line2d_8">
      <g>
       <use style="stroke:#000000;stroke-width:0.5;" x="282.24" xlink:href="#m93b0483c22" y="325.909666593"/>
      </g>
     </g>
    </g>
    <g id="xtick_4">
     <g id="line2d_9">
      <g>
       <use style="stroke:#000000;stroke-width:0.5;" x="414.470769231" xlink:href="#m93b0483c22" y="325.909666593"/>
      </g>
     </g>
     <g id="text_3">
      <!-- 0.5 -->
      <g transform="translate(407.285612981 337.508104093)scale(0.1 -0.1)">
       <use xlink:href="#BitstreamVeraSans-Roman-30"/>
       <use x="63.623046875" xlink:href="#BitstreamVeraSans-Roman-2e"/>
       <use x="95.41015625" xlink:href="#BitstreamVeraSans-Roman-35"/>
      </g>
     </g>
    </g>
    <g id="xtick_5">
     <g id="line2d_10">
      <g>
       <use style="stroke:#000000;stroke-width:0.5;" x="546.701538462" xlink:href="#m93b0483c22" y="325.909666593"/>
      </g>
     </g>
     <g id="text_4">
      <!-- 1 -->
      <g transform="translate(544.531225962 337.508104093)scale(0.1 -0.1)">
       <use xlink:href="#BitstreamVeraSans-Roman-31"/>
      </g>
     </g>
    </g>
    <g id="xtick_6">
     <g id="line2d_11">
      <defs>
       <path d="
M0 0
L0 -2" id="m177f7580d0" style="stroke:#000000;stroke-width:0.5;"/>
      </defs>
      <g>
       <use style="stroke:#000000;stroke-width:0.5;" x="44.2246153846" xlink:href="#m177f7580d0" y="325.909666593"/>
      </g>
     </g>
    </g>
    <g id="xtick_7">
     <g id="line2d_12">
      <g>
       <use style="stroke:#000000;stroke-width:0.5;" x="70.6707692308" xlink:href="#m177f7580d0" y="325.909666593"/>
      </g>
     </g>
    </g>
    <g id="xtick_8">
     <g id="line2d_13">
      <g>
       <use style="stroke:#000000;stroke-width:0.5;" x="97.1169230769" xlink:href="#m177f7580d0" y="325.909666593"/>
      </g>
     </g>
    </g>
    <g id="xtick_9">
     <g id="line2d_14">
      <g>
       <use style="stroke:#000000;stroke-width:0.5;" x="123.563076923" xlink:href="#m177f7580d0" y="325.909666593"/>
      </g>
     </g>
    </g>
    <g id="xtick_10">
     <g id="line2d_15">
      <g>
       <use style="stroke:#000000;stroke-width:0.5;" x="150.009230769" xlink:href="#m177f7580d0" y="325.909666593"/>
      </g>
     </g>
    </g>
    <g id="xtick_11">
     <g id="line2d_16">
      <g>
       <use style="stroke:#000000;stroke-width:0.5;" x="176.455384615" xlink:href="#m177f7580d0" y="325.909666593"/>
      </g>
     </g>
    </g>
    <g id="xtick_12">
     <g id="line2d_17">
      <g>
       <use style="stroke:#000000;stroke-width:0.5;" x="202.901538462" xlink:href="#m177f7580d0" y="325.909666593"/>
      </g>
     </g>
    </g>
    <g id="xtick_13">
     <g id="line2d_18">
      <g>
       <use style="stroke:#000000;stroke-width:0.5;" x="229.347692308" xlink:href="#m177f7580d0" y="325.909666593"/>
      </g>
     </g>
    </g>
    <g id="xtick_14">
     <g id="line2d_19">
      <g>
       <use style="stroke:#000000;stroke-width:0.5;" x="255.793846154" xlink:href="#m177f7580d0" y="325.909666593"/>
      </g>
     </g>
    </g>
    <g id="xtick_15">
     <g id="line2d_20">
      <g>
       <use style="stroke:#000000;stroke-width:0.5;" x="282.24" xlink:href="#m177f7580d0" y="325.909666593"/>
      </g>
     </g>
    </g>
    <g id="xtick_16">
     <g id="line2d_21">
      <g>
       <use style="stroke:#000000;stroke-width:0.5;" x="308.686153846" xlink:href="#m177f7580d0" y="325.909666593"/>
      </g>
     </g>
    </g>
    <g id="xtick_17">
     <g id="line2d_22">
      <g>
       <use style="stroke:#000000;stroke-width:0.5;" x="335.132307692" xlink:href="#m177f7580d0" y="325.909666593"/>
      </g>
     </g>
    </g>
    <g id="xtick_18">
     <g id="line2d_23">
      <g>
       <use style="stroke:#000000;stroke-width:0.5;" x="361.578461538" xlink:href="#m177f7580d0" y="325.909666593"/>
      </g>
     </g>
    </g>
    <g id="xtick_19">
     <g id="line2d_24">
      <g>
       <use style="stroke:#000000;stroke-width:0.5;" x="388.024615385" xlink:href="#m177f7580d0" y="325.909666593"/>
      </g>
     </g>
    </g>
    <g id="xtick_20">
     <g id="line2d_25">
      <g>
       <use style="stroke:#000000;stroke-width:0.5;" x="414.470769231" xlink:href="#m177f7580d0" y="325.909666593"/>
      </g>
     </g>
    </g>
    <g id="xtick_21">
     <g id="line2d_26">
      <g>
       <use style="stroke:#000000;stroke-width:0.5;" x="440.916923077" xlink:href="#m177f7580d0" y="325.909666593"/>
      </g>
     </g>
    </g>
    <g id="xtick_22">
     <g id="line2d_27">
      <g>
       <use style="stroke:#000000;stroke-width:0.5;" x="467.363076923" xlink:href="#m177f7580d0" y="325.909666593"/>
      </g>
     </g>
    </g>
    <g id="xtick_23">
     <g id="line2d_28">
      <g>
       <use style="stroke:#000000;stroke-width:0.5;" x="493.809230769" xlink:href="#m177f7580d0" y="325.909666593"/>
      </g>
     </g>
    </g>
    <g id="xtick_24">
     <g id="line2d_29">
      <g>
       <use style="stroke:#000000;stroke-width:0.5;" x="520.255384615" xlink:href="#m177f7580d0" y="325.909666593"/>
      </g>
     </g>
    </g>
   </g>
   <g id="matplotlib.axis_2">
    <g id="ytick_1">
     <g id="line2d_30">
      <defs>
       <path d="
M0 0
L4 0" id="m728421d6d4" style="stroke:#000000;stroke-width:0.5;"/>
      </defs>
      <g>
       <use style="stroke:#000000;stroke-width:0.5;" x="282.24" xlink:href="#m728421d6d4" y="388.089764523"/>
      </g>
     </g>
     <g id="text_5">
      <!-- -0.2 -->
      <defs>
       <path d="
M19.1875 8.29688
L53.6094 8.29688
L53.6094 0
L7.32812 0
L7.32812 8.29688
Q12.9375 14.1094 22.625 23.8906
Q32.3281 33.6875 34.8125 36.5312
Q39.5469 41.8438 41.4219 45.5312
Q43.3125 49.2188 43.3125 52.7812
Q43.3125 58.5938 39.2344 62.25
Q35.1562 65.9219 28.6094 65.9219
Q23.9688 65.9219 18.8125 64.3125
Q13.6719 62.7031 7.8125 59.4219
L7.8125 69.3906
Q13.7656 71.7812 18.9375 73
Q24.125 74.2188 28.4219 74.2188
Q39.75 74.2188 46.4844 68.5469
Q53.2188 62.8906 53.2188 53.4219
Q53.2188 48.9219 51.5312 44.8906
Q49.8594 40.875 45.4062 35.4062
Q44.1875 33.9844 37.6406 27.2188
Q31.1094 20.4531 19.1875 8.29688" id="BitstreamVeraSans-Roman-32"/>
      </defs>
      <g transform="translate(260.2196875 390.849139523)scale(0.1 -0.1)">
       <use xlink:href="#BitstreamVeraSans-Roman-2d"/>
       <use x="36.083984375" xlink:href="#BitstreamVeraSans-Roman-30"/>
       <use x="99.70703125" xlink:href="#BitstreamVeraSans-Roman-2e"/>
       <use x="131.494140625" xlink:href="#BitstreamVeraSans-Roman-32"/>
      </g>
     </g>
    </g>
    <g id="ytick_2">
     <g id="line2d_31">
      <g>
       <use style="stroke:#000000;stroke-width:0.5;" x="282.24" xlink:href="#m728421d6d4" y="325.909666593"/>
      </g>
     </g>
    </g>
    <g id="ytick_3">
     <g id="line2d_32">
      <g>
       <use style="stroke:#000000;stroke-width:0.5;" x="282.24" xlink:href="#m728421d6d4" y="263.729568663"/>
      </g>
     </g>
     <g id="text_6">
      <!-- 0.2 -->
      <g transform="translate(263.9978125 266.488943663)scale(0.1 -0.1)">
       <use xlink:href="#BitstreamVeraSans-Roman-30"/>
       <use x="63.623046875" xlink:href="#BitstreamVeraSans-Roman-2e"/>
       <use x="95.41015625" xlink:href="#BitstreamVeraSans-Roman-32"/>
      </g>
     </g>
    </g>
    <g id="ytick_4">
     <g id="line2d_33">
      <g>
       <use style="stroke:#000000;stroke-width:0.5;" x="282.24" xlink:href="#m728421d6d4" y="201.549470732"/>
      </g>
     </g>
     <g id="text_7">
      <!-- 0.4 -->
      <defs>
       <path d="
M37.7969 64.3125
L12.8906 25.3906
L37.7969 25.3906
z

M35.2031 72.9062
L47.6094 72.9062
L47.6094 25.3906
L58.0156 25.3906
L58.0156 17.1875
L47.6094 17.1875
L47.6094 0
L37.7969 0
L37.7969 17.1875
L4.89062 17.1875
L4.89062 26.7031
z
" id="BitstreamVeraSans-Roman-34"/>
      </defs>
      <g transform="translate(263.5571875 204.308845732)scale(0.1 -0.1)">
       <use xlink:href="#BitstreamVeraSans-Roman-30"/>
       <use x="63.623046875" xlink:href="#BitstreamVeraSans-Roman-2e"/>
       <use x="95.41015625" xlink:href="#BitstreamVeraSans-Roman-34"/>
      </g>
     </g>
    </g>
    <g id="ytick_5">
     <g id="line2d_34">
      <g>
       <use style="stroke:#000000;stroke-width:0.5;" x="282.24" xlink:href="#m728421d6d4" y="139.369372802"/>
      </g>
     </g>
     <g id="text_8">
      <!-- 0.6 -->
      <defs>
       <path d="
M33.0156 40.375
Q26.375 40.375 22.4844 35.8281
Q18.6094 31.2969 18.6094 23.3906
Q18.6094 15.5312 22.4844 10.9531
Q26.375 6.39062 33.0156 6.39062
Q39.6562 6.39062 43.5312 10.9531
Q47.4062 15.5312 47.4062 23.3906
Q47.4062 31.2969 43.5312 35.8281
Q39.6562 40.375 33.0156 40.375
M52.5938 71.2969
L52.5938 62.3125
Q48.875 64.0625 45.0938 64.9844
Q41.3125 65.9219 37.5938 65.9219
Q27.8281 65.9219 22.6719 59.3281
Q17.5312 52.7344 16.7969 39.4062
Q19.6719 43.6562 24.0156 45.9219
Q28.375 48.1875 33.5938 48.1875
Q44.5781 48.1875 50.9531 41.5156
Q57.3281 34.8594 57.3281 23.3906
Q57.3281 12.1562 50.6875 5.35938
Q44.0469 -1.42188 33.0156 -1.42188
Q20.3594 -1.42188 13.6719 8.26562
Q6.98438 17.9688 6.98438 36.375
Q6.98438 53.6562 15.1875 63.9375
Q23.3906 74.2188 37.2031 74.2188
Q40.9219 74.2188 44.7031 73.4844
Q48.4844 72.75 52.5938 71.2969" id="BitstreamVeraSans-Roman-36"/>
      </defs>
      <g transform="translate(263.6259375 142.128747802)scale(0.1 -0.1)">
       <use xlink:href="#BitstreamVeraSans-Roman-30"/>
       <use x="63.623046875" xlink:href="#BitstreamVeraSans-Roman-2e"/>
       <use x="95.41015625" xlink:href="#BitstreamVeraSans-Roman-36"/>
      </g>
     </g>
    </g>
    <g id="ytick_6">
     <g id="line2d_35">
      <g>
       <use style="stroke:#000000;stroke-width:0.5;" x="282.24" xlink:href="#m728421d6d4" y="77.1892748722"/>
      </g>
     </g>
     <g id="text_9">
      <!-- 0.8 -->
      <defs>
       <path d="
M31.7812 34.625
Q24.75 34.625 20.7188 30.8594
Q16.7031 27.0938 16.7031 20.5156
Q16.7031 13.9219 20.7188 10.1562
Q24.75 6.39062 31.7812 6.39062
Q38.8125 6.39062 42.8594 10.1719
Q46.9219 13.9688 46.9219 20.5156
Q46.9219 27.0938 42.8906 30.8594
Q38.875 34.625 31.7812 34.625
M21.9219 38.8125
Q15.5781 40.375 12.0312 44.7188
Q8.5 49.0781 8.5 55.3281
Q8.5 64.0625 14.7188 69.1406
Q20.9531 74.2188 31.7812 74.2188
Q42.6719 74.2188 48.875 69.1406
Q55.0781 64.0625 55.0781 55.3281
Q55.0781 49.0781 51.5312 44.7188
Q48 40.375 41.7031 38.8125
Q48.8281 37.1562 52.7969 32.3125
Q56.7812 27.4844 56.7812 20.5156
Q56.7812 9.90625 50.3125 4.23438
Q43.8438 -1.42188 31.7812 -1.42188
Q19.7344 -1.42188 13.25 4.23438
Q6.78125 9.90625 6.78125 20.5156
Q6.78125 27.4844 10.7812 32.3125
Q14.7969 37.1562 21.9219 38.8125
M18.3125 54.3906
Q18.3125 48.7344 21.8438 45.5625
Q25.3906 42.3906 31.7812 42.3906
Q38.1406 42.3906 41.7188 45.5625
Q45.3125 48.7344 45.3125 54.3906
Q45.3125 60.0625 41.7188 63.2344
Q38.1406 66.4062 31.7812 66.4062
Q25.3906 66.4062 21.8438 63.2344
Q18.3125 60.0625 18.3125 54.3906" id="BitstreamVeraSans-Roman-38"/>
      </defs>
      <g transform="translate(263.680625 79.9486498722)scale(0.1 -0.1)">
       <use xlink:href="#BitstreamVeraSans-Roman-30"/>
       <use x="63.623046875" xlink:href="#BitstreamVeraSans-Roman-2e"/>
       <use x="95.41015625" xlink:href="#BitstreamVeraSans-Roman-38"/>
      </g>
     </g>
    </g>
    <g id="ytick_7">
     <g id="line2d_36">
      <g>
       <use style="stroke:#000000;stroke-width:0.5;" x="282.24" xlink:href="#m728421d6d4" y="15.009176942"/>
      </g>
     </g>
     <g id="text_10">
      <!-- 1 -->
      <g transform="translate(273.899375 17.768551942)scale(0.1 -0.1)">
       <use xlink:href="#BitstreamVeraSans-Roman-31"/>
      </g>
     </g>
    </g>
    <g id="ytick_8">
     <g id="line2d_37">
      <defs>
       <path d="
M0 0
L2 0" id="mf0c55a9a47" style="stroke:#000000;stroke-width:0.5;"/>
      </defs>
      <g>
       <use style="stroke:#000000;stroke-width:0.5;" x="282.24" xlink:href="#mf0c55a9a47" y="403.634789005"/>
      </g>
     </g>
    </g>
    <g id="ytick_9">
     <g id="line2d_38">
      <g>
       <use style="stroke:#000000;stroke-width:0.5;" x="282.24" xlink:href="#mf0c55a9a47" y="372.54474004"/>
      </g>
     </g>
    </g>
    <g id="ytick_10">
     <g id="line2d_39">
      <g>
       <use style="stroke:#000000;stroke-width:0.5;" x="282.24" xlink:href="#mf0c55a9a47" y="356.999715558"/>
      </g>
     </g>
    </g>
    <g id="ytick_11">
     <g id="line2d_40">
      <g>
       <use style="stroke:#000000;stroke-width:0.5;" x="282.24" xlink:href="#mf0c55a9a47" y="341.454691075"/>
      </g>
     </g>
    </g>
    <g id="ytick_12">
     <g id="line2d_41">
      <g>
       <use style="stroke:#000000;stroke-width:0.5;" x="282.24" xlink:href="#mf0c55a9a47" y="325.909666593"/>
      </g>
     </g>
    </g>
    <g id="ytick_13">
     <g id="line2d_42">
      <g>
       <use style="stroke:#000000;stroke-width:0.5;" x="282.24" xlink:href="#mf0c55a9a47" y="310.36464211"/>
      </g>
     </g>
    </g>
    <g id="ytick_14">
     <g id="line2d_43">
      <g>
       <use style="stroke:#000000;stroke-width:0.5;" x="282.24" xlink:href="#mf0c55a9a47" y="294.819617628"/>
      </g>
     </g>
    </g>
    <g id="ytick_15">
     <g id="line2d_44">
      <g>
       <use style="stroke:#000000;stroke-width:0.5;" x="282.24" xlink:href="#mf0c55a9a47" y="279.274593145"/>
      </g>
     </g>
    </g>
    <g id="ytick_16">
     <g id="line2d_45">
      <g>
       <use style="stroke:#000000;stroke-width:0.5;" x="282.24" xlink:href="#mf0c55a9a47" y="263.729568663"/>
      </g>
     </g>
    </g>
    <g id="ytick_17">
     <g id="line2d_46">
      <g>
       <use style="stroke:#000000;stroke-width:0.5;" x="282.24" xlink:href="#mf0c55a9a47" y="248.18454418"/>
      </g>
     </g>
    </g>
    <g id="ytick_18">
     <g id="line2d_47">
      <g>
       <use style="stroke:#000000;stroke-width:0.5;" x="282.24" xlink:href="#mf0c55a9a47" y="232.639519698"/>
      </g>
     </g>
    </g>
    <g id="ytick_19">
     <g id="line2d_48">
      <g>
       <use style="stroke:#000000;stroke-width:0.5;" x="282.24" xlink:href="#mf0c55a9a47" y="217.094495215"/>
      </g>
     </g>
    </g>
    <g id="ytick_20">
     <g id="line2d_49">
      <g>
       <use style="stroke:#000000;stroke-width:0.5;" x="282.24" xlink:href="#mf0c55a9a47" y="201.549470732"/>
      </g>
     </g>
    </g>
    <g id="ytick_21">
     <g id="line2d_50">
      <g>
       <use style="stroke:#000000;stroke-width:0.5;" x="282.24" xlink:href="#mf0c55a9a47" y="186.00444625"/>
      </g>
     </g>
    </g>
    <g id="ytick_22">
     <g id="line2d_51">
      <g>
       <use style="stroke:#000000;stroke-width:0.5;" x="282.24" xlink:href="#mf0c55a9a47" y="170.459421767"/>
      </g>
     </g>
    </g>
    <g id="ytick_23">
     <g id="line2d_52">
      <g>
       <use style="stroke:#000000;stroke-width:0.5;" x="282.24" xlink:href="#mf0c55a9a47" y="154.914397285"/>
      </g>
     </g>
    </g>
    <g id="ytick_24">
     <g id="line2d_53">
      <g>
       <use style="stroke:#000000;stroke-width:0.5;" x="282.24" xlink:href="#mf0c55a9a47" y="139.369372802"/>
      </g>
     </g>
    </g>
    <g id="ytick_25">
     <g id="line2d_54">
      <g>
       <use style="stroke:#000000;stroke-width:0.5;" x="282.24" xlink:href="#mf0c55a9a47" y="123.82434832"/>
      </g>
     </g>
    </g>
    <g id="ytick_26">
     <g id="line2d_55">
      <g>
       <use style="stroke:#000000;stroke-width:0.5;" x="282.24" xlink:href="#mf0c55a9a47" y="108.279323837"/>
      </g>
     </g>
    </g>
    <g id="ytick_27">
     <g id="line2d_56">
      <g>
       <use style="stroke:#000000;stroke-width:0.5;" x="282.24" xlink:href="#mf0c55a9a47" y="92.7342993547"/>
      </g>
     </g>
    </g>
    <g id="ytick_28">
     <g id="line2d_57">
      <g>
       <use style="stroke:#000000;stroke-width:0.5;" x="282.24" xlink:href="#mf0c55a9a47" y="77.1892748722"/>
      </g>
     </g>
    </g>
    <g id="ytick_29">
     <g id="line2d_58">
      <g>
       <use style="stroke:#000000;stroke-width:0.5;" x="282.24" xlink:href="#mf0c55a9a47" y="61.6442503896"/>
      </g>
     </g>
    </g>
    <g id="ytick_30">
     <g id="line2d_59">
      <g>
       <use style="stroke:#000000;stroke-width:0.5;" x="282.24" xlink:href="#mf0c55a9a47" y="46.0992259071"/>
      </g>
     </g>
    </g>
    <g id="ytick_31">
     <g id="line2d_60">
      <g>
       <use style="stroke:#000000;stroke-width:0.5;" x="282.24" xlink:href="#mf0c55a9a47" y="30.5542014246"/>
      </g>
     </g>
    </g>
   </g>
   <g id="patch_7">
    <path d="
M7.2 325.91
L557.28 325.91" style="fill:none;stroke:#000000;stroke-width:0.8;"/>
   </g>
   <g id="patch_8">
    <path d="
M282.24 413.28
L282.24 7.2" style="fill:none;stroke:#000000;stroke-width:0.8;"/>
   </g>
  </g>
 </g>
 <defs>
  <clipPath id="pbbce88da59">
   <rect height="406.08" width="550.08" x="7.2" y="7.2"/>
  </clipPath>
 </defs>
</svg>
