<?xml version="1.0" encoding="utf-8" standalone="no"?>
<!DOCTYPE svg PUBLIC "-//W3C//DTD SVG 1.1//EN"
  "http://www.w3.org/Graphics/SVG/1.1/DTD/svg11.dtd">
<!-- Created with matplotlib (http://matplotlib.org/) -->
<svg height="420pt" version="1.1" viewBox="0 0 563 420" width="563pt" xmlns="http://www.w3.org/2000/svg" xmlns:xlink="http://www.w3.org/1999/xlink">
 <defs>
  <style type="text/css">
*{stroke-linecap:butt;stroke-linejoin:round;}
  </style>
 </defs>
 <g id="figure_1">
  <g id="patch_1">
   <path d="
M2.22045e-16 420.48
L563.973 420.48
L563.973 0
L2.22045e-16 0
z
" style="fill:#ffffff;"/>
  </g>
  <g id="axes_1">
   <g id="patch_2">
    <path d="
M7.2 413.28
L556.773 413.28
L556.773 7.2
L7.2 7.2
z
" style="fill:#ffffff;"/>
   </g>
   <g id="line2d_1">
    <path clip-path="url(#p2f8ae93778)" d="
M17.7687 15.0092
L22.2067 27.7992
L26.6059 39.847
L30.6003 50.2601
L34.9735 61.105
L38.9764 70.5396
L42.9214 79.3927
L47.7998 89.7505
L52.5198 99.1746
L57.3248 108.189
L61.3489 115.307
L65.9351 122.957
L70.2701 129.754
L74.9269 136.605
L79.7312 143.205
L83.5385 148.112
L87.5995 153.044
L92.1106 158.171
L96.575 162.898
L100.254 166.545
L104.112 170.139
L108.925 174.307
L113.64 178.065
L118.483 181.611
L123.813 185.165
L128.23 187.851
L133.982 191.018
L138.933 193.464
L143.871 195.663
L149.183 197.779
L154.297 199.591
L159.687 201.278
L165.189 202.785
L170.625 204.079
L177.228 205.415
L183.771 206.512
L190.547 207.439
L199.308 208.368
L207.154 208.984
L216.314 209.495
L226.269 209.854
L239.578 210.11
L261.586 210.233
L314.999 210.192
L333.049 209.968
L346.366 209.552
L356.721 208.99
L365.397 208.301
L374.703 207.28
L381.991 206.233
L388.314 205.12
L393.932 203.949
L399.585 202.579
L405.822 200.819
L411.301 199.038
L415.53 197.499
L420.589 195.456
L426.237 192.895
L431.545 190.198
L436.161 187.607
L440.65 184.853
L445.323 181.728
L449.65 178.584
L454.89 174.438
L458.897 171.002
L463.817 166.451
L468.165 162.11
L472.699 157.248
L477.058 152.234
L480.594 147.912
L485.026 142.16
L489.281 136.271
L493.71 129.744
L498.44 122.306
L502.642 115.276
L507.099 107.368
L511.4 99.2772
L515.772 90.5739
L520.25 81.1402
L524.346 72.0291
L528.949 61.2272
L533.536 49.8453
L537.503 39.4848
L541.872 27.5022
L546.204 15.0092
L546.204 15.0092" style="fill:none;stroke:#0000ff;stroke-linecap:square;stroke-width:2.0;"/>
   </g>
   <g id="line2d_2">
    <path clip-path="url(#p2f8ae93778)" d="
M17.7687 405.471
L21.8668 393.637
L26.3318 381.366
L30.6411 370.116
L34.6229 360.223
L39.4735 348.801
L43.5485 339.72
L48.1756 329.958
L52.9775 320.422
L57.036 312.816
L61.3507 305.17
L66.3747 296.815
L70.9364 289.717
L74.8826 283.938
L79.3367 277.799
L83.2597 272.718
L88.2353 266.692
L92.4849 261.9
L97.0593 257.089
L101.86 252.411
L106.443 248.28
L110.178 245.144
L114.822 241.521
L119.452 238.196
L123.613 235.442
L128.532 232.454
L133.962 229.472
L139.749 226.637
L145.049 224.326
L149.932 222.422
L156.457 220.187
L161.418 218.705
L166.32 217.41
L173.388 215.812
L179.572 214.647
L186.862 213.52
L195.09 212.524
L203.091 211.792
L212.958 211.15
L224.678 210.672
L238.284 210.386
L256.587 210.257
L307.382 210.257
L328.407 210.426
L342.582 210.78
L351.381 211.169
L361.067 211.807
L369.983 212.642
L378.198 213.672
L384.89 214.732
L389.807 215.654
L396.828 217.208
L401.707 218.469
L407.044 220.038
L412.737 221.948
L417.45 223.729
L422.97 226.066
L428.112 228.504
L433.409 231.3
L438.458 234.252
L443.885 237.762
L448.811 241.267
L453.181 244.648
L458.159 248.828
L462.637 252.904
L467.761 257.954
L471.111 261.489
L475.63 266.566
L479.938 271.749
L484.409 277.497
L488.759 283.466
L493.032 289.71
L497.296 296.33
L502.15 304.36
L506.065 311.235
L510.076 318.663
L514.565 327.453
L519.149 336.971
L523.741 347.074
L528.531 358.246
L532.977 369.215
L537.247 380.311
L542.283 394.136
L546.204 405.471
L546.204 405.471" style="fill:none;stroke:#ff0000;stroke-linecap:square;stroke-width:2.0;"/>
   </g>
   <g id="matplotlib.axis_1">
    <g id="xtick_1">
     <g id="line2d_3">
      <defs>
       <path d="
M0 0
L0 -4" id="m93b0483c22" style="stroke:#000000;stroke-width:0.5;"/>
      </defs>
      <g>
       <use style="stroke:#000000;stroke-width:0.5;" x="17.7687155603" xlink:href="#m93b0483c22" y="210.24"/>
      </g>
     </g>
     <g id="text_1">
      <!-- -1.5 -->
      <defs>
       <path d="
M12.4062 8.29688
L28.5156 8.29688
L28.5156 63.9219
L10.9844 60.4062
L10.9844 69.3906
L28.4219 72.9062
L38.2812 72.9062
L38.2812 8.29688
L54.3906 8.29688
L54.3906 0
L12.4062 0
z
" id="BitstreamVeraSans-Roman-31"/>
       <path d="
M10.6875 12.4062
L21 12.4062
L21 0
L10.6875 0
z
" id="BitstreamVeraSans-Roman-2e"/>
       <path d="
M4.89062 31.3906
L31.2031 31.3906
L31.2031 23.3906
L4.89062 23.3906
z
" id="BitstreamVeraSans-Roman-2d"/>
       <path d="
M10.7969 72.9062
L49.5156 72.9062
L49.5156 64.5938
L19.8281 64.5938
L19.8281 46.7344
Q21.9688 47.4688 24.1094 47.8281
Q26.2656 48.1875 28.4219 48.1875
Q40.625 48.1875 47.75 41.5
Q54.8906 34.8125 54.8906 23.3906
Q54.8906 11.625 47.5625 5.09375
Q40.2344 -1.42188 26.9062 -1.42188
Q22.3125 -1.42188 17.5469 -0.640625
Q12.7969 0.140625 7.71875 1.70312
L7.71875 11.625
Q12.1094 9.23438 16.7969 8.0625
Q21.4844 6.89062 26.7031 6.89062
Q35.1562 6.89062 40.0781 11.3281
Q45.0156 15.7656 45.0156 23.3906
Q45.0156 31 40.0781 35.4375
Q35.1562 39.8906 26.7031 39.8906
Q22.75 39.8906 18.8125 39.0156
Q14.8906 38.1406 10.7969 36.2812
z
" id="BitstreamVeraSans-Roman-35"/>
      </defs>
      <g transform="translate(8.69449681028 221.8384375)scale(0.1 -0.1)">
       <use xlink:href="#BitstreamVeraSans-Roman-2d"/>
       <use x="36.083984375" xlink:href="#BitstreamVeraSans-Roman-31"/>
       <use x="99.70703125" xlink:href="#BitstreamVeraSans-Roman-2e"/>
       <use x="131.494140625" xlink:href="#BitstreamVeraSans-Roman-35"/>
      </g>
     </g>
    </g>
    <g id="xtick_2">
     <g id="line2d_4">
      <g>
       <use style="stroke:#000000;stroke-width:0.5;" x="105.841345229" xlink:href="#m93b0483c22" y="210.24"/>
      </g>
     </g>
     <g id="text_2">
      <!-- -1 -->
      <g transform="translate(101.562438979 221.8384375)scale(0.1 -0.1)">
       <use xlink:href="#BitstreamVeraSans-Roman-2d"/>
       <use x="36.083984375" xlink:href="#BitstreamVeraSans-Roman-31"/>
      </g>
     </g>
    </g>
    <g id="xtick_3">
     <g id="line2d_5">
      <g>
       <use style="stroke:#000000;stroke-width:0.5;" x="193.913974898" xlink:href="#m93b0483c22" y="210.24"/>
      </g>
     </g>
     <g id="text_3">
      <!-- -0.5 -->
      <defs>
       <path d="
M31.7812 66.4062
Q24.1719 66.4062 20.3281 58.9062
Q16.5 51.4219 16.5 36.375
Q16.5 21.3906 20.3281 13.8906
Q24.1719 6.39062 31.7812 6.39062
Q39.4531 6.39062 43.2812 13.8906
Q47.125 21.3906 47.125 36.375
Q47.125 51.4219 43.2812 58.9062
Q39.4531 66.4062 31.7812 66.4062
M31.7812 74.2188
Q44.0469 74.2188 50.5156 64.5156
Q56.9844 54.8281 56.9844 36.375
Q56.9844 17.9688 50.5156 8.26562
Q44.0469 -1.42188 31.7812 -1.42188
Q19.5312 -1.42188 13.0625 8.26562
Q6.59375 17.9688 6.59375 36.375
Q6.59375 54.8281 13.0625 64.5156
Q19.5312 74.2188 31.7812 74.2188" id="BitstreamVeraSans-Roman-30"/>
      </defs>
      <g transform="translate(184.839756148 221.8384375)scale(0.1 -0.1)">
       <use xlink:href="#BitstreamVeraSans-Roman-2d"/>
       <use x="36.083984375" xlink:href="#BitstreamVeraSans-Roman-30"/>
       <use x="99.70703125" xlink:href="#BitstreamVeraSans-Roman-2e"/>
       <use x="131.494140625" xlink:href="#BitstreamVeraSans-Roman-35"/>
      </g>
     </g>
    </g>
    <g id="xtick_4">
     <g id="line2d_6">
      <g>
       <use style="stroke:#000000;stroke-width:0.5;" x="281.986604567" xlink:href="#m93b0483c22" y="210.24"/>
      </g>
     </g>
    </g>
    <g id="xtick_5">
     <g id="line2d_7">
      <g>
       <use style="stroke:#000000;stroke-width:0.5;" x="370.059234236" xlink:href="#m93b0483c22" y="210.24"/>
      </g>
     </g>
     <g id="text_4">
      <!-- 0.5 -->
      <g transform="translate(362.874077986 221.8384375)scale(0.1 -0.1)">
       <use xlink:href="#BitstreamVeraSans-Roman-30"/>
       <use x="63.623046875" xlink:href="#BitstreamVeraSans-Roman-2e"/>
       <use x="95.41015625" xlink:href="#BitstreamVeraSans-Roman-35"/>
      </g>
     </g>
    </g>
    <g id="xtick_6">
     <g id="line2d_8">
      <g>
       <use style="stroke:#000000;stroke-width:0.5;" x="458.131863905" xlink:href="#m93b0483c22" y="210.24"/>
      </g>
     </g>
     <g id="text_5">
      <!-- 1 -->
      <g transform="translate(455.961551405 221.8384375)scale(0.1 -0.1)">
       <use xlink:href="#BitstreamVeraSans-Roman-31"/>
      </g>
     </g>
    </g>
    <g id="xtick_7">
     <g id="line2d_9">
      <g>
       <use style="stroke:#000000;stroke-width:0.5;" x="546.204493574" xlink:href="#m93b0483c22" y="210.24"/>
      </g>
     </g>
     <g id="text_6">
      <!-- 1.5 -->
      <g transform="translate(539.238868574 221.8384375)scale(0.1 -0.1)">
       <use xlink:href="#BitstreamVeraSans-Roman-31"/>
       <use x="63.623046875" xlink:href="#BitstreamVeraSans-Roman-2e"/>
       <use x="95.41015625" xlink:href="#BitstreamVeraSans-Roman-35"/>
      </g>
     </g>
    </g>
    <g id="xtick_8">
     <g id="line2d_10">
      <defs>
       <path d="
M0 0
L0 -2" id="m177f7580d0" style="stroke:#000000;stroke-width:0.5;"/>
      </defs>
      <g>
       <use style="stroke:#000000;stroke-width:0.5;" x="35.3832414941" xlink:href="#m177f7580d0" y="210.24"/>
      </g>
     </g>
    </g>
    <g id="xtick_9">
     <g id="line2d_11">
      <g>
       <use style="stroke:#000000;stroke-width:0.5;" x="52.9977674279" xlink:href="#m177f7580d0" y="210.24"/>
      </g>
     </g>
    </g>
    <g id="xtick_10">
     <g id="line2d_12">
      <g>
       <use style="stroke:#000000;stroke-width:0.5;" x="70.6122933617" xlink:href="#m177f7580d0" y="210.24"/>
      </g>
     </g>
    </g>
    <g id="xtick_11">
     <g id="line2d_13">
      <g>
       <use style="stroke:#000000;stroke-width:0.5;" x="88.2268192955" xlink:href="#m177f7580d0" y="210.24"/>
      </g>
     </g>
    </g>
    <g id="xtick_12">
     <g id="line2d_14">
      <g>
       <use style="stroke:#000000;stroke-width:0.5;" x="123.455871163" xlink:href="#m177f7580d0" y="210.24"/>
      </g>
     </g>
    </g>
    <g id="xtick_13">
     <g id="line2d_15">
      <g>
       <use style="stroke:#000000;stroke-width:0.5;" x="141.070397097" xlink:href="#m177f7580d0" y="210.24"/>
      </g>
     </g>
    </g>
    <g id="xtick_14">
     <g id="line2d_16">
      <g>
       <use style="stroke:#000000;stroke-width:0.5;" x="158.684923031" xlink:href="#m177f7580d0" y="210.24"/>
      </g>
     </g>
    </g>
    <g id="xtick_15">
     <g id="line2d_17">
      <g>
       <use style="stroke:#000000;stroke-width:0.5;" x="176.299448964" xlink:href="#m177f7580d0" y="210.24"/>
      </g>
     </g>
    </g>
    <g id="xtick_16">
     <g id="line2d_18">
      <g>
       <use style="stroke:#000000;stroke-width:0.5;" x="193.913974898" xlink:href="#m177f7580d0" y="210.24"/>
      </g>
     </g>
    </g>
    <g id="xtick_17">
     <g id="line2d_19">
      <g>
       <use style="stroke:#000000;stroke-width:0.5;" x="211.528500832" xlink:href="#m177f7580d0" y="210.24"/>
      </g>
     </g>
    </g>
    <g id="xtick_18">
     <g id="line2d_20">
      <g>
       <use style="stroke:#000000;stroke-width:0.5;" x="229.143026766" xlink:href="#m177f7580d0" y="210.24"/>
      </g>
     </g>
    </g>
    <g id="xtick_19">
     <g id="line2d_21">
      <g>
       <use style="stroke:#000000;stroke-width:0.5;" x="246.7575527" xlink:href="#m177f7580d0" y="210.24"/>
      </g>
     </g>
    </g>
    <g id="xtick_20">
     <g id="line2d_22">
      <g>
       <use style="stroke:#000000;stroke-width:0.5;" x="264.372078634" xlink:href="#m177f7580d0" y="210.24"/>
      </g>
     </g>
    </g>
    <g id="xtick_21">
     <g id="line2d_23">
      <g>
       <use style="stroke:#000000;stroke-width:0.5;" x="281.986604567" xlink:href="#m177f7580d0" y="210.24"/>
      </g>
     </g>
    </g>
    <g id="xtick_22">
     <g id="line2d_24">
      <g>
       <use style="stroke:#000000;stroke-width:0.5;" x="299.601130501" xlink:href="#m177f7580d0" y="210.24"/>
      </g>
     </g>
    </g>
    <g id="xtick_23">
     <g id="line2d_25">
      <g>
       <use style="stroke:#000000;stroke-width:0.5;" x="317.215656435" xlink:href="#m177f7580d0" y="210.24"/>
      </g>
     </g>
    </g>
    <g id="xtick_24">
     <g id="line2d_26">
      <g>
       <use style="stroke:#000000;stroke-width:0.5;" x="334.830182369" xlink:href="#m177f7580d0" y="210.24"/>
      </g>
     </g>
    </g>
    <g id="xtick_25">
     <g id="line2d_27">
      <g>
       <use style="stroke:#000000;stroke-width:0.5;" x="352.444708303" xlink:href="#m177f7580d0" y="210.24"/>
      </g>
     </g>
    </g>
    <g id="xtick_26">
     <g id="line2d_28">
      <g>
       <use style="stroke:#000000;stroke-width:0.5;" x="370.059234236" xlink:href="#m177f7580d0" y="210.24"/>
      </g>
     </g>
    </g>
    <g id="xtick_27">
     <g id="line2d_29">
      <g>
       <use style="stroke:#000000;stroke-width:0.5;" x="387.67376017" xlink:href="#m177f7580d0" y="210.24"/>
      </g>
     </g>
    </g>
    <g id="xtick_28">
     <g id="line2d_30">
      <g>
       <use style="stroke:#000000;stroke-width:0.5;" x="405.288286104" xlink:href="#m177f7580d0" y="210.24"/>
      </g>
     </g>
    </g>
    <g id="xtick_29">
     <g id="line2d_31">
      <g>
       <use style="stroke:#000000;stroke-width:0.5;" x="422.902812038" xlink:href="#m177f7580d0" y="210.24"/>
      </g>
     </g>
    </g>
    <g id="xtick_30">
     <g id="line2d_32">
      <g>
       <use style="stroke:#000000;stroke-width:0.5;" x="440.517337972" xlink:href="#m177f7580d0" y="210.24"/>
      </g>
     </g>
    </g>
    <g id="xtick_31">
     <g id="line2d_33">
      <g>
       <use style="stroke:#000000;stroke-width:0.5;" x="458.131863905" xlink:href="#m177f7580d0" y="210.24"/>
      </g>
     </g>
    </g>
    <g id="xtick_32">
     <g id="line2d_34">
      <g>
       <use style="stroke:#000000;stroke-width:0.5;" x="475.746389839" xlink:href="#m177f7580d0" y="210.24"/>
      </g>
     </g>
    </g>
    <g id="xtick_33">
     <g id="line2d_35">
      <g>
       <use style="stroke:#000000;stroke-width:0.5;" x="493.360915773" xlink:href="#m177f7580d0" y="210.24"/>
      </g>
     </g>
    </g>
    <g id="xtick_34">
     <g id="line2d_36">
      <g>
       <use style="stroke:#000000;stroke-width:0.5;" x="510.975441707" xlink:href="#m177f7580d0" y="210.24"/>
      </g>
     </g>
    </g>
    <g id="xtick_35">
     <g id="line2d_37">
      <g>
       <use style="stroke:#000000;stroke-width:0.5;" x="528.589967641" xlink:href="#m177f7580d0" y="210.24"/>
      </g>
     </g>
    </g>
   </g>
   <g id="matplotlib.axis_2">
    <g id="ytick_1">
     <g id="line2d_38">
      <defs>
       <path d="
M0 0
L4 0" id="m728421d6d4" style="stroke:#000000;stroke-width:0.5;"/>
      </defs>
      <g>
       <use style="stroke:#000000;stroke-width:0.5;" x="281.986604567" xlink:href="#m728421d6d4" y="364.496410256"/>
      </g>
     </g>
     <g id="text_7">
      <!-- -4 -->
      <defs>
       <path d="
M37.7969 64.3125
L12.8906 25.3906
L37.7969 25.3906
z

M35.2031 72.9062
L47.6094 72.9062
L47.6094 25.3906
L58.0156 25.3906
L58.0156 17.1875
L47.6094 17.1875
L47.6094 0
L37.7969 0
L37.7969 17.1875
L4.89062 17.1875
L4.89062 26.7031
z
" id="BitstreamVeraSans-Roman-34"/>
      </defs>
      <g transform="translate(269.066292067 367.255785256)scale(0.1 -0.1)">
       <use xlink:href="#BitstreamVeraSans-Roman-2d"/>
       <use x="36.083984375" xlink:href="#BitstreamVeraSans-Roman-34"/>
      </g>
     </g>
    </g>
    <g id="ytick_2">
     <g id="line2d_39">
      <g>
       <use style="stroke:#000000;stroke-width:0.5;" x="281.986604567" xlink:href="#m728421d6d4" y="287.368205128"/>
      </g>
     </g>
     <g id="text_8">
      <!-- -2 -->
      <defs>
       <path d="
M19.1875 8.29688
L53.6094 8.29688
L53.6094 0
L7.32812 0
L7.32812 8.29688
Q12.9375 14.1094 22.625 23.8906
Q32.3281 33.6875 34.8125 36.5312
Q39.5469 41.8438 41.4219 45.5312
Q43.3125 49.2188 43.3125 52.7812
Q43.3125 58.5938 39.2344 62.25
Q35.1562 65.9219 28.6094 65.9219
Q23.9688 65.9219 18.8125 64.3125
Q13.6719 62.7031 7.8125 59.4219
L7.8125 69.3906
Q13.7656 71.7812 18.9375 73
Q24.125 74.2188 28.4219 74.2188
Q39.75 74.2188 46.4844 68.5469
Q53.2188 62.8906 53.2188 53.4219
Q53.2188 48.9219 51.5312 44.8906
Q49.8594 40.875 45.4062 35.4062
Q44.1875 33.9844 37.6406 27.2188
Q31.1094 20.4531 19.1875 8.29688" id="BitstreamVeraSans-Roman-32"/>
      </defs>
      <g transform="translate(269.506917067 290.127580128)scale(0.1 -0.1)">
       <use xlink:href="#BitstreamVeraSans-Roman-2d"/>
       <use x="36.083984375" xlink:href="#BitstreamVeraSans-Roman-32"/>
      </g>
     </g>
    </g>
    <g id="ytick_3">
     <g id="line2d_40">
      <g>
       <use style="stroke:#000000;stroke-width:0.5;" x="281.986604567" xlink:href="#m728421d6d4" y="210.24"/>
      </g>
     </g>
    </g>
    <g id="ytick_4">
     <g id="line2d_41">
      <g>
       <use style="stroke:#000000;stroke-width:0.5;" x="281.986604567" xlink:href="#m728421d6d4" y="133.111794872"/>
      </g>
     </g>
     <g id="text_9">
      <!-- 2 -->
      <g transform="translate(273.358479567 135.871169872)scale(0.1 -0.1)">
       <use xlink:href="#BitstreamVeraSans-Roman-32"/>
      </g>
     </g>
    </g>
    <g id="ytick_5">
     <g id="line2d_42">
      <g>
       <use style="stroke:#000000;stroke-width:0.5;" x="281.986604567" xlink:href="#m728421d6d4" y="55.9835897436"/>
      </g>
     </g>
     <g id="text_10">
      <!-- 4 -->
      <g transform="translate(272.674104567 58.7429647436)scale(0.1 -0.1)">
       <use xlink:href="#BitstreamVeraSans-Roman-34"/>
      </g>
     </g>
    </g>
    <g id="ytick_6">
     <g id="line2d_43">
      <defs>
       <path d="
M0 0
L2 0" id="mf0c55a9a47" style="stroke:#000000;stroke-width:0.5;"/>
      </defs>
      <g>
       <use style="stroke:#000000;stroke-width:0.5;" x="281.986604567" xlink:href="#mf0c55a9a47" y="403.060512821"/>
      </g>
     </g>
    </g>
    <g id="ytick_7">
     <g id="line2d_44">
      <g>
       <use style="stroke:#000000;stroke-width:0.5;" x="281.986604567" xlink:href="#mf0c55a9a47" y="383.778461538"/>
      </g>
     </g>
    </g>
    <g id="ytick_8">
     <g id="line2d_45">
      <g>
       <use style="stroke:#000000;stroke-width:0.5;" x="281.986604567" xlink:href="#mf0c55a9a47" y="345.214358974"/>
      </g>
     </g>
    </g>
    <g id="ytick_9">
     <g id="line2d_46">
      <g>
       <use style="stroke:#000000;stroke-width:0.5;" x="281.986604567" xlink:href="#mf0c55a9a47" y="325.932307692"/>
      </g>
     </g>
    </g>
    <g id="ytick_10">
     <g id="line2d_47">
      <g>
       <use style="stroke:#000000;stroke-width:0.5;" x="281.986604567" xlink:href="#mf0c55a9a47" y="306.65025641"/>
      </g>
     </g>
    </g>
    <g id="ytick_11">
     <g id="line2d_48">
      <g>
       <use style="stroke:#000000;stroke-width:0.5;" x="281.986604567" xlink:href="#mf0c55a9a47" y="268.086153846"/>
      </g>
     </g>
    </g>
    <g id="ytick_12">
     <g id="line2d_49">
      <g>
       <use style="stroke:#000000;stroke-width:0.5;" x="281.986604567" xlink:href="#mf0c55a9a47" y="248.804102564"/>
      </g>
     </g>
    </g>
    <g id="ytick_13">
     <g id="line2d_50">
      <g>
       <use style="stroke:#000000;stroke-width:0.5;" x="281.986604567" xlink:href="#mf0c55a9a47" y="229.522051282"/>
      </g>
     </g>
    </g>
    <g id="ytick_14">
     <g id="line2d_51">
      <g>
       <use style="stroke:#000000;stroke-width:0.5;" x="281.986604567" xlink:href="#mf0c55a9a47" y="190.957948718"/>
      </g>
     </g>
    </g>
    <g id="ytick_15">
     <g id="line2d_52">
      <g>
       <use style="stroke:#000000;stroke-width:0.5;" x="281.986604567" xlink:href="#mf0c55a9a47" y="171.675897436"/>
      </g>
     </g>
    </g>
    <g id="ytick_16">
     <g id="line2d_53">
      <g>
       <use style="stroke:#000000;stroke-width:0.5;" x="281.986604567" xlink:href="#mf0c55a9a47" y="152.393846154"/>
      </g>
     </g>
    </g>
    <g id="ytick_17">
     <g id="line2d_54">
      <g>
       <use style="stroke:#000000;stroke-width:0.5;" x="281.986604567" xlink:href="#mf0c55a9a47" y="113.82974359"/>
      </g>
     </g>
    </g>
    <g id="ytick_18">
     <g id="line2d_55">
      <g>
       <use style="stroke:#000000;stroke-width:0.5;" x="281.986604567" xlink:href="#mf0c55a9a47" y="94.5476923077"/>
      </g>
     </g>
    </g>
    <g id="ytick_19">
     <g id="line2d_56">
      <g>
       <use style="stroke:#000000;stroke-width:0.5;" x="281.986604567" xlink:href="#mf0c55a9a47" y="75.2656410256"/>
      </g>
     </g>
    </g>
    <g id="ytick_20">
     <g id="line2d_57">
      <g>
       <use style="stroke:#000000;stroke-width:0.5;" x="281.986604567" xlink:href="#mf0c55a9a47" y="36.7015384615"/>
      </g>
     </g>
    </g>
   </g>
   <g id="patch_3">
    <path d="
M7.2 210.24
L556.773 210.24" style="fill:none;stroke:#000000;stroke-width:0.8;"/>
   </g>
   <g id="patch_4">
    <path d="
M281.987 413.28
L281.987 7.2" style="fill:none;stroke:#000000;stroke-width:0.8;"/>
   </g>
  </g>
 </g>
 <defs>
  <clipPath id="p2f8ae93778">
   <rect height="406.08" width="549.573209135" x="7.2" y="7.2"/>
  </clipPath>
 </defs>
</svg>
