<svg xmlns="http://www.w3.org/2000/svg" xmlns:xlink="http://www.w3.org/1999/xlink" id="diagram" width="828.0" height="792">
  <defs>
    <clipPath id="clipPath-0">
      <rect x="90.0" y="72.0" width="648.0" height="648.0"/>
    </clipPath>
    <clipPath id="clipPath-1">
      <rect x="90.0" y="72.0" width="648.0" height="648.0"/>
    </clipPath>
    <path id="x-outline" d="M 182.6 396.0 L 185.4 389.5 L 188.2 383.1 L 190.9 376.8 L 193.7 370.6 L 196.5 364.5 L 199.3 358.6 L 202.1 352.8 L 204.9 347.3 L 207.7 341.9 L 210.5 336.7 L 213.3 331.7 L 216.1 326.9 L 218.9 322.4 L 221.6 318.1 L 224.4 314.1 L 227.2 310.4 L 230.0 306.9 L 232.8 303.7 L 235.6 300.8 L 238.4 298.2 L 241.2 295.9 L 244.0 294.0 L 246.8 292.3 L 249.6 290.9 L 252.3 289.9 L 255.1 289.1 L 257.9 288.7 L 260.7 288.6 L 263.5 288.8 L 266.3 289.3 L 269.1 290.1 L 271.9 291.1 L 274.7 292.5 L 277.5 294.1 L 280.3 296.1 L 283.1 298.3 L 285.8 300.7 L 288.6 303.4 L 291.4 306.3 L 294.2 309.5 L 297.0 312.9 L 299.8 316.5 L 302.6 320.2 L 305.4 324.2 L 308.2 328.4 L 311.0 332.6 L 313.8 337.1 L 316.5 341.6 L 319.3 346.3 L 322.1 351.1 L 324.9 355.9 L 327.7 360.9 L 330.5 365.8 L 333.3 370.9 L 336.1 375.9 L 338.9 381.0 L 341.7 386.0 L 344.5 391.1 L 347.2 396.1 L 350.0 401.0 L 352.8 405.9 L 355.6 410.8 L 358.4 415.5 L 361.2 420.1 L 364.0 424.7 L 366.8 429.1 L 369.6 433.4 L 372.4 437.5 L 375.2 441.5 L 377.9 445.3 L 380.7 449.0 L 383.5 452.4 L 386.3 455.7 L 389.1 458.7 L 391.9 461.6 L 394.7 464.2 L 397.5 466.7 L 400.3 468.9 L 403.1 470.9 L 405.9 472.6 L 408.7 474.1 L 411.4 475.4 L 414.2 476.4 L 417.0 477.2 L 419.8 477.8 L 422.6 478.1 L 425.4 478.2 L 428.2 478.1 L 431.0 477.7 L 433.8 477.1 L 436.6 476.3 L 439.4 475.2 L 442.1 474.0 L 444.9 472.5 L 447.7 470.8 L 450.5 468.9 L 453.3 466.9 L 456.1 464.6 L 458.9 462.2 L 461.7 459.6 L 464.5 456.8 L 467.3 453.9 L 470.1 450.9 L 472.8 447.7 L 475.6 444.4 L 478.4 441.0 L 481.2 437.6 L 484.0 434.0 L 486.8 430.3 L 489.6 426.6 L 492.4 422.8 L 495.2 419.0 L 498.0 415.2 L 500.8 411.3 L 503.5 407.5 L 506.3 403.6 L 509.1 399.7 L 511.9 395.9 L 514.7 392.1 L 517.5 388.3 L 520.3 384.6 L 523.1 381.0 L 525.9 377.5 L 528.7 374.0 L 531.5 370.6 L 534.2 367.3 L 537.0 364.2 L 539.8 361.1 L 542.6 358.2 L 545.4 355.4 L 548.2 352.8 L 551.0 350.3 L 553.8 347.9 L 556.6 345.8 L 559.4 343.7 L 562.2 341.9 L 565.0 340.2 L 567.7 338.7 L 570.5 337.4 L 573.3 336.2 L 576.1 335.2 L 578.9 334.4 L 581.7 333.8 L 584.5 333.4 L 587.3 333.1 L 590.1 333.0 L 592.9 333.2 L 595.7 333.5 L 598.4 333.9 L 601.2 334.6 L 604.0 335.4 L 606.8 336.4 L 609.6 337.5 L 612.4 338.8 L 615.2 340.2 L 618.0 341.8 L 620.8 343.5 L 623.6 345.4 L 626.4 347.4 L 629.1 349.5 L 631.9 351.7 L 634.7 354.0 L 637.5 356.4 L 640.3 359.0 L 643.1 361.6 L 645.9 364.2 L 648.7 367.0 L 651.5 369.8 L 654.3 372.6 L 657.1 375.5 L 659.8 378.4 L 662.6 381.4 L 665.4 384.3 L 668.2 387.3 L 671.0 390.2 L 673.8 393.2 L 676.6 396.1 L 679.4 399.0 L 682.2 401.9 L 685.0 404.7 L 687.8 407.5 L 690.6 410.2 L 693.3 412.9 L 696.1 415.5 L 698.9 418.0 L 701.7 420.4 L 704.5 422.7 L 707.3 425.0 L 710.1 427.1 L 712.9 429.1 L 715.7 431.0 L 718.5 432.8 L 721.3 434.5 L 724.0 436.0 L 726.8 437.4 L 729.6 438.7 L 732.4 439.9 L 735.2 440.9 L 738.0 441.8" type="parametric curve" clip-path="url(#clipPath-1)"/>
    <path id="xprime-outline" d="M 182.6 180.0 L 185.4 182.3 L 188.2 185.1 L 190.9 188.5 L 193.7 192.5 L 196.5 197.0 L 199.3 202.0 L 202.1 207.6 L 204.9 213.6 L 207.7 220.1 L 210.5 227.0 L 213.3 234.4 L 216.1 242.1 L 218.9 250.3 L 221.6 258.7 L 224.4 267.5 L 227.2 276.5 L 230.0 285.9 L 232.8 295.4 L 235.6 305.2 L 238.4 315.1 L 241.2 325.1 L 244.0 335.3 L 246.8 345.5 L 249.6 355.8 L 252.3 366.2 L 255.1 376.5 L 257.9 386.8 L 260.7 397.0 L 263.5 407.1 L 266.3 417.1 L 269.1 426.9 L 271.9 436.6 L 274.7 446.1 L 277.5 455.3 L 280.3 464.3 L 283.1 473.0 L 285.8 481.4 L 288.6 489.5 L 291.4 497.3 L 294.2 504.7 L 297.0 511.7 L 299.8 518.3 L 302.6 524.5 L 305.4 530.3 L 308.2 535.7 L 311.0 540.6 L 313.8 545.0 L 316.5 549.0 L 319.3 552.6 L 322.1 555.6 L 324.9 558.2 L 327.7 560.3 L 330.5 561.9 L 333.3 563.0 L 336.1 563.7 L 338.9 563.8 L 341.7 563.5 L 344.5 562.7 L 347.2 561.4 L 350.0 559.7 L 352.8 557.5 L 355.6 554.8 L 358.4 551.8 L 361.2 548.3 L 364.0 544.4 L 366.8 540.2 L 369.6 535.5 L 372.4 530.6 L 375.2 525.3 L 377.9 519.6 L 380.7 513.7 L 383.5 507.5 L 386.3 501.0 L 389.1 494.3 L 391.9 487.3 L 394.7 480.2 L 397.5 472.9 L 400.3 465.4 L 403.1 457.8 L 405.9 450.1 L 408.7 442.4 L 411.4 434.5 L 414.2 426.6 L 417.0 418.7 L 419.8 410.8 L 422.6 402.9 L 425.4 395.1 L 428.2 387.4 L 431.0 379.7 L 433.8 372.2 L 436.6 364.8 L 439.4 357.6 L 442.1 350.5 L 444.9 343.6 L 447.7 337.0 L 450.5 330.5 L 453.3 324.3 L 456.1 318.4 L 458.9 312.8 L 461.7 307.4 L 464.5 302.3 L 467.3 297.6 L 470.1 293.1 L 472.8 289.0 L 475.6 285.3 L 478.4 281.8 L 481.2 278.8 L 484.0 276.1 L 486.8 273.8 L 489.6 271.8 L 492.4 270.2 L 495.2 269.0 L 498.0 268.1 L 500.8 267.7 L 503.5 267.6 L 506.3 267.9 L 509.1 268.5 L 511.9 269.5 L 514.7 270.8 L 517.5 272.5 L 520.3 274.5 L 523.1 276.8 L 525.9 279.4 L 528.7 282.4 L 531.5 285.7 L 534.2 289.2 L 537.0 293.0 L 539.8 297.1 L 542.6 301.4 L 545.4 306.0 L 548.2 310.7 L 551.0 315.7 L 553.8 320.8 L 556.6 326.2 L 559.4 331.6 L 562.2 337.2 L 565.0 343.0 L 567.7 348.8 L 570.5 354.7 L 573.3 360.6 L 576.1 366.6 L 578.9 372.7 L 581.7 378.7 L 584.5 384.8 L 587.3 390.8 L 590.1 396.8 L 592.9 402.7 L 595.7 408.5 L 598.4 414.3 L 601.2 420.0 L 604.0 425.5 L 606.8 430.9 L 609.6 436.2 L 612.4 441.3 L 615.2 446.2 L 618.0 450.9 L 620.8 455.5 L 623.6 459.8 L 626.4 463.9 L 629.1 467.8 L 631.9 471.4 L 634.7 474.8 L 637.5 477.9 L 640.3 480.8 L 643.1 483.4 L 645.9 485.7 L 648.7 487.8 L 651.5 489.6 L 654.3 491.1 L 657.1 492.3 L 659.8 493.2 L 662.6 493.9 L 665.4 494.2 L 668.2 494.3 L 671.0 494.1 L 673.8 493.6 L 676.6 492.9 L 679.4 491.9 L 682.2 490.6 L 685.0 489.0 L 687.8 487.2 L 690.6 485.2 L 693.3 482.9 L 696.1 480.4 L 698.9 477.7 L 701.7 474.8 L 704.5 471.6 L 707.3 468.3 L 710.1 464.8 L 712.9 461.2 L 715.7 457.4 L 718.5 453.5 L 721.3 449.4 L 724.0 445.2 L 726.8 440.9 L 729.6 436.5 L 732.4 432.1 L 735.2 427.6 L 738.0 423.0" type="parametric curve" clip-path="url(#clipPath-1)"/>
  </defs>
  <g id="grid-axes">
    <g id="grid" stroke="#ccc" stroke-width="1">
      <line id="line-0" x1="90.0" y1="720.0" x2="90.0" y2="72.0" type="vertical grid"/>
      <line id="line-1" x1="182.6" y1="720.0" x2="182.6" y2="72.0" type="vertical grid"/>
      <line id="line-2" x1="275.1" y1="720.0" x2="275.1" y2="72.0" type="vertical grid"/>
      <line id="line-3" x1="367.7" y1="720.0" x2="367.7" y2="72.0" type="vertical grid"/>
      <line id="line-4" x1="460.3" y1="720.0" x2="460.3" y2="72.0" type="vertical grid"/>
      <line id="line-5" x1="552.9" y1="720.0" x2="552.9" y2="72.0" type="vertical grid"/>
      <line id="line-6" x1="645.4" y1="720.0" x2="645.4" y2="72.0" type="vertical grid"/>
      <line id="line-7" x1="738.0" y1="720.0" x2="738.0" y2="72.0" type="vertical grid"/>
      <line id="line-8" x1="90.0" y1="720.0" x2="738.0" y2="720.0" type="horizontal grid"/>
      <line id="line-9" x1="90.0" y1="612.0" x2="738.0" y2="612.0" type="horizontal grid"/>
      <line id="line-10" x1="90.0" y1="504.0" x2="738.0" y2="504.0" type="horizontal grid"/>
      <line id="line-11" x1="90.0" y1="396.0" x2="738.0" y2="396.0" type="horizontal grid"/>
      <line id="line-12" x1="90.0" y1="288.0" x2="738.0" y2="288.0" type="horizontal grid"/>
      <line id="line-13" x1="90.0" y1="180.0" x2="738.0" y2="180.0" type="horizontal grid"/>
      <line id="line-14" x1="90.0" y1="72.0" x2="738.0" y2="72.0" type="horizontal grid"/>
    </g>
    <g id="axes" stroke="black" stroke-width="2">
      <line id="line-15" x1="90.0" y1="396.0" x2="738.0" y2="396.0" type="horizontal axis" stroke-width="2"/>
      <line id="line-16" x1="182.6" y1="720.0" x2="182.6" y2="72.0" type="vertical axis" stroke-width="2"/>
      <g type="horizontal ticks" id="g-0">
        <line id="line-17" x1="367.7" y1="414.0" x2="367.7" y2="396.0" type="tick on horizontal axis"/>
        <line id="line-18" x1="552.9" y1="414.0" x2="552.9" y2="396.0" type="tick on horizontal axis"/>
      </g>
      <g type="vertical ticks" id="g-1">
        <line id="line-19" x1="164.6" y1="612.0" x2="182.6" y2="612.0" type="tick on vertical axis"/>
        <line id="line-20" x1="164.6" y1="180.0" x2="182.6" y2="180.0" type="tick on vertical axis"/>
      </g>
    </g>
  </g>
  <use fill="none" stroke-width="20" stroke="white" xlink:href="#x-outline"/>
  <use id="x" fill="none" stroke-width="2" stroke="black" stroke-dasharray="none" xlink:href="#x-outline"/>
  <use fill="none" stroke-width="20" stroke="white" xlink:href="#xprime-outline"/>
  <use id="xprime" fill="none" stroke-width="2" stroke="black" stroke-dasharray="9 9" xlink:href="#xprime-outline"/>
  <g transform="translate(514.8,82.8)">
    <rect x="0" y="0" width="214.2" height="72.0" stroke="black" fill="white"/>
    <g id="legend-label-0" transform="translate(79.2,10.8)">
      <g id="legend-label-0" transform="translate(0.0,18.0)">
        <text x="0.0" y="0.0" font-family="Braille29" font-size="29px">⠭⠷⠞⠾</text>
      </g>
    </g>
    <line stroke="black" x1="55.8" y1="19.8" x2="10.8" y2="19.8" stroke-width="2"/>
    <g id="legend-label-1" transform="translate(79.2,43.2)">
      <g id="legend-label-1" transform="translate(0.0,18.0)">
        <text x="0.0" y="0.0" font-family="Braille29" font-size="29px">⠭⠘⠄⠐⠷⠞⠾</text>
      </g>
    </g>
    <line stroke="black" stroke-dasharray="9 9" x1="55.8" y1="52.2" x2="10.8" y2="52.2" stroke-width="2"/>
  </g>
  <g id="background-group">
    <rect id="label-0-background" x="343.8" y="437.4" width="36.0" height="36.0" stroke="none" fill="white"/>
    <rect id="label-1-background" x="531.0" y="437.4" width="36.0" height="36.0" stroke="none" fill="white"/>
    <rect id="label-2-background" x="81.0" y="592.2" width="54.0" height="36.0" stroke="none" fill="white"/>
    <rect id="label-3-background" x="99.0" y="160.2" width="36.0" height="36.0" stroke="none" fill="white"/>
    <rect id="label-4-background" x="700.2" y="358.2" width="36.0" height="36.0" stroke="none" fill="white"/>
  </g>
  <g id="braille-group">
    <g id="label-0" transform="translate(352.8,464.4)">
      <text x="0.0" y="0.0" font-family="Braille29" font-size="29px">⠆</text>
    </g>
    <g id="label-1" transform="translate(540.0,464.4)">
      <text x="0.0" y="0.0" font-family="Braille29" font-size="29px">⠲</text>
    </g>
    <g id="label-2" transform="translate(90.0,619.2)">
      <text x="0.0" y="0.0" font-family="Braille29" font-size="29px">⠤⠆</text>
    </g>
    <g id="label-3" transform="translate(108.0,187.2)">
      <text x="0.0" y="0.0" font-family="Braille29" font-size="29px">⠆</text>
    </g>
    <g id="label-4" transform="translate(709.2,385.2)">
      <text x="0.0" y="0.0" font-family="Braille29" font-size="29px">⠞</text>
    </g>
  </g>
</svg>
