<?xml version="1.0" encoding="utf-8" standalone="no"?>
<!DOCTYPE svg PUBLIC "-//W3C//DTD SVG 1.1//EN"
  "http://www.w3.org/Graphics/SVG/1.1/DTD/svg11.dtd">
<!-- Created with matplotlib (http://matplotlib.org/) -->
<svg height="564pt" version="1.1" viewBox="0 0 445 564" width="445pt" xmlns="http://www.w3.org/2000/svg" xmlns:xlink="http://www.w3.org/1999/xlink">
 <defs>
  <style type="text/css">
*{stroke-linecap:butt;stroke-linejoin:round;}
  </style>
 </defs>
 <g id="figure_1">
  <g id="patch_1">
   <path d="
M-1.77636e-15 564.48
L445.632 564.48
L445.632 0
L-1.77636e-15 0
z
" style="fill:#ffffff;"/>
  </g>
  <g id="axes_1">
   <g id="patch_2">
    <path d="
M7.2 557.28
L438.432 557.28
L438.432 7.2
L7.2 7.2
z
" style="fill:#ffffff;"/>
   </g>
   <g id="patch_3">
    <path clip-path="url(#p3549e34a22)" d="
M238.16 301.589
Q269.819 255.444 232.466 216.828" style="fill:none;stroke:#00ff1e;stroke-linecap:round;stroke-width:2.0;"/>
    <path clip-path="url(#p3549e34a22)" d="
M235.825 227.492
L232.466 216.828
L243.013 220.539
L235.825 227.492
z
" style="fill:#00ff1e;stroke:#00ff1e;stroke-linecap:round;stroke-width:2.0;"/>
   </g>
   <g id="patch_4">
    <path clip-path="url(#p3549e34a22)" d="
M214.921 301.801
Q177.568 263.186 209.227 217.04" style="fill:none;stroke:#ff0000;stroke-linecap:round;stroke-width:2.0;"/>
    <path clip-path="url(#p3549e34a22)" d="
M211.562 291.137
L214.921 301.801
L204.374 298.09
L211.562 291.137
z
" style="fill:#ff0000;stroke:#ff0000;stroke-linecap:round;stroke-width:2.0;"/>
   </g>
   <g id="patch_5">
    <path clip-path="url(#p3549e34a22)" d="
M41.5438 340.697
Q94.8669 308.675 82.083 250.09" style="fill:none;stroke:#9500ff;stroke-linecap:round;stroke-width:2.0;"/>
    <path clip-path="url(#p3549e34a22)" d="
M79.3299 260.926
L82.083 250.09
L89.1 258.794
L79.3299 260.926
z
" style="fill:#9500ff;stroke:#9500ff;stroke-linecap:round;stroke-width:2.0;"/>
   </g>
   <g id="patch_6">
    <path clip-path="url(#p3549e34a22)" d="
M22.6586 330.565
Q9.87468 271.98 63.1978 239.958" style="fill:none;stroke:#ff005a;stroke-linecap:round;stroke-width:2.0;"/>
    <path clip-path="url(#p3549e34a22)" d="
M25.4117 319.729
L22.6586 330.565
L15.6416 321.861
L25.4117 319.729
z
" style="fill:#ff005a;stroke:#ff005a;stroke-linecap:round;stroke-width:2.0;"/>
   </g>
   <g id="patch_7">
    <path clip-path="url(#p3549e34a22)" d="
M232.011 296.669
Q243.235 236.775 188.682 204.919" style="fill:none;stroke:#ff0000;stroke-linecap:round;stroke-width:2.0;"/>
    <path clip-path="url(#p3549e34a22)" d="
M238.767 287.761
L232.011 296.669
L228.938 285.919
L238.767 287.761
z
" style="fill:#ff0000;stroke:#ff0000;stroke-linecap:round;stroke-width:2.0;"/>
   </g>
   <g id="patch_8">
    <path clip-path="url(#p3549e34a22)" d="
M211.65 305.97
Q159.029 275.241 170.665 213.15" style="fill:none;stroke:#ff0000;stroke-linecap:round;stroke-width:2.0;"/>
    <path clip-path="url(#p3549e34a22)" d="
M205.536 296.609
L211.65 305.97
L200.494 305.245
L205.536 296.609
z
" style="fill:#ff0000;stroke:#ff0000;stroke-linecap:round;stroke-width:2.0;"/>
   </g>
   <g id="patch_9">
    <path clip-path="url(#p3549e34a22)" d="
M245.547 314.102
Q297.709 309.023 298.649 258.859" style="fill:none;stroke:#96ff00;stroke-linecap:round;stroke-width:2.0;"/>
    <path clip-path="url(#p3549e34a22)" d="
M293.463 268.763
L298.649 258.859
L303.461 268.951
L293.463 268.763
z
" style="fill:#96ff00;stroke:#96ff00;stroke-linecap:round;stroke-width:2.0;"/>
   </g>
   <g id="patch_10">
    <path clip-path="url(#p3549e34a22)" d="
M228.754 298.575
Q229.736 246.175 279.673 241.313" style="fill:none;stroke:#96ff00;stroke-linecap:round;stroke-width:2.0;"/>
    <path clip-path="url(#p3549e34a22)" d="
M269.235 237.306
L279.673 241.313
L270.204 247.259
L269.235 237.306
z
" style="fill:#96ff00;stroke:#96ff00;stroke-linecap:round;stroke-width:2.0;"/>
   </g>
   <g id="patch_11">
    <path clip-path="url(#p3549e34a22)" d="
M238.599 301.9
Q281.438 243.467 250.74 180.314" style="fill:none;stroke:#ff5900;stroke-linecap:round;stroke-width:2.0;"/>
    <path clip-path="url(#p3549e34a22)" d="
M250.615 191.494
L250.74 180.314
L259.608 187.122
L250.615 191.494
z
" style="fill:#ff5900;stroke:#ff5900;stroke-linecap:round;stroke-width:2.0;"/>
   </g>
   <g id="patch_12">
    <path clip-path="url(#p3549e34a22)" d="
M219.936 298.292
Q189.238 235.139 232.077 176.706" style="fill:none;stroke:#ff0000;stroke-linecap:round;stroke-width:2.0;"/>
    <path clip-path="url(#p3549e34a22)" d="
M220.061 287.112
L219.936 298.292
L211.067 291.484
L220.061 287.112
z
" style="fill:#ff0000;stroke:#ff0000;stroke-linecap:round;stroke-width:2.0;"/>
   </g>
   <g id="patch_13">
    <path clip-path="url(#p3549e34a22)" d="
M236.215 193.931
Q296.854 162.559 353.641 204.355" style="fill:none;stroke:#00ff1e;stroke-linecap:round;stroke-width:2.0;"/>
    <path clip-path="url(#p3549e34a22)" d="
M247.394 193.777
L236.215 193.931
L242.799 184.895
L247.394 193.777
z
" style="fill:#00ff1e;stroke:#00ff1e;stroke-linecap:round;stroke-width:2.0;"/>
   </g>
   <g id="patch_14">
    <path clip-path="url(#p3549e34a22)" d="
M232.805 213.054
Q289.592 254.849 350.231 223.477" style="fill:none;stroke:#00ffd1;stroke-linecap:round;stroke-width:2.0;"/>
    <path clip-path="url(#p3549e34a22)" d="
M339.052 223.631
L350.231 223.477
L343.647 232.513
L339.052 223.631
z
" style="fill:#00ffd1;stroke:#00ffd1;stroke-linecap:round;stroke-width:2.0;"/>
   </g>
   <g id="patch_15">
    <path clip-path="url(#p3549e34a22)" d="
M149.613 513.411
Q141.238 479.505 132.327 443.427" style="fill:none;stroke:#00d1ff;stroke-linecap:round;stroke-width:2.0;"/>
    <path clip-path="url(#p3549e34a22)" d="
M152.069 502.504
L149.613 513.411
L142.361 504.902
L152.069 502.504
z
" style="fill:#00d1ff;stroke:#00d1ff;stroke-linecap:round;stroke-width:2.0;"/>
   </g>
   <g id="patch_16">
    <path clip-path="url(#p3549e34a22)" d="
M288.774 225.614
Q270.629 201.134 253.815 178.449" style="fill:none;stroke:#ff5900;stroke-linecap:round;stroke-width:2.0;"/>
    <path clip-path="url(#p3549e34a22)" d="
M255.753 189.46
L253.815 178.449
L263.787 183.506
L255.753 189.46
z
" style="fill:#ff5900;stroke:#ff5900;stroke-linecap:round;stroke-width:2.0;"/>
   </g>
   <g id="patch_17">
    <path clip-path="url(#p3549e34a22)" d="
M226.843 332.892
Q222.691 377.639 218.745 420.159" style="fill:none;stroke:#00ff78;stroke-linecap:round;stroke-width:2.0;"/>
    <path clip-path="url(#p3549e34a22)" d="
M224.648 410.664
L218.745 420.159
L214.691 409.74
L224.648 410.664
z
" style="fill:#00ff78;stroke:#00ff78;stroke-linecap:round;stroke-width:2.0;"/>
   </g>
   <g id="patch_18">
    <path clip-path="url(#p3549e34a22)" d="
M378.644 298.287
Q374.202 264.94 370.056 233.81" style="fill:none;stroke:#00ffd1;stroke-linecap:round;stroke-width:2.0;"/>
    <path clip-path="url(#p3549e34a22)" d="
M366.42 244.383
L370.056 233.81
L376.333 243.063
L366.42 244.383
z
" style="fill:#00ffd1;stroke:#00ffd1;stroke-linecap:round;stroke-width:2.0;"/>
   </g>
   <g id="patch_19">
    <path clip-path="url(#p3549e34a22)" d="
M202.094 206.238
Q148.448 216.982 96.9942 227.288" style="fill:none;stroke:#9500ff;stroke-linecap:round;stroke-width:2.0;"/>
    <path clip-path="url(#p3549e34a22)" d="
M107.781 230.227
L96.9942 227.288
L105.817 220.421
L107.781 230.227
z
" style="fill:#9500ff;stroke:#9500ff;stroke-linecap:round;stroke-width:2.0;"/>
   </g>
   <g id="patch_20">
    <path clip-path="url(#p3549e34a22)" d="
M342.024 120.059
Q374.768 82.6045 406.041 46.8335" style="fill:none;stroke:#f000ff;stroke-linecap:round;stroke-width:2.0;"/>
    <path clip-path="url(#p3549e34a22)" d="
M395.695 51.0712
L406.041 46.8335
L403.223 57.653
L395.695 51.0712
z
" style="fill:#f000ff;stroke:#f000ff;stroke-linecap:round;stroke-width:2.0;"/>
   </g>
   <g id="patch_21">
    <path clip-path="url(#p3549e34a22)" d="
M235.126 147.183
Q221.841 117.965 209.481 90.7833" style="fill:none;stroke:#3c00ff;stroke-linecap:round;stroke-width:2.0;"/>
    <path clip-path="url(#p3549e34a22)" d="
M209.069 101.956
L209.481 90.7833
L218.172 97.8168
L209.069 101.956
z
" style="fill:#3c00ff;stroke:#3c00ff;stroke-linecap:round;stroke-width:2.0;"/>
   </g>
   <g id="patch_22">
    <path clip-path="url(#p3549e34a22)" d="
M147.438 429.502
Q172.577 433.121 199.929 437.059" style="fill:none;stroke:#0078ff;stroke-linecap:round;stroke-width:2.0;"/>
    <path clip-path="url(#p3549e34a22)" d="
M156.623 435.876
L147.438 429.502
L158.048 425.978
L156.623 435.876
z
" style="fill:#0078ff;stroke:#0078ff;stroke-linecap:round;stroke-width:2.0;"/>
   </g>
   <g id="patch_23">
    <path clip-path="url(#p3549e34a22)" d="
M155.569 202.886
Q125.886 213.676 94.1019 225.229" style="fill:none;stroke:#ff00b4;stroke-linecap:round;stroke-width:2.0;"/>
    <path clip-path="url(#p3549e34a22)" d="
M144.463 201.603
L155.569 202.886
L147.879 211.002
L144.463 201.603
z
" style="fill:#ff00b4;stroke:#ff00b4;stroke-linecap:round;stroke-width:2.0;"/>
   </g>
   <g id="patch_24">
    <path clip-path="url(#p3549e34a22)" d="
M301.047 258.756
Q305.135 297.614 309.457 338.696" style="fill:none;stroke:#96ff00;stroke-linecap:round;stroke-width:2.0;"/>
    <path clip-path="url(#p3549e34a22)" d="
M297.12 269.224
L301.047 258.756
L307.066 268.178
L297.12 269.224
z
" style="fill:#96ff00;stroke:#96ff00;stroke-linecap:round;stroke-width:2.0;"/>
   </g>
   <g id="patch_25">
    <path clip-path="url(#p3549e34a22)" d="
M191.855 188.982
Q252.269 164.626 314.757 139.435" style="fill:none;stroke:#ff00b4;stroke-linecap:round;stroke-width:2.0;"/>
    <path clip-path="url(#p3549e34a22)" d="
M203 189.88
L191.855 188.982
L199.261 180.605
L203 189.88
z
" style="fill:#ff00b4;stroke:#ff00b4;stroke-linecap:round;stroke-width:2.0;"/>
   </g>
   <g id="patch_26">
    <path clip-path="url(#p3549e34a22)" d="
M216.356 183.603
Q210.197 137.977 203.738 90.1354" style="fill:none;stroke:#00ff1e;stroke-linecap:round;stroke-width:2.0;"/>
    <path clip-path="url(#p3549e34a22)" d="
M219.973 173.024
L216.356 183.603
L210.063 174.361
L219.973 173.024
z
" style="fill:#00ff1e;stroke:#00ff1e;stroke-linecap:round;stroke-width:2.0;"/>
   </g>
   <g id="patch_27">
    <path clip-path="url(#p3549e34a22)" d="
M229.811 428.093
Q264.103 397.653 296.723 368.698" style="fill:none;stroke:#001dff;stroke-linecap:round;stroke-width:2.0;"/>
    <path clip-path="url(#p3549e34a22)" d="
M285.925 371.597
L296.723 368.698
L292.564 379.076
L285.925 371.597
z
" style="fill:#001dff;stroke:#001dff;stroke-linecap:round;stroke-width:2.0;"/>
   </g>
   <g id="patch_28">
    <path clip-path="url(#p3549e34a22)" d="
M360.419 198.873
Q349.098 173.777 338.697 150.719" style="fill:none;stroke:#ffb300;stroke-linecap:round;stroke-width:2.0;"/>
    <path clip-path="url(#p3549e34a22)" d="
M338.251 161.89
L338.697 150.719
L347.366 157.778
L338.251 161.89
z
" style="fill:#ffb300;stroke:#ffb300;stroke-linecap:round;stroke-width:2.0;"/>
   </g>
   <g id="patch_29">
    <path clip-path="url(#p3549e34a22)" d="
M112.741 414.963
Q77.5025 388.142 40.485 359.966" style="fill:none;stroke:#0078ff;stroke-linecap:round;stroke-width:2.0;"/>
    <path clip-path="url(#p3549e34a22)" d="
M107.812 404.928
L112.741 414.963
L101.755 412.885
L107.812 404.928
z
" style="fill:#0078ff;stroke:#0078ff;stroke-linecap:round;stroke-width:2.0;"/>
   </g>
   <g id="patch_30">
    <path clip-path="url(#p3549e34a22)" d="
M163.9 518.027
Q185.611 485.893 206.071 455.611" style="fill:none;stroke:#00ff78;stroke-linecap:round;stroke-width:2.0;"/>
    <path clip-path="url(#p3549e34a22)" d="
M196.33 461.097
L206.071 455.611
L204.616 466.696
L196.33 461.097
z
" style="fill:#00ff78;stroke:#00ff78;stroke-linecap:round;stroke-width:2.0;"/>
   </g>
   <g id="patch_31">
    <path clip-path="url(#p3549e34a22)" d="
M215.406 330.189
Q178.317 371.251 139.73 413.971" style="fill:none;stroke:#ff0000;stroke-linecap:round;stroke-width:2.0;"/>
    <path clip-path="url(#p3549e34a22)" d="
M204.992 334.259
L215.406 330.189
L212.413 340.962
L204.992 334.259
z
" style="fill:#ff0000;stroke:#ff0000;stroke-linecap:round;stroke-width:2.0;"/>
   </g>
   <g id="patch_32">
    <path clip-path="url(#p3549e34a22)" d="
M239.144 331.981
Q271.583 381.073 305.255 432.03" style="fill:none;stroke:#ff0000;stroke-linecap:round;stroke-width:2.0;"/>
    <path clip-path="url(#p3549e34a22)" d="
M240.486 343.081
L239.144 331.981
L248.829 337.568
L240.486 343.081
z
" style="fill:#ff0000;stroke:#ff0000;stroke-linecap:round;stroke-width:2.0;"/>
   </g>
   <g id="patch_33">
    <path clip-path="url(#p3549e34a22)" d="
M241.624 301.5
Q263.722 277.599 287.339 252.056" style="fill:none;stroke:#ff0000;stroke-linecap:round;stroke-width:2.0;"/>
    <path clip-path="url(#p3549e34a22)" d="
M252.084 297.552
L241.624 301.5
L244.741 290.764
L252.084 297.552
z
" style="fill:#ff0000;stroke:#ff0000;stroke-linecap:round;stroke-width:2.0;"/>
   </g>
   <g id="patch_34">
    <path clip-path="url(#p3549e34a22)" d="
M211.564 319.118
Q161.786 329.001 114.201 338.448" style="fill:none;stroke:#f0ff00;stroke-linecap:round;stroke-width:2.0;"/>
    <path clip-path="url(#p3549e34a22)" d="
M124.983 341.405
L114.201 338.448
L123.036 331.597
L124.983 341.405
z
" style="fill:#f0ff00;stroke:#f0ff00;stroke-linecap:round;stroke-width:2.0;"/>
   </g>
   <g id="patch_35">
    <path clip-path="url(#p3549e34a22)" d="
M46.1235 347.481
Q60.9711 345.891 78.0421 344.064" style="fill:none;stroke:#ff005a;stroke-linecap:round;stroke-width:2.0;"/>
    <path clip-path="url(#p3549e34a22)" d="
M56.599 351.388
L46.1235 347.481
L55.5343 341.445
L56.599 351.388
z
" style="fill:#ff005a;stroke:#ff005a;stroke-linecap:round;stroke-width:2.0;"/>
   </g>
   <g id="patch_36">
    <path clip-path="url(#p3549e34a22)" d="
M245.628 315.72
Q304.673 315.551 361.482 315.388" style="fill:none;stroke:#3cff00;stroke-linecap:round;stroke-width:2.0;"/>
    <path clip-path="url(#p3549e34a22)" d="
M351.467 310.417
L361.482 315.388
L351.496 320.417
L351.467 310.417
z
" style="fill:#3cff00;stroke:#3cff00;stroke-linecap:round;stroke-width:2.0;"/>
   </g>
   <g id="patch_37">
    <path clip-path="url(#p3549e34a22)" d="
M303.922 222.949
Q314.86 186.217 325.16 151.629" style="fill:none;stroke:#ffb300;stroke-linecap:round;stroke-width:2.0;"/>
    <path clip-path="url(#p3549e34a22)" d="
M317.514 159.787
L325.16 151.629
L327.098 162.641
L317.514 159.787
z
" style="fill:#ffb300;stroke:#ffb300;stroke-linecap:round;stroke-width:2.0;"/>
   </g>
   <g id="matplotlib.axis_1"/>
   <g id="matplotlib.axis_2"/>
   <g id="patch_38">
    <path clip-path="url(#p3549e34a22)" d="
M367.49 260.836
C373.628 260.836 379.516 258.397 383.856 254.057
C388.196 249.717 390.634 243.83 390.634 237.692
C390.634 231.554 388.196 225.667 383.856 221.327
C379.516 216.986 373.628 214.548 367.49 214.548
C361.353 214.548 355.465 216.986 351.125 221.327
C346.785 225.667 344.347 231.554 344.347 237.692
C344.347 243.83 346.785 249.717 351.125 254.057
C355.465 258.397 361.353 260.836 367.49 260.836
z
" style="fill:none;stroke:#00ffd1;"/>
   </g>
   <g id="patch_39">
    <path clip-path="url(#p3549e34a22)" d="
M367.49 283.979
C376.697 283.979 385.528 280.322 392.038 273.811
C398.548 267.301 402.206 258.47 402.206 249.264
C402.206 240.057 398.548 231.226 392.038 224.716
C385.528 218.206 376.697 214.548 367.49 214.548
C358.284 214.548 349.453 218.206 342.943 224.716
C336.433 231.226 332.775 240.057 332.775 249.264
C332.775 258.47 336.433 267.301 342.943 273.811
C349.453 280.322 358.284 283.979 367.49 283.979
z
" style="fill:none;stroke:#00ffd1;"/>
   </g>
   <g id="patch_40">
    <path d="
M299.014 256.626
C303.574 256.626 307.949 254.814 311.173 251.589
C314.398 248.365 316.21 243.99 316.21 239.43
C316.21 234.869 314.398 230.495 311.173 227.27
C307.949 224.045 303.574 222.233 299.014 222.233
C294.453 222.233 290.079 224.045 286.854 227.27
C283.629 230.495 281.817 234.869 281.817 239.43
C281.817 243.99 283.629 248.365 286.854 251.589
C290.079 254.814 294.453 256.626 299.014 256.626
z
" style="fill:#fec7b8;stroke:#000000;"/>
   </g>
   <g id="patch_41">
    <path d="
M228.431 332.965
C232.992 332.965 237.366 331.153 240.591 327.928
C243.816 324.704 245.628 320.329 245.628 315.769
C245.628 311.208 243.816 306.834 240.591 303.609
C237.366 300.384 232.992 298.572 228.431 298.572
C223.871 298.572 219.496 300.384 216.272 303.609
C213.047 306.834 211.235 311.208 211.235 315.769
C211.235 320.329 213.047 324.704 216.272 327.928
C219.496 331.153 223.871 332.965 228.431 332.965
z
" style="fill:#fec7b8;stroke:#000000;"/>
   </g>
   <g id="patch_42">
    <path d="
M380.914 332.529
C385.475 332.529 389.849 330.717 393.074 327.492
C396.299 324.267 398.11 319.893 398.11 315.332
C398.11 310.772 396.299 306.398 393.074 303.173
C389.849 299.948 385.475 298.136 380.914 298.136
C376.354 298.136 371.979 299.948 368.754 303.173
C365.53 306.398 363.718 310.772 363.718 315.332
C363.718 319.893 365.53 324.267 368.754 327.492
C371.979 330.717 376.354 332.529 380.914 332.529
z
" style="fill:#fec7b8;stroke:#000000;"/>
   </g>
   <g id="patch_43">
    <path d="
M128.203 443.929
C132.764 443.929 137.138 442.117 140.363 438.892
C143.588 435.668 145.4 431.293 145.4 426.733
C145.4 422.172 143.588 417.798 140.363 414.573
C137.138 411.348 132.764 409.536 128.203 409.536
C123.643 409.536 119.269 411.348 116.044 414.573
C112.819 417.798 111.007 422.172 111.007 426.733
C111.007 431.293 112.819 435.668 116.044 438.892
C119.269 442.117 123.643 443.929 128.203 443.929
z
" style="fill:#fec7b8;stroke:#000000;"/>
   </g>
   <g id="patch_44">
    <path d="
M154.273 549.473
C158.833 549.473 163.208 547.661 166.432 544.436
C169.657 541.211 171.469 536.837 171.469 532.276
C171.469 527.716 169.657 523.341 166.432 520.117
C163.208 516.892 158.833 515.08 154.273 515.08
C149.712 515.08 145.338 516.892 142.113 520.117
C138.888 523.341 137.076 527.716 137.076 532.276
C137.076 536.837 138.888 541.211 142.113 544.436
C145.338 547.661 149.712 549.473 154.273 549.473
z
" style="fill:#fec7b8;stroke:#000000;"/>
   </g>
   <g id="patch_45">
    <path d="
M216.95 456.705
C221.511 456.705 225.885 454.893 229.11 451.669
C232.335 448.444 234.147 444.069 234.147 439.509
C234.147 434.948 232.335 430.574 229.11 427.349
C225.885 424.124 221.511 422.312 216.95 422.312
C212.39 422.312 208.015 424.124 204.79 427.349
C201.566 430.574 199.754 434.948 199.754 439.509
C199.754 444.069 201.566 448.444 204.79 451.669
C208.015 454.893 212.39 456.705 216.95 456.705
z
" style="fill:#fec7b8;stroke:#000000;"/>
   </g>
   <g id="patch_46">
    <path d="
M314.735 463.573
C319.296 463.573 323.67 461.761 326.895 458.536
C330.12 455.312 331.932 450.937 331.932 446.377
C331.932 441.816 330.12 437.442 326.895 434.217
C323.67 430.992 319.296 429.18 314.735 429.18
C310.175 429.18 305.8 430.992 302.576 434.217
C299.351 437.442 297.539 441.816 297.539 446.377
C297.539 450.937 299.351 455.312 302.576 458.536
C305.8 461.761 310.175 463.573 314.735 463.573
z
" style="fill:#fec7b8;stroke:#000000;"/>
   </g>
   <g id="patch_47">
    <path d="
M173.832 213.444
C178.393 213.444 182.767 211.632 185.992 208.407
C189.217 205.183 191.029 200.808 191.029 196.248
C191.029 191.687 189.217 187.313 185.992 184.088
C182.767 180.863 178.393 179.051 173.832 179.051
C169.272 179.051 164.897 180.863 161.673 184.088
C158.448 187.313 156.636 191.687 156.636 196.248
C156.636 200.808 158.448 205.183 161.673 208.407
C164.897 211.632 169.272 213.444 173.832 213.444
z
" style="fill:#fec7b8;stroke:#000000;"/>
   </g>
   <g id="patch_48">
    <path d="
M242.244 180.034
C246.805 180.034 251.179 178.222 254.404 174.997
C257.629 171.772 259.441 167.398 259.441 162.837
C259.441 158.277 257.629 153.902 254.404 150.678
C251.179 147.453 246.805 145.641 242.244 145.641
C237.684 145.641 233.309 147.453 230.084 150.678
C226.86 153.902 225.048 158.277 225.048 162.837
C225.048 167.398 226.86 171.772 230.084 174.997
C233.309 178.222 237.684 180.034 242.244 180.034
z
" style="fill:#fec7b8;stroke:#000000;"/>
   </g>
   <g id="patch_49">
    <path d="
M218.956 220.057
C223.516 220.057 227.891 218.245 231.115 215.02
C234.34 211.795 236.152 207.421 236.152 202.86
C236.152 198.3 234.34 193.925 231.115 190.701
C227.891 187.476 223.516 185.664 218.956 185.664
C214.395 185.664 210.021 187.476 206.796 190.701
C203.571 193.925 201.759 198.3 201.759 202.86
C201.759 207.421 203.571 211.795 206.796 215.02
C210.021 218.245 214.395 220.057 218.956 220.057
z
" style="fill:#fec7b8;stroke:#000000;"/>
   </g>
   <g id="patch_50">
    <path d="
M367.49 231.744
C372.051 231.744 376.425 229.932 379.65 226.708
C382.875 223.483 384.687 219.108 384.687 214.548
C384.687 209.987 382.875 205.613 379.65 202.388
C376.425 199.163 372.051 197.351 367.49 197.351
C362.93 197.351 358.556 199.163 355.331 202.388
C352.106 205.613 350.294 209.987 350.294 214.548
C350.294 219.108 352.106 223.483 355.331 226.708
C358.556 229.932 362.93 231.744 367.49 231.744
z
" style="fill:#fec7b8;stroke:#000000;"/>
   </g>
   <g id="patch_51">
    <path d="
M330.706 150.202
C335.266 150.202 339.641 148.39 342.866 145.165
C346.09 141.94 347.902 137.566 347.902 133.005
C347.902 128.445 346.09 124.07 342.866 120.846
C339.641 117.621 335.266 115.809 330.706 115.809
C326.145 115.809 321.771 117.621 318.546 120.846
C315.321 124.07 313.509 128.445 313.509 133.005
C313.509 137.566 315.321 141.94 318.546 145.165
C321.771 148.39 326.145 150.202 330.706 150.202
z
" style="fill:#fec7b8;stroke:#000000;"/>
   </g>
   <g id="patch_52">
    <path d="
M418.831 49.4
C423.392 49.4 427.766 47.5881 430.991 44.3633
C434.216 41.1385 436.027 36.7642 436.027 32.2036
C436.027 27.6431 434.216 23.2687 430.991 20.0439
C427.766 16.8192 423.392 15.0072 418.831 15.0072
C414.27 15.0072 409.896 16.8192 406.671 20.0439
C403.447 23.2687 401.635 27.6431 401.635 32.2036
C401.635 36.7642 403.447 41.1385 406.671 44.3633
C409.896 47.5881 414.27 49.4 418.831 49.4
z
" style="fill:#fec7b8;stroke:#000000;"/>
   </g>
   <g id="patch_53">
    <path d="
M311.256 372.994
C315.816 372.994 320.191 371.183 323.416 367.958
C326.64 364.733 328.452 360.359 328.452 355.798
C328.452 351.237 326.64 346.863 323.416 343.638
C320.191 340.414 315.816 338.602 311.256 338.602
C306.695 338.602 302.321 340.414 299.096 343.638
C295.871 346.863 294.059 351.237 294.059 355.798
C294.059 360.359 295.871 364.733 299.096 367.958
C302.321 371.183 306.695 372.994 311.256 372.994
z
" style="fill:#fec7b8;stroke:#000000;"/>
   </g>
   <g id="patch_54">
    <path d="
M201.438 90.29
C205.998 90.29 210.373 88.4781 213.597 85.2533
C216.822 82.0285 218.634 77.6541 218.634 73.0936
C218.634 68.5331 216.822 64.1587 213.597 60.9339
C210.373 57.7091 205.998 55.8972 201.438 55.8972
C196.877 55.8972 192.503 57.7091 189.278 60.9339
C186.053 64.1587 184.241 68.5331 184.241 73.0936
C184.241 77.6541 186.053 82.0285 189.278 85.2533
C192.503 88.4781 196.877 90.29 201.438 90.29
z
" style="fill:#fec7b8;stroke:#000000;"/>
   </g>
   <g id="patch_55">
    <path d="
M77.9401 248.301
C82.5007 248.301 86.875 246.489 90.0998 243.264
C93.3246 240.039 95.1365 235.665 95.1365 231.104
C95.1365 226.544 93.3246 222.169 90.0998 218.945
C86.875 215.72 82.5007 213.908 77.9401 213.908
C73.3796 213.908 69.0052 215.72 65.7804 218.945
C62.5556 222.169 60.7437 226.544 60.7437 231.104
C60.7437 235.665 62.5556 240.039 65.7804 243.264
C69.0052 246.489 73.3796 248.301 77.9401 248.301
z
" style="fill:#fec7b8;stroke:#000000;"/>
   </g>
   <g id="patch_56">
    <path d="
M95.1407 359.429
C99.7013 359.429 104.076 357.617 107.3 354.392
C110.525 351.168 112.337 346.793 112.337 342.233
C112.337 337.672 110.525 333.298 107.3 330.073
C104.076 326.848 99.7013 325.036 95.1407 325.036
C90.5802 325.036 86.2058 326.848 82.9811 330.073
C79.7563 333.298 77.9443 337.672 77.9443 342.233
C77.9443 346.793 79.7563 351.168 82.9811 354.392
C86.2058 357.617 90.5802 359.429 95.1407 359.429
z
" style="fill:#fec7b8;stroke:#000000;"/>
   </g>
   <g id="patch_57">
    <path d="
M26.8015 366.747
C31.362 366.747 35.7364 364.935 38.9612 361.71
C42.186 358.485 43.9979 354.111 43.9979 349.55
C43.9979 344.99 42.186 340.615 38.9612 337.391
C35.7364 334.166 31.362 332.354 26.8015 332.354
C22.2409 332.354 17.8666 334.166 14.6418 337.391
C11.417 340.615 9.60507 344.99 9.60507 349.55
C9.60507 354.111 11.417 358.485 14.6418 361.71
C17.8666 364.935 22.2409 366.747 26.8015 366.747
z
" style="fill:#fec7b8;stroke:#000000;"/>
   </g>
   <g id="text_1">
    <!-- I -->
    <defs>
     <path d="
M9.8125 72.9062
L19.6719 72.9062
L19.6719 0
L9.8125 0
z
" id="BitstreamVeraSans-Roman-49"/>
    </defs>
    <g transform="translate(314.242328435 449.13615919)scale(0.1 -0.1)">
     <use xlink:href="#BitstreamVeraSans-Roman-49"/>
    </g>
   </g>
   <g id="text_2">
    <!-- a -->
    <defs>
     <path d="
M34.2812 27.4844
Q23.3906 27.4844 19.1875 25
Q14.9844 22.5156 14.9844 16.5
Q14.9844 11.7188 18.1406 8.90625
Q21.2969 6.10938 26.7031 6.10938
Q34.1875 6.10938 38.7031 11.4062
Q43.2188 16.7031 43.2188 25.4844
L43.2188 27.4844
z

M52.2031 31.2031
L52.2031 0
L43.2188 0
L43.2188 8.29688
Q40.1406 3.32812 35.5469 0.953125
Q30.9531 -1.42188 24.3125 -1.42188
Q15.9219 -1.42188 10.9531 3.29688
Q6 8.01562 6 15.9219
Q6 25.1406 12.1719 29.8281
Q18.3594 34.5156 30.6094 34.5156
L43.2188 34.5156
L43.2188 35.4062
Q43.2188 41.6094 39.1406 45
Q35.0625 48.3906 27.6875 48.3906
Q23 48.3906 18.5469 47.2656
Q14.1094 46.1406 10.0156 43.8906
L10.0156 52.2031
Q14.9375 54.1094 19.5781 55.0469
Q24.2188 56 28.6094 56
Q40.4844 56 46.3438 49.8438
Q52.2031 43.7031 52.2031 31.2031" id="BitstreamVeraSans-Roman-61"/>
    </defs>
    <g transform="translate(296.703442639 242.189084068)scale(0.1 -0.1)">
     <use xlink:href="#BitstreamVeraSans-Roman-61"/>
    </g>
   </g>
   <g id="text_3">
    <!-- c -->
    <defs>
     <path d="
M48.7812 52.5938
L48.7812 44.1875
Q44.9688 46.2969 41.1406 47.3438
Q37.3125 48.3906 33.4062 48.3906
Q24.6562 48.3906 19.8125 42.8438
Q14.9844 37.3125 14.9844 27.2969
Q14.9844 17.2812 19.8125 11.7344
Q24.6562 6.20312 33.4062 6.20312
Q37.3125 6.20312 41.1406 7.25
Q44.9688 8.29688 48.7812 10.4062
L48.7812 2.09375
Q45.0156 0.34375 40.9844 -0.53125
Q36.9688 -1.42188 32.4219 -1.42188
Q20.0625 -1.42188 12.7812 6.34375
Q5.51562 14.1094 5.51562 27.2969
Q5.51562 40.6719 12.8594 48.3281
Q20.2188 56 33.0156 56
Q37.1562 56 41.1094 55.1406
Q45.0625 54.2969 48.7812 52.5938" id="BitstreamVeraSans-Roman-63"/>
    </defs>
    <g transform="translate(378.750787297 318.091839069)scale(0.1 -0.1)">
     <use xlink:href="#BitstreamVeraSans-Roman-63"/>
    </g>
   </g>
   <g id="text_4">
    <!-- d -->
    <defs>
     <path d="
M45.4062 46.3906
L45.4062 75.9844
L54.3906 75.9844
L54.3906 0
L45.4062 0
L45.4062 8.20312
Q42.5781 3.32812 38.25 0.953125
Q33.9375 -1.42188 27.875 -1.42188
Q17.9688 -1.42188 11.7344 6.48438
Q5.51562 14.4062 5.51562 27.2969
Q5.51562 40.1875 11.7344 48.0938
Q17.9688 56 27.875 56
Q33.9375 56 38.25 53.625
Q42.5781 51.2656 45.4062 46.3906
M14.7969 27.2969
Q14.7969 17.3906 18.875 11.75
Q22.9531 6.10938 30.0781 6.10938
Q37.2031 6.10938 41.2969 11.75
Q45.4062 17.3906 45.4062 27.2969
Q45.4062 37.2031 41.2969 42.8438
Q37.2031 48.4844 30.0781 48.4844
Q22.9531 48.4844 18.875 42.8438
Q14.7969 37.2031 14.7969 27.2969" id="BitstreamVeraSans-Roman-64"/>
    </defs>
    <g transform="translate(151.828874877 535.035738636)scale(0.1 -0.1)">
     <use xlink:href="#BitstreamVeraSans-Roman-64"/>
    </g>
   </g>
   <g id="text_5">
    <!-- e -->
    <defs>
     <path d="
M56.2031 29.5938
L56.2031 25.2031
L14.8906 25.2031
Q15.4844 15.9219 20.4844 11.0625
Q25.4844 6.20312 34.4219 6.20312
Q39.5938 6.20312 44.4531 7.46875
Q49.3125 8.73438 54.1094 11.2812
L54.1094 2.78125
Q49.2656 0.734375 44.1875 -0.34375
Q39.1094 -1.42188 33.8906 -1.42188
Q20.7969 -1.42188 13.1562 6.1875
Q5.51562 13.8125 5.51562 26.8125
Q5.51562 40.2344 12.7656 48.1094
Q20.0156 56 32.3281 56
Q43.3594 56 49.7812 48.8906
Q56.2031 41.7969 56.2031 29.5938
M47.2188 32.2344
Q47.125 39.5938 43.0938 43.9844
Q39.0625 48.3906 32.4219 48.3906
Q24.9062 48.3906 20.3906 44.1406
Q15.875 39.8906 15.1875 32.1719
z
" id="BitstreamVeraSans-Roman-65"/>
    </defs>
    <g transform="translate(125.669112975 429.49215233)scale(0.1 -0.1)">
     <use xlink:href="#BitstreamVeraSans-Roman-65"/>
    </g>
   </g>
   <g id="text_6">
    <!-- g -->
    <defs>
     <path d="
M45.4062 27.9844
Q45.4062 37.75 41.375 43.1094
Q37.3594 48.4844 30.0781 48.4844
Q22.8594 48.4844 18.8281 43.1094
Q14.7969 37.75 14.7969 27.9844
Q14.7969 18.2656 18.8281 12.8906
Q22.8594 7.51562 30.0781 7.51562
Q37.3594 7.51562 41.375 12.8906
Q45.4062 18.2656 45.4062 27.9844
M54.3906 6.78125
Q54.3906 -7.17188 48.1875 -13.9844
Q42 -20.7969 29.2031 -20.7969
Q24.4688 -20.7969 20.2656 -20.0938
Q16.0625 -19.3906 12.1094 -17.9219
L12.1094 -9.1875
Q16.0625 -11.3281 19.9219 -12.3438
Q23.7812 -13.375 27.7812 -13.375
Q36.625 -13.375 41.0156 -8.76562
Q45.4062 -4.15625 45.4062 5.17188
L45.4062 9.625
Q42.625 4.78125 38.2812 2.39062
Q33.9375 0 27.875 0
Q17.8281 0 11.6719 7.65625
Q5.51562 15.3281 5.51562 27.9844
Q5.51562 40.6719 11.6719 48.3281
Q17.8281 56 27.875 56
Q33.9375 56 38.2812 53.6094
Q42.625 51.2188 45.4062 46.3906
L45.4062 54.6875
L54.3906 54.6875
z
" id="BitstreamVeraSans-Roman-67"/>
    </defs>
    <g transform="translate(214.506378056 442.268233415)scale(0.1 -0.1)">
     <use xlink:href="#BitstreamVeraSans-Roman-67"/>
    </g>
   </g>
   <g id="text_7">
    <!-- h -->
    <defs>
     <path d="
M54.8906 33.0156
L54.8906 0
L45.9062 0
L45.9062 32.7188
Q45.9062 40.4844 42.875 44.3281
Q39.8438 48.1875 33.7969 48.1875
Q26.5156 48.1875 22.3125 43.5469
Q18.1094 38.9219 18.1094 30.9062
L18.1094 0
L9.07812 0
L9.07812 75.9844
L18.1094 75.9844
L18.1094 46.1875
Q21.3438 51.125 25.7031 53.5625
Q30.0781 56 35.7969 56
Q45.2188 56 50.0469 50.1719
Q54.8906 44.3438 54.8906 33.0156" id="BitstreamVeraSans-Roman-68"/>
    </defs>
    <g transform="translate(171.54175429 199.007012404)scale(0.1 -0.1)">
     <use xlink:href="#BitstreamVeraSans-Roman-68"/>
    </g>
   </g>
   <g id="text_8">
    <!-- i -->
    <defs>
     <path d="
M9.42188 54.6875
L18.4062 54.6875
L18.4062 0
L9.42188 0
z

M9.42188 75.9844
L18.4062 75.9844
L18.4062 64.5938
L9.42188 64.5938
z
" id="BitstreamVeraSans-Roman-69"/>
    </defs>
    <g transform="translate(26.3522585129 352.309757216)scale(0.1 -0.1)">
     <use xlink:href="#BitstreamVeraSans-Roman-69"/>
    </g>
   </g>
   <g id="text_9">
    <!-- l -->
    <defs>
     <path d="
M9.42188 75.9844
L18.4062 75.9844
L18.4062 0
L9.42188 0
z
" id="BitstreamVeraSans-Roman-6c"/>
    </defs>
    <g transform="translate(218.506481586 205.619692557)scale(0.1 -0.1)">
     <use xlink:href="#BitstreamVeraSans-Roman-6c"/>
    </g>
   </g>
   <g id="text_10">
    <!-- m -->
    <defs>
     <path d="
M52 44.1875
Q55.375 50.25 60.0625 53.125
Q64.75 56 71.0938 56
Q79.6406 56 84.2812 50.0156
Q88.9219 44.0469 88.9219 33.0156
L88.9219 0
L79.8906 0
L79.8906 32.7188
Q79.8906 40.5781 77.0938 44.375
Q74.3125 48.1875 68.6094 48.1875
Q61.625 48.1875 57.5625 43.5469
Q53.5156 38.9219 53.5156 30.9062
L53.5156 0
L44.4844 0
L44.4844 32.7188
Q44.4844 40.625 41.7031 44.4062
Q38.9219 48.1875 33.1094 48.1875
Q26.2188 48.1875 22.1562 43.5312
Q18.1094 38.875 18.1094 30.9062
L18.1094 0
L9.07812 0
L9.07812 54.6875
L18.1094 54.6875
L18.1094 46.1875
Q21.1875 51.2188 25.4844 53.6094
Q29.7812 56 35.6875 56
Q41.6562 56 45.8281 52.9688
Q50 49.9531 52 44.1875" id="BitstreamVeraSans-Roman-6d"/>
    </defs>
    <g transform="translate(238.251952122 165.596753547)scale(0.1 -0.1)">
     <use xlink:href="#BitstreamVeraSans-Roman-6d"/>
    </g>
   </g>
   <g id="text_11">
    <!-- o -->
    <defs>
     <path d="
M30.6094 48.3906
Q23.3906 48.3906 19.1875 42.75
Q14.9844 37.1094 14.9844 27.2969
Q14.9844 17.4844 19.1562 11.8438
Q23.3438 6.20312 30.6094 6.20312
Q37.7969 6.20312 41.9844 11.8594
Q46.1875 17.5312 46.1875 27.2969
Q46.1875 37.0156 41.9844 42.7031
Q37.7969 48.3906 30.6094 48.3906
M30.6094 56
Q42.3281 56 49.0156 48.375
Q55.7188 40.7656 55.7188 27.2969
Q55.7188 13.875 49.0156 6.21875
Q42.3281 -1.42188 30.6094 -1.42188
Q18.8438 -1.42188 12.1719 6.21875
Q5.51562 13.875 5.51562 27.2969
Q5.51562 40.7656 12.1719 48.375
Q18.8438 56 30.6094 56" id="BitstreamVeraSans-Roman-6f"/>
    </defs>
    <g transform="translate(364.980319038 217.30726447)scale(0.1 -0.1)">
     <use xlink:href="#BitstreamVeraSans-Roman-6f"/>
    </g>
   </g>
   <g id="text_12">
    <!-- p -->
    <defs>
     <path d="
M18.1094 8.20312
L18.1094 -20.7969
L9.07812 -20.7969
L9.07812 54.6875
L18.1094 54.6875
L18.1094 46.3906
Q20.9531 51.2656 25.2656 53.625
Q29.5938 56 35.5938 56
Q45.5625 56 51.7812 48.0938
Q58.0156 40.1875 58.0156 27.2969
Q58.0156 14.4062 51.7812 6.48438
Q45.5625 -1.42188 35.5938 -1.42188
Q29.5938 -1.42188 25.2656 0.953125
Q20.9531 3.32812 18.1094 8.20312
M48.6875 27.2969
Q48.6875 37.2031 44.6094 42.8438
Q40.5312 48.4844 33.4062 48.4844
Q26.2656 48.4844 22.1875 42.8438
Q18.1094 37.2031 18.1094 27.2969
Q18.1094 17.3906 22.1875 11.75
Q26.2656 6.10938 33.4062 6.10938
Q40.5312 6.10938 44.6094 11.75
Q48.6875 17.3906 48.6875 27.2969" id="BitstreamVeraSans-Roman-70"/>
    </defs>
    <g transform="translate(328.258949331 135.764645476)scale(0.1 -0.1)">
     <use xlink:href="#BitstreamVeraSans-Roman-70"/>
    </g>
   </g>
   <g id="text_13">
    <!-- r -->
    <defs>
     <path d="
M41.1094 46.2969
Q39.5938 47.1719 37.8125 47.5781
Q36.0312 48 33.8906 48
Q26.2656 48 22.1875 43.0469
Q18.1094 38.0938 18.1094 28.8125
L18.1094 0
L9.07812 0
L9.07812 54.6875
L18.1094 54.6875
L18.1094 46.1875
Q20.9531 51.1719 25.4844 53.5781
Q30.0312 56 36.5312 56
Q37.4531 56 38.5781 55.875
Q39.7031 55.7656 41.0625 55.5156
z
" id="BitstreamVeraSans-Roman-72"/>
    </defs>
    <g transform="translate(309.654328046 358.557397047)scale(0.1 -0.1)">
     <use xlink:href="#BitstreamVeraSans-Roman-72"/>
    </g>
   </g>
   <g id="text_14">
    <!-- s -->
    <defs>
     <path d="
M44.2812 53.0781
L44.2812 44.5781
Q40.4844 46.5312 36.375 47.5
Q32.2812 48.4844 27.875 48.4844
Q21.1875 48.4844 17.8438 46.4375
Q14.5 44.3906 14.5 40.2812
Q14.5 37.1562 16.8906 35.375
Q19.2812 33.5938 26.5156 31.9844
L29.5938 31.2969
Q39.1562 29.25 43.1875 25.5156
Q47.2188 21.7812 47.2188 15.0938
Q47.2188 7.46875 41.1875 3.01562
Q35.1562 -1.42188 24.6094 -1.42188
Q20.2188 -1.42188 15.4531 -0.5625
Q10.6875 0.296875 5.42188 2
L5.42188 11.2812
Q10.4062 8.6875 15.2344 7.39062
Q20.0625 6.10938 24.8125 6.10938
Q31.1562 6.10938 34.5625 8.28125
Q37.9844 10.4531 37.9844 14.4062
Q37.9844 18.0625 35.5156 20.0156
Q33.0625 21.9688 24.7031 23.7812
L21.5781 24.5156
Q13.2344 26.2656 9.51562 29.9062
Q5.8125 33.5469 5.8125 39.8906
Q5.8125 47.6094 11.2812 51.7969
Q16.75 56 26.8125 56
Q31.7812 56 36.1719 55.2656
Q40.5781 54.5469 44.2812 53.0781" id="BitstreamVeraSans-Roman-73"/>
    </defs>
    <g transform="translate(416.741178772 34.9630113636)scale(0.1 -0.1)">
     <use xlink:href="#BitstreamVeraSans-Roman-73"/>
    </g>
   </g>
   <g id="text_15">
    <!-- t -->
    <defs>
     <path d="
M18.3125 70.2188
L18.3125 54.6875
L36.8125 54.6875
L36.8125 47.7031
L18.3125 47.7031
L18.3125 18.0156
Q18.3125 11.3281 20.1406 9.42188
Q21.9688 7.51562 27.5938 7.51562
L36.8125 7.51562
L36.8125 0
L27.5938 0
Q17.1875 0 13.2344 3.875
Q9.28125 7.76562 9.28125 18.0156
L9.28125 47.7031
L2.6875 47.7031
L2.6875 54.6875
L9.28125 54.6875
L9.28125 70.2188
z
" id="BitstreamVeraSans-Roman-74"/>
    </defs>
    <g transform="translate(76.233877727 233.86364267)scale(0.1 -0.1)">
     <use xlink:href="#BitstreamVeraSans-Roman-74"/>
    </g>
   </g>
   <g id="text_16">
    <!-- u -->
    <defs>
     <path d="
M8.5 21.5781
L8.5 54.6875
L17.4844 54.6875
L17.4844 21.9219
Q17.4844 14.1562 20.5 10.2656
Q23.5312 6.39062 29.5938 6.39062
Q36.8594 6.39062 41.0781 11.0312
Q45.3125 15.6719 45.3125 23.6875
L45.3125 54.6875
L54.2969 54.6875
L54.2969 0
L45.3125 0
L45.3125 8.40625
Q42.0469 3.42188 37.7188 1
Q33.4062 -1.42188 27.6875 -1.42188
Q18.2656 -1.42188 13.375 4.4375
Q8.5 10.2969 8.5 21.5781" id="BitstreamVeraSans-Roman-75"/>
    </defs>
    <g transform="translate(199.147844382 75.8529837732)scale(0.1 -0.1)">
     <use xlink:href="#BitstreamVeraSans-Roman-75"/>
    </g>
   </g>
   <g id="text_17">
    <!-- w -->
    <defs>
     <path d="
M4.20312 54.6875
L13.1875 54.6875
L24.4219 12.0156
L35.5938 54.6875
L46.1875 54.6875
L57.4219 12.0156
L68.6094 54.6875
L77.5938 54.6875
L63.2812 0
L52.6875 0
L40.9219 44.8281
L29.1094 0
L18.5 0
z
" id="BitstreamVeraSans-Roman-77"/>
    </defs>
    <g transform="translate(91.4712134539 344.991977869)scale(0.1 -0.1)">
     <use xlink:href="#BitstreamVeraSans-Roman-77"/>
    </g>
   </g>
  </g>
 </g>
 <defs>
  <clipPath id="p3549e34a22">
   <rect height="550.08" width="431.232499785" x="7.2" y="7.2"/>
  </clipPath>
 </defs>
</svg>
