<svg xmlns="http://www.w3.org/2000/svg" xmlns:xlink="http://www.w3.org/1999/xlink" xmlns:inkscape="http://www.inkscape.org/namespaces/inkscape" version="1.1" width="226" height="171" viewBox="0 0 226 171">
<defs>
<path id="font_1_3" d="M.1269989 .07699585 .23298645 .18003845C.3889923 .31811524 .44898988 .3721466 .44898988 .47216798 .44898988 .5860901 .35899354 .6660156 .23699951 .6660156 .12399292 .6660156 .049987794 .57411196 .049987794 .48516847 .049987794 .4291687 .099990848 .4291687 .102996829 .4291687 .11999512 .4291687 .15499878 .44117738 .15499878 .48217774 .15499878 .5081787 .13699341 .5341797 .101989749 .5341797 .09399414 .5341797 .09199524 .5341797 .08898926 .5331726 .11199951 .59806826 .1659851 .63500979 .22399903 .63500979 .31498719 .63500979 .35798646 .5541382 .35798646 .47216798 .35798646 .39215089 .30799867 .31311036 .25299073 .25108338L.06098938 .036987306C.049987794 .025985718 .049987794 .023986817 .049987794 0H.42099L.44898988 .17404175H.42399598C.4189911 .14402771 .4119873 .1000061 .4019928 .084991458 .394989 .07699585 .32899476 .07699585 .30699159 .07699585H.1269989Z"/>
<path id="font_1_1" d="M.45999146 .31976319C.45999146 .39982606 .45498658 .47988893 .41999818 .5539398 .37399293 .65000918 .2919922 .6660156 .25 .6660156 .18998719 .6660156 .116989139 .64001467 .07598877 .54693606 .04399109 .47789 .038986207 .39982606 .038986207 .31976319 .038986207 .24472046 .042999269 .15464783 .083999637 .07859802 .1269989-.0024719239 .19999695-.022460938 .24899292-.022460938 .30299378-.022460938 .3789978-.0014648438 .4229889 .09359741 .45498658 .16265869 .45999146 .2407074 .45999146 .31976319M.24899292-.00047302247C.20999146-.00047302247 .15098572 .024551392 .1329956 .12062073 .12199402 .18066406 .12199402 .2727356 .12199402 .3317871 .12199402 .39582826 .12199402 .46188355 .12998963 .5159149 .14898682 .63500979 .22399903 .64401248 .24899292 .64401248 .28199769 .64401248 .34799195 .6259918 .36698915 .52693179 .3769989 .47088624 .3769989 .39482118 .3769989 .3317871 .3769989 .25672914 .3769989 .18867493 .3659973 .12461853 .35099793 .029556275 .2939911-.00047302247 .24899292-.00047302247Z"/>
<path id="font_1_4" d="M.2939911 .16503906V.07800293C.2939911 .041992189 .2919922 .0309906 .21798706 .0309906H.19699097V0C.23799134 .0029907227 .2899933 .0029907227 .33198548 .0029907227 .37399293 .0029907227 .4269867 .0029907227 .46798707 0V.0309906H.44699098C.37298585 .0309906 .37098695 .041992189 .37098695 .07800293V.16503906H.47099305V.19602967H.37098695V.65075686C.37098695 .67074587 .37098695 .6767578 .35499574 .6767578 .34599305 .6767578 .34298707 .6767578 .33499146 .66474917L.027999878 .19602967V.16503906H.2939911M.2999878 .19602967H.055999757L.2999878 .5688019V.19602967Z"/>
<path id="font_1_5" d="M.13198853 .327713V.35173036C.13198853 .6047821 .2559967 .64100649 .30699159 .64100649 .33099366 .64100649 .37298585 .634964 .394989 .6007538 .37998963 .6007538 .33999635 .6007538 .33999635 .5557556 .33999635 .524765 .3639984 .5097656 .38598634 .5097656 .4019928 .5097656 .43199159 .51875308 .43199159 .5577545 .43199159 .6178589 .3880005 .6660156 .30499269 .6660156 .1769867 .6660156 .041992189 .5367584 .041992189 .31570436 .041992189 .048553468 .1579895-.022460938 .25099183-.022460938 .3619995-.022460938 .45700074 .07156372 .45700074 .2036438 .45700074 .33070375 .36799623 .4267578 .25698854 .4267578 .18899536 .4267578 .1519928 .37573243 .13198853 .327713M.25099183 .0055389406C.18798828 .0055389406 .1579895 .06556702 .1519928 .080566409 .13398743 .127594 .13398743 .2076416 .13398743 .22564698 .13398743 .30369569 .1659851 .40374757 .2559967 .40374757 .27198792 .40374757 .31799317 .40374757 .34899903 .34172059 .36698915 .30470277 .36698915 .2536621 .36698915 .20463562 .36698915 .15661621 .36698915 .10658264 .34999085 .0705719 .31999208 .010528564 .27398683 .0055389406 .25099183 .0055389406Z"/>
<path id="font_1_6" d="M.16299439 .4569702C.116989139 .486969 .11299133 .52098086 .11299133 .5379791 .11299133 .598999 .17799378 .64100649 .24899292 .64100649 .32199098 .64100649 .38598634 .58898928 .38598634 .51698306 .38598634 .45996095 .34700013 .4119568 .2869873 .37695313L.16299439 .4569702M.30899049 .36193849C.3809967 .3989563 .42999269 .45095826 .42999269 .51698306 .42999269 .6090088 .34098817 .6660156 .25 .6660156 .1499939 .6660156 .068984989 .59199526 .068984989 .49897767 .068984989 .4809723 .070999149 .43595887 .11299133 .38894654 .12399292 .37695313 .16099549 .35194398 .18598938 .33494569 .12799073 .30592347 .041992189 .24984741 .041992189 .15072632 .041992189 .04458618 .14399719-.022460938 .24899292-.022460938 .3619995-.022460938 .45700074 .06060791 .45700074 .16773987 .45700074 .20379639 .44599916 .24885559 .4079895 .2909088 .3889923 .31193543 .37298585 .3219452 .30899049 .36193849M.20899964 .3199463 .33198548 .24183655C.3600006 .2228241 .40699769 .19277954 .40699769 .13169861 .40699769 .05760193 .33198548 .0055389406 .25 .0055389406 .1639862 .0055389406 .09199524 .067611698 .09199524 .15072632 .09199524 .20880127 .12399292 .27288819 .20899964 .3199463Z"/>
<path id="font_1_2" d="M.2939911 .64004519C.2939911 .66400149 .2939911 .6660156 .2709961 .6660156 .20899964 .60227969 .12098694 .60227969 .08898926 .60227969V.57128909C.10899353 .57128909 .16799927 .57128909 .21998596 .5972748V.07902527C.21998596 .042999269 .21699524 .0309906 .1269989 .0309906H.09498596V0C.12998963 .0029907227 .21699524 .0029907227 .25698854 .0029907227 .29699708 .0029907227 .38398744 .0029907227 .4189911 0V.0309906H.3869934C.29699708 .0309906 .2939911 .041992189 .2939911 .07902527V.64004519Z"/>
<path id="font_2_1" d="M.6589966 .23046875C.6759949 .23046875 .69400027 .23046875 .69400027 .25045777 .69400027 .27046205 .6759949 .27046205 .6589966 .27046205H.117996219C.100997928 .27046205 .08299255 .27046205 .08299255 .25045777 .08299255 .23046875 .100997928 .23046875 .117996219 .23046875H.6589966Z"/>
<clipPath id="clip_3">
<path transform="matrix(1,0,0,-1.00005,23.575005,166.53269)" d="M0 0H194.27368V161.39575H0Z"/>
</clipPath>
<path id="font_4_105" d="M.33198548 .12385559V.18066406H.30699159V.12585449C.30699159 .052108766 .2769928 .014251709 .23999024 .014251709 .17298889 .014251709 .17298889 .10491943 .17298889 .12187195V.3996582H.31599427V.43066407H.17298889V.6142578H.147995C.14698792 .5324249 .116989139 .42565919 .018997193 .42166139V.3996582H.10398865V.12408447C.10398865 .0012512207 .19699097-.0107421879 .23298645-.0107421879 .3039856-.0107421879 .33198548 .060180665 .33198548 .12408447V.12385559Z"/>
<path id="font_4_66" d="M.24699402 0V.0309906C.18099976 .0309906 .1769867 .035995485 .1769867 .075042728V.4423828L.036987306 .43066407V.3996582C.101989749 .3996582 .11099243 .3936615 .11099243 .3447113V.07595825C.11099243 .0309906 .099990848 .0309906 .032989503 .0309906V0L.14299011 .0029907227C.17799378 .0029907227 .21299744 .0009918213 .24699402 0M.19198609 .603775C.19198609 .6307678 .16899109 .6567688 .13899231 .6567688 .10499573 .6567688 .084991458 .6287689 .084991458 .603775 .084991458 .57676699 .10798645 .55078127 .13798523 .55078127 .17199707 .55078127 .19198609 .5787811 .19198609 .603775Z"/>
<path id="font_4_75" d="M.8129883 0V.0309906C.7609863 .0309906 .73599246 .0309906 .7350006 .061019899V.25221253C.7350006 .3383026 .7350006 .36932374 .70399478 .405365 .6899872 .42237855 .6569977 .4423828 .598999 .4423828 .5149994 .4423828 .47099305 .38233949 .45399476 .34429933 .43998719 .43138124 .3659973 .4423828 .32099916 .4423828 .24798584 .4423828 .20098877 .39935304 .17298889 .33729554V.4423828L.03199768 .43066407V.3996582C.101989749 .3996582 .10998535 .39266969 .10998535 .34370423V.07595825C.10998535 .0309906 .09899902 .0309906 .03199768 .0309906V0L.14498902 .0029907227 .25698854 0V.0309906C.18998719 .0309906 .1789856 .0309906 .1789856 .07595825V.25978089C.1789856 .36431886 .25 .42037965 .31399537 .42037965 .3769989 .42037965 .3880005 .36631776 .3880005 .30926515V.076034549C.3880005 .0309906 .3769989 .0309906 .30999757 .0309906V0L.4229889 .0029907227 .5349884 0V.0309906C.46798707 .0309906 .45700074 .0309906 .45700074 .076034549V.2602234C.45700074 .36431886 .5279999 .42037965 .59199526 .42037965 .6549988 .42037965 .66600039 .36631776 .66600039 .30926515V.076034549C.66600039 .0309906 .6549988 .0309906 .58799746 .0309906V0L.70098879 .0029907227 .8129883 0Z"/>
<path id="font_4_50" d="M.4149933 .11933899C.4149933 .12934876 .40699769 .13134766 .4019928 .13134766 .3929901 .13134766 .3909912 .12535095 .3889923 .11734009 .35398866 .014251709 .2639923 .014251709 .2539978 .014251709 .20399475 .014251709 .1639862 .044281007 .14099121 .08131409 .11099243 .12934876 .11099243 .19540406 .11099243 .23144531H.3899994C.4119873 .23144531 .4149933 .23144531 .4149933 .2524414 .4149933 .35131837 .36099244 .4482422 .23599243 .4482422 .11999512 .4482422 .027999878 .34532167 .027999878 .22042847 .027999878 .08631897 .1329956-.0107421879 .24798584-.0107421879 .36999513-.0107421879 .4149933 .10032654 .4149933 .11933899M.34899903 .2524414H.11199951C.117996219 .40126039 .20199585 .426239 .23599243 .426239 .33898927 .426239 .34899903 .2913971 .34899903 .2524414Z"/>
<path id="font_4_85" d="M.33099366-.2400055C.33099366-.23701477 .33099366-.23500061 .31399537-.21800232 .18899536-.0920105 .15699768 .09700012 .15699768 .25 .15699768 .42399598 .19499207 .59799197 .31799317 .72299197 .33099366 .7350006 .33099366 .7369995 .33099366 .73999026 .33099366 .746994 .32699586 .75 .32099916 .75 .31098939 .75 .22099304 .6819916 .1619873 .5549927 .11099243 .44499208 .09899902 .33399964 .09899902 .25 .09899902 .17199707 .10998535 .050994874 .16499329-.06201172 .22499085-.18501282 .31098939-.25 .32099916-.25 .32699586-.25 .33099366-.24700928 .33099366-.2400055Z"/>
<path id="font_4_98" d="M.3600006 .12823487C.3600006 .18122864 .32998658 .21122742 .31799317 .22323609 .2849884 .25523377 .24598694 .26322938 .20399475 .27124024 .147995 .28224183 .08099365 .29522706 .08099365 .35324098 .08099365 .38822938 .10699463 .42922975 .19299317 .42922975 .30299378 .42922975 .30799867 .3392334 .30999757 .30822755 .31098939 .2992401 .32199098 .2992401 .32199098 .2992401 .33499146 .2992401 .33499146 .30422975 .33499146 .32322694V.4242401C.33499146 .4412384 .33499146 .4482422 .32398988 .4482422 .31900025 .4482422 .31698609 .4482422 .3039856 .43623353 .30099488 .43223573 .29100038 .42323304 .2869873 .42022706 .24899292 .4482422 .20799256 .4482422 .19299317 .4482422 .070999149 .4482422 .032989503 .38124085 .032989503 .3252411 .032989503 .29023744 .04899597 .26223756 .07598877 .24023438 .10798645 .2142334 .13598633 .2082367 .20799256 .19422913 .22999573 .19021607 .31199647 .17422486 .31199647 .10221863 .31199647 .051223756 .2769928 .011245728 .19898987 .011245728 .114990238 .011245728 .07899475 .068222049 .05999756 .1532135 .056991579 .16621399 .055999757 .17021179 .04598999 .17021179 .032989503 .17021179 .032989503 .16322327 .032989503 .1452179V.013214111C.032989503-.003753662 .032989503-.0107421879 .04399109-.0107421879 .04899597-.0107421879 .049987794-.009750366 .068984989 .009246826 .070999149 .011245728 .070999149 .013214111 .08898926 .032226564 .1329956-.009750366 .17799378-.0107421879 .19898987-.0107421879 .31399537-.0107421879 .3600006 .05621338 .3600006 .1282196V.12823487Z"/>
<path id="font_4_86" d="M.2889862 .25C.2889862 .32798768 .27799989 .44898988 .22299195 .56199648 .16299439 .68499758 .07699585 .75 .066986087 .75 .06098938 .75 .056991579 .74598696 .056991579 .73999026 .056991579 .7369995 .056991579 .7350006 .07598877 .71699526 .17399597 .6179962 .23098755 .45899964 .23098755 .25 .23098755 .07899475 .19400025-.09700012 .069992069-.2230072 .056991579-.23500061 .056991579-.23701477 .056991579-.2400055 .056991579-.2460022 .06098938-.25 .066986087-.25 .07699585-.25 .16699219-.18200684 .22599793-.055007936 .2769928 .054992677 .2889862 .16600037 .2889862 .25Z"/>
<path id="font_4_84" d="M.5209961 .21636963C.5209961 .34336854 .42399598 .4423828 .31199647 .4423828 .23399353 .4423828 .19198609 .39837647 .17199707 .3763733V.4423828L.027999878 .43066407V.3996582C.09899902 .3996582 .10598755 .3936615 .10598755 .34973146V-.117996219C.10598755-.16308594 .09498596-.16308594 .027999878-.16308594V-.1940918L.13999939-.19110108 .25299073-.1940918V-.16308594C.18598938-.16308594 .1749878-.16308594 .1749878-.117996219V.050186159 .059173585C.17999268 .04319763 .22200012-.0107421879 .2979889-.0107421879 .4169922-.0107421879 .5209961 .087127689 .5209961 .21594239V.21636963M.43798829 .21594239C.43798829 .09512329 .36799623 .011245728 .2939911 .011245728 .2539978 .011245728 .21598816 .031219483 .18899536 .07215881 .1749878 .09312439 .1749878 .09411621 .1749878 .114089969V.33674623C.20399475 .38838197 .25299073 .41737367 .3039856 .41737367 .3769989 .41737367 .43798829 .32937623 .43798829 .21636963V.21594239Z"/>
<path id="font_4_81" d="M.47099305 .21424866C.47099305 .34223939 .37098695 .4482422 .25 .4482422 .125 .4482422 .027999878 .3392334 .027999878 .21424866 .027999878 .085250858 .13198853-.0107421879 .24899292-.0107421879 .36999513-.0107421879 .47099305 .087249759 .47099305 .21424866M.3880005 .22224427C.3880005 .18624878 .3880005 .13224793 .3659973 .08824158 .34399415 .04324341 .2999878 .014251709 .25 .014251709 .20698548 .014251709 .16299439 .035247804 .13598633 .08125305 .11099243 .12524414 .11099243 .18624878 .11099243 .22224427 .11099243 .26124574 .11099243 .31523133 .1349945 .35923768 .1619873 .40522767 .20899964 .426239 .24899292 .426239 .29299928 .426239 .33599855 .40423585 .3619995 .36123658 .3880005 .3182373 .3880005 .26023866 .3880005 .22224427Z"/>
<path id="font_4_77" d="M.5349884 0V.0309906C.48298646 .0309906 .45799256 .0309906 .45700074 .061019899V.25221253C.45700074 .3383026 .45700074 .36932374 .42599488 .405365 .4119873 .42237855 .3789978 .4423828 .32099916 .4423828 .24798584 .4423828 .20098877 .39935304 .17298889 .33729554V.4423828L.03199768 .43066407V.3996582C.101989749 .3996582 .10998535 .39266969 .10998535 .34370423V.07595825C.10998535 .0309906 .09899902 .0309906 .03199768 .0309906V0L.14498902 .0029907227 .25698854 0V.0309906C.18998719 .0309906 .1789856 .0309906 .1789856 .07595825V.25978089C.1789856 .36431886 .25 .42037965 .31399537 .42037965 .3769989 .42037965 .3880005 .36631776 .3880005 .30926515V.076034549C.3880005 .0309906 .3769989 .0309906 .30999757 .0309906V0L.4229889 .0029907227 .5349884 0Z"/>
<path id="font_4_28" d="M.48298646 .08912659V.14511109H.45799256V.08912659C.45799256 .03112793 .43299867 .025131226 .42199708 .025131226 .3889923 .025131226 .3849945 .070129398 .3849945 .07511902V.27508546C.3849945 .31707765 .3849945 .3560791 .34899903 .39312745 .30999757 .43223573 .2599945 .4482422 .21199036 .4482422 .12998963 .4482422 .06098938 .40115357 .06098938 .335083 .06098938 .30508424 .08099365 .28808595 .10699463 .28808595 .1349945 .28808595 .15299988 .30807496 .15299988 .33407594 .15299988 .3460846 .147995 .37908937 .101989749 .38008119 .1289978 .41519166 .17799378 .426239 .20999146 .426239 .25898744 .426239 .31599427 .38710023 .31599427 .29808045V.26107789C.2649994 .25808717 .19499207 .25508119 .13198853 .22509766 .056991579 .19110108 .03199768 .13911438 .03199768 .09512329 .03199768 .014251709 .1289978-.0107421879 .19198609-.0107421879 .2579956-.0107421879 .3039856 .029251099 .32299806 .07624817 .32699586 .036132814 .35398866-.005859375 .40098573-.005859375 .42199708-.005859375 .48298646 .008132935 .48298646 .08912659M.31599427 .14013672C.31599427 .04525757 .24398804 .011245728 .19898987 .011245728 .1499939 .011245728 .10899353 .04624939 .10899353 .09625244 .10899353 .15124512 .15098572 .23425293 .31599427 .24024964V.14013672Z"/>
<path id="font_4_72" d="M.25498963 0V.0309906C.18798828 .0309906 .1769867 .0309906 .1769867 .07601929V.69433596L.032989503 .6826172V.6516113C.102996829 .6516113 .11099243 .64460757 .11099243 .5956421V.07595825C.11099243 .0309906 .099990848 .0309906 .032989503 .0309906V0L.14399719 .0029907227 .25498963 0Z"/>
<path id="font_4_111" d="M.7299957 .6516113V.6826172C.69898989 .680603 .6589966 .6796112 .6329956 .6796112L.5189972 .6826172V.6516113C.57099917 .6506195 .59199526 .6246033 .59199526 .6016083 .59199526 .5936127 .58898928 .5876007 .58699038 .581604L.4039917 .09954834 .21299744 .60461428C.20698548 .61860659 .20698548 .62260439 .20698548 .62260439 .20698548 .6516113 .2639923 .6516113 .2889862 .6516113V.6826172C.25299073 .6796112 .18399048 .6796112 .1459961 .6796112L.018997193 .6826172V.6516113C.083999637 .6516113 .102996829 .6516113 .116989139 .6136017L.34899903-.00047302247C.35598756-.019470215 .36099244-.022460938 .37399293-.022460938 .3909912-.022460938 .3929901-.017471314 .397995-.0034637452L.62098696 .58461C.6349945 .62161257 .6619873 .6506195 .7299957 .6516113Z"/>
</defs>
<path transform="matrix(1,0,0,-1.00005,23.575005,166.53269)" stroke-width=".19925" stroke-linecap="butt" stroke-miterlimit="10" stroke-linejoin="miter" fill="none" stroke="#7f807f" d="M38.85474 24.773V29.02556M77.70947 24.773V29.02556M116.56421 24.773V29.02556M155.41895 24.773V29.02556M194.27368 24.773V29.02556"/>
<path transform="matrix(1,0,0,-1.00005,23.575005,166.53269)" stroke-width=".19925" stroke-linecap="butt" stroke-miterlimit="10" stroke-linejoin="miter" fill="none" stroke="#7f807f" d="M-2.12631 0H2.12631M-2.12631 53.79858H2.12631M-2.12631 80.69788H2.12631M-2.12631 107.59717H2.12631M-2.12631 134.49646H2.12631M-2.12631 161.39575H2.12631"/>
<path transform="matrix(1,0,0,-1.00005,23.575005,166.53269)" stroke-width=".3985" stroke-linecap="butt" stroke-miterlimit="10" stroke-linejoin="miter" fill="none" stroke="#000000" d="M0 26.89929H192.28116"/>
<path transform="matrix(1,0,0,-1.00005,215.85617,139.63205)" d="M1.99252 0-1.19551 1.59401 0 0-1.19551-1.59401"/>
<path transform="matrix(1,0,0,-1.00005,23.575005,166.53269)" stroke-width=".3985" stroke-linecap="butt" stroke-miterlimit="10" stroke-linejoin="miter" fill="none" stroke="#000000" d="M0 0V159.40323"/>
<path transform="matrix(0,-1.00005,-1,-0,23.575005,7.1214907)" d="M1.99252 0-1.19551 1.59401 0 0-1.19551-1.59401"/>
<use data-text="2" xlink:href="#font_1_3" transform="matrix(9.9626,0,0,-9.963098,57.448007,151.69895)"/>
<use data-text="0" xlink:href="#font_1_1" transform="matrix(9.9626,0,0,-9.963098,62.4293,151.69895)"/>
<use data-text="4" xlink:href="#font_1_4" transform="matrix(9.9626,0,0,-9.963098,96.303,151.69895)"/>
<use data-text="0" xlink:href="#font_1_1" transform="matrix(9.9626,0,0,-9.963098,101.284297,151.69895)"/>
<use data-text="6" xlink:href="#font_1_5" transform="matrix(9.9626,0,0,-9.963098,135.158,151.69895)"/>
<use data-text="0" xlink:href="#font_1_1" transform="matrix(9.9626,0,0,-9.963098,140.1393,151.69895)"/>
<use data-text="8" xlink:href="#font_1_6" transform="matrix(9.9626,0,0,-9.963098,174.013,151.69895)"/>
<use data-text="0" xlink:href="#font_1_1" transform="matrix(9.9626,0,0,-9.963098,178.9943,151.69895)"/>
<use data-text="1" xlink:href="#font_1_2" transform="matrix(9.9626,0,0,-9.963098,210.37702,151.69895)"/>
<use data-text="0" xlink:href="#font_1_1" transform="matrix(9.9626,0,0,-9.963098,215.3583,151.69895)"/>
<use data-text="0" xlink:href="#font_1_1" transform="matrix(9.9626,0,0,-9.963098,220.3396,151.69895)"/>
<use data-text="&#x2212;" xlink:href="#font_2_1" transform="matrix(9.9626,0,0,-9.963098,.2170105,169.32782)"/>
<use data-text="2" xlink:href="#font_1_3" transform="matrix(9.9626,0,0,-9.963098,7.9650118,169.32782)"/>
<use data-text="0" xlink:href="#font_1_1" transform="matrix(9.9626,0,0,-9.963098,12.946304,169.32782)"/>
<use data-text="2" xlink:href="#font_1_3" transform="matrix(9.9626,0,0,-9.963098,7.9660036,115.942157)"/>
<use data-text="0" xlink:href="#font_1_1" transform="matrix(9.9626,0,0,-9.963098,12.947296,115.942157)"/>
<use data-text="4" xlink:href="#font_1_4" transform="matrix(9.9626,0,0,-9.963098,7.9660036,89.04082)"/>
<use data-text="0" xlink:href="#font_1_1" transform="matrix(9.9626,0,0,-9.963098,12.947296,89.04082)"/>
<use data-text="6" xlink:href="#font_1_5" transform="matrix(9.9626,0,0,-9.963098,7.9660036,62.140474)"/>
<use data-text="0" xlink:href="#font_1_1" transform="matrix(9.9626,0,0,-9.963098,12.947296,62.140474)"/>
<use data-text="8" xlink:href="#font_1_6" transform="matrix(9.9626,0,0,-9.963098,7.9660036,35.240129)"/>
<use data-text="0" xlink:href="#font_1_1" transform="matrix(9.9626,0,0,-9.963098,12.947296,35.240129)"/>
<use data-text="1" xlink:href="#font_1_2" transform="matrix(9.9626,0,0,-9.963098,2.9850007,8.338776)"/>
<use data-text="0" xlink:href="#font_1_1" transform="matrix(9.9626,0,0,-9.963098,7.9662935,8.338776)"/>
<use data-text="0" xlink:href="#font_1_1" transform="matrix(9.9626,0,0,-9.963098,12.947586,8.338776)"/>
<g clip-path="url(#clip_3)">
<path transform="matrix(1,0,0,-1.00005,23.575005,166.53269)" stroke-width=".3985" stroke-linecap="butt" stroke-miterlimit="10" stroke-linejoin="miter" fill="none" stroke="#0000ff" d="M0 21.80241 .04855 21.87273 .09714 21.9431 .14569 22.01357 .19427 22.08408 .24283 22.15463 .29138 22.22527 .33997 22.29594 .38852 22.36668 .4371 22.43742 .48567 22.50826 .53423 22.5791 .58281 22.64998 .63136 22.72092 .67996 22.79187 .72852 22.86282 .77707 22.93382 .82565 23.00484 .8742 23.07587 .92279 23.1469 .97136 23.21794 1.01991 23.28902 1.0685 23.36008 1.11705 23.43114 1.16563 23.50221 1.21419 23.57326 1.26274 23.6443 1.31134 23.71535 1.3599 23.78638 1.4085 23.85739 1.45705 23.92838 1.5056 23.99933 1.55418 24.07027 1.60274 24.14119 1.65132 24.21207 1.69987 24.28291 1.74843 24.35373 1.79701 24.42451 1.84557 24.49524 1.89417 24.56593 1.94273 24.63657 1.99129 24.70715 2.03987 24.77771 2.08842 24.84822 2.13701 24.91866 2.18556 24.98903 2.23412 25.05934 2.2827 25.12962 2.33127 25.19981 2.37985 25.26994 2.4284 25.34 2.47696 25.40997 2.52554 25.47989 2.5741 25.54976 2.6227 25.6195 2.67125 25.68921 2.7198 25.75882 2.76839 25.82835 2.81696 25.89778 2.86554 25.96715 2.9141 26.03642 2.96265 26.1056 3.01123 26.17468 3.05978 26.2437 3.10837 26.31262 3.15692 26.38142 3.20547 26.45015 3.25409 26.51877 3.30264 26.5873 3.35123 26.65572 3.39978 26.72404 3.44833 26.79228 3.49692 26.86038 3.54547 26.9284 3.59406 26.99634 3.64261 27.06413 3.69116 27.13185 3.73976 27.19942 3.78831 27.26692 3.8369 27.33429 3.88547 27.40155 3.93402 27.46869 3.9826 27.53575 4.03116 27.60268 4.07974 27.66951 4.1283 27.7362 4.17686 27.8028 4.22545 27.8693 4.274 27.93565 4.32259 28.0019 4.37114 28.06805 4.4197 28.13408 4.46828 28.19998 4.51683 28.26578 4.56543 28.33147 4.61398 28.39703 4.66255 28.46248 4.71114 28.52783 4.75969 28.59305 4.80827 28.65814 4.85683 28.72314 4.90538 28.78802 4.95396 28.8528 5.00252 28.91743 5.0511 28.98198 5.09967 29.04643 5.14822 29.11075 5.19682 29.17494 5.24538 29.23906 5.29396 29.30304 5.34251 29.3669 5.39107 29.4307 5.43965 29.49435 5.4882 29.55788 5.53679 29.62135 5.58536 29.6847 5.63391 29.74792 5.6825 29.81107 5.73105 29.8741 5.77963 29.93704 5.8282 29.99988 5.87675 30.06262 5.92534 30.12524 5.97389 30.1878 6.02249 30.25026 6.07104 30.3126 6.1196 30.37486 6.16818 30.43706 6.21674 30.49913 6.26532 30.56114 6.31387 30.62306 6.36243 30.68486 6.41101 30.74661 6.45956 30.80829 6.50818 30.86987 6.55673 30.93138 6.60529 30.99283 6.65387 31.05418 6.70242 31.1155 6.751 31.17671 6.79956 31.23787 6.84811 31.29897 6.8967 31.35999 6.94527 31.42096 6.99385 31.48187 7.0424 31.54274 7.09096 31.60355 7.13956 31.6643 7.18811 31.72504 7.2367 31.78569 7.28525 31.84631 7.3338 31.90689 7.38239 31.96744 7.43095 32.02795 7.47954 32.08844 7.52809 32.1489 7.57664 32.20934 7.62523 32.26973 7.67378 32.33012 7.72237 32.39052 7.77094 32.4509 7.81949 32.51125 7.86809 32.5716 7.91664 32.63197 7.96523 32.69234 8.01378 32.7527 8.06233 32.81306 8.11092 32.87346 8.15947 32.9339 8.20805 32.99432 8.2566 33.05481 8.30516 33.11531 8.35376 33.17584 8.40231 33.23642 8.45091 33.29704 8.49947 33.35773 8.54802 33.41847 8.5966 33.47925 8.64516 33.54012 8.69374 33.60104 8.7423 33.66206 8.79086 33.72316 8.83945 33.78436 8.888 33.84564 8.93658 33.90701 8.98514 33.96852 9.03369 34.03014 9.08229 34.09187 9.13084 34.15375 9.17943 34.21574 9.22798 34.27788 9.27655 34.34016 9.32513 34.40265 9.37369 34.46527 9.42227 34.52806 9.47083 34.59105 9.51938 34.6542 9.56796 34.71759 9.61652 34.78117 9.6651 34.84499 9.71368 34.90904 9.76224 34.97333 9.81082 35.03786 9.85938 35.10266 9.90796 35.16776 9.95651 35.2331 10.00507 35.29877 10.05365 35.36476 10.1022 35.43106 10.15079 35.49771 10.19936 35.56471 10.24791 35.6321 10.2965 35.69983 10.34505 35.76797 10.39365 35.83656 10.4422 35.90555 10.49075 35.97502 10.53934 36.04494 10.58789 36.11534 10.63647 36.18628 10.68504 36.25772 10.7336 36.32973 10.78218 36.40231 10.83073 36.47548 10.87932 36.54927 10.92787 36.62373 10.97643 36.69888 11.02502 36.7747 11.07358 36.85124 11.12218 36.92857 11.17073 37.0067 11.21928 37.08566 11.26787 37.16547 11.31642 37.24617 11.365 37.32785 11.41356 37.41048 11.46211 37.49416 11.5107 37.57889 11.55925 37.66473 11.60785 37.75175 11.65642 37.83998 11.70497 37.92947 11.75356 38.02031 11.80211 38.11252 11.8507 38.2062 11.89925 38.30139 11.9478 38.3982 11.99638 38.49664 12.04495 38.59686 12.09354 38.69891 12.14209 38.80287 12.19064 38.90886 12.23923 39.01697 12.28778 39.12732 12.33638 39.23999 12.38493 39.35515 12.43349 39.4729 12.48207 39.59337 12.53064 39.71672 12.57922 39.8431 12.62778 39.97273 12.67633 40.10571 12.72491 40.24228 12.77347 40.38261 12.82205 40.527 12.8706 40.67561 12.91916 40.82872 12.96777 40.98663 13.01633 41.14963 13.06491 41.31801 13.11346 41.49217 13.16202 41.67247 13.2106 41.85933 13.25916 42.05318 13.30774 42.25453 13.3563 42.46388 13.40485 42.68184 13.45345 42.90903 13.502 43.14616 13.55058 43.39401 13.59915 43.6534 13.6477 43.92526 13.69629 44.21063 13.74484 44.51062 13.79343 44.82654 13.84198 45.15974 13.89055 45.51186 13.93913 45.88461 13.98769 46.27994 14.03627 46.70009 14.08482 47.14755 14.13338 47.62514 14.18196 48.13603 14.23051 48.68391 14.27911 49.27292 14.32767 49.90779 14.37624 50.59407 14.42482 51.33801 14.47337 52.14694 14.52196 53.02936 14.57051 53.99516 14.61906 55.05597 14.66765 56.22531 14.7162 57.5192 14.76479 58.95647 14.81335 60.55939 14.86191 62.3542 14.9105 64.3719 14.95906 66.64883 15.00764 69.22739 15.0562 72.15631 15.10475 75.49045 15.15334 79.28957 15.20189 83.6147 15.25047 88.52185 15.29904 94.0502 15.3476 100.2046 15.39618 106.93155 15.44473 114.09412 15.49332 121.45639 15.54189 128.69301 15.59044 135.43503 15.63902 141.34462 15.68758 146.18975 15.73618 149.88469 15.78473 152.48082 15.83328 154.12108 15.88187 154.98548 15.93042 155.24887 15.979 155.05878 16.02756 154.52904 16.07611 153.74314 16.1247 152.76067 16.17325 151.62393 16.22186 150.36345 16.27042 149.00173 16.31897 147.556 16.36755 146.03995 16.4161 144.46472 16.46469 142.83975 16.51324 141.17316 16.5618 139.47193 16.61038 137.74237 16.65895 135.99002 16.70753 134.21976 16.75609 132.43604 16.80464 130.64278 16.85324 128.84342 16.9018 127.04109 16.95038 125.23853 16.99893 123.43817 17.04749 121.6421 17.09607 119.85219 17.14464 118.06999 17.19322 116.2969 17.24178 114.53409 17.29033 112.78249 17.33891 111.04291 17.38747 109.31602 17.43605 107.6023 17.48462 105.90215 17.53317 104.21582 17.58177 102.54347 17.63033 100.8852 17.67891 99.24089 17.72746 97.61053 17.77602 95.99385 17.8246 94.39064 17.87315 92.8005 17.92174 91.223 17.97029 89.65767 18.01884 88.10385 18.06744 86.56087 18.116 85.02791 18.1646 83.50407 18.21315 81.98828 18.2617 80.47935 18.31029 78.97598 18.35884 77.47665 18.40742 75.97968 18.45598 74.48317 18.50455 72.98505 18.55313 71.48299 18.60168 69.97449 18.65027 68.45673 18.69882 66.92664 18.74738 65.381 18.79597 63.81625 18.84453 62.22865 18.89311 60.61429 18.94167 58.9691 18.99023 57.28894 19.03882 55.56975 19.08737 53.80766 19.13596 51.99919 19.18451 50.14154 19.23306 48.23291 19.28165 46.27287 19.3302 44.26292 19.37878 42.20699 19.42737 40.11195 19.47592 37.98827 19.5245 35.85019 19.57306 33.71613 19.62164 31.60808 19.6702 29.55113 19.71875 27.57182 19.76733 25.69652 19.81589 23.94908 19.86447 22.34894 19.91304 20.9094 19.9616 19.63666 20.01018 18.53017 20.05873 17.58313 20.10733 16.78418 20.15588 16.11879 20.20444 15.57104 20.25302 15.1248 20.30157 14.7647 20.35017 14.47665 20.39873 14.24835 20.44728 14.06906 20.49586 13.92982 20.54442 13.82307 20.593 13.74272 20.64156 13.68364 20.69011 13.64185 20.73871 13.61395 20.78726 13.59735 20.83586 13.58987 20.88441 13.58984 20.93297 13.59586 20.98155 13.60681 21.0301 13.62186 21.07869 13.64024 21.12724 13.6614 21.1758 13.68488 21.22438 13.71031 21.27295 13.7374 21.32153 13.76587 21.3701 13.79556 21.41866 13.82628 21.46724 13.85794 21.5158 13.8904 21.56438 13.92357 21.61293 13.9574 21.66148 13.99184 21.71007 14.02681 21.75864 14.06229 21.80722 14.09825 21.85577 14.13466 21.90433 14.1715 21.95291 14.20872 22.00146 14.24635 22.05006 14.28438 22.09862 14.32277 22.14717 14.36153 22.19576 14.40063 22.24432 14.4401 22.29291 14.4799 22.34146 14.52003 22.39001 14.56052 22.4386 14.60133 22.48715 14.6425 22.53574 14.68398 22.58429 14.72578 22.63284 14.76794 22.68146 14.8104 22.73001 14.8532 22.7786 14.8963 22.82715 14.93974 22.8757 14.9835 22.92429 15.02759 22.97284 15.07198 23.02142 15.11671 23.06998 15.16176 23.11853 15.20712 23.16713 15.2528 23.21568 15.29881 23.26427 15.34512 23.31284 15.39178 23.36139 15.43874 23.40997 15.48602 23.45853 15.53362 23.50711 15.58151 23.55566 15.62975 23.60423 15.67828 23.65282 15.72714 23.70137 15.77629 23.74995 15.82578 23.79851 15.87555 23.84706 15.92567 23.89565 15.97607 23.9442 16.02678 23.9928 16.07784 24.04135 16.12915 24.08992 16.18082 24.1385 16.23276 24.18706 16.285 24.23564 16.33754 24.2842 16.3904 24.33275 16.44356 24.38133 16.49702 24.42989 16.55077 24.47847 16.60483 24.52704 16.65916 24.57559 16.7138 24.62419 16.76875 24.67274 16.82396 24.72133 16.87947 24.76988 16.93526 24.81844 16.99135 24.86702 17.04771 24.91557 17.10435 24.96416 17.16129 25.01273 17.2185 25.06128 17.27599 25.10986 17.33376 25.15842 17.3918 25.207 17.45012 25.25557 17.5087 25.30412 17.56754 25.3527 17.62665 25.40126 17.68604 25.44986 17.74565 25.49841 17.80556 25.54697 17.8657 25.59555 17.9261 25.6441 17.98677 25.69269 18.04765 25.74124 18.10881 25.7898 18.17021 25.83838 18.23184 25.88693 18.29373 25.93555 18.35585 25.9841 18.4182 26.03265 18.48079 26.08124 18.5436 26.12979 18.60664 26.17838 18.6699 26.22693 18.73337 26.27548 18.79709 26.32407 18.861 26.37263 18.92513 26.42122 18.98947 26.46977 19.054 26.51833 19.11876 26.56693 19.1837 26.61548 19.24887 26.66406 19.31421 26.71262 19.37973 26.76117 19.44547 26.80975 19.51137 26.85832 19.57748 26.9069 19.64375 26.95546 19.71019 27.00401 19.77681 27.0526 19.84361 27.10115 19.91057 27.14973 19.97769 27.1983 20.04497 27.24686 20.11241 27.29546 20.18001 27.34401 20.24777 27.3926 20.31564 27.44115 20.38368 27.4897 20.45186 27.53828 20.52017 27.58684 20.58864 27.63542 20.6572 27.68398 20.7259 27.73253 20.79475 27.78113 20.86371 27.82968 20.93279 27.87828 21.00197 27.92683 21.07124 27.97539 21.14066 28.02397 21.21016 28.07253 21.27975 28.12111 21.34947 28.16966 21.41925 28.21823 21.48915 28.26682 21.5591 28.31537 21.62917 28.36395 21.6993 28.4125 21.76953 28.46106 21.8398 28.50966 21.91016 28.55821 21.98058 28.6068 22.05106 28.65535 22.12161 28.70392 22.1922 28.7525 22.26286 28.80106 22.33357 28.84964 22.4043 28.8982 22.47511 28.94675 22.54594 28.99533 22.61682 29.04388 22.6877 29.09247 22.75865 29.14105 22.82962 29.1896 22.90059 29.23819 22.97159 29.28674 23.04262 29.33533 23.11365 29.38388 23.1847 29.43243 23.25577 29.48102 23.32681 29.52957 23.39789 29.57816 23.46896 29.62672 23.54001 29.67528 23.61105 29.72386 23.6821 29.77242 23.75313 29.82101 23.82417 29.86957 23.89514 29.91812 23.96611 29.9667 24.0371 30.01526 24.108 30.06386 24.1789 30.11241 24.24976 30.16096 24.3206 30.20955 24.39139 30.2581 24.46214 30.30669 24.53284 30.35524 24.60353 30.4038 24.67415 30.4524 24.74472 30.50095 24.81523 30.54955 24.8857 30.5981 24.9561 30.64665 25.02644 30.69524 25.09674 30.74379 25.16698 30.79237 25.23714 30.84093 25.30722 30.88948 25.37724 30.93806 25.44719 30.98663 25.51706 31.03522 25.58688 31.08379 25.6566 31.13234 25.72626 31.18092 25.79582 31.22948 25.8653 31.27806 25.93471 31.32661 26.004 31.37517 26.07324 31.42375 26.14238 31.47232 26.21143 31.5209 26.28038 31.56946 26.34923 31.61801 26.418 31.6666 26.48668 31.71515 26.55524 31.76375 26.62372 31.8123 26.69208 31.86086 26.76036 31.90944 26.82854 31.95801 26.89659 32.00659 26.96457 32.05515 27.03241 32.1037 27.10017 32.15228 27.16782 32.20084 27.23534 32.24942 27.30278 32.29797 27.37009 32.34653 27.4373 32.39514 27.50438 32.4437 27.57137 32.49228 27.63826 32.54083 27.705 32.58939 27.77165 32.63797 27.8382 32.68652 27.90462 32.7351 27.97092 32.78366 28.03711 32.83221 28.1032 32.88081 28.16916 32.92937 28.235 32.97795 28.30074 33.02652 28.36635 33.07507 28.43185 33.12366 28.49727 33.17221 28.56253 33.2208 28.6277 33.26935 28.69273 33.31792 28.75768 33.3665 28.82251 33.41505 28.88722 33.46364 28.9518 33.51219 29.01628 33.56075 29.08066 33.60933 29.14493 33.65788 29.20908 33.70648 29.2731 33.75504 29.33704 33.8036 29.40085 33.85219 29.46457 33.90074 29.52818 33.94933 29.59166 33.99788 29.65508 34.04643 29.71835 34.09502 29.78156 34.14357 29.84462 34.19215 29.90762 34.24072 29.97049 34.28928 30.03328 34.33788 30.09595 34.38643 30.15854 34.43501 30.22104 34.48357 30.28345 34.53212 30.34575 34.5807 30.40794 34.62926 30.4701 34.67784 30.53214 34.72641 30.59407 34.77496 30.65594 34.82355 30.71773 34.8721 30.77943 34.92068 30.84106 34.96925 30.9026 35.0178 30.9641 35.06639 31.02548 35.11494 31.08679 35.16354 31.14806 35.2121 31.20926 35.26065 31.27037 35.30923 31.33145 35.35779 31.39244 35.40637 31.45338 35.45493 31.51425 35.50348 31.57509 35.55206 31.63586 35.60062 31.69662 35.64923 31.75731 35.69778 31.81796 35.74634 31.87856 35.79492 31.93912 35.84348 31.99963 35.89206 32.06015 35.94061 32.12062 35.98917 32.18106 36.03775 32.24147 36.08632 32.30186 36.1349 32.36227 36.18346 32.42265 36.23201 32.483 36.28061 32.54337 36.32916 32.60371 36.37775 32.66408 36.4263 32.72446 36.47485 32.78484 36.52344 32.8452 36.572 32.90561 36.62059 32.96605 36.66914 33.0265 36.7177 33.08699 36.76628 33.1475 36.81483 33.20805 36.86342 33.26868 36.91199 33.32932 36.96054 33.39003 37.00914 33.45079 37.0577 33.51161 37.10628 33.57253 37.15483 33.6335 37.20338 33.69456 37.25197 33.7557 37.30052 33.81694 37.3491 33.87828 37.39766 33.93973 37.44621 34.0013 37.49481 34.06297 37.54337 34.12477 37.59196 34.1867 37.64052 34.2488 37.68907 34.311 37.73766 34.37338 37.78621 34.43593 37.8348 34.49864 37.88335 34.56155 37.93192 34.62462 37.9805 34.68791 38.02905 34.75139 38.07764 34.81511 38.12619 34.87903 38.17474 34.9432 38.22334 35.00763 38.2719 35.07231 38.32048 35.13725 38.36903 35.20248 38.4176 35.26802 38.46619 35.33386 38.51474 35.40001 38.56332 35.46649 38.61188 35.53331 38.66043 35.60051 38.70901 35.66809 38.75757 35.73602 38.80615 35.80443 38.85474 35.87321 38.90329 35.94246 38.95187 36.01215 39.00043 36.08234 39.04901 36.153 39.09756 36.22423 39.14612 36.29597 39.1947 36.36827 39.24326 36.44118 39.29184 36.51468 39.34041 36.5888 39.38896 36.66364 39.43755 36.73912 39.4861 36.81534 39.5347 36.89229 39.58325 36.97005 39.6318 37.04861 39.68039 37.128 39.72894 37.2083 39.77754 37.28954 39.8261 37.3717 39.87465 37.45486 39.92323 37.53911 39.97179 37.62442 40.02037 37.71088 40.06892 37.79852 40.11748 37.88742 40.16608 37.97762 40.21463 38.0692 40.26323 38.16219 40.31178 38.25665 40.36034 38.35269 40.40892 38.45036 40.45747 38.54973 40.50606 38.65091 40.55461 38.75397 40.60316 38.85901 40.65175 38.96611 40.70032 39.0754 40.7489 39.18695 40.79747 39.30093 40.84602 39.41747 40.8946 39.53665 40.94316 39.65863 40.99174 39.78358 41.0403 39.91165 41.08885 40.04303 41.13744 40.1779 41.186 40.31647 41.23459 40.45892 41.28314 40.60551 41.3317 40.7565 41.38028 40.91212 41.42883 41.0727 41.47743 41.23853 41.52599 41.40994 41.57454 41.58731 41.62314 41.77104 41.67169 41.96156 41.72028 42.15933 41.76883 42.36487 41.81738 42.57874 41.86597 42.80153 41.91452 43.03394 41.9631 43.27666 42.01166 43.53053 42.06021 43.79642 42.10883 44.07532 42.15738 44.36835 42.20596 44.67664 42.25452 45.00159 42.30307 45.34464 42.35165 45.70747 42.4002 46.092 42.44879 46.50024 42.49734 46.93459 42.54591 47.39769 42.5945 47.89258 42.64305 48.42267 42.69164 48.99188 42.7402 49.60468 42.78876 50.26616 42.83734 50.98225 42.8859 51.7598 42.93448 52.60667 42.98303 53.53215 43.0316 54.54692 43.08018 55.66364 43.12874 56.89708 43.17732 58.26472 43.22588 59.78711 43.27443 61.48859 43.32301 63.39781 43.37157 65.54852 43.42017 67.98022 43.46872 70.73874 43.51729 73.87607 43.56587 77.44997 43.61443 81.52145 43.66301 86.15 43.71156 91.38448 43.76012 97.24841 43.8087 103.71886 43.85725 110.70076 43.90584 118.00526 43.9544 125.34546 44.00296 132.36483 44.05156 138.70073 44.10011 144.06394 44.1487 148.2983 44.19725 151.39511 44.2458 153.46134 44.29439 154.66597 44.34294 155.19029 44.39153 155.19617 44.4401 154.81327 44.48865 154.13852 44.53723 153.24188 44.58578 152.17293 44.63437 150.96712 44.68294 149.65035 44.73149 148.24205 44.78008 146.75739 44.82863 145.20859 44.87723 143.60584 44.92578 141.95777 44.97433 140.27191 45.02292 138.5549 45.07147 136.81255 45.12006 135.05011 45.16861 133.27216 45.21716 131.4829 45.26575 129.68598 45.3143 127.88469 45.36292 126.08192 45.41147 124.28026 45.46002 122.48192 45.5086 120.6889 45.55716 118.90294 45.60574 117.12541 45.6543 115.35767 45.70285 113.6007 45.75143 111.85542 45.8 110.12251 45.84859 108.40257 45.89714 106.69603 45.9457 105.0032 45.9943 103.3243 46.04285 101.65944 46.09143 100.00859 46.13998 98.37175 46.18854 96.7487 46.23712 95.13922 46.28569 93.543 46.33427 91.95966 46.38283 90.3887 46.43138 88.82956 46.47997 87.28162 46.52852 85.7441 46.5771 84.21608 46.62567 82.69667 46.67422 81.1847 46.72282 79.6789 46.77138 78.17789 46.81996 76.68002 46.86852 75.18353 46.91707 73.68645 46.96565 72.18655 47.0142 70.6814 47.06279 69.1683 47.11134 67.6444 47.1599 66.10646 47.2085 64.5511 47.25705 62.97466 47.30565 61.37332 47.3542 59.74309 47.40276 58.07979 47.45134 56.37936 47.4999 54.63782 47.54848 52.85146 47.59703 51.01712 47.6456 49.13248 47.69418 47.19644 47.74274 45.20952 47.79132 43.17444 47.83987 41.09662 47.88843 38.98482 47.93703 36.85143 47.98558 34.71297 48.03416 32.58978 48.08272 30.50566 48.13129 28.48668 48.17987 26.55952 48.22842 24.74953 48.27701 23.07841 48.32556 21.56248 48.37411 20.21135 48.4227 19.02757 48.47125 18.00708 48.51984 17.14049 48.56842 16.41452 48.61697 15.81375 48.66556 15.32199 48.71411 14.92342 48.7627 14.6033 48.81125 14.34846 48.8598 14.14746 48.90839 13.99051 48.95694 13.8694 49.00552 13.77737 49.0541 13.70891 49.10265 13.6595 49.15123 13.62544 49.19978 13.60387 49.24838 13.59235 49.29694 13.58902 49.34549 13.59238 49.39407 13.60112 49.44263 13.61436 49.49123 13.63126 49.53978 13.65118 49.58833 13.67365 49.63692 13.69821 49.68547 13.72453 49.73405 13.75238 49.78261 13.78152 49.83116 13.8118 49.87976 13.84302 49.92831 13.8751 49.97691 13.90796 50.02547 13.9415 50.07402 13.97565 50.1226 14.01036 50.17116 14.04564 50.21974 14.08136 50.2683 14.11755 50.31685 14.15419 50.36543 14.19125 50.414 14.22871 50.46259 14.26653 50.51115 14.30476 50.55971 14.34335 50.60829 14.38228 50.65685 14.42157 50.70543 14.46123 50.75398 14.5012 50.80254 14.54153 50.85112 14.5822 50.89969 14.62318 50.94827 14.66452 50.99683 14.70619 51.04538 14.74817 51.09396 14.79047 51.14252 14.83311 51.19112 14.87608 51.23967 14.91937 51.28822 14.96298 51.33682 15.00693 51.38538 15.05116 51.43396 15.09573 51.48251 15.14064 51.53107 15.18585 51.57965 15.2314 51.6282 15.27725 51.67679 15.32343 51.72534 15.36992 51.7739 15.41673 51.82251 15.46385 51.87106 15.5113 51.91965 15.55907 51.9682 15.60715 52.01675 15.65553 52.06534 15.70422 52.11389 15.75323 52.16248 15.80258 52.21103 15.85222 52.2596 15.90218 52.30818 15.95247 52.35674 16.00302 52.40532 16.05391 52.45389 16.1051 52.50244 16.1566 52.55103 16.20839 52.59958 16.2605 52.64816 16.31291 52.69672 16.36563 52.74529 16.41864 52.79387 16.47195 52.84242 16.52556 52.891 16.57948 52.93956 16.63371 52.98811 16.68819 53.0367 16.74298 53.08525 16.79808 53.13385 16.85345 53.1824 16.9091 53.23097 16.96509 53.27956 17.02132 53.32811 17.07784 53.3767 17.13464 53.42525 17.19171 53.4738 17.24907 53.52238 17.3067 53.57094 17.36462 53.61952 17.42279 53.66809 17.48125 53.71664 17.53998 53.76524 17.59895 53.8138 17.6582 53.86238 17.71771 53.91093 17.77751 53.95949 17.83754 54.00807 17.89781 54.05663 17.95834 54.10521 18.01913 54.15378 18.08017 54.20233 18.14145 54.25092 18.20297 54.29947 18.26474 54.34805 18.32675 54.39662 18.38899 54.44518 18.45148 54.49376 18.51418 54.54231 18.5771 54.59091 18.64027 54.63947 18.70364 54.68802 18.76724 54.7366 18.83107 54.78516 18.8951 54.83374 18.95934 54.8823 19.02377 54.93085 19.08846 54.97943 19.1533 55.02798 19.21835 55.0766 19.28362 55.12515 19.34904 55.1737 19.41469 55.22229 19.4805 55.27084 19.54652 55.31943 19.61272 55.36798 19.67908 55.41653 19.74562 55.46512 19.81233 55.51369 19.87923 55.56227 19.94626 55.61082 20.01347 55.65938 20.08083 55.70798 20.14835 55.75653 20.21603 55.80511 20.28386 55.85367 20.35182 55.90222 20.41994 55.9508 20.4882 55.99937 20.55658 56.04796 20.6251 56.09651 20.69376 56.14507 20.76253 56.19365 20.83142 56.2422 20.90044 56.29079 20.96956 56.33936 21.0388 56.38791 21.10817 56.43651 21.17761 56.48506 21.24718 56.53365 21.31685 56.5822 21.38658 56.63075 21.45644 56.67934 21.52635 56.72789 21.59637 56.77647 21.66649 56.82503 21.73665 56.87358 21.8069 56.92218 21.87724 56.97073 21.94762 57.01933 22.01808 57.06789 22.0886 57.11644 22.15916 57.16502 22.22978 57.21358 22.30046 57.26216 22.37122 57.31071 22.44197 57.35928 22.51279 57.40787 22.58363 57.45642 22.65454 57.505 22.72545 57.55356 22.79639 57.60211 22.86739 57.65071 22.93837 57.69926 23.00937 57.74785 23.08041 57.7964 23.15144 57.84497 23.2225 57.89355 23.29358 57.94211 23.36464 57.99069 23.4357 58.03925 23.50676 58.0878 23.5778 58.13638 23.64886 58.18494 23.71991 58.23352 23.79092 58.2821 23.86192 58.33066 23.9329 58.37924 24.00388 58.4278 24.07481 58.47638 24.14574 58.52493 24.21661 58.57349 24.28746 58.62207 24.35826 58.67062 24.42905 58.71921 24.49976 58.76778 24.57047 58.81633 24.64111 58.86491 24.7117 58.91347 24.78223 58.96207 24.85274 59.01062 24.92317 59.05917 24.99353 59.10776 25.06386 59.15631 25.13411 59.20491 25.2043 59.25346 25.27441 59.30202 25.34448 59.3506 25.41447 59.39915 25.48439 59.44774 25.55423 59.49629 25.624 59.54485 25.69366 59.59344 25.76328 59.642 25.83281 59.6906 25.90224 59.73915 25.9716 59.7877 26.04086 59.83629 26.11005 59.88484 26.17912 59.93343 26.24812 59.98198 26.31703 60.03053 26.38583 60.07912 26.45454 60.12769 26.52316 60.17627 26.59169 60.22484 26.66011 60.27339 26.72842 60.32198 26.79665 60.37053 26.86476 60.41911 26.93277 60.46767 27.00069 60.51622 27.06847 60.5648 27.13617 60.61337 27.20375 60.66196 27.27122 60.71051 27.33861 60.75906 27.40585 60.80765 27.473 60.8562 27.54004 60.9048 27.60698 60.95335 27.67378 61.0019 27.74048 61.0505 27.80707 61.09906 27.87355 61.14764 27.93991 61.1962 28.00615 61.24475 28.07228 61.29333 28.1383 61.34189 28.20421 61.39047 28.27 61.43903 28.33568 61.48758 28.40123 61.5362 28.46667 61.58475 28.53201 61.63333 28.59721 61.68188 28.66234 61.73044 28.72731 61.77902 28.79218 61.82758 28.85693 61.87616 28.92159 61.92471 28.98613 61.97328 29.05055 62.02187 29.11487 62.07042 29.17906 62.119 29.24316 62.16757 29.30713 62.21613 29.371 62.26471 29.43478 62.31326 29.49841 62.36185 29.56197 62.4104 29.62541 62.45897 29.68874 62.50755 29.752 62.5561 29.81511 62.60469 29.87814 62.65324 29.94107 62.7018 30.0039 62.75038 30.06665 62.79893 30.12926 62.84753 30.1918 62.89609 30.25424 62.94466 30.31662 62.99324 30.37885 63.0418 30.44104 63.09038 30.50311 63.13893 30.5651 63.18748 30.62701 63.23607 30.68881 63.28462 30.75056 63.3332 30.81223 63.38177 30.87381 63.43033 30.93532 63.47893 30.99677 63.52748 31.05812 63.57607 31.11942 63.62462 31.18063 63.67317 31.24179 63.72176 31.30287 63.77031 31.36389 63.8189 31.42487 63.86746 31.48578 63.91602 31.54665 63.9646 31.60745 64.01315 31.66821 64.06174 31.72891 64.1103 31.78957 64.15886 31.85019 64.20744 31.91078 64.256 31.97131 64.3046 32.03185 64.35315 32.09233 64.4017 32.15279 64.45029 32.2132 64.49884 32.2736 64.54742 32.33401 64.59598 32.3944 64.64453 32.45477 64.69312 32.51512 64.74167 32.57547 64.79028 32.63585 64.83884 32.6962 64.88739 32.75658 64.93597 32.81694 64.98453 32.87733 65.03311 32.93777 65.08167 32.9982 65.13022 33.05869 65.1788 33.11919 65.22737 33.17972 65.27596 33.24031 65.32451 33.30093 65.37306 33.36162 65.42166 33.42235 65.47021 33.48315 65.5188 33.54402 65.56735 33.60495 65.6159 33.66599 65.66449 33.72708 65.71306 33.78827 65.76164 33.84958 65.8102 33.91096 65.85875 33.97247 65.90733 34.0341 65.95589 34.09583 66.00447 34.15771 66.05304 34.21973 66.1016 34.28186 66.15019 34.34418 66.19875 34.40665 66.24733 34.46928 66.29588 34.53207 66.34444 34.5951 66.39302 34.65826 66.44157 34.72166 66.49016 34.78526 66.53871 34.84909 66.58727 34.91315 66.63586 34.97746 66.68442 35.04199 66.73302 35.10683 66.78157 35.17192 66.83012 35.2373 66.87871 35.30301 66.92726 35.369 66.97585 35.43532 67.0244 35.502 67.07297 35.56902 67.12155 35.63643 67.1701 35.70418 67.21869 35.77235 67.26724 35.84097 67.3158 35.90999 67.3644 35.97948 67.41295 36.04944 67.46153 36.11986 67.51009 36.19084 67.55865 36.26231 67.60724 36.33437 67.65579 36.40698 67.70438 36.4802 67.75293 36.55405 67.80148 36.62854 67.85007 36.7037 67.89862 36.77959 67.9472 36.8562 67.99579 36.93356 68.04434 37.01173 68.09293 37.09076 68.14148 37.17062 68.19006 37.25139 68.23862 37.33311 68.28717 37.41582 68.33575 37.49954 68.38431 37.58437 68.43289 37.67029 68.48146 37.75735 68.53001 37.84567 68.5786 37.93526 68.62715 38.02618 68.67575 38.1185 68.7243 38.21227 68.77286 38.30756 68.82144 38.40446 68.87 38.50304 68.9186 38.60333 68.96715 38.7055 69.0157 38.80962 69.06429 38.91574 69.11284 39.02397 69.16142 39.13446 69.20998 39.24728 69.25853 39.36261 69.30713 39.48053 69.35568 39.6012 69.40428 39.72473 69.45284 39.8513 69.50139 39.98114 69.54997 40.11435 69.59853 40.25116 69.64711 40.39175 69.69566 40.53638 69.74422 40.68529 69.7928 40.8387 69.84137 40.99692 69.88995 41.16025 69.93852 41.32901 69.98708 41.50354 70.03566 41.68425 70.08421 41.87154 70.1328 42.06586 70.18135 42.26768 70.2299 42.47758 70.27849 42.6961 70.32706 42.92393 70.37564 43.16173 70.4242 43.41028 70.47275 43.67043 70.52133 43.94313 70.56989 44.22939 70.61848 44.53038 70.66704 44.84737 70.71559 45.18173 70.76419 45.53511 70.81274 45.90924 70.86133 46.3061 70.90988 46.72792 70.95844 47.17722 71.00702 47.65683 71.05557 48.17 71.10416 48.72038 71.15271 49.31218 71.20126 49.95018 71.24988 50.63994 71.29843 51.38783 71.34702 52.2012 71.39557 53.08865 71.44412 54.0602 71.4927 55.1275 71.54126 56.3043 71.58984 57.6068 71.6384 59.05397 71.68697 60.66837 71.73555 62.47647 71.7841 64.50963 71.83269 66.80455 71.88126 69.40404 71.92981 72.35721 71.9784 75.71935 72.02695 79.55032 72.07553 83.91121 72.12408 88.85722 72.17265 94.42607 72.22124 100.61954 72.26979 107.37949 72.31837 114.56302 72.36693 121.92778 72.41548 129.14385 72.46407 135.84186 72.51262 141.68874 72.56122 146.46112 72.60979 150.08286 72.65834 152.61278 72.70692 154.1978 72.75548 155.01863 72.80406 155.24892 72.85262 155.03397 72.90117 154.4856 72.94975 153.68555 72.9983 152.69205 73.04689 151.54659 73.09546 150.27899 73.14401 148.91143 73.19261 147.46083 73.24117 145.94066 73.28975 144.36199 73.3383 142.7341 73.38686 141.06508 73.43544 139.36186 73.484 137.6307 73.53258 135.87705 73.58115 134.10582 73.6297 132.32137 73.67828 130.5276 73.72684 128.72795 73.77542 126.92554 73.82399 125.12306 73.87254 123.3229 73.92113 121.52719 73.96968 119.7377 74.01828 117.95607 74.06683 116.18362 74.11539 114.42146 74.16397 112.67062 74.21252 110.93184 74.26111 109.2058 74.30966 107.49292 74.35822 105.79366 74.4068 104.10822 74.45535 102.4368 74.50397 100.77937 74.55252 99.136 74.60107 97.50652 74.64966 95.89072 74.69821 94.28833 74.7468 92.69902 74.79535 91.12233 74.8439 89.55775 74.89249 88.00464 74.94106 86.46234 74.98964 84.93 75.0382 83.4067 75.08675 81.89137 75.13535 80.38286 75.1839 78.87979 75.23248 77.38066 75.28104 75.88377 75.32959 74.38722 75.37817 72.88893 75.42674 71.38657 75.47533 69.87755 75.52388 68.35907 75.57243 66.82811 75.62102 65.28133 75.66957 63.71524 75.71815 62.12604 75.76672 60.50983 75.81528 58.8625 75.86388 57.17996 75.91243 55.45815 75.96101 53.69318 76.00957 51.88164 76.05812 50.02077 76.1067 48.10883 76.15526 46.14554 76.20384 44.13248 76.2524 42.0738 76.30095 39.9766 76.34955 37.85149 76.3981 35.7131 76.4467 33.57999 76.49525 31.47447 76.54381 29.42166 76.59239 27.44826 76.64095 25.58046 76.68953 23.84193 76.73808 22.25177 76.78665 20.82278 76.83524 19.5608 76.88379 18.4648 76.93237 17.52765 76.98093 16.73769 77.02948 16.08032 77.07808 15.53957 77.12663 15.0993 77.17522 14.7442 77.22377 14.46037 77.27234 14.23547 77.32092 14.05902 77.36948 13.92206 77.41806 13.81721 77.46661 13.73834 77.51517 13.68051 77.56375 13.63966 77.6123 13.61258 77.66089 13.59662 77.70947 13.58968 77.75803 13.59004 77.80661 13.59644 77.85516 13.60768 77.90375 13.62294 77.9523 13.64153 78.00085 13.66284 78.04944 13.68646 78.09799 13.712 78.14658 13.7392 78.19514 13.76773 78.2437 13.79749 78.29228 13.8283 78.34084 13.86 78.38943 13.8925 78.43799 13.92572 78.48654 13.9596 78.53513 13.99405 78.58368 14.02907 78.63228 14.06458 78.68083 14.10057 78.72939 14.137 78.77797 14.17384 78.82652 14.21112 78.8751 14.24878 78.92366 14.28682 78.97221 14.32524 79.02081 14.36401 79.06937 14.40315 79.11797 14.44263 79.16652 14.48245 79.21507 14.52263 79.26366 14.56313 79.31221 14.60396 79.3608 14.64516 79.40935 14.68666 79.4579 14.72847 79.50648 14.77065 79.55505 14.81314 79.60364 14.85594 79.6522 14.89908 79.70076 14.94255 79.74934 14.98631 79.7979 15.03041 79.84648 15.07484 79.89503 15.1196 79.94359 15.16466 79.99217 15.21005 80.04074 15.25575 80.08932 15.30177 80.13788 15.34813 80.18643 15.39478 80.23502 15.44176 80.28357 15.48906 80.33217 15.53667 80.38072 15.58461 80.42928 15.63284 80.47787 15.6814 80.52643 15.73029 80.57501 15.77945 80.62357 15.82895 80.67212 15.87877 80.7207 15.9289 80.76926 15.97932 80.81784 16.03006 80.8664 16.08112 80.91495 16.13245 80.96356 16.18411 81.01212 16.23608 81.0607 16.28835 81.10925 16.34093 81.1578 16.39378 81.20639 16.44698 81.25494 16.50044 81.30353 16.55421 81.35208 16.60829 81.40065 16.66266 81.44923 16.7173 81.49779 16.77228 81.54637 16.8275 81.59494 16.88304 81.6435 16.93886 81.69208 16.99495 81.74063 17.05133 81.78922 17.10803 81.83777 17.16498 81.88634 17.2222 81.93492 17.27968 81.98347 17.33748 82.03206 17.39554 82.08061 17.45387 82.12917 17.51245 82.17775 17.57132 82.2263 17.63045 82.2749 17.68983 82.32347 17.74948 82.37202 17.8094 82.42061 17.86957 82.46916 17.92998 82.51775 17.99065 82.5663 18.05157 82.61485 18.11273 82.66344 18.17416 82.71199 18.23581 82.76057 18.29771 82.80914 18.35985 82.8577 18.42221 82.9063 18.4848 82.95485 18.54764 83.00343 18.61069 83.05199 18.67395 83.10054 18.73746 83.14912 18.80118 83.19768 18.8651 83.24628 18.92926 83.29483 18.99359 83.34338 19.05815 83.39197 19.12292 83.44052 19.18787 83.4891 19.25304 83.53767 19.31839 83.58623 19.38394 83.63481 19.44968 83.68336 19.5156 83.73196 19.58171 83.78052 19.64798 83.82907 19.71446 83.87766 19.78108 83.92621 19.8479 83.9748 19.91486 84.02335 19.982 84.0719 20.04929 84.12048 20.11674 84.16905 20.18434 84.21765 20.25212 84.2662 20.32 84.31476 20.38805 84.36334 20.45625 84.4119 20.52457 84.46048 20.59303 84.50903 20.66162 84.55759 20.73032 84.60617 20.79916 84.65474 20.86815 84.70332 20.9372 84.75188 21.0064 84.80043 21.0757 84.84903 21.14511 84.89758 21.21461 84.94617 21.28424 84.99472 21.35393 85.04327 21.42375 85.09186 21.49362 85.14043 21.5636 85.18901 21.63367 85.23756 21.70381 85.28612 21.77402 85.3347 21.84431 85.38326 21.91466 85.43184 21.98509 85.48041 22.05559 85.52896 22.12613 85.57756 22.19675 85.62611 22.26738 85.6747 22.3381 85.72325 22.40884 85.7718 22.47964 85.82039 22.55049 85.86894 22.62135 85.91753 22.69226 85.96608 22.7632 86.01463 22.83415 86.06323 22.90515 86.11179 22.97615 86.16039 23.04718 86.20894 23.11821 86.25749 23.18925 86.30608 23.26033 86.35463 23.33138 86.40321 23.40245 86.45177 23.47353 86.50034 23.54456 86.54892 23.61562 86.59747 23.68666 86.64606 23.75769 86.69461 23.8287 86.74316 23.8997 86.79176 23.97067 86.84032 24.04161 86.8889 24.11255 86.93745 24.18346 86.98602 24.2543 87.0346 24.32513 87.08316 24.39592 87.13174 24.46667 87.1803 24.53738 87.22885 24.60805 87.27744 24.67865 87.32599 24.74924 87.37457 24.81975 87.42316 24.89021 87.47171 24.96062 87.5203 25.03096 87.56885 25.10124 87.61743 25.17146 87.66599 25.24162 87.71454 25.3117 87.76312 25.38171 87.81168 25.45168 87.86026 25.52156 87.90883 25.59135 87.95738 25.66107 88.00597 25.73071 88.05452 25.80028 88.10312 25.86975 88.15167 25.93916 88.20023 26.00845 88.24881 26.07768 88.29736 26.1468 88.34596 26.21584 88.39452 26.28479 88.44307 26.35364 88.49165 26.4224 88.5402 26.49107 88.58879 26.55963 88.63734 26.6281 88.6859 26.69647 88.7345 26.76472 88.78305 26.83289 88.83165 26.90096 88.8802 26.9689 88.92876 27.03676 88.97734 27.10449 89.0259 27.17215 89.07448 27.23965 89.12303 27.30708 89.17159 27.37439 89.22017 27.4416 89.26874 27.50868 89.31732 27.57565 89.36589 27.64253 89.41444 27.70927 89.46303 27.77592 89.51158 27.84245 89.56017 27.90886 89.60872 27.97517 89.65727 28.04135 89.70586 28.10742 89.75443 28.17339 89.80301 28.23921 89.85156 28.30495 89.90012 28.37056 89.9487 28.43607 89.99725 28.50145 90.04585 28.56671 90.0944 28.63187 90.14296 28.6969 90.19156 28.76184 90.24011 28.82666 90.2887 28.89136 90.33725 28.95595 90.3858 29.0204 90.43439 29.08478 90.48294 29.14905 90.53152 29.21318 90.58008 29.2772 90.62863 29.34114 90.67725 29.40494 90.7258 29.46863 90.77438 29.53224 90.82294 29.59573 90.87149 29.65913 90.92007 29.7224 90.96863 29.7856 91.01721 29.84865 91.06577 29.91164 91.11433 29.97452 91.16292 30.0373 91.21147 30.09998 91.26006 30.16254 91.30862 30.22504 91.35718 30.28743 91.40576 30.34972 91.45432 30.41196 91.5029 30.47408 91.55145 30.5361 91.60002 30.59805 91.6486 30.65991 91.69716 30.72168 91.74574 30.78339 91.7943 30.845 91.84285 30.90654 91.89143 30.96802 91.93999 31.02942 91.98859 31.09074 92.03716 31.152 92.08571 31.21318 92.1343 31.27429 92.18285 31.33534 92.23143 31.39633 92.27998 31.45729 92.32854 31.51816 92.37712 31.57898 92.42567 31.63979 92.47426 31.70052 92.52283 31.76118 92.57138 31.82184 92.61998 31.88243 92.66853 31.943 92.71712 32.00351 92.76567 32.06403 92.81422 32.12448 92.86281 32.18494 92.91136 32.24535 92.95996 32.30574 93.00851 32.36613 93.05707 32.42651 93.10565 32.48686 93.1542 32.54724 93.20279 32.6076 93.25136 32.66795 93.29991 32.72832 93.3485 32.78868 93.39705 32.84908 93.44565 32.90948 93.4942 32.96992 93.54276 33.03038 93.59134 33.09087 93.6399 33.15138 93.68848 33.21194 93.73703 33.27255 93.78558 33.33322 93.83417 33.39392 93.88274 33.45468 93.93134 33.51553 93.97989 33.57642 94.02844 33.63742 94.07703 33.69847 94.12558 33.75963 94.17416 33.82089 94.22272 33.88223 94.27127 33.94368 94.31985 34.00525 94.36842 34.06694 94.417 34.12875 94.46556 34.19069 94.51411 34.25278 94.56271 34.31499 94.61127 34.3774 94.65985 34.43996 94.7084 34.50267 94.75696 34.56557 94.80554 34.6287 94.85411 34.69197 94.9027 34.75546 94.95125 34.8192 94.9998 34.88313 95.04839 34.94733 95.09694 35.01178 95.14552 35.07646 95.19409 35.14143 95.24265 35.20668 95.29124 35.27223 95.3398 35.33809 95.38838 35.40425 95.43694 35.47075 95.48549 35.5376 95.53407 35.60483 95.58263 35.67241 95.63121 35.7404 95.67976 35.80879 95.72832 35.87764 95.77692 35.94691 95.82547 36.01665 95.87407 36.08684 95.92262 36.15756 95.97118 36.2288 96.01976 36.30058 96.06831 36.37292 96.1169 36.44586 96.16545 36.5194 96.21402 36.59358 96.2626 36.66843 96.31116 36.74397 96.35974 36.82024 96.4083 36.89726 96.45685 36.97507 96.50545 37.05367 96.554 37.13312 96.60258 37.21349 96.65114 37.29477 96.6997 37.37698 96.74829 37.46024 96.79684 37.54454 96.84543 37.62993 96.89398 37.71645 96.94254 37.8042 96.99112 37.89317 97.03967 37.98346 97.08826 38.0751 97.13684 38.16818 97.1854 38.26276 97.23398 38.3589 97.28253 38.45668 97.33112 38.55618 97.37967 38.65746 97.42822 38.76065 97.4768 38.8658 97.52536 38.97305 97.57394 39.08249 97.62251 39.1942 97.67107 39.30832 97.71965 39.42502 97.7682 39.54439 97.8168 39.66655 97.86536 39.7917 97.91391 39.91998 97.9625 40.05156 98.01105 40.18666 98.05965 40.32545 98.1082 40.46817 98.15675 40.61505 98.20534 40.76633 98.25389 40.92226 98.30247 41.08316 98.35103 41.24933 98.39958 41.42113 98.44818 41.59888 98.49673 41.78305 98.54533 41.97403 98.59389 42.17227 98.64244 42.37833 98.69102 42.59273 98.73958 42.81612 98.78816 43.04915 98.83672 43.29257 98.88527 43.5472 98.93385 43.81389 98.98242 44.09366 99.031 44.3876 99.07957 44.69696 99.12813 45.02301 99.17671 45.36728 99.22527 45.73145 99.27385 46.11742 99.3224 46.52727 99.37096 46.96338 99.41954 47.42842 99.46811 47.92548 99.5167 48.45796 99.56525 49.0298 99.6138 49.64555 99.66238 50.31036 99.71094 51.03017 99.75954 51.8119 99.80809 52.66356 99.85664 53.59439 99.90524 54.61531 99.9538 55.73901 100.00238 56.9805 100.05093 58.3574 100.09949 59.8905 100.14807 61.60439 100.19662 63.528 100.24521 65.69548 100.29376 68.14671 100.34232 70.92784 100.39093 74.09138 100.43948 77.69531 100.48807 81.8008 100.53662 86.46689 100.58517 91.74136 100.63376 97.6455 100.68231 104.15245 100.7309 111.16177 100.77945 118.47815 100.82802 125.80893 100.8766 132.79499 100.92516 139.07605 100.97374 144.37 101.02231 148.53026 101.07086 151.55684 101.11945 153.56241 101.168 154.7181 101.21658 155.20465 101.26514 155.1821 101.3137 154.77791 101.36229 154.0871 101.41084 153.17809 101.45943 152.09943 101.50798 150.88584 101.55653 149.56266 101.60512 148.14907 101.65367 146.65996 101.70227 145.10739 101.75084 143.50147 101.7994 141.85079 101.84798 140.16274 101.89653 138.44394 101.94511 136.70017 101.99367 134.93657 102.04222 133.15779 102.0908 131.36794 102.13936 129.57064 102.18794 127.76917 102.23651 125.9664 102.28506 124.16487 102.33366 122.36682 102.38222 120.57422 102.4308 118.78876 102.47935 117.01183 102.52791 115.24474 102.57649 113.4885 102.62505 111.74397 102.67365 110.01189 102.7222 108.2928 102.77075 106.58714 102.81934 104.89519 102.86789 103.2172 102.91647 101.55322 102.96504 99.90327 103.0136 98.2673 103.06218 96.64514 103.11073 95.03653 103.15933 93.44115 103.20789 91.85861 103.25644 90.28844 103.30502 88.73003 103.35358 87.18277 103.40216 85.64587 103.45071 84.11848 103.49927 82.59956 103.54785 81.08801 103.59642 79.5826 103.64502 78.0818 103.69357 76.58409 103.74213 75.08765 103.79071 73.59044 103.83926 72.09027 103.88785 70.58469 103.9364 69.071 103.98495 67.5463 104.03354 66.00735 104.0821 64.45076 104.13069 62.87283 104.17924 61.26978 104.2278 59.63753 104.2764 57.97197 104.32495 56.26904 104.37354 54.52472 104.42209 52.73537 104.47064 50.89786 104.51924 49.00993 104.5678 47.0706 104.61638 45.0805 104.66493 43.04248 104.71349 40.96219 104.76207 38.84859 104.81062 36.71434 104.8592 34.5762 104.90778 32.45479 104.95633 30.37405 105.00493 28.36014 105.05348 26.43976 105.10207 24.63806 105.15062 22.97646 105.19917 21.47089 105.24776 20.13046 105.29631 18.95735 105.3449 17.94707 105.39345 17.0899 105.44202 16.37244 105.4906 15.77914 105.53915 15.29381 105.58775 14.9007 105.6363 14.58513 105.68486 14.33409 105.73344 14.13618 105.782 13.98174 105.83058 13.86269 105.87914 13.77234 105.9277 13.70522 105.97629 13.65689 106.02484 13.62372 106.07343 13.60283 106.12198 13.59192 106.17053 13.58905 106.21913 13.59277 106.26768 13.60184 106.31627 13.61536 106.36482 13.63245 106.41339 13.65256 106.46198 13.67516 106.51053 13.69981 106.55911 13.72627 106.60767 13.75421 106.65622 13.78343 106.7048 13.81375 106.75336 13.84506 106.80194 13.8772 106.85052 13.9101 106.89908 13.94368 106.94766 13.97786 106.99622 14.01263 107.0448 14.0479 107.09335 14.08366 107.1419 14.11989 107.19049 14.15654 107.23904 14.19363 107.28763 14.23111 107.3362 14.26898 107.38475 14.30722 107.43333 14.34583 107.48189 14.3848 107.53049 14.4241 107.57904 14.46378 107.6276 14.50378 107.67618 14.54413 107.72473 14.58482 107.77333 14.62584 107.82188 14.66719 107.87044 14.70888 107.91902 14.75087 107.96758 14.7932 108.01616 14.83586 108.06471 14.87883 108.11327 14.92216 108.16187 14.96579 108.21042 15.00972 108.25902 15.05403 108.30757 15.09862 108.35612 15.14352 108.40471 15.18878 108.45326 15.23433 108.50185 15.2802 108.5504 15.3264 108.59895 15.3729 108.64754 15.41974 108.6961 15.46689 108.74469 15.51436 108.79326 15.56213 108.84181 15.61021 108.8904 15.65865 108.93895 15.70738 108.98753 15.75641 109.03609 15.80576 109.08464 15.85542 109.13322 15.9054 109.1818 15.95569 109.23038 16.00626 109.27893 16.05719 109.32748 16.10838 109.37607 16.1599 109.42462 16.21173 109.47322 16.26385 109.52177 16.31627 109.57033 16.36903 109.61893 16.42206 109.66748 16.47539 109.71606 16.529 109.76462 16.58295 109.81317 16.63719 109.86176 16.69171 109.91031 16.7465 109.9589 16.80162 110.00745 16.85701 110.056 16.9127 110.10461 16.96867 110.15317 17.02492 110.20175 17.08147 110.2503 17.13826 110.29886 17.19537 110.34744 17.25276 110.396 17.31041 110.44458 17.36833 110.49313 17.42653 110.5417 17.485 110.59029 17.54376 110.63884 17.60275 110.68742 17.66203 110.736 17.72154 110.78455 17.78134 110.83313 17.84138 110.88168 17.90169 110.93027 17.96222 110.97882 18.02303 111.02739 18.08408 111.07597 18.14539 111.12453 18.20694 111.17311 18.2687 111.22166 18.33073 111.27022 18.393 111.3188 18.45549 111.36736 18.5182 111.41595 18.58115 111.46452 18.64432 111.51308 18.70772 111.56166 18.77133 111.61021 18.83516 111.6588 18.8992 111.70735 18.96346 111.7559 19.02792 111.80449 19.09258 111.85304 19.15747 111.90163 19.22252 111.9502 19.2878 111.99875 19.35326 112.04735 19.4189 112.0959 19.48473 112.14449 19.55075 112.19304 19.61696 112.2416 19.68333 112.29018 19.7499 112.33873 19.8166 112.38733 19.88351 112.43588 19.95055 112.48444 20.01779 112.53302 20.08516 112.58157 20.15271 112.63016 20.22038 112.67873 20.28821 112.72728 20.35619 112.77586 20.42432 112.82442 20.49258 112.87302 20.56097 112.92157 20.6295 112.97012 20.69815 113.0187 20.76694 113.06726 20.83585 113.11584 20.90488 113.1644 20.97401 113.21295 21.04326 113.26154 21.11261 113.3101 21.18207 113.3587 21.25165 113.40726 21.3213 113.45581 21.39105 113.5044 21.4609 113.55295 21.53084 113.60153 21.60088 113.65009 21.67097 113.69864 21.74115 113.74722 21.81142 113.79579 21.88174 113.84438 21.95213 113.89293 22.0226 113.94148 22.09311 113.99008 22.16368 114.03864 22.23431 114.08722 22.30501 114.13577 22.37573 114.18433 22.4465 114.23293 22.51733 114.28148 22.58818 114.33006 22.65907 114.37862 22.73001 114.42717 22.80095 114.47575 22.87192 114.5243 22.94293 114.57289 23.01393 114.62146 23.08496 114.67001 23.156 114.71861 23.22707 114.76717 23.29814 114.81575 23.36917 114.8643 23.44025 114.91286 23.5113 114.96144 23.58237 115.01 23.65341 115.05858 23.72444 115.10713 23.79547 115.1557 23.86647 115.20428 23.93747 115.25284 24.00844 115.30144 24.07936 115.34999 24.15027 115.39854 24.22115 115.44713 24.29199 115.49568 24.3628 115.54427 24.43356 115.59282 24.5043 115.64139 24.57498 115.68997 24.64563 115.73853 24.71622 115.78711 24.78674 115.83566 24.85725 115.88422 24.92767 115.93282 24.99805 115.98137 25.06836 116.02995 25.13861 116.0785 25.2088 116.12708 25.27892 116.17566 25.34895 116.22421 25.41895 116.2728 25.48886 116.32135 25.5587 116.3699 25.62846 116.41849 25.69814 116.46704 25.76773 116.51563 25.83727 116.56421 25.9067 116.61276 25.97603 116.66135 26.0453 116.7099 26.11446 116.75848 26.18356 116.80704 26.25253 116.85559 26.32144 116.90417 26.39023 116.95273 26.45894 117.00131 26.52756 117.04988 26.59608 117.09843 26.66447 117.14702 26.73279 117.19557 26.80103 117.24417 26.86911 117.29272 26.93712 117.34128 27.00504 117.38986 27.07281 117.43842 27.14049 117.48701 27.20808 117.53557 27.27556 117.58412 27.34291 117.6327 27.41016 117.68126 27.4773 117.72984 27.54434 117.7784 27.61124 117.82695 27.67807 117.87555 27.74474 117.9241 27.81134 117.9727 27.87779 118.02126 27.94417 118.06981 28.01038 118.1184 28.0765 118.16695 28.14253 118.21553 28.20844 118.26408 28.2742 118.31264 28.33987 118.36122 28.40543 118.40979 28.47086 118.45837 28.53618 118.50694 28.6014 118.5555 28.6665 118.60408 28.73148 118.65263 28.79634 118.70122 28.86108 118.74977 28.92574 118.79832 28.99025 118.84691 29.05469 118.89548 29.11897 118.94406 29.18317 118.99261 29.24725 119.04117 29.31123 119.08975 29.37509 119.1383 29.43884 119.1869 29.5025 119.23546 29.56602 119.28401 29.62947 119.33261 29.6928 119.38116 29.75604 119.42975 29.81915 119.4783 29.88219 119.52686 29.94511 119.57544 30.00792 119.624 30.07065 119.67258 30.13329 119.72113 30.19582 119.76968 30.25824 119.8183 30.32059 119.86685 30.38284 119.91544 30.445 119.96399 30.50708 120.01254 30.56908 120.06113 30.63098 120.10968 30.69278 120.15826 30.75453 120.20682 30.81618 120.25539 30.87775 120.30397 30.93925 120.35252 31.00069 120.40111 31.06204 120.44968 31.12332 120.49823 31.18454 120.54681 31.2457 120.59537 31.30678 120.64395 31.36781 120.6925 31.42879 120.74107 31.48967 120.78966 31.55054 120.83821 31.61134 120.8868 31.6721 120.93535 31.7328 120.9839 31.79346 121.03249 31.85406 121.08104 31.91466 121.12964 31.97519 121.1782 32.03572 121.22676 32.0962 121.27534 32.15666 121.3239 32.21707 121.37248 32.2775 121.42104 32.33788 121.46959 32.39827 121.51817 32.45863 121.56673 32.51898 121.61531 32.57933 121.66388 32.6397 121.71243 32.70007 121.76103 32.76042 121.80959 32.82083 121.85817 32.88123 121.90672 32.94165 121.95528 33.00209 122.00386 33.06255 122.05241 33.12306 122.10101 33.1836 122.14957 33.24419 122.19812 33.30481 122.2467 33.3655 122.29526 33.42624 122.34384 33.48705 122.39241 33.54791 122.44096 33.60887 122.48955 33.6699 122.5381 33.731 122.5867 33.79219 122.63525 33.8535 122.6838 33.9149 122.73239 33.97641 122.78094 34.03804 122.82953 34.0998 122.87808 34.1617 122.92664 34.2237 122.97522 34.28584 123.02379 34.34818 123.07239 34.41064 123.12094 34.47331 123.1695 34.53612 123.21808 34.59914 123.26663 34.66234 123.31522 34.72574 123.36377 34.78935 123.41232 34.8532 123.4609 34.91727 123.50948 34.98158 123.55806 35.04614 123.60661 35.111 123.65517 35.17612 123.70377 35.24152 123.75232 35.3072 123.8009 35.37323 123.84946 35.43959 123.89801 35.50629 123.94661 35.57333 123.99516 35.64075 124.04375 35.70856 124.0923 35.77675 124.14085 35.84538 124.18944 35.91444 124.23799 35.98395 124.28658 36.05392 124.33514 36.1244 124.3837 36.19539 124.4323 36.26692 124.48085 36.339 124.52943 36.41165 124.57799 36.48491 124.62654 36.5588 124.67513 36.63333 124.72368 36.70853 124.77226 36.78447 124.82082 36.86113 124.86938 36.93855 124.91797 37.01678 124.96652 37.09583 125.01512 37.17578 125.06367 37.2566 125.11223 37.3384 125.16081 37.42116 125.20937 37.50494 125.25795 37.58983 125.3065 37.67581 125.35507 37.76299 125.40366 37.85136 125.45221 37.94102 125.5008 38.03206 125.54935 38.12444 125.5979 38.2183 125.6465 38.3137 125.69505 38.4107 125.74364 38.50938 125.79219 38.60982 125.84076 38.71213 125.88934 38.81635 125.9379 38.9226 125.98648 39.03098 126.03503 39.14162 126.08359 39.25462 126.13217 39.37007 126.18073 39.48816 126.22931 39.60901 126.2779 39.73274 126.32645 39.85954 126.37503 39.98958 126.42358 40.12302 126.47217 40.26004 126.52072 40.40091 126.56927 40.54579 126.61786 40.69498 126.66641 40.84868 126.715 41.00722 126.76357 41.17088 126.81212 41.34003 126.8607 41.51494 126.90926 41.69604 126.95786 41.88379 127.00641 42.07857 127.05496 42.28088 127.10355 42.49132 127.1521 42.71043 127.2007 42.93886 127.24925 43.17732 127.2978 43.4266 127.34639 43.68753 127.39494 43.96106 127.44353 44.24823 127.49208 44.5502 127.54063 44.86826 127.58923 45.2038 127.63779 45.55846 127.68639 45.93398 127.73494 46.33235 127.7835 46.75584 127.83208 47.20702 127.88063 47.68869 127.92921 48.20412 127.97777 48.75702 128.02632 49.35162 128.0749 49.9928 128.12348 50.68607 128.17206 51.43791 128.22063 52.25574 128.26918 53.14827 128.31777 54.12558 128.36632 55.19948 128.4149 56.38383 128.46346 57.69498 128.51201 59.15218 128.5606 60.77812 128.60916 62.59967 128.65775 64.64844 128.7063 66.96153 128.75485 69.58214 128.80344 72.5598 128.85199 75.95013 128.90059 79.81328 128.94915 84.2101 128.9977 89.19522 129.0463 94.80452 129.09485 101.03679 129.14344 107.82922 129.19199 115.0327 129.24054 122.39856 129.28913 129.59255 129.33768 136.24517 129.38626 142.0284 129.43482 146.72774 129.48337 150.2765 129.53199 152.74083 129.58054 154.27138 129.62912 155.0494 129.67768 155.24713 129.72623 155.00782 129.77481 154.44115 129.82337 153.62715 129.87195 152.62282 129.9205 151.46875 129.96907 150.19416 130.01766 148.82079 130.06621 147.36537 130.11479 145.84114 130.16336 144.25904 130.21192 142.62831 130.2605 140.95688 130.30905 139.25171 130.35764 137.51892 130.40619 135.76403 130.45476 133.99179 130.50334 132.20665 130.5519 130.4124 130.60048 128.6125 130.64904 126.81 130.69759 125.00761 130.74617 123.20767 130.79473 121.41231 130.84333 119.62329 130.89189 117.8422 130.94045 116.07034 130.98903 114.30893 131.03759 112.55884 131.08617 110.82083 131.13472 109.09561 131.18328 107.38362 131.23186 105.68521 131.28041 104.00069 131.329 102.33014 131.37757 100.67363 131.42612 99.03116 131.47472 97.40254 131.52327 95.78763 131.57186 94.18608 131.6204 92.5976 131.66896 91.0217 131.71755 89.45786 131.7661 87.90549 131.8147 86.36385 131.86325 84.8321 131.9118 83.30936 131.96039 81.79451 132.00894 80.28638 132.05753 78.78362 132.1061 77.28468 132.15465 75.78787 132.20323 74.29129 132.25179 72.7928 132.30039 71.29007 132.34894 69.78053 132.39749 68.26134 132.44608 66.72949 132.49463 65.18158 132.54322 63.61414 132.59177 62.02332 132.64032 60.40523 132.6889 58.7558 132.73748 57.07085 132.78607 55.34639 132.83463 53.5785 132.88318 51.76389 132.93177 49.89978 132.98032 47.98454 133.0289 46.01796 133.07746 44.00185 133.126 41.94044 133.17459 39.8411 133.22316 37.71468 133.27175 35.57602 133.3203 33.44398 133.36885 31.34103 133.41745 29.29253 133.466 27.32512 133.51459 25.46494 133.56314 23.73541 133.6117 22.15524 133.6603 20.73688 133.70885 19.48563 133.75743 18.40007 133.80599 17.47275 133.85454 16.69173 133.90312 16.04236 133.95168 15.50851 134.00026 15.07414 134.04883 14.72401 134.09738 14.4443 134.14598 14.22284 134.19454 14.04916 134.24312 13.91444 134.29167 13.81142 134.34023 13.73405 134.38881 13.67741 134.43737 13.63756 134.48595 13.61125 134.5345 13.59592 134.58307 13.5895 134.63166 13.59029 134.6802 13.597 134.7288 13.60854 134.77736 13.62404 134.82592 13.6428 134.8745 13.66429 134.92305 13.68803 134.97164 13.7137 135.02019 13.74097 135.06876 13.76962 135.11734 13.79944 135.1659 13.83029 135.21448 13.86206 135.26303 13.8946 135.31159 13.92786 135.36019 13.96179 135.40874 13.99629 135.45732 14.03133 135.50589 14.06686 135.55445 14.10289 135.60303 14.13936 135.65158 14.17624 135.70017 14.21352 135.74872 14.25122 135.79727 14.28928 135.84586 14.3277 135.89441 14.36652 135.943 14.40567 135.99158 14.44519 136.04013 14.48502 136.08872 14.52522 136.13727 14.56572 136.18585 14.60661 136.2344 14.6478 136.28296 14.68932 136.33155 14.73119 136.3801 14.77335 136.42868 14.81586 136.47725 14.85869 136.5258 14.90186 136.57439 14.94533 136.62294 14.98912 136.67154 15.03326 136.7201 15.07771 136.76865 15.12247 136.81723 15.16756 136.86579 15.21297 136.91439 15.25868 136.96294 15.30475 137.01149 15.3511 137.06008 15.39778 137.10863 15.4448 137.15721 15.4921 137.20577 15.53973 137.25432 15.58769 137.30292 15.63596 137.35147 15.68454 137.40007 15.73341 137.44863 15.78262 137.49718 15.83214 137.54576 15.88196 137.59432 15.93213 137.6429 15.98256 137.69145 16.03333 137.74 16.0844 137.78859 16.13577 137.83716 16.18744 137.88574 16.23943 137.93431 16.2917 137.98287 16.34431 138.03145 16.3972 138.08 16.4504 138.12859 16.50389 138.17714 16.55768 138.2257 16.61176 138.27428 16.66615 138.32285 16.72081 138.37143 16.7758 138.41999 16.83104 138.46854 16.88661 138.51712 16.94244 138.56568 16.99855 138.61428 17.05498 138.66283 17.11166 138.71138 17.16862 138.75998 17.22589 138.80854 17.28342 138.85712 17.34119 138.90567 17.39928 138.95423 17.45763 139.0028 17.51624 139.05136 17.5751 139.09995 17.63426 139.1485 17.69365 139.19705 17.75333 139.24567 17.81326 139.29422 17.87343 139.3428 17.93387 139.39136 17.99454 139.43991 18.0555 139.4885 18.11668 139.53705 18.1781 139.58563 18.23978 139.63419 18.30168 139.68276 18.36383 139.73134 18.42622 139.77989 18.48882 139.82848 18.55165 139.87705 18.61475 139.9256 18.67801 139.97418 18.74152 140.02274 18.80525 140.07132 18.8692 140.11988 18.93335 140.16844 18.99774 140.21703 19.0623 140.26558 19.12706 140.31417 19.19206 140.36272 19.25722 140.41127 19.32259 140.45986 19.38815 140.5084 19.4539 140.557 19.51982 140.60558 19.58595 140.65413 19.65225 140.70272 19.7187 140.75127 19.78537 140.79985 19.85219 140.8484 19.91916 140.89696 19.98631 140.94554 20.05362 140.9941 20.12108 141.04268 20.18867 141.09125 20.25644 141.1398 20.32437 141.1884 20.39243 141.23696 20.46062 141.28554 20.52895 141.33409 20.5974 141.38265 20.666 141.43123 20.73474 141.47978 20.80356 141.52838 20.87256 141.57694 20.94164 141.62549 21.01083 141.67407 21.08014 141.72263 21.14957 141.77121 21.21907 141.81978 21.2887 141.86833 21.3584 141.91692 21.4282 141.96547 21.49811 142.01407 21.5681 142.06262 21.63817 142.11118 21.70831 142.15976 21.77852 142.20832 21.84882 142.2569 21.91917 142.30545 21.98961 142.354 22.0601 142.40259 22.13066 142.45116 22.20126 142.49976 22.27193 142.54831 22.34265 142.59687 22.41338 142.64545 22.48419 142.694 22.55504 142.74259 22.62589 142.79114 22.6968 142.83969 22.76773 142.88828 22.83871 142.93685 22.9097 142.98543 22.9807 143.03398 23.05174 143.08254 23.12276 143.13114 23.19382 143.17969 23.26486 143.22827 23.33592 143.27683 23.407 143.32538 23.47806 143.37398 23.54912 143.42253 23.62018 143.47112 23.69121 143.51967 23.76225 143.56822 23.83325 143.6168 23.90424 143.66536 23.97523 143.71395 24.04617 143.76251 24.1171 143.81107 24.18799 143.85967 24.25885 143.90822 24.32967 143.9568 24.40047 144.00536 24.4712 144.05391 24.54192 144.1025 24.61258 144.15105 24.68318 144.19963 24.75375 144.24819 24.82426 144.29676 24.89471 144.34534 24.96513 144.39389 25.03546 144.44249 25.10576 144.49105 25.17596 144.5396 25.2461 144.58818 25.3162 144.63674 25.38622 144.68532 25.45615 144.73387 25.52603 144.78244 25.59581 144.83103 25.66553 144.87958 25.73518 144.92816 25.80473 144.97672 25.8742 145.02527 25.94359 145.07387 26.0129 145.12242 26.08212 145.171 26.15123 145.21958 26.22028 145.26813 26.2892 145.31671 26.35806 145.36527 26.4268 145.41385 26.49545 145.4624 26.56403 145.51096 26.63249 145.55954 26.70084 145.6081 26.7691 145.65668 26.83727 145.70526 26.9053 145.75382 26.97325 145.8024 27.0411 145.85095 27.10883 145.89954 27.17648 145.94809 27.24399 145.99665 27.31142 146.04523 27.37871 146.09378 27.4459 146.14238 27.51299 146.19094 27.57996 146.23949 27.6468 146.28807 27.71355 146.33663 27.7802 146.38523 27.84671 146.43378 27.9131 146.48233 27.97942 146.53092 28.0456 146.57947 28.11165 146.62807 28.1776 146.67662 28.24344 146.72518 28.30916 146.77376 28.37476 146.82231 28.44025 146.8709 28.50563 146.91945 28.57089 146.968 28.63603 147.0166 28.70107 147.06516 28.76598 147.11376 28.8308 147.16231 28.8955 147.21086 28.96007 147.25945 29.02455 147.308 29.0889 147.35659 29.15315 147.40514 29.21729 147.45369 29.28131 147.50228 29.34521 147.55084 29.40903 147.59943 29.47272 147.648 29.53633 147.69655 29.5998 147.74514 29.6632 147.79369 29.72646 147.84227 29.78964 147.89083 29.85269 147.93938 29.91568 147.98796 29.97853 148.03653 30.04132 148.08512 30.10397 148.13367 30.16656 148.18222 30.22903 148.2308 30.29143 148.27936 30.35374 148.32796 30.41594 148.37651 30.47804 148.42507 30.54008 148.47367 30.60202 148.52222 30.66388 148.5708 30.72563 148.61936 30.78732 148.66791 30.84895 148.71649 30.91049 148.76505 30.97195 148.81363 31.03334 148.86219 31.09465 148.91074 31.15591 148.95935 31.21709 149.0079 31.27821 149.05649 31.33926 149.10504 31.40025 149.1536 31.46118 149.20218 31.52205 149.25074 31.58289 149.29932 31.64368 149.34787 31.7044 149.39644 31.76508 149.44503 31.82571 149.49358 31.8863 149.54216 31.94687 149.59073 32.0074 149.63928 32.0679 149.68787 32.12836 149.73642 32.1888 149.785 32.2492 149.83356 32.30963 149.88213 32.37001 149.93071 32.43039 149.97927 32.49074 150.02785 32.5511 150.0764 32.61147 150.12496 32.67181 150.17354 32.7322 150.22209 32.79257 150.27069 32.85294 150.31926 32.91338 150.36782 32.97379 150.4164 33.03424 150.46495 33.09474 150.51354 33.15526 150.56209 33.21584 150.61064 33.27643 150.65923 33.3371 150.70778 33.39783 150.75637 33.45859 150.80493 33.51944 150.85349 33.58034 150.90209 33.64131 150.95064 33.7024 150.99922 33.76355 151.04778 33.8248 151.09633 33.88615 151.14492 33.94762 151.19347 34.00919 151.24207 34.07088 151.29062 34.1327 151.33917 34.19466 151.38776 34.25676 151.43631 34.31898 151.4849 34.38141 151.53347 34.44395 151.58202 34.50668 151.6306 34.56961 151.67916 34.63274 151.72776 34.69603 151.7763 34.75954 151.82486 34.8233 151.87345 34.88724 151.922 34.95145 151.97058 35.0159 152.01914 35.08063 152.06769 35.1456 152.11627 35.21086 152.16484 35.27643 152.21344 35.34232 152.262 35.40851 152.31055 35.47502 152.35913 35.54192 152.40769 35.60913 152.45627 35.67677 152.50482 35.74477 152.55338 35.81319 152.60196 35.88206 152.65053 35.95135 152.69911 36.02112 152.74767 36.09135 152.79622 36.16212 152.84482 36.23338 152.89337 36.3052 152.94196 36.37758 152.99051 36.45055 153.03907 36.52414 153.08766 36.59837 153.13622 36.67326 153.1848 36.74884 153.23336 36.82516 153.2819 36.90224 153.33049 36.98007 153.37905 37.05873 153.42763 37.13826 153.4762 37.21866 153.52475 37.29999 153.57335 37.38231 153.6219 37.46562 153.67049 37.54997 153.71904 37.63544 153.7676 37.72205 153.81618 37.80984 153.86473 37.89893 153.91332 37.98927 153.96187 38.08104 154.01044 38.17421 154.05902 38.26889 154.10758 38.36511 154.15618 38.463 154.20473 38.5626 154.25328 38.66402 154.30187 38.76733 154.35042 38.87262 154.399 38.98 154.44756 39.08955 154.49613 39.20145 154.54471 39.31575 154.59326 39.43259 154.64185 39.55212 154.6904 39.67447 154.73896 39.79982 154.78755 39.92831 154.8361 40.06012 154.88469 40.19545 154.93326 40.33449 154.98181 40.47748 155.0304 40.62462 155.07895 40.77618 155.12754 40.93242 155.17609 41.09364 155.22464 41.26016 155.27323 41.43233 155.32178 41.6105 155.37036 41.79507 155.41895 41.98651 155.4675 42.18524 155.51609 42.3918 155.56464 42.60678 155.61322 42.83076 155.66178 43.06445 155.71033 43.30856 155.75891 43.56392 155.80747 43.83144 155.85607 44.11208 155.90462 44.40697 155.95317 44.71733 156.00176 45.04451 156.05031 45.39 156.0989 45.75552 156.14746 46.14296 156.19602 46.55441 156.2446 46.99228 156.29315 47.45927 156.34175 47.9585 156.3903 48.49338 156.43886 49.0679 156.48744 49.68661 156.536 50.35477 156.58458 51.07834 156.63314 51.8643 156.68169 52.72072 156.73029 53.65698 156.77886 54.68408 156.82744 55.8149 156.87599 57.06448 156.92455 58.45074 156.97313 59.99463 157.02169 61.72102 157.07027 63.6592 157.11882 65.84361 157.16738 68.31451 157.21596 71.11853 157.26453 74.30849 157.31311 77.94273 157.36168 82.08243 157.41024 86.78627 157.45882 92.10085 157.50737 98.04506 157.55596 104.58817 157.6045 111.6241 157.65306 118.95113 157.70165 126.27097 157.75022 133.22223 157.7988 139.44727 157.84735 144.67131 157.8959 148.75749 157.94449 151.71436 157.99304 153.66002 158.04164 154.7675 158.0902 155.21694 158.13875 155.16648 158.18735 154.74138 158.2359 154.03479 158.28449 153.1136 158.33304 152.02539 158.38159 150.8041 158.43018 149.47461 158.47873 148.05576 158.52732 146.56224 158.57587 145.00598 158.62442 143.39694 158.67304 141.74364 158.72159 140.05344 158.77017 138.33287 158.81873 136.58768 158.86728 134.82299 158.91587 133.04338 158.96442 131.25292 159.013 129.45526 159.06156 127.65364 159.11013 125.85088 159.1587 124.04951 159.20726 122.25177 159.25585 120.45958 159.30442 118.6746 159.35297 116.89828 159.40155 115.13184 159.4501 113.37631 159.49869 111.63258 159.54724 109.90132 159.59581 108.18307 159.6444 106.47829 159.69295 104.78723 159.74153 103.11014 159.79009 101.44707 159.83864 99.79802 159.88722 98.16295 159.93578 96.54164 159.98438 94.93388 160.03295 93.33936 160.0815 91.75761 160.13008 90.18822 160.17864 88.63057 160.22722 87.08398 160.27577 85.54771 160.32433 84.02087 160.37291 82.50247 160.42147 80.99138 160.47005 79.48627 160.51862 77.98575 160.56717 76.48816 160.61577 74.99171 160.66432 73.49442 160.7129 71.99396 160.76146 70.48795 160.81002 68.97365 160.8586 67.44814 160.90715 65.90814 160.95575 64.35028 161.0043 62.77089 161.05286 61.16608 161.10144 59.53181 161.15 57.864 161.19858 56.15852 161.24715 54.4114 161.2957 52.61906 161.34429 50.77838 161.39284 48.88719 161.44144 46.94458 161.48999 44.95126 161.53855 42.91034 161.58713 40.8276 161.63568 38.71225 161.68427 36.57722 161.73282 34.4395 161.78137 32.31993 161.82996 30.24269 161.87853 28.234 161.92713 26.32048 161.97568 24.52716 162.02423 22.87515 162.07282 21.37996 162.12137 20.0503 162.16996 18.8878 162.2185 17.88768 162.26706 17.0399 162.31565 16.33087 162.36421 15.74496 162.4128 15.26602 162.46135 14.8783 162.5099 14.56725 162.5585 14.31993 162.60706 14.12506 162.65564 13.97313 162.7042 13.8561 162.75275 13.76741 162.80135 13.70161 162.8499 13.65434 162.89849 13.62204 162.94704 13.60187 162.99559 13.5915 163.04418 13.5891 163.09273 13.5932 163.14131 13.6026 163.18988 13.61633 163.23844 13.63365 163.28704 13.65393 163.33559 13.67667 163.38417 13.70149 163.43273 13.72801 163.48128 13.75604 163.52986 13.78534 163.57842 13.81573 163.627 13.84709 163.67555 13.87929 163.72412 13.91223 163.7727 13.94585 163.82126 13.98009 163.86986 14.01486 163.91841 14.05017 163.96697 14.08598 164.01555 14.12224 164.0641 14.15892 164.11269 14.19601 164.16124 14.23354 164.20981 14.27141 164.25839 14.3097 164.30695 14.34831 164.35553 14.38731 164.40409 14.42665 164.45264 14.46634 164.50124 14.50636 164.54979 14.54672 164.59838 14.58745 164.64694 14.62846 164.6955 14.66985 164.74408 14.71153 164.79264 14.75357 164.84122 14.79593 164.88977 14.83861 164.93833 14.8816 164.98691 14.92493 165.03546 14.9686 165.08405 15.01257 165.13263 15.05685 165.18119 15.10149 165.22977 15.14641 165.27832 15.19167 165.3269 15.23724 165.37546 15.28314 165.42401 15.32938 165.4726 15.3759 165.52115 15.42274 165.56975 15.46991 165.6183 15.5174 165.66686 15.56519 165.71544 15.61333 165.76399 15.66176 165.81259 15.7105 165.86115 15.75957 165.9097 15.80893 165.95829 15.85861 166.00684 15.9086 166.05544 15.95892 166.10399 16.00954 166.15254 16.06044 166.20113 16.1117 166.24968 16.16322 166.29827 16.21506 166.34682 16.2672 166.39537 16.31967 166.44397 16.3724 166.49254 16.42546 166.54113 16.47882 166.58968 16.53247 166.63823 16.58641 166.68682 16.64066 166.73537 16.69522 166.78395 16.75005 166.8325 16.80518 166.88106 16.86058 166.92964 16.91629 166.97821 16.97226 167.0268 17.02853 167.07537 17.0851 167.12392 17.14192 167.1725 17.19905 167.22106 17.25644 167.26964 17.3141 167.31819 17.37207 167.36675 17.43028 167.41533 17.48875 167.4639 17.54752 167.51248 17.60652 167.56104 17.66582 167.60959 17.72537 167.65818 17.78519 167.70673 17.84523 167.75533 17.90556 167.80388 17.96613 167.85243 18.02695 167.90103 18.08801 167.94959 18.14934 167.99817 18.21088 168.04673 18.27269 168.09528 18.33472 168.14386 18.397 168.19242 18.4595 168.241 18.52222 168.28955 18.58519 168.33812 18.64838 168.38672 18.71179 168.43527 18.7754 168.48386 18.83926 168.53241 18.9033 168.58097 18.96759 168.62955 19.03206 168.6781 19.09673 168.72669 19.16164 168.77524 19.22672 168.8238 19.29199 168.87239 19.35745 168.92095 19.42311 168.96953 19.48895 169.0181 19.55498 169.06665 19.6212 169.11524 19.6876 169.16379 19.75415 169.21237 19.82089 169.26093 19.8878 169.3095 19.95486 169.35808 20.0221 169.40663 20.0895 169.45522 20.15703 169.50377 20.22472 169.55233 20.29257 169.6009 20.36055 169.64946 20.42868 169.69806 20.49695 169.74663 20.56537 169.79518 20.6339 169.84377 20.70256 169.89232 20.77135 169.9409 20.84026 169.98946 20.90929 170.03801 20.97845 170.0866 21.0477 170.13515 21.11707 170.18373 21.18652 170.2323 21.2561 170.28086 21.32578 170.32946 21.39552 170.378 21.46538 170.42659 21.53532 170.47515 21.60536 170.5237 21.67548 170.57228 21.74567 170.62084 21.81592 170.66944 21.88623 170.71799 21.95665 170.76654 22.02711 170.81513 22.09764 170.86368 22.16821 170.91226 22.23886 170.96083 22.30954 171.00939 22.38028 171.05797 22.45107 171.10652 22.52187 171.15512 22.59273 171.20368 22.66362 171.25223 22.73454 171.30081 22.8055 171.34937 22.87648 171.39795 22.94745 171.4465 23.0185 171.49506 23.08952 171.54364 23.16057 171.59221 23.23161 171.64081 23.30267 171.68936 23.37373 171.73792 23.44481 171.7865 23.51587 171.83506 23.58693 171.88364 23.65796 171.93219 23.729 171.98075 23.80003 172.02933 23.87103 172.0779 23.942 172.12648 24.01295 172.17504 24.08391 172.22359 24.15483 172.27219 24.22568 172.32074 24.29652 172.36933 24.36734 172.41788 24.43811 172.46643 24.50883 172.51503 24.57951 172.56359 24.65015 172.61217 24.72073 172.66072 24.79129 172.70928 24.86177 172.75786 24.93219 172.80641 25.00256 172.855 25.07288 172.90357 25.14311 172.95212 25.21329 173.00072 25.28342 173.04927 25.35345 173.09786 25.42345 173.14641 25.49335 173.19496 25.56316 173.24355 25.63292 173.2921 25.70259 173.34069 25.77219 173.38924 25.84169 173.4378 25.91115 173.48639 25.98047 173.53495 26.04973 173.58354 26.1189 173.6321 26.18797 173.68065 26.25696 173.72924 26.32585 173.77779 26.39465 173.82637 26.46335 173.87493 26.53195 173.9235 26.60048 173.97208 26.66887 174.02063 26.73717 174.06922 26.80539 174.11777 26.87349 174.16632 26.94147 174.21492 27.00937 174.26348 27.07715 174.31206 27.14482 174.36063 27.21242 174.40918 27.27986 174.45777 27.34723 174.50632 27.41447 174.5549 27.4816 174.60346 27.54865 174.65201 27.61554 174.70059 27.68234 174.74915 27.74901 174.79773 27.81558 174.84632 27.88206 174.89487 27.94841 174.94345 28.01463 174.992 28.08075 175.04059 28.14676 175.08914 28.21265 175.1377 28.27841 175.18628 28.34409 175.23484 28.40962 175.28343 28.47507 175.33199 28.54037 175.38054 28.60556 175.42913 28.67067 175.47768 28.73564 175.52628 28.80049 175.57483 28.86523 175.62339 28.92986 175.67197 28.99437 175.72052 29.0588 175.76912 29.12311 175.81768 29.18727 175.86623 29.25136 175.91481 29.31532 175.96337 29.37918 176.01195 29.44293 176.0605 29.50656 176.10906 29.5701 176.15766 29.63353 176.20623 29.69687 176.2548 29.76009 176.30336 29.8232 176.35192 29.88622 176.4005 29.94914 176.44905 30.01195 176.49764 30.07468 176.54619 30.13728 176.59474 30.19981 176.64333 30.26224 176.6919 30.3246 176.74048 30.38683 176.78905 30.44899 176.8376 30.51106 176.88619 30.57304 176.93474 30.63493 176.98332 30.69675 177.03188 30.75847 177.08043 30.82013 177.12903 30.88171 177.17758 30.94319 177.22617 31.00462 177.27472 31.06598 177.32328 31.12727 177.37186 31.18846 177.42041 31.24962 177.46901 31.3107 177.51757 31.3717 177.56612 31.43268 177.61472 31.49359 177.66327 31.55444 177.71186 31.61523 177.7604 31.67598 177.80896 31.7367 177.85755 31.79735 177.9061 31.85796 177.95468 31.91853 178.00324 31.97906 178.0518 32.0396 178.1004 32.10008 178.14896 32.16052 178.19754 32.22095 178.2461 32.28134 178.29465 32.34175 178.34323 32.40213 178.39179 32.46251 178.44037 32.52286 178.48892 32.5832 178.53749 32.64359 178.58608 32.70393 178.63463 32.76431 178.68321 32.82468 178.73178 32.88509 178.78034 32.94551 178.82892 33.00597 178.87747 33.06642 178.92606 33.12694 178.97461 33.18747 179.02318 33.24808 179.07176 33.30872 179.12032 33.3694 179.1689 33.43015 179.21746 33.49095 179.266 33.55182 179.31459 33.61276 179.36315 33.6738 179.41175 33.73491 179.46031 33.79613 179.50887 33.85744 179.55745 33.91884 179.606 33.98036 179.65459 34.04199 179.70314 34.10374 179.7517 34.16565 179.80028 34.22768 179.84883 34.28986 179.89742 34.35217 179.94599 34.41467 179.99454 34.47733 180.04314 34.54015 180.09169 34.60318 180.14028 34.66637 180.18883 34.7298 180.23738 34.79343 180.28597 34.85728 180.33452 34.92137 180.38312 34.9857 180.43167 35.0503 180.48023 35.11516 180.52881 35.18028 180.57736 35.2457 180.62595 35.31143 180.67452 35.37749 180.72307 35.44386 180.77165 35.51057 180.8202 35.57764 180.8688 35.64508 180.91736 35.7129 180.96591 35.78114 181.0145 35.84978 181.06305 35.91887 181.11164 35.98843 181.16019 36.05844 181.20874 36.12894 181.25733 36.19997 181.3059 36.27153 181.35449 36.34366 181.40305 36.41634 181.4516 36.48962 181.50019 36.56355 181.54874 36.63812 181.59732 36.71338 181.64588 36.78935 181.69443 36.86607 181.74301 36.94354 181.79158 37.0218 181.84017 37.10095 181.88872 37.18091 181.93727 37.26183 181.98587 37.34367 182.03443 37.42648 182.08301 37.51038 182.13156 37.5953 182.18012 37.68137 182.22872 37.76862 182.27727 37.85709 182.32585 37.94684 182.3744 38.03793 182.42296 38.13042 182.47154 38.2244 182.5201 38.31989 182.56868 38.41699 182.61725 38.51578 182.6658 38.61633 182.7144 38.71873 182.76296 38.82309 182.81154 38.92947 182.86009 39.03801 182.90865 39.14877 182.95723 39.26195 183.00579 39.37756 183.05437 39.49583 183.10292 39.61685 183.15149 39.74078 183.20008 39.86777 183.24863 39.99802 183.29723 40.13167 183.34578 40.26895 183.39434 40.41006 183.44292 40.55522 183.49147 40.70468 183.54006 40.8587 183.58861 41.01758 183.63718 41.18156 183.68576 41.35104 183.73432 41.52637 183.7829 41.70789 183.83145 41.89604 183.88 42.0913 183.9286 42.29413 183.97716 42.5051 184.02574 42.72478 184.07431 42.95383 184.12287 43.19298 184.17145 43.44296 184.22 43.70467 184.26859 43.97903 184.31714 44.26712 184.36569 44.57008 184.41428 44.8892 184.46283 45.22594 184.51142 45.58186 184.56 45.9588 184.60855 46.35872 184.65714 46.78392 184.70569 47.23695 184.75428 47.72066 184.80283 48.23837 184.85138 48.79382 184.89997 49.39128 184.94852 50.03558 184.99712 50.73242 185.04567 51.48824 185.09423 52.31061 185.1428 53.20825 185.19136 54.19136 185.23996 55.27191 185.28852 56.46388 185.33707 57.78378 185.38565 59.25105 185.4342 60.88869 185.4828 62.7238 185.53136 64.78833 185.57991 67.11977 185.6285 69.76169 185.67705 72.76408 185.72563 76.18288 185.77419 80.07843 185.82274 84.51144 185.87134 89.53575 185.9199 95.18555 185.96849 101.4564 186.01705 108.28067 186.0656 115.50307 186.11418 122.86865 186.16274 130.03902 186.21132 136.64488 186.25988 142.36357 186.30843 146.98958 186.35701 150.4657 186.40558 152.86505 186.45417 154.34186 186.50273 155.07778 186.55129 155.24356 186.59987 154.98032 186.64842 154.39569 186.697 153.568 186.74556 152.55301 186.79412 151.39041 186.84272 150.1089 186.89127 148.72983 186.93985 147.2696 186.9884 145.74138 187.03696 144.15592 187.08554 142.52234 187.1341 140.84854 187.1827 139.14142 187.23125 137.40708 187.2798 135.65091 187.3284 133.87773 187.37696 132.09189 187.42554 130.29718 187.47409 128.49704 187.52265 126.69447 187.57123 124.89215 187.61978 123.09247 187.66837 121.29744 187.71692 119.50888 187.76549 117.72835 187.81409 115.95715 187.86264 114.1964 187.91123 112.44707 187.95978 110.70988 188.00833 108.98549 188.05692 107.27435 188.10547 105.57684 188.15406 103.8932 188.2026 102.22356 188.25118 100.56796 188.29976 98.92636 188.34832 97.29865 188.3969 95.68459 188.44547 94.08391 188.49402 92.49623 188.5426 90.92113 188.59116 89.35805 188.63974 87.80638 188.6883 86.26538 188.73686 84.73425 188.78545 83.21204 188.834 81.69768 188.88259 80.18993 188.93114 78.68745 188.97969 77.18872 189.02828 75.69199 189.07683 74.19534 189.12543 72.69664 189.174 71.19356 189.22255 69.6835 189.27114 68.16359 189.31969 66.6308 189.36827 65.08176 189.41683 63.51291 189.46538 61.92047 189.51396 60.30049 189.56252 58.64891 189.6111 56.96156 189.65967 55.2344 189.70822 53.46367 189.75682 51.64592 189.80538 49.77858 189.85396 47.86003 189.90251 45.89021 189.95107 43.87105 189.99965 41.80695 190.0482 39.70547 190.0968 37.57779 190.14536 35.43895 190.19391 33.30807 190.2425 31.20784 190.29105 29.16373 190.33963 27.20241 190.3882 25.34995 190.43675 23.6295 190.48534 22.0594 190.53389 20.65164 190.58249 19.41115 190.63105 18.33601 190.6796 17.41846 190.72818 16.64635 190.77674 16.00485 190.82532 15.47786 190.87387 15.04933 190.92243 14.7041 190.97101 14.4285 191.01958 14.21036 191.06818 14.03943 191.11673 13.90698 191.16529 13.80576 191.21387 13.72984 191.26242 13.6744 191.311 13.63548 191.35956 13.60995 191.40811 13.59526 191.4567 13.58934 191.50527 13.59056 191.55385 13.5976 191.6024 13.60942 191.65096 13.62515 191.69956 13.6441 191.74811 13.66576 191.79669 13.68965 191.84525 13.7154 191.8938 13.74278 191.9424 13.77148 191.99095 13.80138 192.03954 13.83232 192.08809 13.86412 192.13665 13.89671 192.18523 13.93002 192.23378 13.96399 192.28237 13.9985 192.33094 14.03358 192.37949 14.06917 192.42809 14.10521 192.47664 14.1417 192.52523 14.17862 192.57378 14.21593 192.62233 14.25365 192.67092 14.29173 192.71947 14.3302 192.76805 14.36902 192.8166 14.4082 192.86518 14.44772 192.91376 14.48758 192.96231 14.5278 193.01091 14.56836 193.05947 14.60924 193.10802 14.65044 193.1566 14.69199 193.20516 14.73387 193.25374 14.77606 193.30229 14.81859 193.35086 14.86147 193.39945 14.90462 193.448 14.94814 193.49658 14.99194 193.54514 15.03609 193.59369 15.08055 193.64229 15.12535 193.69084 15.17047 193.73943 15.21588 193.788 15.26163 193.83655 15.3077 193.88513 15.35408 193.93369 15.4008 193.98227 15.4478 194.03083 15.49516 194.07938 15.5428 194.12796 15.59076 194.17652 15.63905 194.2251 15.68765 194.27368 15.73656"/>
</g>
<use data-text="t" xlink:href="#font_4_105" transform="matrix(9.9626,0,0,-9.963098,171.703,133.61704)"/>
<use data-text="i" xlink:href="#font_4_66" transform="matrix(9.9626,0,0,-9.963098,175.57846,133.61704)"/>
<use data-text="m" xlink:href="#font_4_75" transform="matrix(9.9626,0,0,-9.963098,178.34809,133.61704)"/>
<use data-text="e" xlink:href="#font_4_50" transform="matrix(9.9626,0,0,-9.963098,186.64691,133.61704)"/>
<use data-text="(" xlink:href="#font_4_85" transform="matrix(9.9626,0,0,-9.963098,194.3779,133.61704)"/>
<use data-text="m" xlink:href="#font_4_75" transform="matrix(9.9626,0,0,-9.963098,198.25336,133.61704)"/>
<use data-text="s" xlink:href="#font_4_98" transform="matrix(9.9626,0,0,-9.963098,206.55222,133.61704)"/>
<use data-text=")" xlink:href="#font_4_86" transform="matrix(9.9626,0,0,-9.963098,210.47748,133.61704)"/>
<use data-text="p" xlink:href="#font_4_84" transform="matrix(9.9626,0,0,-9.963098,27.095002,16.096177)"/>
<use data-text="o" xlink:href="#font_4_81" transform="matrix(9.9626,0,0,-9.963098,32.9032,16.096177)"/>
<use data-text="t" xlink:href="#font_4_105" transform="matrix(9.9626,0,0,-9.963098,37.88449,16.096177)"/>
<use data-text="e" xlink:href="#font_4_50" transform="matrix(9.9626,0,0,-9.963098,41.75995,16.096177)"/>
<use data-text="n" xlink:href="#font_4_77" transform="matrix(9.9626,0,0,-9.963098,46.18335,16.096177)"/>
<use data-text="t" xlink:href="#font_4_105" transform="matrix(9.9626,0,0,-9.963098,51.453554,16.096177)"/>
<use data-text="i" xlink:href="#font_4_66" transform="matrix(9.9626,0,0,-9.963098,55.32901,16.096177)"/>
<use data-text="a" xlink:href="#font_4_28" transform="matrix(9.9626,0,0,-9.963098,58.098619,16.096177)"/>
<use data-text="l" xlink:href="#font_4_72" transform="matrix(9.9626,0,0,-9.963098,63.07991,16.096177)"/>
<use data-text="(" xlink:href="#font_4_85" transform="matrix(9.9626,0,0,-9.963098,69.157108,16.096177)"/>
<use data-text="V" xlink:href="#font_4_111" transform="matrix(9.9626,0,0,-9.963098,73.03256,16.096177)"/>
<use data-text=")" xlink:href="#font_4_86" transform="matrix(9.9626,0,0,-9.963098,80.50452,16.096177)"/>
</svg>
