<svg xmlns="http://www.w3.org/2000/svg" xmlns:xlink="http://www.w3.org/1999/xlink" xmlns:inkscape="http://www.inkscape.org/namespaces/inkscape" version="1.1" width="216" height="181" viewBox="0 0 216 181">
<defs>
<path id="font_1_3" d="M.1269989 .07699585 .23298645 .18003845C.3889923 .31811524 .44898988 .3721466 .44898988 .47216798 .44898988 .5860901 .35899354 .6660156 .23699951 .6660156 .12399292 .6660156 .049987794 .57411196 .049987794 .48516847 .049987794 .4291687 .099990848 .4291687 .102996829 .4291687 .11999512 .4291687 .15499878 .44117738 .15499878 .48217774 .15499878 .5081787 .13699341 .5341797 .101989749 .5341797 .09399414 .5341797 .09199524 .5341797 .08898926 .5331726 .11199951 .59806826 .1659851 .63500979 .22399903 .63500979 .31498719 .63500979 .35798646 .5541382 .35798646 .47216798 .35798646 .39215089 .30799867 .31311036 .25299073 .25108338L.06098938 .036987306C.049987794 .025985718 .049987794 .023986817 .049987794 0H.42099L.44898988 .17404175H.42399598C.4189911 .14402771 .4119873 .1000061 .4019928 .084991458 .394989 .07699585 .32899476 .07699585 .30699159 .07699585H.1269989Z"/>
<path id="font_1_4" d="M.2939911 .16503906V.07800293C.2939911 .041992189 .2919922 .0309906 .21798706 .0309906H.19699097V0C.23799134 .0029907227 .2899933 .0029907227 .33198548 .0029907227 .37399293 .0029907227 .4269867 .0029907227 .46798707 0V.0309906H.44699098C.37298585 .0309906 .37098695 .041992189 .37098695 .07800293V.16503906H.47099305V.19602967H.37098695V.65075686C.37098695 .67074587 .37098695 .6767578 .35499574 .6767578 .34599305 .6767578 .34298707 .6767578 .33499146 .66474917L.027999878 .19602967V.16503906H.2939911M.2999878 .19602967H.055999757L.2999878 .5688019V.19602967Z"/>
<path id="font_1_5" d="M.13198853 .327713V.35173036C.13198853 .6047821 .2559967 .64100649 .30699159 .64100649 .33099366 .64100649 .37298585 .634964 .394989 .6007538 .37998963 .6007538 .33999635 .6007538 .33999635 .5557556 .33999635 .524765 .3639984 .5097656 .38598634 .5097656 .4019928 .5097656 .43199159 .51875308 .43199159 .5577545 .43199159 .6178589 .3880005 .6660156 .30499269 .6660156 .1769867 .6660156 .041992189 .5367584 .041992189 .31570436 .041992189 .048553468 .1579895-.022460938 .25099183-.022460938 .3619995-.022460938 .45700074 .07156372 .45700074 .2036438 .45700074 .33070375 .36799623 .4267578 .25698854 .4267578 .18899536 .4267578 .1519928 .37573243 .13198853 .327713M.25099183 .0055389406C.18798828 .0055389406 .1579895 .06556702 .1519928 .080566409 .13398743 .127594 .13398743 .2076416 .13398743 .22564698 .13398743 .30369569 .1659851 .40374757 .2559967 .40374757 .27198792 .40374757 .31799317 .40374757 .34899903 .34172059 .36698915 .30470277 .36698915 .2536621 .36698915 .20463562 .36698915 .15661621 .36698915 .10658264 .34999085 .0705719 .31999208 .010528564 .27398683 .0055389406 .25099183 .0055389406Z"/>
<path id="font_1_6" d="M.16299439 .4569702C.116989139 .486969 .11299133 .52098086 .11299133 .5379791 .11299133 .598999 .17799378 .64100649 .24899292 .64100649 .32199098 .64100649 .38598634 .58898928 .38598634 .51698306 .38598634 .45996095 .34700013 .4119568 .2869873 .37695313L.16299439 .4569702M.30899049 .36193849C.3809967 .3989563 .42999269 .45095826 .42999269 .51698306 .42999269 .6090088 .34098817 .6660156 .25 .6660156 .1499939 .6660156 .068984989 .59199526 .068984989 .49897767 .068984989 .4809723 .070999149 .43595887 .11299133 .38894654 .12399292 .37695313 .16099549 .35194398 .18598938 .33494569 .12799073 .30592347 .041992189 .24984741 .041992189 .15072632 .041992189 .04458618 .14399719-.022460938 .24899292-.022460938 .3619995-.022460938 .45700074 .06060791 .45700074 .16773987 .45700074 .20379639 .44599916 .24885559 .4079895 .2909088 .3889923 .31193543 .37298585 .3219452 .30899049 .36193849M.20899964 .3199463 .33198548 .24183655C.3600006 .2228241 .40699769 .19277954 .40699769 .13169861 .40699769 .05760193 .33198548 .0055389406 .25 .0055389406 .1639862 .0055389406 .09199524 .067611698 .09199524 .15072632 .09199524 .20880127 .12399292 .27288819 .20899964 .3199463Z"/>
<path id="font_1_2" d="M.2939911 .64004519C.2939911 .66400149 .2939911 .6660156 .2709961 .6660156 .20899964 .60227969 .12098694 .60227969 .08898926 .60227969V.57128909C.10899353 .57128909 .16799927 .57128909 .21998596 .5972748V.07902527C.21998596 .042999269 .21699524 .0309906 .1269989 .0309906H.09498596V0C.12998963 .0029907227 .21699524 .0029907227 .25698854 .0029907227 .29699708 .0029907227 .38398744 .0029907227 .4189911 0V.0309906H.3869934C.29699708 .0309906 .2939911 .041992189 .2939911 .07902527V.64004519Z"/>
<path id="font_1_1" d="M.45999146 .31976319C.45999146 .39982606 .45498658 .47988893 .41999818 .5539398 .37399293 .65000918 .2919922 .6660156 .25 .6660156 .18998719 .6660156 .116989139 .64001467 .07598877 .54693606 .04399109 .47789 .038986207 .39982606 .038986207 .31976319 .038986207 .24472046 .042999269 .15464783 .083999637 .07859802 .1269989-.0024719239 .19999695-.022460938 .24899292-.022460938 .30299378-.022460938 .3789978-.0014648438 .4229889 .09359741 .45498658 .16265869 .45999146 .2407074 .45999146 .31976319M.24899292-.00047302247C.20999146-.00047302247 .15098572 .024551392 .1329956 .12062073 .12199402 .18066406 .12199402 .2727356 .12199402 .3317871 .12199402 .39582826 .12199402 .46188355 .12998963 .5159149 .14898682 .63500979 .22399903 .64401248 .24899292 .64401248 .28199769 .64401248 .34799195 .6259918 .36698915 .52693179 .3769989 .47088624 .3769989 .39482118 .3769989 .3317871 .3769989 .25672914 .3769989 .18867493 .3659973 .12461853 .35099793 .029556275 .2939911-.00047302247 .24899292-.00047302247Z"/>
<clipPath id="clip_2">
<path transform="matrix(1.00002,0,0,-1.00008,15.826035,166.53728)" d="M0 0H194.27368V161.39636H0Z"/>
</clipPath>
<path id="font_3_1" d="M.33399964 .30233766C.33999635 .32835389 .36299134 .42037965 .43299867 .42037965 .43798829 .42037965 .46199037 .42037965 .48298646 .40734864 .45498658 .402359 .43499757 .37734986 .43499757 .35334779 .43499757 .33735658 .44599916 .31835938 .47299195 .31835938 .49499513 .31835938 .5269928 .3363495 .5269928 .37635804 .5269928 .42837525 .46798707 .4423828 .43399049 .4423828 .37599183 .4423828 .34098817 .38935853 .32899476 .36634828 .3039856 .43237306 .25 .4423828 .22099304 .4423828 .116989139 .4423828 .05999756 .3133545 .05999756 .28834535 .05999756 .27833558 .069992069 .27833558 .07199097 .27833558 .07998657 .27833558 .08299255 .28033448 .084991458 .28933717 .11898804 .39535523 .18499756 .42037965 .21899414 .42037965 .23799134 .42037965 .272995 .4113617 .272995 .35334779 .272995 .32235719 .2559967 .25532533 .21899414 .11528015 .20298767 .053268434 .16799927 .011245728 .12399292 .011245728 .117996219 .011245728 .09498596 .011245728 .07398987 .024276734 .09899902 .029266358 .12098694 .05027771 .12098694 .07827759 .12098694 .105270389 .09899902 .11328125 .083999637 .11328125 .053985597 .11328125 .0289917 .08728027 .0289917 .055267335 .0289917 .009246826 .07899475-.0107421879 .12298584-.0107421879 .18899536-.0107421879 .22499085 .059280397 .22799683 .0652771 .23999024 .028274537 .27598573-.0107421879 .33599855-.0107421879 .43899537-.0107421879 .49598695 .118270877 .49598695 .14328003 .49598695 .1532898 .4869995 .1532898 .48399354 .1532898 .47499085 .1532898 .47299195 .14929199 .47099305 .14228821 .43798829 .03527832 .36999513 .011245728 .33799745 .011245728 .29899598 .011245728 .2829895 .043273927 .2829895 .07727051 .2829895 .09927368 .2889862 .121276859 .2999878 .16529846L.33399964 .30233766Z"/>
<path id="font_3_2" d="M.48599244 .38136292C.48999024 .39537049 .48999024 .39736939 .48999024 .40437318 .48999024 .42237855 .47599793 .43138124 .46099855 .43138124 .45098878 .43138124 .43499757 .42536927 .42599488 .41036988 .42399598 .405365 .41600038 .37435914 .4119873 .35635377 .40499879 .33035279 .397995 .30334474 .3919983 .27633668L.34700013 .09628296C.34298707 .08126831 .2999878 .011245728 .23399353 .011245728 .18299866 .011245728 .17199707 .055267335 .17199707 .0922699 .17199707 .1382904 .18899536 .20030213 .22299195 .28833009 .23899842 .3293457 .24299622 .3403473 .24299622 .36035157 .24299622 .405365 .21099854 .4423828 .16099549 .4423828 .06599426 .4423828 .0289917 .29733277 .0289917 .28833009 .0289917 .27833558 .038986207 .27833558 .040985109 .27833558 .050994874 .27833558 .051986696 .28033448 .056991579 .29634095 .083999637 .3903656 .12399292 .42037965 .1579895 .42037965 .1659851 .42037965 .18299866 .42037965 .18299866 .3883667 .18299866 .36335755 .17298889 .3373413 .1659851 .31834413 .12599182 .21231079 .10798645 .1552887 .10798645 .10827637 .10798645 .019256592 .17098999-.0107421879 .22999573-.0107421879 .2689972-.0107421879 .30299378 .0062561037 .33099366 .03425598 .31799317-.017745972 .30599977-.06674194 .2659912-.11973572 .23999024-.15385437 .20199585-.18309021 .1559906-.18309021 .14199829-.18309021 .09700012-.18005371 .07998657-.14074707 .09599304-.14074707 .10899353-.14074707 .12298584-.1287384 .1329956-.11973572 .14299011-.10673523 .14299011-.08773804 .14299011-.056747438 .115997318-.052734376 .10598755-.052734376 .08299255-.052734376 .049987794-.068740848 .049987794-.11773682 .049987794-.16796875 .09399414-.20507813 .1559906-.20507813 .25898744-.20507813 .3619995-.11373901 .3899994-.00074768069L.48599244 .38136292Z"/>
</defs>
<path transform="matrix(1.00002,0,0,-1.00008,15.826035,166.53728)" stroke-width=".19925" stroke-linecap="butt" stroke-miterlimit="10" stroke-linejoin="miter" fill="none" stroke="#7f807f" d="M38.85474-2.12607V2.12607M77.70947-2.12607V2.12607M116.56421-2.12607V2.12607M155.41895-2.12607V2.12607M194.27368-2.12607V2.12607"/>
<path transform="matrix(1.00002,0,0,-1.00008,15.826035,166.53728)" stroke-width=".19925" stroke-linecap="butt" stroke-miterlimit="10" stroke-linejoin="miter" fill="none" stroke="#7f807f" d="M-2.12631 32.27927H2.12631M-2.12631 64.55853H2.12631M-2.12631 96.83781H2.12631M-2.12631 129.11708H2.12631M-2.12631 161.39636H2.12631"/>
<path transform="matrix(1.00002,0,0,-1.00008,15.826035,166.53728)" stroke-width=".3985" stroke-linecap="butt" stroke-miterlimit="10" stroke-linejoin="miter" fill="none" stroke="#000000" d="M0 0H192.28116"/>
<path transform="matrix(1.00002,0,0,-1.00008,208.11104,166.53728)" d="M1.99252 0-1.19551 1.59401 0 0-1.19551-1.59401"/>
<path transform="matrix(1.00002,0,0,-1.00008,15.826035,166.53728)" stroke-width=".3985" stroke-linecap="butt" stroke-miterlimit="10" stroke-linejoin="miter" fill="none" stroke="#000000" d="M0 0V159.40384"/>
<path transform="matrix(0,-1.00008,-1.00002,-0,15.826035,7.120682)" d="M1.99252 0-1.19551 1.59401 0 0-1.19551-1.59401"/>
<use data-text="2" xlink:href="#font_1_3" transform="matrix(9.962799,0,0,-9.963397,52.190767,178.60425)"/>
<use data-text="4" xlink:href="#font_1_4" transform="matrix(9.962799,0,0,-9.963397,91.04654,178.60425)"/>
<use data-text="6" xlink:href="#font_1_5" transform="matrix(9.962799,0,0,-9.963397,129.90232,178.60425)"/>
<use data-text="8" xlink:href="#font_1_6" transform="matrix(9.962799,0,0,-9.963397,168.7571,178.60425)"/>
<use data-text="1" xlink:href="#font_1_2" transform="matrix(9.962799,0,0,-9.963397,205.12183,178.60425)"/>
<use data-text="0" xlink:href="#font_1_1" transform="matrix(9.962799,0,0,-9.963397,210.10323,178.60425)"/>
<use data-text="2" xlink:href="#font_1_3" transform="matrix(9.962799,0,0,-9.963397,5.1978228,137.46596)"/>
<use data-text="4" xlink:href="#font_1_4" transform="matrix(9.962799,0,0,-9.963397,5.1978228,105.18437)"/>
<use data-text="6" xlink:href="#font_1_5" transform="matrix(9.962799,0,0,-9.963397,5.1978228,72.90179)"/>
<use data-text="8" xlink:href="#font_1_6" transform="matrix(9.962799,0,0,-9.963397,5.1978228,40.62021)"/>
<use data-text="1" xlink:href="#font_1_2" transform="matrix(9.962799,0,0,-9.963397,.21672058,8.338623)"/>
<use data-text="0" xlink:href="#font_1_1" transform="matrix(9.962799,0,0,-9.963397,5.19812,8.338623)"/>
<g clip-path="url(#clip_2)">
</g>
<path transform="matrix(1.00002,0,0,-1.00008,15.826035,166.53728)" d="M21.41992 80.69818C21.41992 81.79865 20.52783 82.69073 19.42737 82.69073 18.32689 82.69073 17.43481 81.79865 17.43481 80.69818 17.43481 79.5977 18.32689 78.70563 19.42737 78.70563 20.52783 78.70563 21.41992 79.5977 21.41992 80.69818ZM19.42737 80.69818"/>
<path transform="matrix(1.00002,0,0,-1.00008,15.826035,166.53728)" stroke-width=".3985" stroke-linecap="butt" stroke-miterlimit="10" stroke-linejoin="miter" fill="none" stroke="#000000" d="M21.41992 80.69818C21.41992 81.79865 20.52783 82.69073 19.42737 82.69073 18.32689 82.69073 17.43481 81.79865 17.43481 80.69818 17.43481 79.5977 18.32689 78.70563 19.42737 78.70563 20.52783 78.70563 21.41992 79.5977 21.41992 80.69818ZM19.42737 80.69818"/>
<path transform="matrix(1.00002,0,0,-1.00008,15.826035,166.53728)" d="M40.84729 48.4189C40.84729 49.51938 39.9552 50.41145 38.85474 50.41145 37.75426 50.41145 36.86218 49.51938 36.86218 48.4189 36.86218 47.31844 37.75426 46.42635 38.85474 46.42635 39.9552 46.42635 40.84729 47.31844 40.84729 48.4189ZM38.85474 48.4189"/>
<path transform="matrix(1.00002,0,0,-1.00008,15.826035,166.53728)" stroke-width=".3985" stroke-linecap="butt" stroke-miterlimit="10" stroke-linejoin="miter" fill="none" stroke="#000000" d="M40.84729 48.4189C40.84729 49.51938 39.9552 50.41145 38.85474 50.41145 37.75426 50.41145 36.86218 49.51938 36.86218 48.4189 36.86218 47.31844 37.75426 46.42635 38.85474 46.42635 39.9552 46.42635 40.84729 47.31844 40.84729 48.4189ZM38.85474 48.4189"/>
<path transform="matrix(1.00002,0,0,-1.00008,15.826035,166.53728)" d="M60.27466 129.11708C60.27466 130.21756 59.38257 131.10964 58.2821 131.10964 57.18163 131.10964 56.28955 130.21756 56.28955 129.11708 56.28955 128.01662 57.18163 127.12453 58.2821 127.12453 59.38257 127.12453 60.27466 128.01662 60.27466 129.11708ZM58.2821 129.11708"/>
<path transform="matrix(1.00002,0,0,-1.00008,15.826035,166.53728)" stroke-width=".3985" stroke-linecap="butt" stroke-miterlimit="10" stroke-linejoin="miter" fill="none" stroke="#000000" d="M60.27466 129.11708C60.27466 130.21756 59.38257 131.10964 58.2821 131.10964 57.18163 131.10964 56.28955 130.21756 56.28955 129.11708 56.28955 128.01662 57.18163 127.12453 58.2821 127.12453 59.38257 127.12453 60.27466 128.01662 60.27466 129.11708ZM58.2821 129.11708"/>
<path transform="matrix(1.00002,0,0,-1.00008,15.826035,166.53728)" d="M79.70203 145.25672C79.70203 146.3572 78.80994 147.24927 77.70947 147.24927 76.609 147.24927 75.71692 146.3572 75.71692 145.25672 75.71692 144.15625 76.609 143.26416 77.70947 143.26416 78.80994 143.26416 79.70203 144.15625 79.70203 145.25672ZM77.70947 145.25672"/>
<path transform="matrix(1.00002,0,0,-1.00008,15.826035,166.53728)" stroke-width=".3985" stroke-linecap="butt" stroke-miterlimit="10" stroke-linejoin="miter" fill="none" stroke="#000000" d="M79.70203 145.25672C79.70203 146.3572 78.80994 147.24927 77.70947 147.24927 76.609 147.24927 75.71692 146.3572 75.71692 145.25672 75.71692 144.15625 76.609 143.26416 77.70947 143.26416 78.80994 143.26416 79.70203 144.15625 79.70203 145.25672ZM77.70947 145.25672"/>
<path transform="matrix(1.00002,0,0,-1.00008,15.826035,166.53728)" d="M99.1294 80.69818C99.1294 81.79865 98.2373 82.69073 97.13684 82.69073 96.03636 82.69073 95.14429 81.79865 95.14429 80.69818 95.14429 79.5977 96.03636 78.70563 97.13684 78.70563 98.2373 78.70563 99.1294 79.5977 99.1294 80.69818ZM97.13684 80.69818"/>
<path transform="matrix(1.00002,0,0,-1.00008,15.826035,166.53728)" stroke-width=".3985" stroke-linecap="butt" stroke-miterlimit="10" stroke-linejoin="miter" fill="none" stroke="#000000" d="M99.1294 80.69818C99.1294 81.79865 98.2373 82.69073 97.13684 82.69073 96.03636 82.69073 95.14429 81.79865 95.14429 80.69818 95.14429 79.5977 96.03636 78.70563 97.13684 78.70563 98.2373 78.70563 99.1294 79.5977 99.1294 80.69818ZM97.13684 80.69818"/>
<path transform="matrix(1.00002,0,0,-1.00008,15.826035,166.53728)" d="M118.55676 80.69818C118.55676 81.79865 117.66467 82.69073 116.56421 82.69073 115.46373 82.69073 114.57166 81.79865 114.57166 80.69818 114.57166 79.5977 115.46373 78.70563 116.56421 78.70563 117.66467 78.70563 118.55676 79.5977 118.55676 80.69818ZM116.56421 80.69818"/>
<path transform="matrix(1.00002,0,0,-1.00008,15.826035,166.53728)" stroke-width=".3985" stroke-linecap="butt" stroke-miterlimit="10" stroke-linejoin="miter" fill="none" stroke="#000000" d="M118.55676 80.69818C118.55676 81.79865 117.66467 82.69073 116.56421 82.69073 115.46373 82.69073 114.57166 81.79865 114.57166 80.69818 114.57166 79.5977 115.46373 78.70563 116.56421 78.70563 117.66467 78.70563 118.55676 79.5977 118.55676 80.69818ZM116.56421 80.69818"/>
<path transform="matrix(1.00002,0,0,-1.00008,15.826035,166.53728)" d="M137.98413 129.11708C137.98413 130.21756 137.09204 131.10964 135.99158 131.10964 134.8911 131.10964 133.99903 130.21756 133.99903 129.11708 133.99903 128.01662 134.8911 127.12453 135.99158 127.12453 137.09204 127.12453 137.98413 128.01662 137.98413 129.11708ZM135.99158 129.11708"/>
<path transform="matrix(1.00002,0,0,-1.00008,15.826035,166.53728)" stroke-width=".3985" stroke-linecap="butt" stroke-miterlimit="10" stroke-linejoin="miter" fill="none" stroke="#000000" d="M137.98413 129.11708C137.98413 130.21756 137.09204 131.10964 135.99158 131.10964 134.8911 131.10964 133.99903 130.21756 133.99903 129.11708 133.99903 128.01662 134.8911 127.12453 135.99158 127.12453 137.09204 127.12453 137.98413 128.01662 137.98413 129.11708ZM135.99158 129.11708"/>
<path transform="matrix(1.00002,0,0,-1.00008,15.826035,166.53728)" d="M157.4115 32.27927C157.4115 33.37973 156.51941 34.27182 155.41895 34.27182 154.31847 34.27182 153.42639 33.37973 153.42639 32.27927 153.42639 31.17879 154.31847 30.28671 155.41895 30.28671 156.51941 30.28671 157.4115 31.17879 157.4115 32.27927ZM155.41895 32.27927"/>
<path transform="matrix(1.00002,0,0,-1.00008,15.826035,166.53728)" stroke-width=".3985" stroke-linecap="butt" stroke-miterlimit="10" stroke-linejoin="miter" fill="none" stroke="#000000" d="M157.4115 32.27927C157.4115 33.37973 156.51941 34.27182 155.41895 34.27182 154.31847 34.27182 153.42639 33.37973 153.42639 32.27927 153.42639 31.17879 154.31847 30.28671 155.41895 30.28671 156.51941 30.28671 157.4115 31.17879 157.4115 32.27927ZM155.41895 32.27927"/>
<path transform="matrix(1.00002,0,0,-1.00008,15.826035,166.53728)" d="M176.83887 48.4189C176.83887 49.51938 175.94678 50.41145 174.84632 50.41145 173.74584 50.41145 172.85376 49.51938 172.85376 48.4189 172.85376 47.31844 173.74584 46.42635 174.84632 46.42635 175.94678 46.42635 176.83887 47.31844 176.83887 48.4189ZM174.84632 48.4189"/>
<path transform="matrix(1.00002,0,0,-1.00008,15.826035,166.53728)" stroke-width=".3985" stroke-linecap="butt" stroke-miterlimit="10" stroke-linejoin="miter" fill="none" stroke="#000000" d="M176.83887 48.4189C176.83887 49.51938 175.94678 50.41145 174.84632 50.41145 173.74584 50.41145 172.85376 49.51938 172.85376 48.4189 172.85376 47.31844 173.74584 46.42635 174.84632 46.42635 175.94678 46.42635 176.83887 47.31844 176.83887 48.4189ZM174.84632 48.4189"/>
<path transform="matrix(1.00002,0,0,-1.00008,15.826035,166.53728)" stroke-width=".3985" stroke-linecap="butt" stroke-miterlimit="10" stroke-linejoin="miter" fill="none" stroke="#000000" d=""/>
<use data-text="x" xlink:href="#font_3_1" transform="matrix(9.962799,0,0,-9.963397,200.92374,163.017)"/>
<use data-text="y" xlink:href="#font_3_2" transform="matrix(9.962799,0,0,-9.963397,19.346108,12.912994)"/>
</svg>
