<svg xmlns="http://www.w3.org/2000/svg" xmlns:xlink="http://www.w3.org/1999/xlink" version="1.1" width="154pt" height="145pt" viewBox="0 0 154 145">
<defs>
<path id="font_1_1" d="M.45999146 .31976319C.45999146 .39982606 .45498658 .47988893 .41999818 .5539398 .37399293 .65000918 .2919922 .6660156 .25 .6660156 .18998719 .6660156 .116989139 .64001467 .07598877 .54693606 .04399109 .47789 .038986207 .39982606 .038986207 .31976319 .038986207 .24472046 .042999269 .15464783 .083999637 .07859802 .1269989-.0024719239 .19999695-.022460938 .24899292-.022460938 .30299378-.022460938 .3789978-.0014648438 .4229889 .09359741 .45498658 .16265869 .45999146 .2407074 .45999146 .31976319M.24899292-.00047302247C.20999146-.00047302247 .15098572 .024551392 .1329956 .12062073 .12199402 .18066406 .12199402 .2727356 .12199402 .3317871 .12199402 .39582826 .12199402 .46188355 .12998963 .5159149 .14898682 .63500979 .22399903 .64401248 .24899292 .64401248 .28199769 .64401248 .34799195 .6259918 .36698915 .52693179 .3769989 .47088624 .3769989 .39482118 .3769989 .3317871 .3769989 .25672914 .3769989 .18867493 .3659973 .12461853 .35099793 .029556275 .2939911-.00047302247 .24899292-.00047302247Z"/>
<path id="font_2_3" d="M.33399964 .30233766C.33999635 .32835389 .36299134 .42037965 .43299867 .42037965 .43798829 .42037965 .46199037 .42037965 .48298646 .40734864 .45498658 .402359 .43499757 .37734986 .43499757 .35334779 .43499757 .33735658 .44599916 .31835938 .47299195 .31835938 .49499513 .31835938 .5269928 .3363495 .5269928 .37635804 .5269928 .42837525 .46798707 .4423828 .43399049 .4423828 .37599183 .4423828 .34098817 .38935853 .32899476 .36634828 .3039856 .43237306 .25 .4423828 .22099304 .4423828 .116989139 .4423828 .05999756 .3133545 .05999756 .28834535 .05999756 .27833558 .069992069 .27833558 .07199097 .27833558 .07998657 .27833558 .08299255 .28033448 .084991458 .28933717 .11898804 .39535523 .18499756 .42037965 .21899414 .42037965 .23799134 .42037965 .272995 .4113617 .272995 .35334779 .272995 .32235719 .2559967 .25532533 .21899414 .11528015 .20298767 .053268434 .16799927 .011245728 .12399292 .011245728 .117996219 .011245728 .09498596 .011245728 .07398987 .024276734 .09899902 .029266358 .12098694 .05027771 .12098694 .07827759 .12098694 .105270389 .09899902 .11328125 .083999637 .11328125 .053985597 .11328125 .0289917 .08728027 .0289917 .055267335 .0289917 .009246826 .07899475-.0107421879 .12298584-.0107421879 .18899536-.0107421879 .22499085 .059280397 .22799683 .0652771 .23999024 .028274537 .27598573-.0107421879 .33599855-.0107421879 .43899537-.0107421879 .49598695 .118270877 .49598695 .14328003 .49598695 .1532898 .4869995 .1532898 .48399354 .1532898 .47499085 .1532898 .47299195 .14929199 .47099305 .14228821 .43798829 .03527832 .36999513 .011245728 .33799745 .011245728 .29899598 .011245728 .2829895 .043273927 .2829895 .07727051 .2829895 .09927368 .2889862 .121276859 .2999878 .16529846L.33399964 .30233766Z"/>
<path id="font_2_4" d="M.48599244 .38136292C.48999024 .39537049 .48999024 .39736939 .48999024 .40437318 .48999024 .42237855 .47599793 .43138124 .46099855 .43138124 .45098878 .43138124 .43499757 .42536927 .42599488 .41036988 .42399598 .405365 .41600038 .37435914 .4119873 .35635377 .40499879 .33035279 .397995 .30334474 .3919983 .27633668L.34700013 .09628296C.34298707 .08126831 .2999878 .011245728 .23399353 .011245728 .18299866 .011245728 .17199707 .055267335 .17199707 .0922699 .17199707 .1382904 .18899536 .20030213 .22299195 .28833009 .23899842 .3293457 .24299622 .3403473 .24299622 .36035157 .24299622 .405365 .21099854 .4423828 .16099549 .4423828 .06599426 .4423828 .0289917 .29733277 .0289917 .28833009 .0289917 .27833558 .038986207 .27833558 .040985109 .27833558 .050994874 .27833558 .051986696 .28033448 .056991579 .29634095 .083999637 .3903656 .12399292 .42037965 .1579895 .42037965 .1659851 .42037965 .18299866 .42037965 .18299866 .3883667 .18299866 .36335755 .17298889 .3373413 .1659851 .31834413 .12599182 .21231079 .10798645 .1552887 .10798645 .10827637 .10798645 .019256592 .17098999-.0107421879 .22999573-.0107421879 .2689972-.0107421879 .30299378 .0062561037 .33099366 .03425598 .31799317-.017745972 .30599977-.06674194 .2659912-.11973572 .23999024-.15385437 .20199585-.18309021 .1559906-.18309021 .14199829-.18309021 .09700012-.18005371 .07998657-.14074707 .09599304-.14074707 .10899353-.14074707 .12298584-.1287384 .1329956-.11973572 .14299011-.10673523 .14299011-.08773804 .14299011-.056747438 .115997318-.052734376 .10598755-.052734376 .08299255-.052734376 .049987794-.068740848 .049987794-.11773682 .049987794-.16796875 .09399414-.20507813 .1559906-.20507813 .25898744-.20507813 .3619995-.11373901 .3899994-.00074768069L.48599244 .38136292Z"/>
<path id="font_1_2" d="M.2939911 .64004519C.2939911 .66400149 .2939911 .6660156 .2709961 .6660156 .20899964 .60227969 .12098694 .60227969 .08898926 .60227969V.57128909C.10899353 .57128909 .16799927 .57128909 .21998596 .5972748V.07902527C.21998596 .042999269 .21699524 .0309906 .1269989 .0309906H.09498596V0C.12998963 .0029907227 .21699524 .0029907227 .25698854 .0029907227 .29699708 .0029907227 .38398744 .0029907227 .4189911 0V.0309906H.3869934C.29699708 .0309906 .2939911 .041992189 .2939911 .07902527V.64004519Z"/>
<path id="font_2_1" d="M.6049957 .37234498C.6049957 .4173584 .58699038 .4423523 .5649872 .4423523 .5389862 .4423523 .5119934 .41835023 .5119934 .39533998 .5119934 .38534547 .5169983 .37434388 .5269928 .3653412 .5439911 .35032655 .56199648 .32331849 .56199648 .28131105 .56199648 .24130249 .54299929 .1842804 .5119934 .13827515 .48199464 .09526062 .44499208 .06124878 .397995 .06124878 .34098817 .06124878 .30999757 .09725952 .30099488 .15127564 .31199647 .17727661 .33499146 .24130249 .33499146 .26930238 .33499146 .28131105 .32998658 .2913208 .31698609 .2913208 .30899049 .2913208 .2979889 .2893219 .2899933 .27430726 .2789917 .25430299 .2669983 .18928528 .2669983 .15327454 .23399353 .10626221 .19400025 .06124878 .1309967 .06124878 .06498718 .06124878 .04399109 .120269779 .04399109 .17628479 .04399109 .3013153 .1459961 .40634156 .1459961 .4193573 .1459961 .4303589 .13798523 .4383545 .1269989 .4383545 .11399841 .4383545 .10699463 .425354 .100997928 .41635133 .049987794 .34233094 .011993408 .22329712 .011993408 .13226319 .011993408 .06324768 .034988405-.0107421879 .116989139-.0107421879 .18798828-.0107421879 .23498535 .039245607 .2709961 .09425354 .27999879 .036254884 .31900025-.0107421879 .3809967-.0107421879 .45899964-.0107421879 .5069885 .050247194 .54299929 .12527466 .5669861 .17428589 .6049957 .310318 .6049957 .37234498Z"/>
<path id="font_2_2" d="M.28399659 .6252594C.28399659 .6452637 .269989 .6612549 .24699402 .6612549 .21998596 .6612549 .19299317 .6352539 .19299317 .6082611 .19299317 .5892639 .20698548 .5722656 .23098755 .5722656 .2539978 .5722656 .28399659 .5952606 .28399659 .6252594M.20799256 .24932862C.21998596 .27833558 .21998596 .28033448 .22999573 .30734254 .23799134 .3273468 .24299622 .34135438 .24299622 .36035157 .24299622 .405365 .21099854 .4423828 .16099549 .4423828 .066986087 .4423828 .0289917 .29733277 .0289917 .28833009 .0289917 .27833558 .038986207 .27833558 .040985109 .27833558 .050994874 .27833558 .051986696 .28033448 .056991579 .29634095 .083999637 .3903656 .12399292 .42037965 .1579895 .42037965 .1659851 .42037965 .18299866 .42037965 .18299866 .3883667 .18299866 .36735536 .17599488 .346344 .17199707 .3363495 .1639862 .31033326 .11898804 .19430542 .102996829 .1512909 .09298706 .12528992 .07998657 .0922699 .07998657 .0712738 .07998657 .024261475 .11399841-.0107421879 .1619873-.0107421879 .2559967-.0107421879 .29299928 .1342926 .29299928 .14329529 .29299928 .1532898 .28399659 .1532898 .2809906 .1532898 .2709961 .1532898 .2709961 .15029907 .2659912 .13528443 .24798584 .072265628 .21499634 .011245728 .1639862 .011245728 .14698792 .011245728 .13999939 .021255494 .13999939 .044265748 .13999939 .0692749 .1459961 .08326721 .16899109 .14428711L.20799256 .24932862Z"/>
<path id="font_3_1" d="M.272995 .33428956C.35099793 .33428956 .40699769 .2803192 .40699769 .1733551 .40699769 .04940796 .33499146 .012466431 .2769928 .012466431 .23699951 .012466431 .14898682 .0234375 .10699463 .082351688 .1539917 .084350589 .16499329 .11735535 .16499329 .13835144 .16499329 .17034912 .14099121 .19335938 .10998535 .19335938 .08198547 .19335938 .053985597 .17634583 .053985597 .13534546 .053985597 .041412355 .1579895-.01953125 .2789917-.01953125 .41799928-.01953125 .5139923 .07336426 .5139923 .1733551 .5139923 .2513275 .44999696 .32929994 .33999635 .35229493 .44499208 .39024354 .48298646 .4650879 .48298646 .5260773 .48298646 .60505679 .3919983 .6640625 .2809906 .6640625 .16999817 .6640625 .084991458 .61006167 .084991458 .5300751 .084991458 .49606324 .10699463 .47706605 .13699341 .47706605 .16799927 .47706605 .18798828 .5000763 .18798828 .5280762 .18798828 .5570679 .16799927 .57806399 .13699341 .5800781 .17199707 .62405398 .24099732 .63505557 .27799989 .63505557 .32299806 .63505557 .38598634 .6130676 .38598634 .5260773 .38598634 .48406983 .37199403 .43814088 .34599305 .4072113 .31298829 .36927796 .2849884 .3672943 .23498535 .36428834 .20999146 .3623047 .20799256 .3623047 .20298767 .3612976 .20098877 .3612976 .19299317 .3592987 .19299317 .34829713 .19299317 .33428956 .20199585 .33428956 .21899414 .33428956H.272995Z"/>
<path id="font_4_1" d="M.6589966 .23046875C.6759949 .23046875 .69400027 .23046875 .69400027 .25045777 .69400027 .27046205 .6759949 .27046205 .6589966 .27046205H.117996219C.100997928 .27046205 .08299255 .27046205 .08299255 .25045777 .08299255 .23046875 .100997928 .23046875 .117996219 .23046875H.6589966Z"/>
<path id="font_3_2" d="M.15499878 .5588074C.20599365 .5458069 .23599243 .5458069 .2519989 .5458069 .38398744 .5458069 .46199037 .6358032 .46199037 .6508026 .46199037 .6618042 .45498658 .6648102 .44999696 .6648102 .44799806 .6648102 .44599916 .6648102 .44198609 .6618042 .41799928 .6528015 .36499024 .6328125 .29100038 .6328125 .2630005 .6328125 .20999146 .6348114 .14498902 .6598053 .1349945 .6648102 .1329956 .6648102 .13198853 .6648102 .11898804 .6648102 .11898804 .6538086 .11898804 .6378021V.34251405C.11898804 .32548524 .11898804 .3134613 .1349945 .3134613 .14399719 .3134613 .14498902 .3154602 .15499878 .32748414 .19799805 .38259889 .25898744 .390625 .2939911 .390625 .35398866 .390625 .3809967 .34251405 .38598634 .33450318 .4039917 .30143739 .4099884 .26335145 .4099884 .20524597 .4099884 .17524719 .4099884 .116256717 .37998963 .07234192 .35499574 .03640747 .31199647 .012466431 .2630005 .012466431 .19799805 .012466431 .1309967 .04838562 .10598755 .11425781 .14399719 .11125183 .16299439 .13624573 .16299439 .16325379 .16299439 .20625305 .12599182 .21424866 .11299133 .21424866 .11099243 .21424866 .06298828 .21424866 .06298828 .1602478 .06298828 .07034302 .14498902-.01953125 .2649994-.01953125 .3929901-.01953125 .5049896 .07533264 .5049896 .20124817 .5049896 .31445313 .4189911 .41862489 .29499818 .41862489 .25099183 .41862489 .19898987 .4076233 .15499878 .36956788V.5588074Z"/>
<path id="font_3_3" d="M.5349884 .6045227C.54499819 .6165161 .54499819 .6185303 .54499819 .64453127H.2829895C.24299622 .64453127 .23199463 .6455078 .19599915 .6484375 .14399719 .65234377 .14199829 .6592407 .13899231 .676239H.10499573L.069992069 .46250917H.10398865C.10598755 .47750855 .115997318 .54351809 .13198853 .5535126 .13999939 .55952456 .22099304 .55952456 .23599243 .55952456H.45399476C.42199708 .5175171 .37098695 .45550538 .34999085 .4275055 .21899414 .25549317 .20698548 .096466068 .20698548 .037460329 .20698548 .02645874 .20698548-.01953125 .2539978-.01953125 .3019867-.01953125 .3019867 .025466919 .3019867 .038467409V.07847595C.3019867 .27249146 .34199525 .36149598 .3849945 .41551209L.5349884 .6045227Z"/>
</defs>
<path transform="matrix(1.00003,0,0,-1.00006,75.50774,79.43598)" stroke-width=".3985" stroke-linecap="butt" stroke-miterlimit="10" stroke-linejoin="miter" fill="none" stroke="#000000" d="M-74.41037 0H74.01186"/>
<path transform="matrix(1.00003,0,0,-1.00006,149.72107,79.43598)" stroke-width=".3985" stroke-linecap="round" stroke-linejoin="round" fill="none" stroke="#000000" d="M-2.07224 2.39104C-1.69365 .95639-.84999 .27895 0 0-.84999-.27895-1.69365-.95639-2.07224-2.39104"/>
<path transform="matrix(1.00003,0,0,-1.00006,75.50774,79.43598)" stroke-width=".3985" stroke-linecap="butt" stroke-miterlimit="10" stroke-linejoin="miter" fill="none" stroke="#000000" d="M0-63.7803V63.3818"/>
<path transform="matrix(0,-1.00006,-1.00003,-0,75.50774,15.85112)" stroke-width=".3985" stroke-linecap="round" stroke-linejoin="round" fill="none" stroke="#000000" d="M-2.07224 2.39104C-1.69365 .95639-.84999 .27895 0 0-.84999-.27895-1.69365-.95639-2.07224-2.39104"/>
<use data-text="0" xlink:href="#font_1_1" transform="matrix(9.962899,0,0,-9.963197,81.845928,92.19475)"/>
<use data-text="x" xlink:href="#font_2_3" transform="matrix(9.962899,0,0,-9.963197,147.07289,71.930538)"/>
<use data-text="y" xlink:href="#font_2_4" transform="matrix(9.962899,0,0,-9.963197,72.88666,6.2095949)"/>
<path transform="matrix(1.00003,0,0,-1.00006,75.50774,79.43598)" stroke-width=".3985" stroke-linecap="butt" stroke-miterlimit="10" stroke-linejoin="miter" fill="none" stroke="#000000" d="M42.5202 0C42.5202 23.48355 23.48355 42.5202 0 42.5202-23.48355 42.5202-42.5202 23.48355-42.5202 0-42.5202-23.48355-23.48355-42.5202 0-42.5202 23.48355-42.5202 42.5202-23.48355 42.5202 0ZM0 0"/>
<path transform="matrix(1.00003,0,0,-1.00006,75.50774,79.43598)" d="M45.0713 0C45.0713 1.40894 43.92915 2.5511 42.5202 2.5511 41.11125 2.5511 39.9691 1.40894 39.9691 0 39.9691-1.40894 41.11125-2.5511 42.5202-2.5511 43.92915-2.5511 45.0713-1.40894 45.0713 0ZM42.5202 0"/>
<path transform="matrix(1.00003,0,0,-1.00006,75.50774,79.43598)" stroke-width=".3985" stroke-linecap="butt" stroke-miterlimit="10" stroke-linejoin="miter" fill="none" stroke="#000000" d="M45.0713 0C45.0713 1.40894 43.92915 2.5511 42.5202 2.5511 41.11125 2.5511 39.9691 1.40894 39.9691 0 39.9691-1.40894 41.11125-2.5511 42.5202-2.5511 43.92915-2.5511 45.0713-1.40894 45.0713 0ZM42.5202 0"/>
<use data-text="1" xlink:href="#font_1_2" transform="matrix(9.962899,0,0,-9.963197,124.3672,92.19475)"/>
<path transform="matrix(1.00003,0,0,-1.00006,75.50774,79.43598)" d="M32.61723 30.06613C32.61723 31.47508 31.47508 32.61723 30.06613 32.61723 28.65718 32.61723 27.51503 31.47508 27.51503 30.06613 27.51503 28.65718 28.65718 27.51503 30.06613 27.51503 31.47508 27.51503 32.61723 28.65718 32.61723 30.06613ZM30.06613 30.06613"/>
<path transform="matrix(1.00003,0,0,-1.00006,75.50774,79.43598)" stroke-width=".3985" stroke-linecap="butt" stroke-miterlimit="10" stroke-linejoin="miter" fill="none" stroke="#000000" d="M32.61723 30.06613C32.61723 31.47508 31.47508 32.61723 30.06613 32.61723 28.65718 32.61723 27.51503 31.47508 27.51503 30.06613 27.51503 28.65718 28.65718 27.51503 30.06613 27.51503 31.47508 27.51503 32.61723 28.65718 32.61723 30.06613ZM30.06613 30.06613"/>
<use data-text="&#x03c9;" xlink:href="#font_2_1" transform="matrix(9.962899,0,0,-9.963197,111.91283,43.0298)"/>
<path transform="matrix(1.00003,0,0,-1.00006,75.50774,79.43598)" d="M2.5511 42.5202C2.5511 43.92915 1.40894 45.0713 0 45.0713-1.40894 45.0713-2.5511 43.92915-2.5511 42.5202-2.5511 41.11125-1.40894 39.9691 0 39.9691 1.40894 39.9691 2.5511 41.11125 2.5511 42.5202ZM0 42.5202"/>
<path transform="matrix(1.00003,0,0,-1.00006,75.50774,79.43598)" stroke-width=".3985" stroke-linecap="butt" stroke-miterlimit="10" stroke-linejoin="miter" fill="none" stroke="#000000" d="M2.5511 42.5202C2.5511 43.92915 1.40894 45.0713 0 45.0713-1.40894 45.0713-2.5511 43.92915-2.5511 42.5202-2.5511 41.11125-1.40894 39.9691 0 39.9691 1.40894 39.9691 2.5511 41.11125 2.5511 42.5202ZM0 42.5202"/>
<use data-text="i" xlink:href="#font_2_2" transform="matrix(9.962899,0,0,-9.963197,81.845928,30.57505)"/>
<path transform="matrix(1.00003,0,0,-1.00006,75.50774,79.43598)" d="M-27.51503 30.06613C-27.51503 31.47508-28.65718 32.61723-30.06613 32.61723-31.47508 32.61723-32.61723 31.47508-32.61723 30.06613-32.61723 28.65718-31.47508 27.51503-30.06613 27.51503-28.65718 27.51503-27.51503 28.65718-27.51503 30.06613ZM-30.06613 30.06613"/>
<path transform="matrix(1.00003,0,0,-1.00006,75.50774,79.43598)" stroke-width=".3985" stroke-linecap="butt" stroke-miterlimit="10" stroke-linejoin="miter" fill="none" stroke="#000000" d="M-27.51503 30.06613C-27.51503 31.47508-28.65718 32.61723-30.06613 32.61723-31.47508 32.61723-32.61723 31.47508-32.61723 30.06613-32.61723 28.65718-31.47508 27.51503-30.06613 27.51503-28.65718 27.51503-27.51503 28.65718-27.51503 30.06613ZM-30.06613 30.06613"/>
<use data-text="&#x03c9;" xlink:href="#font_2_1" transform="matrix(9.962899,0,0,-9.963197,28.07431,43.0298)"/>
<use data-text="3" xlink:href="#font_3_1" transform="matrix(6.9740097,0,0,-6.9742186,34.633516,39.414587)"/>
<path transform="matrix(1.00003,0,0,-1.00006,75.50774,79.43598)" d="M-39.9691 0C-39.9691 1.40894-41.11125 2.5511-42.5202 2.5511-43.92915 2.5511-45.0713 1.40894-45.0713 0-45.0713-1.40894-43.92915-2.5511-42.5202-2.5511-41.11125-2.5511-39.9691-1.40894-39.9691 0ZM-42.5202 0"/>
<path transform="matrix(1.00003,0,0,-1.00006,75.50774,79.43598)" stroke-width=".3985" stroke-linecap="butt" stroke-miterlimit="10" stroke-linejoin="miter" fill="none" stroke="#000000" d="M-39.9691 0C-39.9691 1.40894-41.11125 2.5511-42.5202 2.5511-43.92915 2.5511-45.0713 1.40894-45.0713 0-45.0713-1.40894-43.92915-2.5511-42.5202-2.5511-41.11125-2.5511-39.9691-1.40894-39.9691 0ZM-42.5202 0"/>
<use data-text="&#x2212;" xlink:href="#font_4_1" transform="matrix(9.962899,0,0,-9.963197,13.917877,92.19475)"/>
<use data-text="1" xlink:href="#font_1_2" transform="matrix(9.962899,0,0,-9.963197,21.667099,92.19475)"/>
<path transform="matrix(1.00003,0,0,-1.00006,75.50774,79.43598)" d="M-27.51503-30.06613C-27.51503-28.65718-28.65718-27.51503-30.06613-27.51503-31.47508-27.51503-32.61723-28.65718-32.61723-30.06613-32.61723-31.47508-31.47508-32.61723-30.06613-32.61723-28.65718-32.61723-27.51503-31.47508-27.51503-30.06613ZM-30.06613-30.06613"/>
<path transform="matrix(1.00003,0,0,-1.00006,75.50774,79.43598)" stroke-width=".3985" stroke-linecap="butt" stroke-miterlimit="10" stroke-linejoin="miter" fill="none" stroke="#000000" d="M-27.51503-30.06613C-27.51503-28.65718-28.65718-27.51503-30.06613-27.51503-31.47508-27.51503-32.61723-28.65718-32.61723-30.06613-32.61723-31.47508-31.47508-32.61723-30.06613-32.61723-28.65718-32.61723-27.51503-31.47508-27.51503-30.06613ZM-30.06613-30.06613"/>
<use data-text="&#x03c9;" xlink:href="#font_2_1" transform="matrix(9.962899,0,0,-9.963197,28.07431,123.95265)"/>
<use data-text="5" xlink:href="#font_3_2" transform="matrix(6.9740097,0,0,-6.9742186,34.633516,120.33743)"/>
<path transform="matrix(1.00003,0,0,-1.00006,75.50774,79.43598)" d="M2.5511-42.5202C2.5511-41.11125 1.40894-39.9691 0-39.9691-1.40894-39.9691-2.5511-41.11125-2.5511-42.5202-2.5511-43.92915-1.40894-45.0713 0-45.0713 1.40894-45.0713 2.5511-43.92915 2.5511-42.5202ZM0-42.5202"/>
<path transform="matrix(1.00003,0,0,-1.00006,75.50774,79.43598)" stroke-width=".3985" stroke-linecap="butt" stroke-miterlimit="10" stroke-linejoin="miter" fill="none" stroke="#000000" d="M2.5511-42.5202C2.5511-41.11125 1.40894-39.9691 0-39.9691-1.40894-39.9691-2.5511-41.11125-2.5511-42.5202-2.5511-43.92915-1.40894-45.0713 0-45.0713 1.40894-45.0713 2.5511-43.92915 2.5511-42.5202ZM0-42.5202"/>
<use data-text="&#x2212;" xlink:href="#font_4_1" transform="matrix(9.962899,0,0,-9.963197,81.845928,134.8683)"/>
<use data-text="i" xlink:href="#font_2_2" transform="matrix(9.962899,0,0,-9.963197,89.595149,134.8683)"/>
<path transform="matrix(1.00003,0,0,-1.00006,75.50774,79.43598)" d="M32.61723-30.06613C32.61723-28.65718 31.47508-27.51503 30.06613-27.51503 28.65718-27.51503 27.51503-28.65718 27.51503-30.06613 27.51503-31.47508 28.65718-32.61723 30.06613-32.61723 31.47508-32.61723 32.61723-31.47508 32.61723-30.06613ZM30.06613-30.06613"/>
<path transform="matrix(1.00003,0,0,-1.00006,75.50774,79.43598)" stroke-width=".3985" stroke-linecap="butt" stroke-miterlimit="10" stroke-linejoin="miter" fill="none" stroke="#000000" d="M32.61723-30.06613C32.61723-28.65718 31.47508-27.51503 30.06613-27.51503 28.65718-27.51503 27.51503-28.65718 27.51503-30.06613 27.51503-31.47508 28.65718-32.61723 30.06613-32.61723 31.47508-32.61723 32.61723-31.47508 32.61723-30.06613ZM30.06613-30.06613"/>
<use data-text="&#x03c9;" xlink:href="#font_2_1" transform="matrix(9.962899,0,0,-9.963197,111.91283,123.95265)"/>
<use data-text="7" xlink:href="#font_3_3" transform="matrix(6.9740097,0,0,-6.9742186,118.47203,120.33743)"/>
</svg>
