<svg xmlns="http://www.w3.org/2000/svg" xmlns:xlink="http://www.w3.org/1999/xlink" version="1.1" width="292pt" height="292pt" viewBox="0 0 292 292">
<defs>
<path id="font_1_118" d="M.5079956 .3996582V.43066407C.4850006 .4286499 .45599366 .42765809 .43299867 .42765809L.34599305 .43066407V.3996582C.3769989 .39866639 .3929901 .3816681 .3929901 .35668946 .3929901 .34669496 .3919983 .34469605 .3869934 .33270265L.28599549 .08685303 .1749878 .35568238C.17098999 .36567689 .16899109 .36967469 .16899109 .3736725 .16899109 .3996582 .20599365 .3996582 .22499085 .3996582V.43066407L.115997318 .42765809C.08898926 .42765809 .04899597 .4286499 .018997193 .43066407V.3996582C.066986087 .3996582 .085998538 .3996582 .099990848 .36468507L.25-.000091552738 .22499085-.059066774C.20298767-.11407471 .1749878-.18309021 .11099243-.18309021 .10598755-.18309021 .08299255-.18309021 .06399536-.16503906 .09498596-.16104126 .102996829-.13905335 .102996829-.123046878 .102996829-.0970459 .083999637-.08103943 .06098938-.08103943 .040985109-.08103943 .018997193-.09403992 .018997193-.124053958 .018997193-.16905213 .06098938-.20507813 .11099243-.20507813 .17399597-.20507813 .21499634-.14804077 .23899842-.091049198L.4149933 .33569337C.44099427 .39865113 .49198915 .3996582 .5079956 .3996582Z"/>
</defs>
<path transform="matrix(1.00006,0,0,-1.00005,146.38764,146.0885)" stroke-width=".3985" stroke-linecap="butt" stroke-miterlimit="10" stroke-linejoin="miter" fill="none" stroke="#000000" d="M141.73404 0C141.73404 78.27855 78.27855 141.73404 0 141.73404-78.27855 141.73404-141.73404 78.27855-141.73404 0-141.73404-78.27855-78.27855-141.73404 0-141.73404 78.27855-141.73404 141.73404-78.27855 141.73404 0ZM0 0"/>
<path transform="matrix(1.00006,0,0,-1.00005,146.38764,146.0885)" d="M144.28514 0C144.28514 1.40894 143.14299 2.5511 141.73404 2.5511 140.32509 2.5511 139.18294 1.40894 139.18294 0 139.18294-1.40894 140.32509-2.5511 141.73404-2.5511 143.14299-2.5511 144.28514-1.40894 144.28514 0ZM141.73404 0"/>
<path transform="matrix(1.00006,0,0,-1.00005,146.38764,146.0885)" stroke-width=".3985" stroke-linecap="butt" stroke-miterlimit="10" stroke-linejoin="miter" fill="none" stroke="#000000" d="M144.28514 0C144.28514 1.40894 143.14299 2.5511 141.73404 2.5511 140.32509 2.5511 139.18294 1.40894 139.18294 0 139.18294-1.40894 140.32509-2.5511 141.73404-2.5511 143.14299-2.5511 144.28514-1.40894 144.28514 0ZM141.73404 0"/>
<use data-text="y" xlink:href="#font_1_118" transform="matrix(9.963197,0,0,-9.963098,255.75519,147.21456)"/>
<use data-text="y" xlink:href="#font_1_118" transform="matrix(9.963197,0,0,-9.963098,261.01576,147.21456)"/>
<use data-text="y" xlink:href="#font_1_118" transform="matrix(9.963197,0,0,-9.963098,266.27635,147.21456)"/>
<use data-text="y" xlink:href="#font_1_118" transform="matrix(9.963197,0,0,-9.963098,271.5369,147.21456)"/>
<use data-text="y" xlink:href="#font_1_118" transform="matrix(9.963197,0,0,-9.963098,276.79747,147.21456)"/>
<path transform="matrix(1.00006,0,0,-1.00005,146.38764,146.0885)" d="M102.7723 100.22119C102.7723 101.63014 101.63014 102.7723 100.22119 102.7723 98.81224 102.7723 97.67009 101.63014 97.67009 100.22119 97.67009 98.81224 98.81224 97.67009 100.22119 97.67009 101.63014 97.67009 102.7723 98.81224 102.7723 100.22119ZM100.22119 100.22119"/>
<path transform="matrix(1.00006,0,0,-1.00005,146.38764,146.0885)" stroke-width=".3985" stroke-linecap="butt" stroke-miterlimit="10" stroke-linejoin="miter" fill="none" stroke="#000000" d="M102.7723 100.22119C102.7723 101.63014 101.63014 102.7723 100.22119 102.7723 98.81224 102.7723 97.67009 101.63014 97.67009 100.22119 97.67009 98.81224 98.81224 97.67009 100.22119 97.67009 101.63014 97.67009 102.7723 98.81224 102.7723 100.22119ZM100.22119 100.22119"/>
<use data-text="y" xlink:href="#font_1_118" transform="matrix(9.963197,0,0,-9.963098,214.98775,55.48098)"/>
<use data-text="y" xlink:href="#font_1_118" transform="matrix(9.963197,0,0,-9.963098,220.2483,55.48098)"/>
<use data-text="y" xlink:href="#font_1_118" transform="matrix(9.963197,0,0,-9.963098,225.50888,55.48098)"/>
<use data-text="y" xlink:href="#font_1_118" transform="matrix(9.963197,0,0,-9.963098,230.76946,55.48098)"/>
<use data-text="y" xlink:href="#font_1_118" transform="matrix(9.963197,0,0,-9.963098,236.03002,55.48098)"/>
<path transform="matrix(1.00006,0,0,-1.00005,146.38764,146.0885)" d="M2.5511 141.73404C2.5511 143.14299 1.40894 144.28514 0 144.28514-1.40894 144.28514-2.5511 143.14299-2.5511 141.73404-2.5511 140.32509-1.40894 139.18294 0 139.18294 1.40894 139.18294 2.5511 140.32509 2.5511 141.73404ZM0 141.73404"/>
<path transform="matrix(1.00006,0,0,-1.00005,146.38764,146.0885)" stroke-width=".3985" stroke-linecap="butt" stroke-miterlimit="10" stroke-linejoin="miter" fill="none" stroke="#000000" d="M2.5511 141.73404C2.5511 143.14299 1.40894 144.28514 0 144.28514-1.40894 144.28514-2.5511 143.14299-2.5511 141.73404-2.5511 140.32509-1.40894 139.18294 0 139.18294 1.40894 139.18294 2.5511 140.32509 2.5511 141.73404ZM0 141.73404"/>
<use data-text="y" xlink:href="#font_1_118" transform="matrix(9.963197,0,0,-9.963098,106.93227,14.712936)"/>
<use data-text="y" xlink:href="#font_1_118" transform="matrix(9.963197,0,0,-9.963098,112.192829,14.712936)"/>
<use data-text="y" xlink:href="#font_1_118" transform="matrix(9.963197,0,0,-9.963098,117.4534,14.712936)"/>
<use data-text="y" xlink:href="#font_1_118" transform="matrix(9.963197,0,0,-9.963098,122.713977,14.712936)"/>
<use data-text="y" xlink:href="#font_1_118" transform="matrix(9.963197,0,0,-9.963098,127.97453,14.712936)"/>
<use data-text="y" xlink:href="#font_1_118" transform="matrix(9.963197,0,0,-9.963098,133.2351,14.712936)"/>
<use data-text="y" xlink:href="#font_1_118" transform="matrix(9.963197,0,0,-9.963098,138.49568,14.712936)"/>
<use data-text="y" xlink:href="#font_1_118" transform="matrix(9.963197,0,0,-9.963098,143.75624,14.712936)"/>
<use data-text="y" xlink:href="#font_1_118" transform="matrix(9.963197,0,0,-9.963098,149.0168,14.712936)"/>
<use data-text="y" xlink:href="#font_1_118" transform="matrix(9.963197,0,0,-9.963098,154.27739,14.712936)"/>
<use data-text="y" xlink:href="#font_1_118" transform="matrix(9.963197,0,0,-9.963098,159.53795,14.712936)"/>
<use data-text="y" xlink:href="#font_1_118" transform="matrix(9.963197,0,0,-9.963098,164.79851,14.712936)"/>
<use data-text="y" xlink:href="#font_1_118" transform="matrix(9.963197,0,0,-9.963098,170.0591,14.712936)"/>
<use data-text="y" xlink:href="#font_1_118" transform="matrix(9.963197,0,0,-9.963098,175.31966,14.712936)"/>
<use data-text="y" xlink:href="#font_1_118" transform="matrix(9.963197,0,0,-9.963098,180.58022,14.712936)"/>
<path transform="matrix(1.00006,0,0,-1.00005,146.38764,146.0885)" d="M-97.67009 100.22119C-97.67009 101.63014-98.81224 102.7723-100.22119 102.7723-101.63014 102.7723-102.7723 101.63014-102.7723 100.22119-102.7723 98.81224-101.63014 97.67009-100.22119 97.67009-98.81224 97.67009-97.67009 98.81224-97.67009 100.22119ZM-100.22119 100.22119"/>
<path transform="matrix(1.00006,0,0,-1.00005,146.38764,146.0885)" stroke-width=".3985" stroke-linecap="butt" stroke-miterlimit="10" stroke-linejoin="miter" fill="none" stroke="#000000" d="M-97.67009 100.22119C-97.67009 101.63014-98.81224 102.7723-100.22119 102.7723-101.63014 102.7723-102.7723 101.63014-102.7723 100.22119-102.7723 98.81224-101.63014 97.67009-100.22119 97.67009-98.81224 97.67009-97.67009 98.81224-97.67009 100.22119ZM-100.22119 100.22119"/>
<use data-text="y" xlink:href="#font_1_118" transform="matrix(9.963197,0,0,-9.963098,51.48494,55.48098)"/>
<use data-text="y" xlink:href="#font_1_118" transform="matrix(9.963197,0,0,-9.963098,56.7455,55.48098)"/>
<use data-text="y" xlink:href="#font_1_118" transform="matrix(9.963197,0,0,-9.963098,62.006074,55.48098)"/>
<use data-text="y" xlink:href="#font_1_118" transform="matrix(9.963197,0,0,-9.963098,67.26665,55.48098)"/>
<use data-text="y" xlink:href="#font_1_118" transform="matrix(9.963197,0,0,-9.963098,72.52721,55.48098)"/>
<path transform="matrix(1.00006,0,0,-1.00005,146.38764,146.0885)" d="M-139.18294 0C-139.18294 1.40894-140.32509 2.5511-141.73404 2.5511-143.14299 2.5511-144.28514 1.40894-144.28514 0-144.28514-1.40894-143.14299-2.5511-141.73404-2.5511-140.32509-2.5511-139.18294-1.40894-139.18294 0ZM-141.73404 0"/>
<path transform="matrix(1.00006,0,0,-1.00005,146.38764,146.0885)" stroke-width=".3985" stroke-linecap="butt" stroke-miterlimit="10" stroke-linejoin="miter" fill="none" stroke="#000000" d="M-139.18294 0C-139.18294 1.40894-140.32509 2.5511-141.73404 2.5511-143.14299 2.5511-144.28514 1.40894-144.28514 0-144.28514-1.40894-143.14299-2.5511-141.73404-2.5511-140.32509-2.5511-139.18294-1.40894-139.18294 0ZM-141.73404 0"/>
<use data-text="y" xlink:href="#font_1_118" transform="matrix(9.963197,0,0,-9.963098,10.716507,147.21456)"/>
<use data-text="y" xlink:href="#font_1_118" transform="matrix(9.963197,0,0,-9.963098,15.977066,147.21456)"/>
<use data-text="y" xlink:href="#font_1_118" transform="matrix(9.963197,0,0,-9.963098,21.23764,147.21456)"/>
<use data-text="y" xlink:href="#font_1_118" transform="matrix(9.963197,0,0,-9.963098,26.498215,147.21456)"/>
<use data-text="y" xlink:href="#font_1_118" transform="matrix(9.963197,0,0,-9.963098,31.758774,147.21456)"/>
<path transform="matrix(1.00006,0,0,-1.00005,146.38764,146.0885)" d="M-97.67009-100.22119C-97.67009-98.81224-98.81224-97.67009-100.22119-97.67009-101.63014-97.67009-102.7723-98.81224-102.7723-100.22119-102.7723-101.63014-101.63014-102.7723-100.22119-102.7723-98.81224-102.7723-97.67009-101.63014-97.67009-100.22119ZM-100.22119-100.22119"/>
<path transform="matrix(1.00006,0,0,-1.00005,146.38764,146.0885)" stroke-width=".3985" stroke-linecap="butt" stroke-miterlimit="10" stroke-linejoin="miter" fill="none" stroke="#000000" d="M-97.67009-100.22119C-97.67009-98.81224-98.81224-97.67009-100.22119-97.67009-101.63014-97.67009-102.7723-98.81224-102.7723-100.22119-102.7723-101.63014-101.63014-102.7723-100.22119-102.7723-98.81224-102.7723-97.67009-101.63014-97.67009-100.22119ZM-100.22119-100.22119"/>
<use data-text="y" xlink:href="#font_1_118" transform="matrix(9.963197,0,0,-9.963098,51.48494,238.94815)"/>
<use data-text="y" xlink:href="#font_1_118" transform="matrix(9.963197,0,0,-9.963098,56.7455,238.94815)"/>
<use data-text="y" xlink:href="#font_1_118" transform="matrix(9.963197,0,0,-9.963098,62.006074,238.94815)"/>
<use data-text="y" xlink:href="#font_1_118" transform="matrix(9.963197,0,0,-9.963098,67.26665,238.94815)"/>
<use data-text="y" xlink:href="#font_1_118" transform="matrix(9.963197,0,0,-9.963098,72.52721,238.94815)"/>
<path transform="matrix(1.00006,0,0,-1.00005,146.38764,146.0885)" d="M2.5511-141.73404C2.5511-140.32509 1.40894-139.18294 0-139.18294-1.40894-139.18294-2.5511-140.32509-2.5511-141.73404-2.5511-143.14299-1.40894-144.28514 0-144.28514 1.40894-144.28514 2.5511-143.14299 2.5511-141.73404ZM0-141.73404"/>
<path transform="matrix(1.00006,0,0,-1.00005,146.38764,146.0885)" stroke-width=".3985" stroke-linecap="butt" stroke-miterlimit="10" stroke-linejoin="miter" fill="none" stroke="#000000" d="M2.5511-141.73404C2.5511-140.32509 1.40894-139.18294 0-139.18294-1.40894-139.18294-2.5511-140.32509-2.5511-141.73404-2.5511-143.14299-1.40894-144.28514 0-144.28514 1.40894-144.28514 2.5511-143.14299 2.5511-141.73404ZM0-141.73404"/>
<use data-text="y" xlink:href="#font_1_118" transform="matrix(9.963197,0,0,-9.963098,106.93227,279.7162)"/>
<use data-text="y" xlink:href="#font_1_118" transform="matrix(9.963197,0,0,-9.963098,112.192829,279.7162)"/>
<use data-text="y" xlink:href="#font_1_118" transform="matrix(9.963197,0,0,-9.963098,117.4534,279.7162)"/>
<use data-text="y" xlink:href="#font_1_118" transform="matrix(9.963197,0,0,-9.963098,122.713977,279.7162)"/>
<use data-text="y" xlink:href="#font_1_118" transform="matrix(9.963197,0,0,-9.963098,127.97453,279.7162)"/>
<use data-text="y" xlink:href="#font_1_118" transform="matrix(9.963197,0,0,-9.963098,133.2351,279.7162)"/>
<use data-text="y" xlink:href="#font_1_118" transform="matrix(9.963197,0,0,-9.963098,138.49568,279.7162)"/>
<use data-text="y" xlink:href="#font_1_118" transform="matrix(9.963197,0,0,-9.963098,143.75624,279.7162)"/>
<use data-text="y" xlink:href="#font_1_118" transform="matrix(9.963197,0,0,-9.963098,149.0168,279.7162)"/>
<use data-text="y" xlink:href="#font_1_118" transform="matrix(9.963197,0,0,-9.963098,154.27739,279.7162)"/>
<use data-text="y" xlink:href="#font_1_118" transform="matrix(9.963197,0,0,-9.963098,159.53795,279.7162)"/>
<use data-text="y" xlink:href="#font_1_118" transform="matrix(9.963197,0,0,-9.963098,164.79851,279.7162)"/>
<use data-text="y" xlink:href="#font_1_118" transform="matrix(9.963197,0,0,-9.963098,170.0591,279.7162)"/>
<use data-text="y" xlink:href="#font_1_118" transform="matrix(9.963197,0,0,-9.963098,175.31966,279.7162)"/>
<use data-text="y" xlink:href="#font_1_118" transform="matrix(9.963197,0,0,-9.963098,180.58022,279.7162)"/>
<path transform="matrix(1.00006,0,0,-1.00005,146.38764,146.0885)" d="M102.7723-100.22119C102.7723-98.81224 101.63014-97.67009 100.22119-97.67009 98.81224-97.67009 97.67009-98.81224 97.67009-100.22119 97.67009-101.63014 98.81224-102.7723 100.22119-102.7723 101.63014-102.7723 102.7723-101.63014 102.7723-100.22119ZM100.22119-100.22119"/>
<path transform="matrix(1.00006,0,0,-1.00005,146.38764,146.0885)" stroke-width=".3985" stroke-linecap="butt" stroke-miterlimit="10" stroke-linejoin="miter" fill="none" stroke="#000000" d="M102.7723-100.22119C102.7723-98.81224 101.63014-97.67009 100.22119-97.67009 98.81224-97.67009 97.67009-98.81224 97.67009-100.22119 97.67009-101.63014 98.81224-102.7723 100.22119-102.7723 101.63014-102.7723 102.7723-101.63014 102.7723-100.22119ZM100.22119-100.22119"/>
<use data-text="y" xlink:href="#font_1_118" transform="matrix(9.963197,0,0,-9.963098,214.98775,238.94815)"/>
<use data-text="y" xlink:href="#font_1_118" transform="matrix(9.963197,0,0,-9.963098,220.2483,238.94815)"/>
<use data-text="y" xlink:href="#font_1_118" transform="matrix(9.963197,0,0,-9.963098,225.50888,238.94815)"/>
<use data-text="y" xlink:href="#font_1_118" transform="matrix(9.963197,0,0,-9.963098,230.76946,238.94815)"/>
<use data-text="y" xlink:href="#font_1_118" transform="matrix(9.963197,0,0,-9.963098,236.03002,238.94815)"/>
</svg>
