<svg xmlns="http://www.w3.org/2000/svg" xmlns:xlink="http://www.w3.org/1999/xlink" xmlns:inkscape="http://www.inkscape.org/namespaces/inkscape" version="1.1" width="225" height="124" viewBox="0 0 225 124">
<defs>
<path id="font_1_5" d="M.19299317 .1382904C.20399475 .18132019 .21499634 .22433472 .22499085 .26835633 .22599793 .27035523 .23298645 .29937745 .23399353 .30438233 .23699951 .313385 .2619934 .35438539 .28799439 .37937928 .31999208 .40838624 .35398866 .4133911 .37199403 .4133911 .3829956 .4133911 .40098573 .4123993 .4149933 .40039063 .37199403 .39138795 .3659973 .35438539 .3659973 .3453827 .3659973 .32337953 .3829956 .30838014 .40499879 .30838014 .43199159 .30838014 .46199037 .3303833 .46199037 .3703766 .46199037 .40638734 .43099977 .44140626 .37399293 .44140626 .30599977 .44140626 .2599945 .39637757 .23899842 .36938478 .21899414 .44140626 .15098572 .44140626 .14099121 .44140626 .10499573 .44140626 .07998657 .418396 .06399536 .38739015 .040985109 .3423767 .02999878 .29136659 .02999878 .28837586 .02999878 .27937318 .036987306 .2753601 .04499817 .2753601 .057998659 .2753601 .05899048 .27937318 .06599426 .30537416 .07798767 .35438539 .09599304 .4133911 .13798523 .4133911 .1639862 .4133911 .16999817 .38838197 .16999817 .36637879 .16999817 .34838868 .16499329 .32937623 .15699768 .29637147 .15499878 .28837586 .13999939 .2293396 .13598633 .21533203L.09899902 .06526184C.09498596 .050247194 .08898926 .025238038 .08898926 .021224976 .08898926-.0017700195 .10798645-.009765625 .12098694-.009765625 .1559906-.009765625 .16299439 .018234253 .17098999 .052246095L.19299317 .1382904Z"/>
<path id="font_2_1" d="M.5499878 .31877137C.5499878 .39183045 .5499878 .66503909 .30499269 .66503909 .05999756 .66503909 .05999756 .39183045 .05999756 .31877137 .05999756 .2467041 .05999756-.021484375 .30499269-.021484375 .5499878-.021484375 .5499878 .2467041 .5499878 .31877137M.30499269 .010513306C.2630005 .010513306 .19499207 .030517579 .17098999 .113601688 .15499878 .17164612 .15499878 .2697296 .15499878 .33177186 .15499878 .39883424 .15499878 .4758911 .16899109 .52993777 .19400025 .6200104 .269989 .6330261 .30499269 .6330261 .35099793 .6330261 .4169922 .6110077 .43899537 .5349426 .45399476 .48190309 .45498658 .408844 .45498658 .33177186 .45498658 .26771546 .45498658 .16664124 .43798829 .1105957 .4099884 .023513794 .33799745 .010513306 .30499269 .010513306Z"/>
<path id="font_2_2" d="M.35899354 .6349335C.35899354 .66503909 .35499574 .66503909 .32499696 .66503909 .25898744 .60058596 .15699768 .60058596 .12098694 .60058596V.5615845C.14698792 .5615845 .21299744 .5615845 .272995 .58958438V.08496094C.272995 .051986696 .272995 .038986207 .16999817 .038986207H.1269989V0C.18199158 .0039978029 .2599945 .0039978029 .31599427 .0039978029 .37199403 .0039978029 .44999696 .0039978029 .5049896 0V.038986207H.46199037C.35899354 .038986207 .35899354 .051986696 .35899354 .08496094V.6349335Z"/>
<path id="font_1_2" d="M.2919922 .66430667C.29299928 .66630557 .29599 .67930606 .29599 .68029788 .29599 .68530276 .2919922 .6943054 .27999879 .6943054 .27598573 .6943054 .24499512 .69129946 .22200012 .68930056L.1659851 .68530276C.14399719 .68330386 .13398743 .682312 .13398743 .66430667 .13398743 .6502991 .147995 .6502991 .1599884 .6502991 .20799256 .6502991 .20799256 .64430239 .20799256 .63531497 .20799256 .63230898 .20799256 .63031008 .20298767 .61231997L.06098938 .04324341C.056991579 .02822876 .056991579 .022232056 .056991579 .021224976 .056991579 .0042266848 .070999149-.009765625 .08999634-.009765625 .10598755-.009765625 .11999512 .00022888184 .12799073 .01322937 .1309967 .019226075 .13899231 .051239015 .14399719 .071243289L.16699219 .16029358C.16999817 .17529297 .17999268 .21331787 .18299866 .22831726 .19799805 .28634645 .19799805 .28834535 .21998596 .32035829 .2539978 .36938478 .30099488 .4133911 .36799623 .4133911 .4039917 .4133911 .4249878 .39239503 .4249878 .34536744 .4249878 .29034425 .3829956 .17630005 .3639984 .12727356 .35099793 .09425354 .35099793 .088256839 .35099793 .07525635 .35099793 .018234253 .397995-.009765625 .44099427-.009765625 .5389862-.009765625 .5799866 .13027954 .5799866 .14328003 .5799866 .1532898 .57199099 .15628052 .5649872 .15628052 .5529938 .15628052 .5509949 .14927674 .5479889 .13928223 .5239868 .057250978 .48199464 .018234253 .44400025 .018234253 .42799378 .018234253 .41999818 .02822876 .41999818 .051239015 .41999818 .07424927 .42799378 .0962677 .43798829 .121276859 .45298768 .1592865 .49699403 .27433778 .49699403 .33036805 .49699403 .4053955 .44499208 .44140626 .37298585 .44140626 .31698609 .44140626 .2639923 .41740418 .21798706 .36437989L.2919922 .66430667Z"/>
<path id="font_3_1" d="M.33399964 .30233766C.33999635 .32835389 .36299134 .42037965 .43299867 .42037965 .43798829 .42037965 .46199037 .42037965 .48298646 .40734864 .45498658 .402359 .43499757 .37734986 .43499757 .35334779 .43499757 .33735658 .44599916 .31835938 .47299195 .31835938 .49499513 .31835938 .5269928 .3363495 .5269928 .37635804 .5269928 .42837525 .46798707 .4423828 .43399049 .4423828 .37599183 .4423828 .34098817 .38935853 .32899476 .36634828 .3039856 .43237306 .25 .4423828 .22099304 .4423828 .116989139 .4423828 .05999756 .3133545 .05999756 .28834535 .05999756 .27833558 .069992069 .27833558 .07199097 .27833558 .07998657 .27833558 .08299255 .28033448 .084991458 .28933717 .11898804 .39535523 .18499756 .42037965 .21899414 .42037965 .23799134 .42037965 .272995 .4113617 .272995 .35334779 .272995 .32235719 .2559967 .25532533 .21899414 .11528015 .20298767 .053268434 .16799927 .011245728 .12399292 .011245728 .117996219 .011245728 .09498596 .011245728 .07398987 .024276734 .09899902 .029266358 .12098694 .05027771 .12098694 .07827759 .12098694 .105270389 .09899902 .11328125 .083999637 .11328125 .053985597 .11328125 .0289917 .08728027 .0289917 .055267335 .0289917 .009246826 .07899475-.0107421879 .12298584-.0107421879 .18899536-.0107421879 .22499085 .059280397 .22799683 .0652771 .23999024 .028274537 .27598573-.0107421879 .33599855-.0107421879 .43899537-.0107421879 .49598695 .118270877 .49598695 .14328003 .49598695 .1532898 .4869995 .1532898 .48399354 .1532898 .47499085 .1532898 .47299195 .14929199 .47099305 .14228821 .43798829 .03527832 .36999513 .011245728 .33799745 .011245728 .29899598 .011245728 .2829895 .043273927 .2829895 .07727051 .2829895 .09927368 .2889862 .121276859 .2999878 .16529846L.33399964 .30233766Z"/>
<path id="font_3_2" d="M.48599244 .38136292C.48999024 .39537049 .48999024 .39736939 .48999024 .40437318 .48999024 .42237855 .47599793 .43138124 .46099855 .43138124 .45098878 .43138124 .43499757 .42536927 .42599488 .41036988 .42399598 .405365 .41600038 .37435914 .4119873 .35635377 .40499879 .33035279 .397995 .30334474 .3919983 .27633668L.34700013 .09628296C.34298707 .08126831 .2999878 .011245728 .23399353 .011245728 .18299866 .011245728 .17199707 .055267335 .17199707 .0922699 .17199707 .1382904 .18899536 .20030213 .22299195 .28833009 .23899842 .3293457 .24299622 .3403473 .24299622 .36035157 .24299622 .405365 .21099854 .4423828 .16099549 .4423828 .06599426 .4423828 .0289917 .29733277 .0289917 .28833009 .0289917 .27833558 .038986207 .27833558 .040985109 .27833558 .050994874 .27833558 .051986696 .28033448 .056991579 .29634095 .083999637 .3903656 .12399292 .42037965 .1579895 .42037965 .1659851 .42037965 .18299866 .42037965 .18299866 .3883667 .18299866 .36335755 .17298889 .3373413 .1659851 .31834413 .12599182 .21231079 .10798645 .1552887 .10798645 .10827637 .10798645 .019256592 .17098999-.0107421879 .22999573-.0107421879 .2689972-.0107421879 .30299378 .0062561037 .33099366 .03425598 .31799317-.017745972 .30599977-.06674194 .2659912-.11973572 .23999024-.15385437 .20199585-.18309021 .1559906-.18309021 .14199829-.18309021 .09700012-.18005371 .07998657-.14074707 .09599304-.14074707 .10899353-.14074707 .12298584-.1287384 .1329956-.11973572 .14299011-.10673523 .14299011-.08773804 .14299011-.056747438 .115997318-.052734376 .10598755-.052734376 .08299255-.052734376 .049987794-.068740848 .049987794-.11773682 .049987794-.16796875 .09399414-.20507813 .1559906-.20507813 .25898744-.20507813 .3619995-.11373901 .3899994-.00074768069L.48599244 .38136292Z"/>
<path id="font_3_3" d="M.1329956 .08345032C.18699646 .14138794 .21598816 .16636658 .2519989 .19732666 .2519989 .19833374 .31399537 .25128175 .34999085 .2872467 .44499208 .3803711 .46699525 .42837525 .46699525 .43237306 .46699525 .4423828 .45799256 .4423828 .45599366 .4423828 .44898988 .4423828 .44599916 .44036866 .44099427 .43138124 .41099549 .38337709 .3899994 .3671875 .3659973 .3671875 .34199525 .3671875 .32998658 .38237 .31498719 .3993683 .29599 .42237855 .2789917 .4423828 .24598694 .4423828 .17098999 .4423828 .125 .34918214 .125 .3282013 .125 .3231964 .12799073 .31721498 .13699341 .31721498 .1459961 .31721498 .147995 .3222046 .1499939 .3282013 .16899109 .37434388 .22698975 .37538148 .23498535 .37538148 .2559967 .37538148 .2749939 .36820985 .2979889 .36018373 .33799745 .34518434 .34899903 .34518434 .375 .34518434 .33898927 .30223084 .25498963 .2303009 .23599243 .21430969L.1459961 .13040161C.07798767 .06341553 .042999269 .0062561037 .042999269-.00074768069 .042999269-.0107421879 .052993776-.0107421879 .054992677-.0107421879 .06298828-.0107421879 .06498718-.008743286 .070999149 .002243042 .09399414 .037246705 .12399292 .064453128 .1559906 .064453128 .1789856 .064453128 .18899536 .055252077 .21398926 .026245118 .23098755 .0052490236 .24899292-.0107421879 .27799989-.0107421879 .3769989-.0107421879 .43499757 .1164093 .43499757 .14338684 .43499757 .14837647 .43099977 .15338135 .4229889 .15338135 .4139862 .15338135 .4119873 .14738465 .40899659 .14039612 .38598634 .07543945 .32199098 .056243898 .2889862 .056243898 .2689972 .056243898 .25099183 .06239319 .22999573 .06944275 .19599915 .08244324 .18099976 .08644104 .1599884 .08644104 .1579895 .08644104 .14199829 .08644104 .1329956 .08345032Z"/>
<path id="font_1_3" d="M.2979889 .6242981C.2979889 .64630129 .28199769 .66230776 .25898744 .66230776 .23298645 .66230776 .20399475 .63830569 .20399475 .6083069 .20399475 .5863037 .21998596 .5703125 .24299622 .5703125 .2689972 .5703125 .2979889 .5942993 .2979889 .6242981M.1519928 .25732423 .09799194 .119277957C.09298706 .104263309 .08799744 .09225464 .08799744 .07525635 .08799744 .026229859 .12599182-.009765625 .1789856-.009765625 .27598573-.009765625 .31698609 .13027954 .31698609 .14328003 .31698609 .1532898 .30899049 .15628052 .3019867 .15628052 .2899933 .15628052 .28799439 .14927674 .2849884 .13928223 .2619934 .059249879 .22099304 .018234253 .18099976 .018234253 .16899109 .018234253 .15699768 .023223877 .15699768 .050247194 .15699768 .07424927 .1639862 .09225464 .1769867 .12327576 .18699646 .15028382 .19699097 .17729187 .20799256 .20431519L.23899842 .28533937C.24798584 .3083496 .2599945 .33937074 .2599945 .35636903 .2599945 .4064026 .21998596 .44140626 .16899109 .44140626 .07199097 .44140626 .02999878 .30134584 .02999878 .28834535 .02999878 .27934266 .036987306 .27534486 .04499817 .27534486 .057998659 .27534486 .05899048 .28134156 .06199646 .29135133 .08999634 .38638307 .13598633 .4133911 .1659851 .4133911 .17999268 .4133911 .18998719 .4084015 .18998719 .38038636 .18998719 .3703766 .18899536 .35636903 .1789856 .32635499L.1519928 .25732423Z"/>
<path id="font_4_4" d="M.73098757 .3330078C.74598696 .3330078 .7659912 .3330078 .7659912 .3560028 .7659912 .3789978 .74198916 .3789978 .72698977 .3789978H.09799194C.08299255 .3789978 .05899048 .3789978 .05899048 .3560028 .05899048 .3330078 .07899475 .3330078 .09399414 .3330078H.73098757M.72698977 .12098694C.74198916 .12098694 .7659912 .12098694 .7659912 .14398194 .7659912 .16699219 .74598696 .16699219 .73098757 .16699219H.09399414C.07899475 .16699219 .05899048 .16699219 .05899048 .14398194 .05899048 .12098694 .08299255 .12098694 .09799194 .12098694H.72698977Z"/>
<path id="font_4_2" d="M.4889984 .31877137C.4889984 .42585755 .47799684 .49090577 .44499208 .55496218 .40098573 .6430359 .31999208 .66503909 .2649994 .66503909 .13899231 .66503909 .09298706 .5709839 .07899475 .5429535 .042999269 .4698944 .040985109 .3708191 .040985109 .31877137 .040985109 .25271607 .04399109 .15162659 .09199524 .07156372 .13798523-.0024871827 .21199036-.021484375 .2649994-.021484375 .31298829-.021484375 .39898683-.0064849855 .44898988 .09257507 .48599244 .16464234 .4889984 .2537079 .4889984 .31877137M.2649994 .006515503C.23098755 .006515503 .1619873 .022521973 .14099121 .12760926 .12998963 .18466187 .12998963 .2787323 .12998963 .33078004 .12998963 .3998413 .12998963 .4698944 .14099121 .5249481 .1619873 .6270294 .23999024 .6370239 .2649994 .6370239 .29899598 .6370239 .36799623 .62002566 .3880005 .5289459 .3999939 .4738922 .3999939 .39883424 .3999939 .33078004 .3999939 .27172853 .3999939 .18165589 .3880005 .12561035 .36698915 .020523072 .2979889 .006515503 .2649994 .006515503Z"/>
<path id="font_4_3" d="M.31399537 .63708499C.31399537 .664032 .31199647 .66503909 .2849884 .66503909 .24398804 .6251831 .19099427 .6013489 .09599304 .6013489V.5683594C.12298584 .5683594 .1769867 .5683594 .23498535 .5953522V.08203125C.23498535 .04499817 .23199463 .032989503 .13699341 .032989503H.101989749V0C.14299011 .0029907227 .22898865 .0029907227 .27398683 .0029907227 .31900025 .0029907227 .4059906 .0029907227 .44699098 0V.032989503H.4119873C.31698609 .032989503 .31399537 .04499817 .31399537 .08203125V.63708499Z"/>
<path id="font_1_4" d="M.41299439 .6242981C.41299439 .64331057 .397995 .66230776 .37399293 .66230776 .34399415 .66230776 .31799317 .63430789 .31799317 .6083069 .31799317 .5893097 .33299256 .5703125 .35699464 .5703125 .3869934 .5703125 .41299439 .5983124 .41299439 .6242981M.20399475-.05000305C.18899536-.11105347 .13999939-.17610169 .07899475-.17610169 .06298828-.17610169 .04798889-.17210388 .04598999-.17111206 .07699585-.15609741 .08099365-.1290741 .08099365-.12005615 .08099365-.09603882 .06298828-.08302307 .041992189-.08302307 .0129852299-.08302307-.014007568-.108047489-.014007568-.14108277-.014007568-.17910767 .022994996-.20410156 .07998657-.20410156 .14099121-.20410156 .25099183-.16610718 .2809906-.04598999L.37098695 .3123169C.37399293 .32432557 .37599183 .33233644 .37599183 .34735108 .37599183 .40238954 .33198548 .44140626 .27398683 .44140626 .16799927 .44140626 .10598755 .30130006 .10598755 .28829957 .10598755 .27928163 .11299133 .2752838 .12098694 .2752838 .13198853 .2752838 .1329956 .2782898 .13999939 .29330445 .16999817 .36235047 .22099304 .4133911 .2709961 .4133911 .2919922 .4133911 .3039856 .39938355 .3039856 .36636354 .3039856 .3523407 .30099488 .33833314 .2979889 .32432557L.20399475-.05000305Z"/>
<path id="font_4_1" d="M.43598939 .22743225H.7299957C.74398806 .22743225 .7659912 .22743225 .7659912 .25042726 .7659912 .2734375 .74398806 .2734375 .7299957 .2734375H.43598939V.56799319C.43598939 .5819855 .43598939 .6039734 .41299439 .6039734 .3899994 .6039734 .3899994 .5819855 .3899994 .56799319V.2734375H.09498596C.08099365 .2734375 .05899048 .2734375 .05899048 .25042726 .05899048 .22743225 .08099365 .22743225 .09498596 .22743225H.3899994V-.067993167C.3899994-.08201599 .3899994-.104019168 .41299439-.104019168 .43598939-.104019168 .43598939-.08201599 .43598939-.067993167V.22743225Z"/>
<path id="font_1_1" d="M.31498719 .31178285H.49699403C.6409912 .31178285 .79100039 .41174317 .79100039 .52967837 .79100039 .614624 .71099856 .6826172 .58200076 .6826172H.24499512C.22698975 .6826172 .21398926 .6826172 .21398926 .66360476 .21398926 .6496124 .22698975 .6496124 .24299622 .6496124 .27598573 .6496124 .30499269 .6496124 .30499269 .6336212 .30499269 .6296234 .3039856 .62861636 .30099488 .6156311L.16699219 .07896423C.1579895 .041992189 .1559906 .032989503 .084991458 .032989503 .06199646 .032989503 .050994874 .032989503 .050994874 .01399231 .050994874 .009994507 .053985597 0 .066986087 0 .085998538 0 .10998535 .0019989014 .1289978 .0029907227H.19299317C.2889862 .0029907227 .31498719 0 .32199098 0 .32798768 0 .34199525 0 .34199525 .018997193 .34199525 .032989503 .32899476 .032989503 .31199647 .032989503 .30899049 .032989503 .29100038 .032989503 .27398683 .034988405 .25299073 .036987306 .25099183 .039993287 .25099183 .048980714 .25099183 .053970338 .25299073 .05996704 .2539978 .064971927L.31498719 .31178285M.3880005 .6126251C.39698792 .64660647 .397995 .6496124 .43899537 .6496124H.548996C.6309967 .6496124 .69400027 .6256256 .69400027 .55166628 .69400027 .53868106 .68899539 .4497223 .6329956 .39476014 .6179962 .37976075 .56999209 .34179688 .47200013 .34179688H.31999208L.3880005 .6126251Z"/>
</defs>
<path transform="matrix(1.00003,0,0,-1,69.33864,92.738)" d="M-21.96858 54.48247-32.93904 8.02228-7.76706 14.17339-5.18741 58.59286Z" fill="#ccccff" fill-opacity=".8"/>
<path transform="matrix(1.00003,0,0,-1,69.33864,92.738)" stroke-width=".3985" stroke-linecap="butt" stroke-linejoin="round" fill="none" stroke="#000000" d="M-21.96858 54.48247-32.93904 8.02228-7.76706 14.17339-5.18741 58.59286Z"/>
<path transform="matrix(1.00003,0,0,-1,69.33864,92.738)" d="M-5.18741 58.59286-7.76706 14.17339 21.96858 12.01892 14.62712 57.14732Z" fill="#ccccff" fill-opacity=".8"/>
<path transform="matrix(1.00003,0,0,-1,69.33864,92.738)" stroke-width=".3985" stroke-linecap="butt" stroke-linejoin="round" fill="none" stroke="#000000" d="M-5.18741 58.59286-7.76706 14.17339 21.96858 12.01892 14.62712 57.14732Z"/>
<path transform="matrix(1.00003,0,0,-1,69.33864,92.738)" d="M14.62712 57.14732 21.96858 12.01892 38.80685 2.83484 25.88046 51.02432Z" fill="#ccccff" fill-opacity=".8"/>
<path transform="matrix(1.00003,0,0,-1,69.33864,92.738)" stroke-width=".3985" stroke-linecap="butt" stroke-linejoin="round" fill="none" stroke="#000000" d="M14.62712 57.14732 21.96858 12.01892 38.80685 2.83484 25.88046 51.02432Z"/>
<path transform="matrix(1.00003,0,0,-1,69.33864,92.738)" d="M-25.88046 47.25432-38.80685-2.83484-32.93904 8.02228-21.96858 54.48247Z" fill="#ccccff" fill-opacity=".8"/>
<path transform="matrix(1.00003,0,0,-1,69.33864,92.738)" stroke-width=".3985" stroke-linecap="butt" stroke-linejoin="round" fill="none" stroke="#000000" d="M-25.88046 47.25432-38.80685-2.83484-32.93904 8.02228-21.96858 54.48247Z"/>
<path transform="matrix(1.00003,0,0,-1,69.33864,92.738)" stroke-width=".3985" stroke-linecap="butt" stroke-linejoin="round" fill="none" stroke="#000000" d="M41.41464 3.03294 49.15317 3.6"/>
<path transform="matrix(1.00003,0,0,-1,69.33864,92.738)" stroke-width=".3985" stroke-linecap="butt" stroke-linejoin="round" fill="none" stroke="#000000" d="M46.57394 52.12804V3.79997"/>
<path transform="matrix(0,-1,-1.00003,-0,115.91398,40.41071)" stroke-width=".3985" stroke-linecap="round" stroke-linejoin="round" fill="none" stroke="#000000" d="M-2.07224 2.39104C-1.69365 .95639-.84999 .27895 0 0-.84999-.27895-1.69365-.95639-2.07224-2.39104"/>
<path transform="matrix(0,1,1.00003,0,115.91398,89.137279)" stroke-width=".3985" stroke-linecap="round" stroke-linejoin="round" fill="none" stroke="#000000" d="M-2.07224 2.39104C-1.69365 .95639-.84999 .27895 0 0-.84999-.27895-1.69365-.95639-2.07224-2.39104"/>
<path transform="matrix(1.00003,0,0,-1,69.33864,92.738)" d="M25.88046 51.02432 38.80685 2.83484 32.93904-8.02228 21.96858 43.79575Z" fill="#ccccff" fill-opacity=".8"/>
<path transform="matrix(1.00003,0,0,-1,69.33864,92.738)" stroke-width=".3985" stroke-linecap="butt" stroke-linejoin="round" fill="none" stroke="#000000" d="M25.88046 51.02432 38.80685 2.83484 32.93904-8.02228 21.96858 43.79575Z"/>
<path transform="matrix(1.00003,0,0,-1,69.33864,92.738)" stroke-width=".3985" stroke-linecap="butt" stroke-linejoin="round" fill="none" stroke="#000000" d="M7.76706-14.17339 0 0V80.67339"/>
<path transform="matrix(0,-1,-1.00003,-0,69.33864,11.865372)" stroke-width=".3985" stroke-linecap="round" stroke-linejoin="round" fill="none" stroke="#000000" d="M-2.07224 2.39104C-1.69365 .95639-.84999 .27895 0 0-.84999-.27895-1.69365-.95639-2.07224-2.39104"/>
<path transform="matrix(1.00003,0,0,-1,69.33864,92.738)" stroke-width=".3985" stroke-linecap="butt" stroke-linejoin="round" fill="none" stroke="#000000" d="M0 0-38.80685-2.83484"/>
<path transform="matrix(1.00003,0,0,-1,69.33864,92.738)" stroke-width=".3985" stroke-linecap="butt" stroke-linejoin="round" fill="none" stroke="#000000" d="M-38.80685-2.83484-59.13103-4.30823"/>
<path transform="matrix(-.99737,.0723,.07230218,.99734,10.007118,97.06063)" stroke-width=".3985" stroke-linecap="round" stroke-linejoin="round" fill="none" stroke="#000000" d="M-2.07224 2.39104C-1.69365 .95639-.84999 .27895 0 0-.84999-.27895-1.69365-.95639-2.07224-2.39104"/>
<path transform="matrix(1.00003,0,0,-1,69.33864,92.738)" d="M-14.62712 41.10277-21.96858-12.01892-38.80685-2.83484-25.88046 47.25432Z" fill="#ccccff" fill-opacity=".8"/>
<path transform="matrix(1.00003,0,0,-1,69.33864,92.738)" stroke-width=".3985" stroke-linecap="butt" stroke-linejoin="round" fill="none" stroke="#000000" d="M-14.62712 41.10277-21.96858-12.01892-38.80685-2.83484-25.88046 47.25432Z"/>
<path transform="matrix(1.00003,0,0,-1,69.33864,92.738)" stroke-width=".3985" stroke-linecap="butt" stroke-linejoin="round" fill="none" stroke="#000000" d="M-38.80685 2.06924V78.23701"/>
<path transform="matrix(1.00003,0,0,-1,69.33864,92.738)" stroke-width=".3985" stroke-linecap="butt" stroke-linejoin="round" fill="none" stroke="#000000" d="M28.46011 51.22285 49.15317 52.72508"/>
<path transform="matrix(1.00003,0,0,-1,69.33864,92.738)" d="M21.96858 43.79575 32.93904-8.02228 7.76706-14.17339 5.18741 39.68535Z" fill="#ccccff" fill-opacity=".8"/>
<path transform="matrix(1.00003,0,0,-1,69.33864,92.738)" stroke-width=".3985" stroke-linecap="butt" stroke-linejoin="round" fill="none" stroke="#000000" d="M21.96858 43.79575 32.93904-8.02228 7.76706-14.17339 5.18741 39.68535Z"/>
<path transform="matrix(1.00003,0,0,-1,69.33864,92.738)" stroke-width=".3985" stroke-linecap="butt" stroke-linejoin="round" fill="none" stroke="#000000" d="M-.3974 66.30226-25.48305 64.4613"/>
<path transform="matrix(.99729999,-.07318,-.073182199,-.99727,69.139919,26.42115)" stroke-width=".3985" stroke-linecap="round" stroke-linejoin="round" fill="none" stroke="#000000" d="M-2.07224 2.39104C-1.69365 .95639-.84999 .27895 0 0-.84999-.27895-1.69365-.95639-2.07224-2.39104"/>
<path transform="matrix(-.99729999,.07318,.073182199,.99727,43.65612,28.291268)" stroke-width=".3985" stroke-linecap="round" stroke-linejoin="round" fill="none" stroke="#000000" d="M-2.07224 2.39104C-1.69365 .95639-.84999 .27895 0 0-.84999-.27895-1.69365-.95639-2.07224-2.39104"/>
<path transform="matrix(1.00003,0,0,-1,69.33864,92.738)" stroke-width=".3985" stroke-linecap="butt" stroke-linejoin="round" fill="none" stroke="#000000" d="M-25.88046 52.158V69.3648"/>
<path transform="matrix(1.00003,0,0,-1,69.33864,92.738)" stroke-width=".3985" stroke-linecap="butt" stroke-linejoin="round" fill="none" stroke="#000000" d="M-.39742 76.13873-38.40944 73.36237"/>
<path transform="matrix(.99733,-.07283,-.07283219,-.9973,69.139919,16.58474)" stroke-width=".3985" stroke-linecap="round" stroke-linejoin="round" fill="none" stroke="#000000" d="M-2.07224 2.39104C-1.69365 .95639-.84999 .27895 0 0-.84999-.27895-1.69365-.95639-2.07224-2.39104"/>
<path transform="matrix(-.99733,.07283,.07283219,.9973,30.72934,19.390152)" stroke-width=".3985" stroke-linecap="round" stroke-linejoin="round" fill="none" stroke="#000000" d="M-2.07224 2.39104C-1.69365 .95639-.84999 .27895 0 0-.84999-.27895-1.69365-.95639-2.07224-2.39104"/>
<path transform="matrix(1.00003,0,0,-1,69.33864,92.738)" d="M5.18741 39.68535 7.76706-14.17339-21.96858-12.01892-14.62712 41.10277Z" fill="#ccccff" fill-opacity=".8"/>
<path transform="matrix(1.00003,0,0,-1,69.33864,92.738)" stroke-width=".3985" stroke-linecap="butt" stroke-linejoin="round" fill="none" stroke="#000000" d="M5.18741 39.68535 7.76706-14.17339-21.96858-12.01892-14.62712 41.10277Z"/>
<path transform="matrix(1.00003,0,0,-1,69.33864,92.738)" stroke-width=".3985" stroke-linecap="butt" stroke-linejoin="round" fill="none" stroke="#000000" d="M11.71442-21.3923 7.76706-14.17339"/>
<path transform="matrix(.47973443,.87737,.87739637,-.47972,81.148998,114.30511)" stroke-width=".3985" stroke-linecap="round" stroke-linejoin="round" fill="none" stroke="#000000" d="M-2.07224 2.39104C-1.69365 .95639-.84999 .27895 0 0-.84999-.27895-1.69365-.95639-2.07224-2.39104"/>
<path transform="matrix(1.00003,0,0,-1,69.33864,92.738)" d="M-17.90848 62.1307H-7.9434397V68.66183H-17.90848Z" fill="#ffffff"/>
<use data-text="r" xlink:href="#font_1_5" transform="matrix(7.9703395,0,0,-7.9701,52.426134,28.503998)"/>
<use data-text="0" xlink:href="#font_2_1" transform="matrix(5.97778,0,0,-5.9776,56.24724,29.611)"/>
<path transform="matrix(1.00003,0,0,-1,69.33864,92.738)" d="M-24.40001 71.48477H-14.434969V78.0159H-24.40001Z" fill="#ffffff"/>
<use data-text="r" xlink:href="#font_1_5" transform="matrix(7.9703395,0,0,-7.9701,45.933938,19.150002)"/>
<use data-text="1" xlink:href="#font_2_2" transform="matrix(5.97778,0,0,-5.9776,49.755044,20.257004)"/>
<path transform="matrix(1.00003,0,0,-1,69.33864,92.738)" d="M43.1377 24.21457H50.0102V31.74197H43.1377Z" fill="#ffffff"/>
<use data-text="h" xlink:href="#font_1_2" transform="matrix(7.9703395,0,0,-7.9701,113.47397,67.527)"/>
<use data-text="x" xlink:href="#font_3_1" transform="matrix(9.962899,0,0,-9.9626,78.39791,122.289)"/>
<use data-text="y" xlink:href="#font_3_2" transform="matrix(9.962899,0,0,-9.9626,66.71756,6.2089998)"/>
<use data-text="z" xlink:href="#font_3_3" transform="matrix(9.962899,0,0,-9.9626,1.2165833,99.22)"/>
<path transform="matrix(1.00003,0,0,-1,69.33864,92.738)" d="M77.24527 54.48247 66.27481 8.02228 91.4468 14.17339 94.02644 58.59286Z" fill="#ffffff"/>
<path transform="matrix(1.00003,0,0,-1,69.33864,92.738)" stroke-width=".3985" stroke-linecap="butt" stroke-linejoin="round" fill="none" stroke="#7f807f" d="M77.24527 54.48247 66.27481 8.02228 91.4468 14.17339 94.02644 58.59286Z"/>
<path transform="matrix(1.00003,0,0,-1,69.33864,92.738)" d="M94.02644 58.59286 91.4468 14.17339 121.18245 12.01892 113.84099 57.14732Z" fill="#ffffff"/>
<path transform="matrix(1.00003,0,0,-1,69.33864,92.738)" stroke-width=".3985" stroke-linecap="butt" stroke-linejoin="round" fill="none" stroke="#7f807f" d="M94.02644 58.59286 91.4468 14.17339 121.18245 12.01892 113.84099 57.14732Z"/>
<path transform="matrix(1.00003,0,0,-1,69.33864,92.738)" d="M113.84099 57.14732 121.18245 12.01892 138.02074 2.83484 125.09433 51.02432Z" fill="#ffffff"/>
<path transform="matrix(1.00003,0,0,-1,69.33864,92.738)" stroke-width=".3985" stroke-linecap="butt" stroke-linejoin="round" fill="none" stroke="#7f807f" d="M113.84099 57.14732 121.18245 12.01892 138.02074 2.83484 125.09433 51.02432Z"/>
<path transform="matrix(1.00003,0,0,-1,69.33864,92.738)" d="M73.33339 47.25432 60.407-2.83484 66.27481 8.02228 77.24527 54.48247Z" fill="#ffffff"/>
<path transform="matrix(1.00003,0,0,-1,69.33864,92.738)" stroke-width=".3985" stroke-linecap="butt" stroke-linejoin="round" fill="none" stroke="#7f807f" d="M73.33339 47.25432 60.407-2.83484 66.27481 8.02228 77.24527 54.48247Z"/>
<path transform="matrix(1.00003,0,0,-1,69.33864,92.738)" d="M125.09433 51.02432 138.02074 2.83484 132.15293-8.02228 121.18245 43.79575Z" fill="#ffffff"/>
<path transform="matrix(1.00003,0,0,-1,69.33864,92.738)" stroke-width=".3985" stroke-linecap="butt" stroke-linejoin="round" fill="none" stroke="#7f807f" d="M125.09433 51.02432 138.02074 2.83484 132.15293-8.02228 121.18245 43.79575Z"/>
<path transform="matrix(1.00003,0,0,-1,69.33864,92.738)" d="M84.58673 41.10277 77.24527-12.01892 60.407-2.83484 73.33339 47.25432Z" fill="#ffffff"/>
<path transform="matrix(1.00003,0,0,-1,69.33864,92.738)" stroke-width=".3985" stroke-linecap="butt" stroke-linejoin="round" fill="none" stroke="#7f807f" d="M84.58673 41.10277 77.24527-12.01892 60.407-2.83484 73.33339 47.25432Z"/>
<path transform="matrix(1.00003,0,0,-1,69.33864,92.738)" d="M121.18245 43.79575 132.15293-8.02228 106.98094-14.17339 104.40128 39.68535Z" fill="#ffffff"/>
<path transform="matrix(1.00003,0,0,-1,69.33864,92.738)" stroke-width=".3985" stroke-linecap="butt" stroke-linejoin="round" fill="none" stroke="#7f807f" d="M121.18245 43.79575 132.15293-8.02228 106.98094-14.17339 104.40128 39.68535Z"/>
<path transform="matrix(1.00003,0,0,-1,69.33864,92.738)" d="M84.58673 41.10277 77.24527-12.01892 106.98094-14.17339 104.40128 39.68535Z" fill="#ff0000" fill-opacity=".5"/>
<path transform="matrix(1.00003,0,0,-1,69.33864,92.738)" stroke-width=".3985" stroke-linecap="butt" stroke-linejoin="round" fill="none" stroke="#000000" d="M84.58673 41.10277 77.24527-12.01892 106.98094-14.17339 104.40128 39.68535Z"/>
<path transform="matrix(1.00003,0,0,-1,69.33864,92.738)" d="M79.23782-12.01892C79.23782-10.91844 78.34575-10.02637 77.24527-10.02637 76.1448-10.02637 75.25272-10.91844 75.25272-12.01892 75.25272-13.11938 76.1448-14.01147 77.24527-14.01147 78.34575-14.01147 79.23782-13.11938 79.23782-12.01892ZM77.24527-12.01892"/>
<path transform="matrix(1.00003,0,0,-1,69.33864,92.738)" d="M108.9735-14.17339C108.9735-13.07292 108.0814-12.18083 106.98094-12.18083 105.88046-12.18083 104.98839-13.07292 104.98839-14.17339 104.98839-15.27386 105.88046-16.16594 106.98094-16.16594 108.0814-16.16594 108.9735-15.27386 108.9735-14.17339ZM106.98094-14.17339"/>
<path transform="matrix(1.00003,0,0,-1,69.33864,92.738)" d="M86.57928 41.10277C86.57928 42.20323 85.68721 43.09532 84.58673 43.09532 83.48627 43.09532 82.59418 42.20323 82.59418 41.10277 82.59418 40.00229 83.48627 39.11021 84.58673 39.11021 85.68721 39.11021 86.57928 40.00229 86.57928 41.10277ZM84.58673 41.10277"/>
<path transform="matrix(1.00003,0,0,-1,69.33864,92.738)" d="M106.39383 39.68535C106.39383 40.78583 105.50175 41.6779 104.40128 41.6779 103.30081 41.6779 102.40872 40.78583 102.40872 39.68535 102.40872 38.58488 103.30081 37.6928 104.40128 37.6928 105.50175 37.6928 106.39383 38.58488 106.39383 39.68535ZM104.40128 39.68535"/>
<use data-text="i" xlink:href="#font_1_3" transform="matrix(7.9703395,0,0,-7.9701,197.9565,44.348)"/>
<use data-text="=" xlink:href="#font_4_4" transform="matrix(7.9703395,0,0,-7.9701,200.83959,44.348)"/>
<use data-text="0" xlink:href="#font_4_2" transform="matrix(7.9703395,0,0,-7.9701,207.42307,44.348)"/>
<use data-text="i" xlink:href="#font_1_3" transform="matrix(7.9703395,0,0,-7.9701,210.8839,92.538)"/>
<use data-text="=" xlink:href="#font_4_4" transform="matrix(7.9703395,0,0,-7.9701,213.76699,92.538)"/>
<use data-text="1" xlink:href="#font_4_3" transform="matrix(7.9703395,0,0,-7.9701,220.35047,92.538)"/>
<use data-text="j" xlink:href="#font_1_4" transform="matrix(7.9703395,0,0,-7.9701,142.86685,80.056)"/>
<use data-text="j" xlink:href="#font_1_4" transform="matrix(7.9703395,0,0,-7.9701,178.53891,81.841999)"/>
<use data-text="+" xlink:href="#font_4_1" transform="matrix(7.9703395,0,0,-7.9701,182.42304,81.841999)"/>
<use data-text="1" xlink:href="#font_4_3" transform="matrix(7.9703395,0,0,-7.9701,189.00653,81.841999)"/>
<path transform="matrix(1.00003,0,0,-1,69.33864,92.738)" stroke-width=".3985" stroke-linecap="butt" stroke-linejoin="round" fill="none" stroke="#000000" d="M96.83273 7.52573C100.2222 10.0697 101.38356 15.70424 99.42667 20.11055 97.46976 24.51686 93.13553 26.02664 89.74606 23.48267 86.3566 20.93869 85.19522 15.30415 87.15213 10.89784 87.71326 9.63419 88.49712 8.56311 89.43634 7.77206"/>
<path transform="matrix(.799844,.60019,.600208,-.79982,158.92804,85.09269)" stroke-width=".3985" stroke-linecap="round" stroke-linejoin="round" fill="none" stroke="#000000" d="M-2.07224 2.39104C-1.69365 .95639-.84999 .27895 0 0-.84999-.27895-1.69365-.95639-2.07224-2.39104"/>
<path transform="matrix(1.00003,0,0,-1,69.33864,92.738)" d="M106.98094-14.17339"/>
<use data-text="P" xlink:href="#font_1_1" transform="matrix(7.9703395,0,0,-7.9701,147.34098,47.008)"/>
<use data-text="0" xlink:href="#font_2_1" transform="matrix(5.97778,0,0,-5.9776,152.71015,48.115)"/>
<use data-text="0" xlink:href="#font_2_1" transform="matrix(5.97778,0,0,-5.9776,156.36258,48.115)"/>
<use data-text="P" xlink:href="#font_1_1" transform="matrix(7.9703395,0,0,-7.9701,139.99976,113.723)"/>
<use data-text="1" xlink:href="#font_2_2" transform="matrix(5.97778,0,0,-5.9776,145.36891,114.83)"/>
<use data-text="0" xlink:href="#font_2_1" transform="matrix(5.97778,0,0,-5.9776,149.02135,114.83)"/>
<use data-text="P" xlink:href="#font_1_1" transform="matrix(7.9703395,0,0,-7.9701,167.15659,48.426)"/>
<use data-text="0" xlink:href="#font_2_1" transform="matrix(5.97778,0,0,-5.9776,172.52573,49.533)"/>
<use data-text="1" xlink:href="#font_2_2" transform="matrix(5.97778,0,0,-5.9776,176.17816,49.533)"/>
<use data-text="P" xlink:href="#font_1_1" transform="matrix(7.9703395,0,0,-7.9701,169.73566,115.878)"/>
<use data-text="1" xlink:href="#font_2_2" transform="matrix(5.97778,0,0,-5.9776,175.1048,116.985)"/>
<use data-text="1" xlink:href="#font_2_2" transform="matrix(5.97778,0,0,-5.9776,178.75724,116.985)"/>
</svg>
