<svg xmlns="http://www.w3.org/2000/svg" xmlns:xlink="http://www.w3.org/1999/xlink" xmlns:inkscape="http://www.inkscape.org/namespaces/inkscape" version="1.1" width="400" height="293" viewBox="0 0 400 293">
<defs>
<path id="font_1_199" d="M.5159912 .24197388C.5159912 .31796266 .45199586 .37597657 .38198854 .37597657 .3019867 .37597657 .24598694 .31196595 .24598694 .24197388 .24598694 .15896607 .31599427 .10597229 .37998963 .10597229 .45498658 .10597229 .5159912 .16397095 .5159912 .24197388Z"/>
<path id="font_2_1" d="M.39898683 .23057556H.6749878C.68899539 .23057556 .70700076 .23057556 .70700076 .24856568 .70700076 .26757813 .6899872 .26757813 .6749878 .26757813H.39898683V.5441437C.39898683 .5581665 .39898683 .5761719 .3809967 .5761719 .3619995 .5761719 .3619995 .5591583 .3619995 .5441437V.26757813H.085998538C.07199097 .26757813 .053985597 .26757813 .053985597 .24957276 .053985597 .23057556 .070999149 .23057556 .085998538 .23057556H.3619995V-.045166017C.3619995-.059158327 .3619995-.07714844 .37998963-.07714844 .39898683-.07714844 .39898683-.060150148 .39898683-.045166017V.23057556Z"/>
<path id="font_3_1" d="M.10398865-2.177124C.13598633-2.1751099 .15299988-2.1531068 .15299988-2.1281129 .15299988-2.095108 .12799073-2.0791016 .10499573-2.0791016 .08099365-2.0791016 .055999757-2.0941163 .055999757-2.1291047 .055999757-2.18013 .10598755-2.2221986 .16699219-2.2221986 .31900025-2.2221986 .37599183-1.9880982 .44699098-1.6980591 .5239868-1.382019 .58898928-1.062973 .6429901-.7419281 .6799927-.52890017 .71699526-.32887269 .7509918-.19985962 .7630005-.15084839 .7969971-.022003174 .83599856-.022003174 .86698916-.022003174 .8919983-.040893556 .8959961-.0448761 .86299136-.04685974 .84599307-.068862918 .84599307-.09385681 .84599307-.12686157 .87098696-.14285279 .8939972-.14285279 .91799929-.14285279 .94299319-.1278534 .94299319-.09286499 .94299319-.038909913 .8889923 0 .83399966 0 .7579956 0 .70199587-.1088562 .6469879-.3128662 .6439972-.3238678 .5079956-.825943 .397995-1.4800263 .37199403-1.6330414 .34298707-1.8000641 .30999757-1.9390869 .2919922-2.0121003 .24598694-2.2001954 .16499329-2.2001954 .1289978-2.2001954 .10499573-2.177124 .10398865-2.177124Z"/>
<path id="font_4_1" d="M.42599488 .005508423C.59799197 .07449341 .7259979 .25660707 .7259979 .43780519 .7259979 .6029968 .6179962 .70410159 .47799684 .70410159 .2639923 .70410159 .04798889 .47384645 .04798889 .24258423 .04798889 .085494998 .1519928-.021484375 .29699708-.021484375 .33099366-.021484375 .3639984-.016494751 .3959961-.0064849855 .3899994-.06640625 .3899994-.07141113 .3899994-.09037781 .3899994-.11933899 .3899994-.19433594 .46998597-.19433594 .58898928-.19433594 .6329956-.0074920656 .6329956-.0014953613 .6329956 .004501343 .6289978 .008514404 .6239929 .008514404 .6179962 .008514404 .6159973 .0035095216 .61299136-.0074920656 .59098818-.07040405 .5389862-.1063385 .49499513-.1063385 .44400025-.1063385 .43099977-.07141113 .42599488 .005508423M.24598694 .010513306C.16699219 .037506105 .1289978 .1204834 .1289978 .21255493 .1289978 .28263856 .15499878 .41578675 .22099304 .51690676 .29499818 .6310272 .3939972 .6820984 .47200013 .6820984 .57598879 .6820984 .6459961 .59799197 .6459961 .46784974 .6459961 .39375306 .61099246 .1454773 .4229889 .035507204 .41799928 .08648682 .4039917 .14648438 .33799745 .14648438 .28399659 .14648438 .23799134 .09248352 .23799134 .043502809 .23799134 .03250122 .24198914 .017501831 .24598694 .010513306M.397995 .022506714C.3619995 .006500244 .33099366 .00050354006 .30299378 .00050354006 .29299928 .00050354006 .2579956 .00050354006 .2579956 .04449463 .2579956 .08049011 .29299928 .1264801 .33799745 .1264801 .3880005 .1264801 .39898683 .09248352 .39898683 .042495729 .39898683 .036499025 .39898683 .028503418 .397995 .022506714Z"/>
<path id="font_5_3" d="M.2939911 .64004519C.2939911 .66400149 .2939911 .6660156 .2709961 .6660156 .20899964 .60227969 .12098694 .60227969 .08898926 .60227969V.57128909C.10899353 .57128909 .16799927 .57128909 .21998596 .5972748V.07902527C.21998596 .042999269 .21699524 .0309906 .1269989 .0309906H.09498596V0C.12998963 .0029907227 .21699524 .0029907227 .25698854 .0029907227 .29699708 .0029907227 .38398744 .0029907227 .4189911 0V.0309906H.3869934C.29699708 .0309906 .2939911 .041992189 .2939911 .07902527V.64004519Z"/>
<path id="font_4_2" d="M.4169922 .6096344C.4229889 .6336212 .4249878 .64260867 .43998719 .64660647 .44799806 .64860537 .48098756 .64860537 .5019989 .64860537 .60198977 .64860537 .6489868 .64460757 .6489868 .5666504 .6489868 .55166628 .644989 .51368716 .6389923 .4767151L.6380005 .46472169C.6380005 .46072389 .6419983 .45472718 .647995 .45472718 .6579895 .45472718 .6579895 .4597168 .6609955 .475708L.6899872 .65260317C.69200137 .66160586 .69200137 .66360476 .69200137 .6666107 .69200137 .6776123 .6859894 .6776123 .66600039 .6776123H.11898804C.09599304 .6776123 .09498596 .6766052 .08898926 .6586151L.027999878 .478714C.026992798 .4767151 .023986817 .4657135 .023986817 .46472169 .023986817 .4597168 .027999878 .45472718 .033996583 .45472718 .041992189 .45472718 .04399109 .45872499 .04798889 .4717102 .08999634 .5926361 .11099243 .64860537 .24398804 .64860537H.31098939C.33499146 .64860537 .34498597 .64860537 .34498597 .637619 .34498597 .63461306 .34498597 .63261416 .33999635 .614624L.20599365 .07795715C.19599915 .038986207 .19400025 .0289917 .08799744 .0289917 .06298828 .0289917 .055999757 .0289917 .055999757 .009994507 .055999757 0 .066986087 0 .07199097 0 .09700012 0 .12298584 .0019989014 .147995 .0019989014H.3039856C.32899476 .0019989014 .35598756 0 .3809967 0 .3919983 0 .4019928 0 .4019928 .018997193 .4019928 .0289917 .394989 .0289917 .36898805 .0289917 .2789917 .0289917 .2789917 .037994386 .2789917 .052978517 .2789917 .053970338 .2789917 .06097412 .2829895 .07696533L.4169922 .6096344Z"/>
<path id="font_6_1" d="M.4850006 .41075135 .40098573 .6096344C.397995 .61763 .3959961 .6216278 .3959961 .6226196 .3959961 .62861636 .41299439 .6476135 .45498658 .6516113 .46499635 .65260317 .47499085 .6536102 .47499085 .6706085 .47499085 .6826172 .46299745 .6826172 .45999146 .6826172 .4189911 .6826172 .37599183 .6796112 .33399964 .6796112 .30899049 .6796112 .24699402 .6826172 .22200012 .6826172 .21598816 .6826172 .20399475 .6826172 .20399475 .6626129 .20399475 .6516113 .21398926 .6516113 .22698975 .6516113 .2869873 .6516113 .29299928 .6416168 .3019867 .6196289L.41999818 .34080506 .20899964 .11393738 .19599915 .10295105C.14698792 .049987794 .099990848 .033996583 .04899597 .0309906 .035995485 .02999878 .026992798 .02999878 .026992798 .010986328 .026992798 .009994507 .026992798 0 .039993287 0 .069992069 0 .102996829 .0029907227 .13398743 .0029907227 .17098999 .0029907227 .20999146 0 .24598694 0 .2519989 0 .2639923 0 .2639923 .019989014 .2639923 .02999878 .2539978 .0309906 .2519989 .0309906 .24299622 .03199768 .21199036 .033996583 .21199036 .061965944 .21199036 .07795715 .22698975 .093948367 .23899842 .10694885L.34098817 .21487427 .43099977 .31282044 .5319977 .07395935C.5359955 .06297302 .5369873 .061965944 .5369873 .05996704 .5369873 .051986696 .5179901 .034988405 .47898866 .0309906 .46798707 .02999878 .45899964 .0289917 .45899964 .011993408 .45899964 0 .46998597 0 .47399903 0 .5019989 0 .57199099 .0029907227 .59999087 .0029907227 .625 .0029907227 .6859894 0 .71099856 0 .71798709 0 .7299957 0 .7299957 .018997193 .7299957 .0309906 .7200012 .0309906 .71199038 .0309906 .644989 .03199768 .6429901 .034988405 .6259918 .07496643 .58699038 .16790772 .519989 .32380677 .49699403 .3837738 .5649872 .45373536 .66999819 .5726471 .70199587 .6006317 .73098757 .62461856 .7689972 .64860537 .82899478 .6516113 .84199526 .65260317 .8509979 .65260317 .8509979 .6716156 .8509979 .6726074 .8509979 .6826172 .83799746 .6826172 .80799868 .6826172 .7749939 .6796112 .74398806 .6796112 .70700076 .6796112 .6689911 .6826172 .6329956 .6826172 .6269989 .6826172 .6139984 .6826172 .6139984 .6626129 .6139984 .65560916 .61898806 .65260317 .6259918 .6516113 .6349945 .65060427 .66600039 .64860537 .66600039 .6206207 .66600039 .6066284 .6549988 .5936432 .6469879 .5846405L.4850006 .41075135Z"/>
<path id="font_5_1" d="M.33099366-.2400055C.33099366-.23701477 .33099366-.23500061 .31399537-.21800232 .18899536-.0920105 .15699768 .09700012 .15699768 .25 .15699768 .42399598 .19499207 .59799197 .31799317 .72299197 .33099366 .73498538 .33099366 .7369995 .33099366 .73999026 .33099366 .746994 .32699586 .75 .32099916 .75 .31098939 .75 .22099304 .6819916 .1619873 .5549927 .11099243 .44499208 .09899902 .33399964 .09899902 .25 .09899902 .17199707 .10998535 .050994874 .16499329-.06201172 .22499085-.18501282 .31098939-.25 .32099916-.25 .32699586-.25 .33099366-.24700928 .33099366-.2400055Z"/>
<path id="font_6_3" d="M.7200012 .6586151C.72099307 .6626129 .72299197 .66760256 .72299197 .6736145 .72299197 .6826172 .71798709 .6826172 .69799807 .6826172H.27598573C.2519989 .6826172 .25099183 .6816101 .24499512 .6626129L.18998719 .4827118C.18798828 .47772218 .18699646 .47071839 .18699646 .46871949 .18699646 .46772767 .18699646 .45773316 .19898987 .45773316 .20799256 .45773316 .20999146 .46472169 .21199036 .46772767 .25 .5856476 .3019867 .6516113 .45799256 .6516113H.62098696L.06199646 .026992798C.06199646 .025985718 .057998659 .011993408 .057998659 .008987427 .057998659 0 .06498718 0 .08299255 0H.5179901C.5419922 0 .54299929 .0009918213 .548996 .019989014L.6199951 .24085999C.62098696 .24485779 .6239929 .25186158 .6239929 .25585938 .6239929 .260849 .6199951 .2668457 .61099246 .2668457 .60198977 .2668457 .6009979 .2628479 .59399417 .24186707 .5499878 .10594177 .5019989 .033996583 .33198548 .033996583H.16099549L.7200012 .6586151Z"/>
<path id="font_5_2" d="M.2889862 .25C.2889862 .32798768 .27799989 .44898988 .22299195 .56199648 .16299439 .68499758 .07699585 .75 .066986087 .75 .06098938 .75 .056991579 .74598696 .056991579 .73999026 .056991579 .7369995 .056991579 .73498538 .07598877 .71699526 .17399597 .6179962 .23098755 .45899964 .23098755 .25 .23098755 .07899475 .19400025-.09700012 .069992069-.2230072 .056991579-.23500061 .056991579-.23701477 .056991579-.2400055 .056991579-.2460022 .06098938-.25 .066986087-.25 .07699585-.25 .16699219-.18200684 .22599793-.055007936 .2769928 .054992677 .2889862 .16600037 .2889862 .25Z"/>
<path id="font_5_4" d="M.1269989 .07699585 .23298645 .18003845C.3889923 .31811524 .44898988 .3721466 .44898988 .47216798 .44898988 .5860901 .35899354 .6660156 .23699951 .6660156 .12399292 .6660156 .049987794 .57411196 .049987794 .48516847 .049987794 .4291687 .099990848 .4291687 .102996829 .4291687 .11999512 .4291687 .15499878 .44117738 .15499878 .48217774 .15499878 .5081787 .13699341 .5341797 .101989749 .5341797 .09399414 .5341797 .09199524 .5341797 .08898926 .5331726 .11199951 .59806826 .1659851 .63500979 .22399903 .63500979 .31498719 .63500979 .35798646 .5541382 .35798646 .47216798 .35798646 .39215089 .30799867 .31311036 .25299073 .25108338L.06098938 .036987306C.049987794 .025985718 .049987794 .023986817 .049987794 0H.42099L.44898988 .17404175H.42399598C.4189911 .14402771 .4119873 .1000061 .4019928 .084991458 .394989 .07699585 .32899476 .07699585 .30699159 .07699585H.1269989Z"/>
<path id="font_4_3" d="M.5029907 .6693268C.5039978 .6733246 .5059967 .6793213 .5059967 .6843262 .5059967 .69433596 .49598695 .69433596 .49398805 .69433596 .49299623 .69433596 .44400025 .6903229 .43899537 .68933108 .42199708 .688324 .40699769 .6863251 .3889923 .68533328 .3639984 .68333438 .35699464 .6823273 .35699464 .6643219 .35699464 .6543274 .36499024 .6543274 .3789978 .6543274 .42799378 .6543274 .42900086 .6453247 .42900086 .6353302 .42900086 .6293335 .4269867 .6213379 .42599488 .61834719L.36499024 .37538148C.35398866 .4013977 .32699586 .44140626 .2749939 .44140626 .1619873 .44140626 .039993287 .29534913 .039993287 .14727783 .039993287 .04824829 .09799194-.009765625 .1659851-.009765625 .22099304-.009765625 .2679901 .033233644 .29599 .06625366 .30599977 .007232666 .35299684-.009765625 .3829956-.009765625 .41299439-.009765625 .43699647 .008224487 .45498658 .04423523 .47099305 .07826233 .4850006 .13928223 .4850006 .14328003 .4850006 .14828491 .48098756 .15228272 .47499085 .15228272 .46598817 .15228272 .46499635 .14727783 .46099855 .13227844 .44599916 .07325745 .4269867 .010223389 .38598634 .010223389 .35699464 .010223389 .35499574 .036239625 .35499574 .056243898 .35499574 .0602417 .35499574 .08125305 .3619995 .10926819L.5029907 .6693268M.30099488 .119277957C.29599 .102264408 .29599 .1002655 .28199769 .08125305 .2599945 .053237916 .21598816 .010223389 .16899109 .010223389 .12799073 .010223389 .10499573 .04724121 .10499573 .10626221 .10499573 .1612854 .13598633 .2733307 .15499878 .3153534 .18899536 .38539125 .23599243 .42140199 .2749939 .42140199 .34098817 .42140199 .35398866 .33937074 .35398866 .33135987 .35398866 .33036805 .35099793 .3173523 .34999085 .3153534L.30099488 .119277957Z"/>
<path id="font_4_4" d="M.20098877 .4016571H.29299928C.31199647 .4016571 .32199098 .4016571 .32199098 .41966249 .32199098 .43066407 .31599427 .43066407 .29599 .43066407H.20799256L.24499512 .57650759C.24899292 .5904999 .24899292 .5924988 .24899292 .5994873 .24899292 .6154785 .23599243 .6244812 .22299195 .6244812 .21499634 .6244812 .19198609 .6214905 .18399048 .5894928L.14498902 .43066407H.050994874C.0309906 .43066407 .021987915 .43066407 .021987915 .4116516 .021987915 .4016571 .0289917 .4016571 .04798889 .4016571H.13699341L.070999149 .13804627C.06298828 .10308838 .05999756 .09310913 .05999756 .0801239 .05999756 .033187868 .09298706-.009765625 .14898682-.009765625 .25-.009765625 .3039856 .13604737 .3039856 .14303589 .3039856 .14901734 .2999878 .15202332 .2939911 .15202332 .2919922 .15202332 .28799439 .15202332 .28599549 .14802552 .2849884 .14703369 .28399659 .14602661 .2769928 .13005066 .2559967 .0801239 .20999146 .010223389 .1519928 .010223389 .12199402 .010223389 .11999512 .035186769 .11999512 .057159425 .11999512 .058151246 .11999512 .07713318 .12298584 .08911133L.20098877 .4016571Z"/>
<path id="font_6_2" d="M.5970001 .5686493 .61099246 .5826416C.6409912 .6126251 .673996 .64660647 .74198916 .6516113 .7529907 .65260317 .7619934 .65260317 .7619934 .6706085 .7619934 .6786041 .7569885 .6826172 .7489929 .6826172 .72299197 .6826172 .69400027 .6796112 .6669922 .6796112 .6339874 .6796112 .598999 .6826172 .5669861 .6826172 .5609894 .6826172 .5479889 .6826172 .5479889 .66360476 .5479889 .65260317 .55799868 .6516113 .5629883 .6516113 .56999209 .6516113 .598999 .6496124 .598999 .62861636 .598999 .6116333 .57598879 .5856476 .57199099 .5806427L.33999635 .31381227 .22999573 .6106262C.22399903 .62461856 .22399903 .62661746 .22399903 .6276245 .22399903 .6516113 .272995 .6516113 .2829895 .6516113 .29699708 .6516113 .30699159 .6516113 .30699159 .6716156 .30699159 .6826172 .29499818 .6826172 .2919922 .6826172 .2639923 .6826172 .19400025 .6796112 .1659851 .6796112 .14099121 .6796112 .07899475 .6826172 .053985597 .6826172 .04798889 .6826172 .034988405 .6826172 .034988405 .6626129 .034988405 .6516113 .04499817 .6516113 .057998659 .6516113 .117996219 .6516113 .12199402 .64260867 .1309967 .61763L.2539978 .28883363C.25498963 .28582765 .2579956 .2748413 .2579956 .27183534 .2579956 .2688446 .21798706 .107940677 .21299744 .08995056 .19999695 .034988405 .19898987 .03199768 .11898804 .0309906 .099990848 .0309906 .09199524 .0309906 .09199524 .010986328 .09199524 0 .10398865 0 .10598755 0 .13398743 0 .20399475 .0029907227 .23199463 .0029907227 .2599945 .0029907227 .33198548 0 .3600006 0 .36698915 0 .3789978 0 .3789978 .019989014 .3789978 .0309906 .36999513 .0309906 .35099793 .0309906 .34899903 .0309906 .32998658 .0309906 .31298829 .032989503 .2919922 .034988405 .28599549 .036987306 .28599549 .048980714 .28599549 .05596924 .29499818 .09095764 .2999878 .11193848L.33499146 .2528534C.33999635 .27183534 .34098817 .2748413 .34899903 .28382875L.5970001 .5686493Z"/>
<path id="font_7_199" d="M.5329895 .23098755C.5329895 .30999757 .46798707 .375 .3889923 .375 .30999757 .375 .24499512 .30999757 .24499512 .23098755 .24499512 .1519928 .30999757 .08699036 .3889923 .08699036 .46798707 .08699036 .5329895 .1519928 .5329895 .23098755Z"/>
<path id="font_8_55" d="M.49598695 .3420105 .47698976 .5107422H.042999269V.48573304C.10998535 .48573304 .114990238 .4797516 .114990238 .4388275V.072021488C.114990238 .0309906 .10998535 .024993897 .042999269 .024993897V0L.1539917 .0029907227 .2769928 0V.024993897C.20199585 .024993897 .18699646 .024993897 .18699646 .075027469V.24316406H.2539978C.32798768 .24316406 .33898927 .22213745 .33898927 .15609741H.3639984V.35499574H.33898927C.33898927 .28910829 .32798768 .26815797 .2539978 .26815797H.18699646V.44282533C.18699646 .4827423 .19198609 .48573304 .22698975 .48573304H.32199098C.43199159 .48573304 .46099855 .4537964 .47099305 .3420105H.49598695Z"/>
<path id="font_8_66" d="M.2630005 0V.024993897C.19198609 .024993897 .18699646 .02998352 .18699646 .07295227V.4406891C.18699646 .48365785 .19198609 .48866273 .2630005 .48866273V.5136719L.15098572 .5106659 .038986207 .5136719V.48866273C.10998535 .48866273 .114990238 .48365785 .114990238 .4406891V.07295227C.114990238 .02998352 .10998535 .024993897 .038986207 .024993897V0L.15098572 .0029907227 .2630005 0Z"/>
<path id="font_8_96" d="M.59298709 .06791687C.59298709 .072906497 .59298709 .08288574 .5799866 .08288574 .56900027 .08288574 .56799319 .073898319 .56799319 .06990051 .5609894 .008987427 .5249939 .0079956059 .5179901 .0079956059 .49798585 .0079956059 .4889984 .020996094 .48298646 .031982423 .47499085 .047943117 .46899415 .07589722 .45599366 .13977051 .44799806 .17471314 .43798829 .22561646 .36299134 .25457765 .43299867 .27256776 .49499513 .31759645 .49499513 .37861634 .49499513 .44863893 .4059906 .5136719 .2849884 .5136719H.04499817V.48866273C.11199951 .48866273 .116989139 .48266603 .116989139 .4416504V.071899417C.116989139 .030975342 .11199951 .024993897 .04499817 .024993897V0L.15098572 .0029907227 .2579956 0V.024993897C.19099427 .024993897 .18598938 .030975342 .18598938 .071899417V.24557495H.27598573C.30099488 .24557495 .32699586 .24456787 .35798646 .2136383 .3789978 .19168091 .3789978 .16772461 .3789978 .123809818 .3789978 .06791687 .3789978 .049942018 .41099549 .018997193 .42900086 .0009918213 .46899415-.014007568 .5139923-.014007568 .5779877-.014007568 .59298709 .047943117 .59298709 .06791687M.40899659 .37861634C.40899659 .3395996 .4039917 .26757813 .27398683 .26757813H.18598938V.4456482C.18598938 .47065736 .18798828 .4806671 .19799805 .48565675 .20498657 .48866273 .23199463 .48866273 .25 .48866273 .32398988 .48866273 .40899659 .48565675 .40899659 .37861634Z"/>
<path id="font_8_98" d="M.40699769 .14225769C.40699769 .20526123 .36799623 .2462616 .36799623 .2462616 .33099366 .28425599 .31498719 .28726197 .22999573 .30725099 .20899964 .31225587 .17399597 .32025147 .16799927 .32226563 .117996219 .34225465 .101989749 .3814087 .101989749 .411438 .101989749 .45747376 .14199829 .50631716 .20899964 .50631716 .33599855 .50631716 .35398866 .38941957 .35798646 .35742188 .3600006 .35032655 .3600006 .34425355 .37098695 .34425355 .38398744 .34425355 .38398744 .34931947 .38398744 .3684082V.5044861C.38398744 .52030947 .38398744 .5283203 .37399293 .5283203 .36799623 .5283203 .36698915 .52731326 .35198976 .5054016 .34700013 .5004883 .33699037 .4854889 .33299256 .4794922 .29499818 .51631167 .24899292 .5283203 .20799256 .5283203 .116989139 .5283203 .050994874 .46046449 .050994874 .38241578 .050994874 .32626344 .08299255 .29325868 .09498596 .28126527 .125 .25125123 .14498902 .24725342 .23699951 .22625733 .29100038 .21325684 .30099488 .21125794 .32398988 .19026184 .32899476 .18649292 .35598756 .15950012 .35598756 .11546326 .35598756 .06539917 .31698609 .0113220219 .24798584 .0113220219 .22200012 .0113220219 .16799927 .015319824 .125 .050369264 .07998657 .0854187 .07699585 .13449097 .07598877 .16149903 .07499695 .16949463 .066986087 .17050171 .06399536 .17050171 .050994874 .17050171 .050994874 .16349793 .050994874 .14550781V.010147095C.050994874-.0056762697 .050994874-.013671875 .06098938-.013671875 .066986087-.013671875 .067993167-.012680054 .08299255 .00932312 .08799744 .014144897 .09799194 .029144288 .101989749 .03515625 .1309967 .00932312 .18299866-.013671875 .24798584-.013671875 .34498597-.013671875 .40699769 .063323978 .40699769 .14231873V.14225769Z"/>
<path id="font_8_105" d="M.5549927 .33883668 .54100039 .5078125H.049987794L.035995485 .33883668H.06098938C.069992069 .46481324 .08999634 .48280335 .20098877 .48280335 .25698854 .48280335 .2599945 .48280335 .2599945 .43981935V.075912479C.2599945 .03591919 .2559967 .024917603 .1789856 .024917603H.1579895V0C.19699097 .0029296876 .2559967 .0029296876 .29599 .0029296876 .33599855 .0029907227 .394989 .0029907227 .43399049 0V.024993897H.41299439C.33599855 .024993897 .33198548 .035995485 .33198548 .07597351V.43981935C.33198548 .48280335 .33499146 .48280335 .3909912 .48280335 .49899293 .48280335 .5209961 .46580506 .5299988 .3388672L.5549927 .33883668Z"/>
<path id="font_8_64" d="M.30499269 .18710327V.24511719H.025985718V.18710327H.30499269Z"/>
<path id="font_8_81" d="M.58499148 .25531007C.58499148 .40431214 .46598817 .5283203 .31799317 .5283203 .16899109 .5283203 .050994874 .40431214 .050994874 .25531007 .050994874 .10432434 .17199707-.013671875 .31799317-.013671875 .46398927-.013671875 .58499148 .10432434 .58499148 .25531007M.49899293 .26631166C.49899293 .06932068 .3889923 .012313843 .31799317 .012313843 .24699402 .012313843 .13699341 .06932068 .13699341 .26631166 .13699341 .4543152 .25099183 .50331118 .31799317 .50331118 .38598634 .50331118 .49899293 .4533081 .49899293 .26631166Z"/>
<path id="font_8_47" d="M.57299807 .2526703C.57299807 .39067079 .46998597 .5136719 .32598878 .5136719H.04499817V.48866273C.11199951 .48866273 .116989139 .48266603 .116989139 .44166566V.07167053C.116989139 .030944825 .11199951 .024993897 .04499817 .024993897V0H.32598878C.46699525 0 .57299807 .11567688 .57299807 .2526703M.48999024 .2526703C.48999024 .17066956 .47499085 .12867737 .45399476 .09667969 .43798829 .07467651 .394989 .024993897 .30299378 .024993897H.22599793C.19099427 .024993897 .18598938 .02796936 .18598938 .06770325V.44566346C.18598938 .485672 .19099427 .48866273 .22599793 .48866273H.30299378C.3889923 .48866273 .43199159 .44166566 .44599916 .42366029 .46798707 .39567567 .48999024 .3536682 .48999024 .2526703Z"/>
<path id="font_8_50" d="M.5289917 .19393921H.5039978C.4869995 .07298279 .46299745 .024993897 .33499146 .024993897H.22698975C.19198609 .024993897 .18699646 .02798462 .18699646 .067977908V.2529297H.25698854C.33099366 .2529297 .34298707 .23292542 .34298707 .16595459H.36799623V.36483766H.34298707C.34298707 .29789735 .33099366 .27792359 .25698854 .27792359H.18699646V.44277955C.18699646 .4827423 .19198609 .48573304 .22698975 .48573304H.32899476C.44499208 .48573304 .47099305 .45074464 .48199464 .34181214H.5069885L.48799134 .5107422H.042999269V.48573304C.10998535 .48573304 .114990238 .47973634 .114990238 .43875123V.07196045C.114990238 .0309906 .10998535 .024993897 .042999269 .024993897V0H.5L.5289917 .19393921Z"/>
<path id="font_8_77" d="M.56999209 .48866273V.5136719L.48399354 .5106659C.46899415 .5106659 .4229889 .5116577 .397995 .5136719V.48866273C.46998597 .48866273 .46998597 .43566896 .46998597 .4126587V.11566162L.19299317 .5006714C.18399048 .5136719 .18199158 .5136719 .16299439 .5136719H.042999269V.48866273C.066986087 .4889984 .09498596 .4889984 .114990238 .48199464V.100997928C.114990238 .07798767 .114990238 .024993897 .042999269 .024993897V0L.1289978 .0029907227C.14399719 .0029907227 .18998719 .0019989014 .21499634 0V.024993897C.14299011 .024993897 .14299011 .07798767 .14299011 .100997928V.45899964L.15299988 .44699098 .46699525 .010986328C.47499085 0 .47799684 0 .48399354 0 .49798585 0 .49798585 .0069885256 .49798585 .025985718V.41299439C.49798585 .43566896 .49798585 .48866273 .56999209 .48866273Z"/>
<path id="font_8_63" d="M.56999209 0V.024993897C.5029907 .024993897 .49798585 .0309906 .49798585 .07197571V.44171144C.49798585 .48266603 .5029907 .48866273 .56999209 .48866273V.5136719L.46199037 .5106659 .35398866 .5136719V.48866273C.42099 .48866273 .42599488 .48266603 .42599488 .44171144V.2798767H.18699646V.44171144C.18699646 .48266603 .19198609 .48866273 .25898744 .48866273V.5136719L.15098572 .5106659 .042999269 .5136719V.48866273C.10998535 .48866273 .114990238 .48266603 .114990238 .44171144V.07197571C.114990238 .0309906 .10998535 .024993897 .042999269 .024993897V0L.15098572 .0029907227 .25898744 0V.024993897C.19198609 .024993897 .18699646 .0309906 .18699646 .07197571V.2548828H.42599488V.07197571C.42599488 .0309906 .42099 .024993897 .35398866 .024993897V0L.46199037 .0029907227 .56999209 0Z"/>
<path id="font_8_28" d="M.57899478-.000061035159V.024932862C.522995 .024932862 .5139923 .029937745 .5009918 .064941409L.32899476 .50923159C.32299806 .52523806 .31799317 .53125 .30699159 .53125 .29299928 .53125 .29100038 .52523806 .28599549 .5122223L.125 .09893799C.11399841 .07192993 .09700012 .026931763 .033996583 .024932862V-.000061035159C.055999757 .0019378662 .084991458 .0029449464 .10699463 .0029449464L.18998719-.000061035159V.024932862C.147995 .026931763 .14498902 .060943605 .14498902 .06993103 .14498902 .077941898 .14498902 .079940799 .1789856 .16894531H.38598634L.4079895 .1129303C.41600038 .092941287 .42900086 .058944704 .42900086 .05293274 .42900086 .024932862 .3929901 .024932862 .37599183 .024932862V-.000061035159L.48199464 .0029449464C.5159912 .0029449464 .5549927 .00093078616 .57899478-.000061035159M.37599183 .19393921H.18899536L.2829895 .43515016 .37599183 .19393921Z"/>
<path id="font_8_84" d="M.5069885 .3727417C.5069885 .4446869 .43099977 .5136719 .31599427 .5136719H.04499817V.48866273C.11199951 .48866273 .116989139 .48266603 .116989139 .44169618V.07196045C.116989139 .0309906 .11199951 .024993897 .04499817 .024993897V0L.15299988 .0029907227 .26098634 0V.024993897C.19400025 .024993897 .18899536 .0309906 .18899536 .07196045V.23382569H.32299806C.4229889 .23382569 .5069885 .2967987 .5069885 .3727417M.42099 .3727417C.42099 .33377076 .42099 .25683595 .29499818 .25683595H.18598938V.44569398C.18598938 .485672 .19099427 .48866273 .22599793 .48866273H.29499818C.42099 .48866273 .42099 .41271974 .42099 .3727417Z"/>
<path id="font_8_43" d="M.5399933 .17732239C.5399933 .18632508 .5399933 .1933136 .5269928 .1933136 .5159912 .1933136 .5159912 .1873169 .5149994 .17732239 .5079956 .07131958 .42199708 .0113220219 .33799745 .0113220219 .28799439 .0113220219 .13699341 .03831482 .13699341 .25732423 .13699341 .47930909 .2919922 .50331118 .33699037 .50331118 .4099884 .50331118 .49499513 .4513092 .5139923 .3243103 .5159912 .31732179 .5169983 .3113098 .5269928 .3113098 .5399933 .3113098 .5399933 .3163147 .5399933 .3353119V.50431826C.5399933 .52030947 .5399933 .5283203 .5299988 .5283203 .5239868 .5283203 .522995 .52630618 .5149994 .51631167L.47599793 .46531678C.45498658 .48731996 .4059906 .5283203 .33099366 .5283203 .17999268 .5283203 .050994874 .40931703 .050994874 .25732423 .050994874 .10531616 .17999268-.013671875 .33099366-.013671875 .46099855-.013671875 .5399933 .09031677 .5399933 .17732239Z"/>
</defs>
<path transform="matrix(1.00002,0,0,-1.00006,15.73922,32.9842)" stroke-width=".79701" stroke-linecap="butt" stroke-miterlimit="10" stroke-linejoin="miter" fill="none" stroke="#000000" d=""/>
<use data-text="&#x2022;" xlink:href="#font_1_199" transform="matrix(14.346487,0,0,-14.34706,10.954124,35.681364)"/>
<path transform="matrix(1.00002,0,0,-1.00006,15.73922,32.9842)" stroke-width=".79701" stroke-linecap="butt" stroke-miterlimit="10" stroke-linejoin="miter" fill="none" stroke="#000000" d="M68.59058 0C68.59058 6.57057 63.2642 11.89694 56.69363 11.89694 50.12305 11.89694 44.79668 6.57057 44.79668 0 44.79668-6.57057 50.12305-11.89694 56.69363-11.89694 63.2642-11.89694 68.59058-6.57057 68.59058 0ZM56.69363 0"/>
<use data-text="+" xlink:href="#font_2_1" transform="matrix(14.346487,0,0,-14.34706,66.971248,36.571416)"/>
<path transform="matrix(1.00002,0,0,-1.00006,15.73922,32.9842)" stroke-width=".79701" stroke-linecap="butt" stroke-miterlimit="10" stroke-linejoin="miter" fill="none" stroke="#000000" d="M98.44312-14.94415H128.33142V14.94415H98.44312Z"/>
<use data-text="&#x222b;" xlink:href="#font_3_1" transform="matrix(9.962799,0,0,-9.963197,124.14739,21.913537)"/>
<path transform="matrix(1.00002,0,0,-1.00006,15.73922,32.9842)" stroke-width=".79701" stroke-linecap="butt" stroke-miterlimit="10" stroke-linejoin="miter" fill="none" stroke="#000000" d="M177.81423-14.94415H207.70253V14.94415H177.81423Z"/>
<use data-text="Q" xlink:href="#font_4_1" transform="matrix(14.346487,0,0,-14.34706,200.19892,36.49141)"/>
<use data-text="1" xlink:href="#font_5_3" transform="matrix(9.962799,0,0,-9.963197,211.32413,38.64354)"/>
<path transform="matrix(1.00002,0,0,-1.00006,15.73922,32.9842)" stroke-width=".79701" stroke-linecap="butt" stroke-miterlimit="10" stroke-linejoin="miter" fill="none" stroke="#000000" d="M98.44312-71.63779H128.33142V-41.74949H98.44312Z"/>
<use data-text="T" xlink:href="#font_4_2" transform="matrix(14.346487,0,0,-14.34706,122.272357,93.50683)"/>
<use data-text="1" xlink:href="#font_5_3" transform="matrix(9.962799,0,0,-9.963197,130.50553,95.65896)"/>
<path transform="matrix(1.00002,0,0,-1.00006,15.73922,32.9842)" stroke-width=".79701" stroke-linecap="butt" stroke-miterlimit="10" stroke-linejoin="miter" fill="none" stroke="#000000" d="M0 0H43.0293"/>
<path transform="matrix(1.00002,0,0,-1.00006,58.769384,32.9842)" d="M-6.0708 2.72491 .34868 0-6.0708-2.72491Z"/>
<path transform="matrix(1.00002,0,0,-1.00006,58.769384,32.9842)" stroke-width=".79701" stroke-linecap="butt" stroke-miterlimit="10" stroke-linejoin="miter" fill="none" stroke="#000000" d="M-6.0708 2.72491 .34868 0-6.0708-2.72491Z"/>
<use data-text="X" xlink:href="#font_6_1" transform="matrix(9.962799,0,0,-9.963197,25.789422,26.773827)"/>
<use data-text="(" xlink:href="#font_5_1" transform="matrix(9.962799,0,0,-9.963197,34.8246,26.773827)"/>
<use data-text="Z" xlink:href="#font_6_3" transform="matrix(9.962799,0,0,-9.963197,38.699686,26.773827)"/>
<use data-text=")" xlink:href="#font_5_2" transform="matrix(9.962799,0,0,-9.963197,46.21283,26.773827)"/>
<path transform="matrix(1.00002,0,0,-1.00006,15.73922,32.9842)" stroke-width=".79701" stroke-linecap="butt" stroke-miterlimit="10" stroke-linejoin="miter" fill="none" stroke="#000000" d="M68.98907 0H96.67572"/>
<path transform="matrix(1.00002,0,0,-1.00006,112.41688,32.9842)" d="M-6.0708 2.72491 .34868 0-6.0708-2.72491Z"/>
<path transform="matrix(1.00002,0,0,-1.00006,112.41688,32.9842)" stroke-width=".79701" stroke-linecap="butt" stroke-miterlimit="10" stroke-linejoin="miter" fill="none" stroke="#000000" d="M-6.0708 2.72491 .34868 0-6.0708-2.72491Z"/>
<path transform="matrix(1.00002,0,0,-1.00006,15.73922,32.9842)" stroke-width=".79701" stroke-linecap="butt" stroke-miterlimit="10" stroke-linejoin="miter" fill="none" stroke="#000000" d="M128.72992 0H176.04685"/>
<path transform="matrix(1.00002,0,0,-1.00006,191.78958,32.9842)" d="M-6.0708 2.72491 .34868 0-6.0708-2.72491Z"/>
<path transform="matrix(1.00002,0,0,-1.00006,191.78958,32.9842)" stroke-width=".79701" stroke-linecap="butt" stroke-miterlimit="10" stroke-linejoin="miter" fill="none" stroke="#000000" d="M-6.0708 2.72491 .34868 0-6.0708-2.72491Z"/>
<path transform="matrix(1.00002,0,0,-1.00006,15.73922,32.9842)" stroke-width=".79701" stroke-linecap="butt" stroke-miterlimit="10" stroke-linejoin="miter" fill="none" stroke="#000000" d="M98.0446-56.69363H56.69363V-13.66432"/>
<path transform="matrix(0,-1.00006,-1.00002,-0,72.43399,46.649339)" d="M-6.0708 2.72491 .34868 0-6.0708-2.72491Z"/>
<path transform="matrix(0,-1.00006,-1.00002,-0,72.43399,46.649339)" stroke-width=".79701" stroke-linecap="butt" stroke-miterlimit="10" stroke-linejoin="miter" fill="none" stroke="#000000" d="M-6.0708 2.72491 .34868 0-6.0708-2.72491Z"/>
<path transform="matrix(1.00002,0,0,-1.00006,15.73922,32.9842)" stroke-width=".79701" stroke-linecap="butt" stroke-miterlimit="10" stroke-linejoin="miter" fill="none" stroke="#000000" d=""/>
<path transform="matrix(1.00002,0,0,-1.00006,15.73922,32.9842)" stroke-width=".79701" stroke-linecap="butt" stroke-miterlimit="10" stroke-linejoin="miter" fill="none" stroke="#000000" d="M164.96955-113.38724C164.96955-106.81665 159.64318-101.49028 153.07259-101.49028 146.502-101.49028 141.17565-106.81665 141.17565-113.38724 141.17565-119.95781 146.502-125.28418 153.07259-125.28418 159.64318-125.28418 164.96955-119.95781 164.96955-113.38724ZM153.07259-113.38724"/>
<use data-text="+" xlink:href="#font_2_1" transform="matrix(14.346487,0,0,-14.34706,163.35218,149.96521)"/>
<path transform="matrix(1.00002,0,0,-1.00006,15.73922,32.9842)" stroke-width=".79701" stroke-linecap="butt" stroke-miterlimit="10" stroke-linejoin="miter" fill="none" stroke="#000000" d="M40.24374-170.08086C40.24374-163.51027 34.91739-158.1839 28.3468-158.1839 21.77621-158.1839 16.44986-163.51027 16.44986-170.08086 16.44986-176.65143 21.77621-181.9778 28.3468-181.9778 34.91739-181.9778 40.24374-176.65143 40.24374-170.08086ZM28.3468-170.08086"/>
<use data-text="+" xlink:href="#font_2_1" transform="matrix(14.346487,0,0,-14.34706,38.62368,206.66162)"/>
<path transform="matrix(1.00002,0,0,-1.00006,15.73922,32.9842)" stroke-width=".79701" stroke-linecap="butt" stroke-miterlimit="10" stroke-linejoin="miter" fill="none" stroke="#000000" d="M70.09628-185.02501H99.98458V-155.1367H70.09628Z"/>
<use data-text="&#x222b;" xlink:href="#font_3_1" transform="matrix(9.962799,0,0,-9.963197,95.79982,192.00475)"/>
<path transform="matrix(1.00002,0,0,-1.00006,15.73922,32.9842)" stroke-width=".79701" stroke-linecap="butt" stroke-miterlimit="10" stroke-linejoin="miter" fill="none" stroke="#000000" d="M153.63101-170.08086C153.63101-163.51027 148.30466-158.1839 141.73407-158.1839 135.16349-158.1839 129.83713-163.51027 129.83713-170.08086 129.83713-176.65143 135.16349-181.9778 141.73407-181.9778 148.30466-181.9778 153.63101-176.65143 153.63101-170.08086ZM141.73407-170.08086"/>
<use data-text="+" xlink:href="#font_2_1" transform="matrix(14.346487,0,0,-14.34706,152.01294,206.66162)"/>
<path transform="matrix(1.00002,0,0,-1.00006,15.73922,32.9842)" stroke-width=".79701" stroke-linecap="butt" stroke-miterlimit="10" stroke-linejoin="miter" fill="none" stroke="#000000" d="M183.48355-185.02501H213.37186V-155.1367H183.48355Z"/>
<use data-text="&#x222b;" xlink:href="#font_3_1" transform="matrix(9.962799,0,0,-9.963197,209.18909,192.00475)"/>
<path transform="matrix(1.00002,0,0,-1.00006,15.73922,32.9842)" stroke-width=".79701" stroke-linecap="butt" stroke-miterlimit="10" stroke-linejoin="miter" fill="none" stroke="#000000" d="M240.17719-185.02501H270.0655V-155.1367H240.17719Z"/>
<use data-text="Q" xlink:href="#font_4_1" transform="matrix(14.346487,0,0,-14.34706,262.56318,206.58261)"/>
<use data-text="2" xlink:href="#font_5_4" transform="matrix(9.962799,0,0,-9.963197,273.6884,208.73474)"/>
<path transform="matrix(1.00002,0,0,-1.00006,15.73922,32.9842)" stroke-width=".79701" stroke-linecap="butt" stroke-miterlimit="10" stroke-linejoin="miter" fill="none" stroke="#000000" d="M240.17713-241.71863H270.06544V-211.83032H240.17713Z"/>
<use data-text="T" xlink:href="#font_4_2" transform="matrix(14.346487,0,0,-14.34706,264.0092,263.59803)"/>
<use data-text="2" xlink:href="#font_5_4" transform="matrix(9.962799,0,0,-9.963197,272.24238,265.75016)"/>
<path transform="matrix(1.00002,0,0,-1.00006,15.73922,32.9842)" stroke-width=".79701" stroke-linecap="butt" stroke-miterlimit="10" stroke-linejoin="miter" fill="none" stroke="#000000" d="M40.64226-170.08086H68.3289"/>
<path transform="matrix(1.00002,0,0,-1.00006,84.06949,203.07526)" d="M-6.0708 2.72491 .34868 0-6.0708-2.72491Z"/>
<path transform="matrix(1.00002,0,0,-1.00006,84.06949,203.07526)" stroke-width=".79701" stroke-linecap="butt" stroke-miterlimit="10" stroke-linejoin="miter" fill="none" stroke="#000000" d="M-6.0708 2.72491 .34868 0-6.0708-2.72491Z"/>
<path transform="matrix(1.00002,0,0,-1.00006,15.73922,32.9842)" stroke-width=".79701" stroke-linecap="butt" stroke-miterlimit="10" stroke-linejoin="miter" fill="none" stroke="#000000" d="M100.38309-170.08086H128.06975"/>
<path transform="matrix(1.00002,0,0,-1.00006,143.81153,203.07526)" d="M-6.0708 2.72491 .34868 0-6.0708-2.72491Z"/>
<path transform="matrix(1.00002,0,0,-1.00006,143.81153,203.07526)" stroke-width=".79701" stroke-linecap="butt" stroke-miterlimit="10" stroke-linejoin="miter" fill="none" stroke="#000000" d="M-6.0708 2.72491 .34868 0-6.0708-2.72491Z"/>
<path transform="matrix(1.00002,0,0,-1.00006,15.73922,32.9842)" stroke-width=".79701" stroke-linecap="butt" stroke-miterlimit="10" stroke-linejoin="miter" fill="none" stroke="#000000" d="M154.02953-170.08086H181.71617"/>
<path transform="matrix(1.00002,0,0,-1.00006,197.45905,203.07526)" d="M-6.0708 2.72491 .34868 0-6.0708-2.72491Z"/>
<path transform="matrix(1.00002,0,0,-1.00006,197.45905,203.07526)" stroke-width=".79701" stroke-linecap="butt" stroke-miterlimit="10" stroke-linejoin="miter" fill="none" stroke="#000000" d="M-6.0708 2.72491 .34868 0-6.0708-2.72491Z"/>
<path transform="matrix(1.00002,0,0,-1.00006,15.73922,32.9842)" stroke-width=".79701" stroke-linecap="butt" stroke-miterlimit="10" stroke-linejoin="miter" fill="none" stroke="#000000" d="M213.77037-170.08086H238.4098"/>
<path transform="matrix(1.00002,0,0,-1.00006,254.15381,203.07526)" d="M-6.0708 2.72491 .34868 0-6.0708-2.72491Z"/>
<path transform="matrix(1.00002,0,0,-1.00006,254.15381,203.07526)" stroke-width=".79701" stroke-linecap="butt" stroke-miterlimit="10" stroke-linejoin="miter" fill="none" stroke="#000000" d="M-6.0708 2.72491 .34868 0-6.0708-2.72491Z"/>
<path transform="matrix(1.00002,0,0,-1.00006,15.73922,32.9842)" stroke-width=".79701" stroke-linecap="butt" stroke-miterlimit="10" stroke-linejoin="miter" fill="none" stroke="#000000" d="M239.77863-226.77448H28.3468V-183.74518"/>
<path transform="matrix(0,-1.00006,-1.00002,-0,44.086587,216.74039)" d="M-6.0708 2.72491 .34868 0-6.0708-2.72491Z"/>
<path transform="matrix(0,-1.00006,-1.00002,-0,44.086587,216.74039)" stroke-width=".79701" stroke-linecap="butt" stroke-miterlimit="10" stroke-linejoin="miter" fill="none" stroke="#000000" d="M-6.0708 2.72491 .34868 0-6.0708-2.72491Z"/>
<path transform="matrix(1.00002,0,0,-1.00006,15.73922,32.9842)" stroke-width=".79701" stroke-linecap="butt" stroke-miterlimit="10" stroke-linejoin="miter" fill="none" stroke="#000000" d="M239.77863-226.77448H141.73407V-183.74518"/>
<path transform="matrix(0,-1.00006,-1.00002,-0,157.47614,216.74039)" d="M-6.0708 2.72491 .34868 0-6.0708-2.72491Z"/>
<path transform="matrix(0,-1.00006,-1.00002,-0,157.47614,216.74039)" stroke-width=".79701" stroke-linecap="butt" stroke-miterlimit="10" stroke-linejoin="miter" fill="none" stroke="#000000" d="M-6.0708 2.72491 .34868 0-6.0708-2.72491Z"/>
<path transform="matrix(1.00002,0,0,-1.00006,15.73922,32.9842)" stroke-width=".79701" stroke-linecap="butt" stroke-miterlimit="10" stroke-linejoin="miter" fill="none" stroke="#000000" d=""/>
<path transform="matrix(1.00002,0,0,-1.00006,15.73922,32.9842)" stroke-width=".79701" stroke-linecap="butt" stroke-miterlimit="10" stroke-linejoin="miter" fill="none" stroke="#000000" d="M337.88526 0C337.88526 6.57057 332.55888 11.89694 325.9883 11.89694 319.41773 11.89694 314.09135 6.57057 314.09135 0 314.09135-6.57057 319.41773-11.89694 325.9883-11.89694 332.55888-11.89694 337.88526-6.57057 337.88526 0ZM325.9883 0"/>
<use data-text="+" xlink:href="#font_2_1" transform="matrix(14.346487,0,0,-14.34706,336.27064,36.571416)"/>
<path transform="matrix(1.00002,0,0,-1.00006,15.73922,32.9842)" stroke-width=".79701" stroke-linecap="butt" stroke-miterlimit="10" stroke-linejoin="miter" fill="none" stroke="#000000" d="M311.04414-72.62605H340.93244V-40.76123H311.04414Z"/>
<use data-text="d" xlink:href="#font_4_3" transform="matrix(14.346487,0,0,-14.34706,338.08369,87.03143)"/>
<path transform="matrix(1.00002,0,0,-1.00006,223.61138,75.166728)" stroke-width=".8265" stroke-linecap="butt" stroke-miterlimit="10" stroke-linejoin="miter" fill="none" stroke="#000000" d="M111.934-14.834H124.306"/>
<use data-text="d" xlink:href="#font_4_3" transform="matrix(14.346487,0,0,-14.34706,335.5476,102.29335)"/>
<use data-text="t" xlink:href="#font_4_4" transform="matrix(14.346487,0,0,-14.34706,342.83564,102.29335)"/>
<path transform="matrix(1.00002,0,0,-1.00006,15.73922,32.9842)" stroke-width=".79701" stroke-linecap="butt" stroke-miterlimit="10" stroke-linejoin="miter" fill="none" stroke="#000000" d="M140.77715-113.38724H28.3468V-156.41652"/>
<path transform="matrix(0,1.00006,1.00002,0,44.086587,189.4101)" d="M-6.0708 2.72491 .34868 0-6.0708-2.72491Z"/>
<path transform="matrix(0,1.00006,1.00002,0,44.086587,189.4101)" stroke-width=".79701" stroke-linecap="butt" stroke-miterlimit="10" stroke-linejoin="miter" fill="none" stroke="#000000" d="M-6.0708 2.72491 .34868 0-6.0708-2.72491Z"/>
<path transform="matrix(1.00002,0,0,-1.00006,15.73922,32.9842)" stroke-width=".79701" stroke-linecap="butt" stroke-miterlimit="10" stroke-linejoin="miter" fill="none" stroke="#000000" d="M208.10103 0H226.77448V-56.69363H130.0988"/>
<path transform="matrix(-1.00002,-0,0,1.00006,145.84064,89.68123)" d="M-6.0708 2.72491 .34868 0-6.0708-2.72491Z"/>
<path transform="matrix(-1.00002,-0,0,1.00006,145.84064,89.68123)" stroke-width=".79701" stroke-linecap="butt" stroke-miterlimit="10" stroke-linejoin="miter" fill="none" stroke="#000000" d="M-6.0708 2.72491 .34868 0-6.0708-2.72491Z"/>
<path transform="matrix(1.00002,0,0,-1.00006,15.73922,32.9842)" stroke-width=".79701" stroke-linecap="butt" stroke-miterlimit="10" stroke-linejoin="miter" fill="none" stroke="#000000" d="M226.77448 0V-113.38724H166.73693"/>
<path transform="matrix(-1.00002,-0,0,1.00006,182.47949,146.37824)" d="M-6.0708 2.72491 .34868 0-6.0708-2.72491Z"/>
<path transform="matrix(-1.00002,-0,0,1.00006,182.47949,146.37824)" stroke-width=".79701" stroke-linecap="butt" stroke-miterlimit="10" stroke-linejoin="miter" fill="none" stroke="#000000" d="M-6.0708 2.72491 .34868 0-6.0708-2.72491Z"/>
<path transform="matrix(1.00002,0,0,-1.00006,15.73922,32.9842)" stroke-width=".79701" stroke-linecap="butt" stroke-miterlimit="10" stroke-linejoin="miter" fill="none" stroke="#000000" d="M153.07259 0V-99.7229"/>
<path transform="matrix(0,1.00006,1.00002,0,168.81488,132.71308)" d="M-6.0708 2.72491 .34868 0-6.0708-2.72491Z"/>
<path transform="matrix(0,1.00006,1.00002,0,168.81488,132.71308)" stroke-width=".79701" stroke-linecap="butt" stroke-miterlimit="10" stroke-linejoin="miter" fill="none" stroke="#000000" d="M-6.0708 2.72491 .34868 0-6.0708-2.72491Z"/>
<path transform="matrix(1.00002,0,0,-1.00006,15.73922,32.9842)" stroke-width=".79701" stroke-linecap="butt" stroke-miterlimit="10" stroke-linejoin="miter" fill="none" stroke="#000000" d="M208.10103 0H312.32398"/>
<path transform="matrix(1.00002,0,0,-1.00006,328.06947,32.9842)" d="M-6.0708 2.72491 .34868 0-6.0708-2.72491Z"/>
<path transform="matrix(1.00002,0,0,-1.00006,328.06947,32.9842)" stroke-width=".79701" stroke-linecap="butt" stroke-miterlimit="10" stroke-linejoin="miter" fill="none" stroke="#000000" d="M-6.0708 2.72491 .34868 0-6.0708-2.72491Z"/>
<path transform="matrix(1.00002,0,0,-1.00006,15.73922,32.9842)" stroke-width=".79701" stroke-linecap="butt" stroke-miterlimit="10" stroke-linejoin="miter" fill="none" stroke="#000000" d="M325.9883-40.3627V-13.66432"/>
<path transform="matrix(0,-1.00006,-1.00002,-0,341.73408,46.649339)" d="M-6.0708 2.72491 .34868 0-6.0708-2.72491Z"/>
<path transform="matrix(0,-1.00006,-1.00002,-0,341.73408,46.649339)" stroke-width=".79701" stroke-linecap="butt" stroke-miterlimit="10" stroke-linejoin="miter" fill="none" stroke="#000000" d="M-6.0708 2.72491 .34868 0-6.0708-2.72491Z"/>
<path transform="matrix(1.00002,0,0,-1.00006,15.73922,32.9842)" stroke-width=".79701" stroke-linecap="butt" stroke-miterlimit="10" stroke-linejoin="miter" fill="none" stroke="#000000" d="M270.464-170.08086H325.9883V-74.39343"/>
<path transform="matrix(0,-1.00006,-1.00002,-0,341.73408,107.382099)" d="M-6.0708 2.72491 .34868 0-6.0708-2.72491Z"/>
<path transform="matrix(0,-1.00006,-1.00002,-0,341.73408,107.382099)" stroke-width=".79701" stroke-linecap="butt" stroke-miterlimit="10" stroke-linejoin="miter" fill="none" stroke="#000000" d="M-6.0708 2.72491 .34868 0-6.0708-2.72491Z"/>
<path transform="matrix(1.00002,0,0,-1.00006,15.73922,32.9842)" stroke-width=".79701" stroke-linecap="butt" stroke-miterlimit="10" stroke-linejoin="miter" fill="none" stroke="#000000" d="M271.83283-226.77448H325.9883V-74.39343"/>
<path transform="matrix(-1.00002,-0,0,1.00006,287.57749,259.77229)" d="M-6.0708 2.72491 .34868 0-6.0708-2.72491Z"/>
<path transform="matrix(-1.00002,-0,0,1.00006,287.57749,259.77229)" stroke-width=".79701" stroke-linecap="butt" stroke-miterlimit="10" stroke-linejoin="miter" fill="none" stroke="#000000" d="M-6.0708 2.72491 .34868 0-6.0708-2.72491Z"/>
<path transform="matrix(0,-1.00006,-1.00002,-0,341.73408,107.382099)" d="M-6.0708 2.72491 .34868 0-6.0708-2.72491Z"/>
<path transform="matrix(0,-1.00006,-1.00002,-0,341.73408,107.382099)" stroke-width=".79701" stroke-linecap="butt" stroke-miterlimit="10" stroke-linejoin="miter" fill="none" stroke="#000000" d="M-6.0708 2.72491 .34868 0-6.0708-2.72491Z"/>
<path transform="matrix(1.00002,0,0,-1.00006,15.73922,32.9842)" stroke-width=".79701" stroke-linecap="butt" stroke-miterlimit="10" stroke-linejoin="miter" fill="none" stroke="#000000" d="M338.28376 0H381.31306"/>
<path transform="matrix(1.00002,0,0,-1.00006,397.0599,32.9842)" d="M-6.0708 2.72491 .34868 0-6.0708-2.72491Z"/>
<path transform="matrix(1.00002,0,0,-1.00006,397.0599,32.9842)" stroke-width=".79701" stroke-linecap="butt" stroke-miterlimit="10" stroke-linejoin="miter" fill="none" stroke="#000000" d="M-6.0708 2.72491 .34868 0-6.0708-2.72491Z"/>
<use data-text="Y" xlink:href="#font_6_2" transform="matrix(9.962799,0,0,-9.963197,364.5992,26.773827)"/>
<use data-text="(" xlink:href="#font_5_1" transform="matrix(9.962799,0,0,-9.963197,372.59638,26.773827)"/>
<use data-text="Z" xlink:href="#font_6_3" transform="matrix(9.962799,0,0,-9.963197,376.47145,26.773827)"/>
<use data-text=")" xlink:href="#font_5_2" transform="matrix(9.962799,0,0,-9.963197,383.9846,26.773827)"/>
<path transform="matrix(1.00002,0,0,-1.00006,15.73922,32.9842)" stroke-width=".79701" stroke-linecap="butt" stroke-miterlimit="10" stroke-linejoin="miter" fill="none" stroke="#000000" d=""/>
<use data-text="&#x2022;" xlink:href="#font_7_199" transform="matrix(9.962799,0,0,-9.963197,238.6427,34.85231)"/>
<use data-text="&#x2022;" xlink:href="#font_7_199" transform="matrix(9.962799,0,0,-9.963197,238.6427,91.54971)"/>
<use data-text="&#x2022;" xlink:href="#font_7_199" transform="matrix(9.962799,0,0,-9.963197,164.93921,34.85231)"/>
<use data-text="&#x2022;" xlink:href="#font_7_199" transform="matrix(9.962799,0,0,-9.963197,153.60099,261.6399)"/>
<use data-text="&#x2022;" xlink:href="#font_7_199" transform="matrix(9.962799,0,0,-9.963197,337.85868,204.94353)"/>
<path transform="matrix(1.00002,0,0,-1.00006,15.73922,32.9842)" stroke-width=".79701" stroke-linecap="butt" stroke-miterlimit="10" stroke-linejoin="miter" fill="none" stroke="#7f807f" d="M-14.17339-85.04042V28.3468H255.12128V-85.04042ZM255.12128 28.3468"/>
<use data-text="f" xlink:href="#font_8_55" transform="matrix(9.962799,0,0,-9.963197,5.2850115,7.2116549)"/>
<use data-text="i" xlink:href="#font_8_66" transform="matrix(9.962799,0,0,-9.963197,10.625069,7.2116549)"/>
<use data-text="r" xlink:href="#font_8_96" transform="matrix(9.962799,0,0,-9.963197,13.633835,7.2116549)"/>
<use data-text="s" xlink:href="#font_8_98" transform="matrix(9.962799,0,0,-9.963197,19.631432,7.2116549)"/>
<use data-text="t" xlink:href="#font_8_105" transform="matrix(9.962799,0,0,-9.963197,24.194397,7.2116549)"/>
<use data-text="-" xlink:href="#font_8_64" transform="matrix(9.962799,0,0,-9.963197,30.082413,7.2116549)"/>
<use data-text="o" xlink:href="#font_8_81" transform="matrix(9.962799,0,0,-9.963197,33.84836,7.2116549)"/>
<use data-text="r" xlink:href="#font_8_96" transform="matrix(9.962799,0,0,-9.963197,40.184694,7.2116549)"/>
<use data-text="d" xlink:href="#font_8_47" transform="matrix(9.962799,0,0,-9.963197,46.182298,7.2116549)"/>
<use data-text="e" xlink:href="#font_8_50" transform="matrix(9.962799,0,0,-9.963197,52.39908,7.2116549)"/>
<use data-text="r" xlink:href="#font_8_96" transform="matrix(9.962799,0,0,-9.963197,57.958314,7.2116549)"/>
<use data-text="n" xlink:href="#font_8_77" transform="matrix(9.962799,0,0,-9.963197,67.7119,7.2116549)"/>
<use data-text="o" xlink:href="#font_8_81" transform="matrix(9.962799,0,0,-9.963197,73.81909,7.2116549)"/>
<use data-text="i" xlink:href="#font_8_66" transform="matrix(9.962799,0,0,-9.963197,80.15544,7.2116549)"/>
<use data-text="s" xlink:href="#font_8_98" transform="matrix(9.962799,0,0,-9.963197,83.164218,7.2116549)"/>
<use data-text="e" xlink:href="#font_8_50" transform="matrix(9.962799,0,0,-9.963197,87.72717,7.2116549)"/>
<use data-text="s" xlink:href="#font_8_98" transform="matrix(9.962799,0,0,-9.963197,97.05235,7.2116549)"/>
<use data-text="h" xlink:href="#font_8_63" transform="matrix(9.962799,0,0,-9.963197,101.61531,7.2116549)"/>
<use data-text="a" xlink:href="#font_8_28" transform="matrix(9.962799,0,0,-9.963197,107.7225,7.2116549)"/>
<use data-text="p" xlink:href="#font_8_84" transform="matrix(9.962799,0,0,-9.963197,113.8297,7.2116549)"/>
<use data-text="e" xlink:href="#font_8_50" transform="matrix(9.962799,0,0,-9.963197,119.38893,7.2116549)"/>
<use data-text="r" xlink:href="#font_8_96" transform="matrix(9.962799,0,0,-9.963197,124.948169,7.2116549)"/>
<path transform="matrix(1.00002,0,0,-1.00006,15.73922,32.9842)" stroke-width=".79701" stroke-linecap="butt" stroke-miterlimit="10" stroke-linejoin="miter" fill="none" stroke="#7f807f" d="M-14.17339-255.12128V-141.73404H354.3351V-255.12128ZM354.3351-141.73404"/>
<use data-text="s" xlink:href="#font_8_98" transform="matrix(9.962799,0,0,-9.963197,5.2850115,290.69664)"/>
<use data-text="e" xlink:href="#font_8_50" transform="matrix(9.962799,0,0,-9.963197,9.847977,290.69664)"/>
<use data-text="c" xlink:href="#font_8_43" transform="matrix(9.962799,0,0,-9.963197,15.407211,290.69664)"/>
<use data-text="o" xlink:href="#font_8_81" transform="matrix(9.962799,0,0,-9.963197,21.295228,290.69664)"/>
<use data-text="n" xlink:href="#font_8_77" transform="matrix(9.962799,0,0,-9.963197,27.631577,290.69664)"/>
<use data-text="d" xlink:href="#font_8_47" transform="matrix(9.962799,0,0,-9.963197,33.73877,290.69664)"/>
<use data-text="-" xlink:href="#font_8_64" transform="matrix(9.962799,0,0,-9.963197,39.95555,290.69664)"/>
<use data-text="o" xlink:href="#font_8_81" transform="matrix(9.962799,0,0,-9.963197,43.721498,290.69664)"/>
<use data-text="r" xlink:href="#font_8_96" transform="matrix(9.962799,0,0,-9.963197,50.05783,290.69664)"/>
<use data-text="d" xlink:href="#font_8_47" transform="matrix(9.962799,0,0,-9.963197,56.055437,290.69664)"/>
<use data-text="e" xlink:href="#font_8_50" transform="matrix(9.962799,0,0,-9.963197,62.272218,290.69664)"/>
<use data-text="r" xlink:href="#font_8_96" transform="matrix(9.962799,0,0,-9.963197,67.83145,290.69664)"/>
<use data-text="n" xlink:href="#font_8_77" transform="matrix(9.962799,0,0,-9.963197,77.58504,290.69664)"/>
<use data-text="o" xlink:href="#font_8_81" transform="matrix(9.962799,0,0,-9.963197,83.69223,290.69664)"/>
<use data-text="i" xlink:href="#font_8_66" transform="matrix(9.962799,0,0,-9.963197,90.02858,290.69664)"/>
<use data-text="s" xlink:href="#font_8_98" transform="matrix(9.962799,0,0,-9.963197,93.03735,290.69664)"/>
<use data-text="e" xlink:href="#font_8_50" transform="matrix(9.962799,0,0,-9.963197,97.60031,290.69664)"/>
<use data-text="s" xlink:href="#font_8_98" transform="matrix(9.962799,0,0,-9.963197,106.92549,290.69664)"/>
<use data-text="h" xlink:href="#font_8_63" transform="matrix(9.962799,0,0,-9.963197,111.48845,290.69664)"/>
<use data-text="a" xlink:href="#font_8_28" transform="matrix(9.962799,0,0,-9.963197,117.59564,290.69664)"/>
<use data-text="p" xlink:href="#font_8_84" transform="matrix(9.962799,0,0,-9.963197,123.702838,290.69664)"/>
<use data-text="e" xlink:href="#font_8_50" transform="matrix(9.962799,0,0,-9.963197,129.26207,290.69664)"/>
<use data-text="r" xlink:href="#font_8_96" transform="matrix(9.962799,0,0,-9.963197,134.8213,290.69664)"/>
</svg>
