<svg xmlns="http://www.w3.org/2000/svg" xmlns:xlink="http://www.w3.org/1999/xlink" xmlns:inkscape="http://www.inkscape.org/namespaces/inkscape" version="1.1" width="133" height="126" viewBox="0 0 133 126">
<defs>
<clipPath id="clip_1">
<path transform="matrix(1.00008,0,0,-1.00002,66.51579,69.63207)" d="M-92.961-83.623H92.961V96.379H-92.961Z"/>
</clipPath>
<path id="font_2_104" d="M.68499758 .45214845 .66600039 .6767578H.054992677L.035995485 .45214845H.06098938C.07499695 .6128235 .08999634 .64575198 .24099732 .64575198 .25898744 .64575198 .2849884 .64575198 .29499818 .64375308 .31599427 .6397705 .31599427 .6287842 .31599427 .60583499V.07901001C.31599427 .04499817 .31599427 .0309906 .21099854 .0309906H.17098999V0C.21199036 .0029907227 .31399537 .0029907227 .3600006 .0029907227 .4059906 .0029907227 .5089874 .0029907227 .5499878 0V.0309906H.5099945C.40499879 .0309906 .40499879 .04499817 .40499879 .07901001V.60583499C.40499879 .62579348 .40499879 .6397705 .4229889 .64375308 .43399049 .64575198 .46099855 .64575198 .47999574 .64575198 .6309967 .64575198 .6459961 .6128235 .6599884 .45214845H.68499758Z"/>
<path id="font_2_118" d="M.5079956 .3996582V.43066407C.4850006 .4286499 .45599366 .42765809 .43299867 .42765809L.34599305 .43066407V.3996582C.3769989 .39866639 .3929901 .3816681 .3929901 .35668946 .3929901 .34669496 .3919983 .34469605 .3869934 .33270265L.28599549 .08685303 .1749878 .35568238C.17098999 .36567689 .16899109 .36967469 .16899109 .3736725 .16899109 .3996582 .20599365 .3996582 .22499085 .3996582V.43066407L.115997318 .42765809C.08898926 .42765809 .04899597 .4286499 .018997193 .43066407V.3996582C.066986087 .3996582 .085998538 .3996582 .099990848 .36468507L.25-.000091552738 .22499085-.059066774C.20298767-.11407471 .1749878-.18309021 .11099243-.18309021 .10598755-.18309021 .08299255-.18309021 .06399536-.16503906 .09498596-.16104126 .102996829-.13905335 .102996829-.123046878 .102996829-.0970459 .083999637-.08103943 .06098938-.08103943 .040985109-.08103943 .018997193-.09403992 .018997193-.124053958 .018997193-.16905213 .06098938-.20507813 .11099243-.20507813 .17399597-.20507813 .21499634-.14804077 .23899842-.091049198L.4149933 .33569337C.44099427 .39865113 .49198915 .3996582 .5079956 .3996582Z"/>
<path id="font_2_84" d="M.5209961 .21636963C.5209961 .34336854 .42399598 .4423828 .31199647 .4423828 .23399353 .4423828 .19198609 .39837647 .17199707 .3763733V.4423828L.027999878 .43066407V.3996582C.09899902 .3996582 .10598755 .3936615 .10598755 .34973146V-.117996219C.10598755-.16308594 .09498596-.16308594 .027999878-.16308594V-.1940918L.13999939-.19110108 .25299073-.1940918V-.16308594C.18598938-.16308594 .1749878-.16308594 .1749878-.117996219V.050186159 .059173585C.17999268 .04319763 .22200012-.0107421879 .2979889-.0107421879 .4169922-.0107421879 .5209961 .087127689 .5209961 .21594239V.21636963M.43798829 .21594239C.43798829 .09512329 .36799623 .011245728 .2939911 .011245728 .2539978 .011245728 .21598816 .031219483 .18899536 .07215881 .1749878 .09312439 .1749878 .09411621 .1749878 .114089969V.33674623C.20399475 .38838197 .25299073 .41737367 .3039856 .41737367 .3769989 .41737367 .43798829 .32937623 .43798829 .21636963V.21594239Z"/>
<path id="font_2_81" d="M.47099305 .21424866C.47099305 .34223939 .37098695 .4482422 .25 .4482422 .125 .4482422 .027999878 .3392334 .027999878 .21424866 .027999878 .085250858 .13198853-.0107421879 .24899292-.0107421879 .36999513-.0107421879 .47099305 .087249759 .47099305 .21424866M.3880005 .22224427C.3880005 .18624878 .3880005 .13224793 .3659973 .08824158 .34399415 .04324341 .2999878 .014251709 .25 .014251709 .20698548 .014251709 .16299439 .035247804 .13598633 .08125305 .11099243 .12524414 .11099243 .18624878 .11099243 .22224427 .11099243 .26124574 .11099243 .31523133 .1349945 .35923768 .1619873 .40522767 .20899964 .426239 .24899292 .426239 .29299928 .426239 .33599855 .40423585 .3619995 .36123658 .3880005 .3182373 .3880005 .26023866 .3880005 .22224427Z"/>
<path id="font_2_59" d="M.4850006 .40411378C.4850006 .42111207 .47299195 .453125 .43399049 .453125 .4139862 .453125 .36999513 .44711305 .32798768 .40611268 .28599549 .43937684 .24398804 .4423828 .22200012 .4423828 .1289978 .4423828 .05999756 .37338258 .05999756 .29638673 .05999756 .25239564 .08198547 .21440125 .10699463 .19340515 .09399414 .17840576 .07598877 .14538574 .07598877 .11035156 .07598877 .07899475 .08898926 .04083252 .11999512 .020828248 .05999756 .003829956 .027999878-.039138795 .027999878-.07911682 .027999878-.15107727 .1269989-.20605469 .24899292-.20605469 .36698915-.20605469 .47099305-.15507508 .47099305-.07711792 .47099305-.042144777 .45700074 .008834839 .4059906 .036834718 .35299684 .064834598 .29499818 .064834598 .23399353 .064834598 .20899964 .064834598 .1659851 .064834598 .15899658 .065841678 .1269989 .069885257 .10598755 .101242069 .10598755 .13334656 .10598755 .13735962 .10598755 .16040039 .12298584 .18040467 .1619873 .15240479 .20298767 .14941406 .22200012 .14941406 .31498719 .14941406 .38398744 .21839905 .38398744 .2953949 .38398744 .3323822 .36799623 .36938478 .34298707 .39237977 .3789978 .42637635 .4149933 .43138124 .43299867 .43138124 .43299867 .43112184 .43998719 .43112184 .44299317 .43011476 .43199159 .42611695 .4269867 .41513063 .4269867 .40315248 .4269867 .38616944 .43998719 .37417604 .45599366 .37417604 .46598817 .37417604 .4850006 .3811798 .4850006 .4041443V.40411378M.30899049 .29626466C.30899049 .26930238 .30799867 .2373352 .29299928 .21235657 .2849884 .20037842 .2619934 .17240906 .22200012 .17240906 .1349945 .17240906 .1349945 .2722931 .1349945 .29527284 .1349945 .3222351 .13598633 .35420228 .15098572 .3791809 .15899658 .3913269 .18199158 .41937257 .22200012 .41937257 .30899049 .41937257 .30899049 .31922914 .30899049 .29618836V.29626466M.4189911-.07911682C.4189911-.13308716 .34799195-.18305969 .25-.18305969 .14898682-.18305969 .07998657-.13209534 .07998657-.07911682 .07998657-.03314209 .117996219 .003829956 .1619873 .0068359377H.22099304C.30699159 .0068359377 .4189911 .0068359377 .4189911-.07911682Z"/>
<path id="font_2_96" d="M.3639984 .38137818C.3639984 .41337586 .33299256 .4423828 .2899933 .4423828 .21699524 .4423828 .18099976 .37538148 .16699219 .3323822V.4423828L.027999878 .43066407V.3996582C.09799194 .3996582 .10598755 .39266969 .10598755 .34370423V.07595825C.10598755 .0309906 .09498596 .0309906 .027999878 .0309906V0L.14199829 .0029907227C.18199158 .0029907227 .22898865 .0029907227 .2689972 0V.0309906H.24798584C.17399597 .0309906 .17199707 .04197693 .17199707 .07795715V.23181153C.17199707 .33137513 .21398926 .42037965 .2899933 .42037965 .29699708 .42037965 .29899598 .42037965 .30099488 .41937257 .2979889 .41838075 .27799989 .40637208 .27799989 .3803711 .27799989 .35237123 .29899598 .33737184 .32099916 .33737184 .33898927 .33737184 .3639984 .3493805 .3639984 .38137818Z"/>
<path id="font_2_28" d="M.48298646 .08912659V.14511109H.45799256V.08912659C.45799256 .03112793 .43299867 .025131226 .42199708 .025131226 .3889923 .025131226 .3849945 .070129398 .3849945 .07511902V.27508546C.3849945 .31707765 .3849945 .3560791 .34899903 .39312745 .30999757 .43223573 .2599945 .4482422 .21199036 .4482422 .12998963 .4482422 .06098938 .40115357 .06098938 .335083 .06098938 .30508424 .08099365 .28808595 .10699463 .28808595 .1349945 .28808595 .15299988 .30807496 .15299988 .33407594 .15299988 .3460846 .147995 .37908937 .101989749 .38008119 .1289978 .41519166 .17799378 .426239 .20999146 .426239 .25898744 .426239 .31599427 .38710023 .31599427 .29808045V.26107789C.2649994 .25808717 .19499207 .25508119 .13198853 .22509766 .056991579 .19110108 .03199768 .13911438 .03199768 .09512329 .03199768 .014251709 .1289978-.0107421879 .19198609-.0107421879 .2579956-.0107421879 .3039856 .029251099 .32299806 .07624817 .32699586 .036132814 .35398866-.005859375 .40098573-.005859375 .42199708-.005859375 .48298646 .008132935 .48298646 .08912659M.31599427 .14013672C.31599427 .04525757 .24398804 .011245728 .19898987 .011245728 .1499939 .011245728 .10899353 .04624939 .10899353 .09625244 .10899353 .15124512 .15098572 .23425293 .31599427 .24024964V.14013672Z"/>
<path id="font_2_63" d="M.5349884 0V.0309906C.48298646 .0309906 .45799256 .0309906 .45700074 .061019899V.25221253C.45700074 .3383026 .45700074 .36932374 .42599488 .405365 .4119873 .42237855 .3789978 .4423828 .32099916 .4423828 .23699951 .4423828 .19299317 .38233949 .1769867 .34629823H.17599488V.69433596L.03199768 .6826172V.6516113C.101989749 .6516113 .10998535 .64463809 .10998535 .59580996V.076034549C.10998535 .0309906 .09899902 .0309906 .03199768 .0309906V0L.14498902 .0029907227 .25698854 0V.0309906C.18998719 .0309906 .1789856 .0309906 .1789856 .076034549V.2602234C.1789856 .36431886 .25 .42037965 .31399537 .42037965 .3769989 .42037965 .3880005 .36631776 .3880005 .30926515V.076034549C.3880005 .0309906 .3769989 .0309906 .30999757 .0309906V0L.4229889 .0029907227 .5349884 0Z"/>
<path id="font_2_46" d="M.70700076 .33580018C.70700076 .52568057 .57199099 .6826172 .40098573 .6826172H.034988405V.6516113H.05899048C.13598633 .6516113 .13798523 .64060977 .13798523 .6046295V.07795715C.13798523 .041992189 .13598633 .0309906 .05899048 .0309906H.034988405V0H.40098573C.56900027 0 .70700076 .1479187 .70700076 .33580018M.6069946 .33580018C.6069946 .22486878 .58799746 .16490174 .5519867 .11593628 .5319977 .08895874 .47499085 .0309906 .37399293 .0309906H.272995C.22599793 .0309906 .22399903 .037994386 .22399903 .07096863V.6116333C.22399903 .64460757 .22599793 .6516113 .272995 .6516113H.37298585C.43499757 .6516113 .5039978 .6296234 .5549927 .55867007 .59799197 .49969483 .6069946 .41375733 .6069946 .33580018Z"/>
<path id="font_2_50" d="M.4149933 .11933899C.4149933 .12934876 .40699769 .13134766 .4019928 .13134766 .3929901 .13134766 .3909912 .12535095 .3889923 .11734009 .35398866 .014251709 .2639923 .014251709 .2539978 .014251709 .20399475 .014251709 .1639862 .044281007 .14099121 .08131409 .11099243 .12934876 .11099243 .19540406 .11099243 .23144531H.3899994C.4119873 .23144531 .4149933 .23144531 .4149933 .2524414 .4149933 .35131837 .36099244 .4482422 .23599243 .4482422 .11999512 .4482422 .027999878 .34532167 .027999878 .22042847 .027999878 .08631897 .1329956-.0107421879 .24798584-.0107421879 .36999513-.0107421879 .4149933 .10032654 .4149933 .11933899M.34899903 .2524414H.11199951C.117996219 .40126039 .20199585 .426239 .23599243 .426239 .33898927 .426239 .34899903 .2913971 .34899903 .2524414Z"/>
<path id="font_2_98" d="M.3600006 .12823487C.3600006 .18122864 .32998658 .21122742 .31799317 .22323609 .2849884 .25523377 .24598694 .26322938 .20399475 .27124024 .147995 .28224183 .08099365 .29522706 .08099365 .35324098 .08099365 .38822938 .10699463 .42922975 .19299317 .42922975 .30299378 .42922975 .30799867 .3392334 .30999757 .30822755 .31098939 .2992401 .32199098 .2992401 .32199098 .2992401 .33499146 .2992401 .33499146 .30422975 .33499146 .32322694V.4242401C.33499146 .4412384 .33499146 .4482422 .32398988 .4482422 .31900025 .4482422 .31698609 .4482422 .3039856 .43623353 .30099488 .43223573 .29100038 .42323304 .2869873 .42022706 .24899292 .4482422 .20799256 .4482422 .19299317 .4482422 .070999149 .4482422 .032989503 .38124085 .032989503 .3252411 .032989503 .29023744 .04899597 .26223756 .07598877 .24023438 .10798645 .2142334 .13598633 .2082367 .20799256 .19422913 .22999573 .19021607 .31199647 .17422486 .31199647 .10221863 .31199647 .051223756 .2769928 .011245728 .19898987 .011245728 .114990238 .011245728 .07899475 .068222049 .05999756 .1532135 .056991579 .16621399 .055999757 .17021179 .04598999 .17021179 .032989503 .17021179 .032989503 .16322327 .032989503 .1452179V.013214111C.032989503-.003753662 .032989503-.0107421879 .04399109-.0107421879 .04899597-.0107421879 .049987794-.009750366 .068984989 .009246826 .070999149 .011245728 .070999149 .013214111 .08898926 .032226564 .1329956-.009750366 .17799378-.0107421879 .19898987-.0107421879 .31399537-.0107421879 .3600006 .05621338 .3600006 .1282196V.12823487Z"/>
<path id="font_2_66" d="M.24699402 0V.0309906C.18099976 .0309906 .1769867 .035995485 .1769867 .075042728V.4423828L.036987306 .43066407V.3996582C.101989749 .3996582 .11099243 .3936615 .11099243 .3447113V.07595825C.11099243 .0309906 .099990848 .0309906 .032989503 .0309906V0L.14299011 .0029907227C.17799378 .0029907227 .21299744 .0009918213 .24699402 0M.19198609 .603775C.19198609 .6307678 .16899109 .6567688 .13899231 .6567688 .10499573 .6567688 .084991458 .6287689 .084991458 .603775 .084991458 .57676699 .10798645 .55078127 .13798523 .55078127 .17199707 .55078127 .19198609 .5787811 .19198609 .603775Z"/>
<path id="font_2_77" d="M.5349884 0V.0309906C.48298646 .0309906 .45799256 .0309906 .45700074 .061019899V.25221253C.45700074 .3383026 .45700074 .36932374 .42599488 .405365 .4119873 .42237855 .3789978 .4423828 .32099916 .4423828 .24798584 .4423828 .20098877 .39935304 .17298889 .33729554V.4423828L.03199768 .43066407V.3996582C.101989749 .3996582 .10998535 .39266969 .10998535 .34370423V.07595825C.10998535 .0309906 .09899902 .0309906 .03199768 .0309906V0L.14498902 .0029907227 .25698854 0V.0309906C.18998719 .0309906 .1789856 .0309906 .1789856 .07595825V.25978089C.1789856 .36431886 .25 .42037965 .31399537 .42037965 .3769989 .42037965 .3880005 .36631776 .3880005 .30926515V.076034549C.3880005 .0309906 .3769989 .0309906 .30999757 .0309906V0L.4229889 .0029907227 .5349884 0Z"/>
<path id="font_2_42" d="M.6649933 .23271179C.6649933 .24272156 .6649933 .24972534 .6519928 .24972534 .6409912 .24972534 .6409912 .24372864 .6399994 .23371887 .6319885 .09059143 .5249939 .008529663 .41600038 .008529663 .35499574 .008529663 .15899658 .042556764 .15899658 .34080506 .15899658 .64004519 .35398866 .67407229 .4149933 .67407229 .5239868 .67407229 .61299136 .58299258 .6329956 .4368744 .6349945 .42286683 .6349945 .41986085 .6489868 .41986085 .6649933 .41986085 .6649933 .42286683 .6649933 .44387818V.68107607C.6649933 .69807437 .6649933 .7050781 .6539917 .7050781 .6499939 .7050781 .6459961 .7050781 .6380005 .69306948L.58799746 .61901858C.5509949 .6550598 .5 .7050781 .4039917 .7050781 .21699524 .7050781 .055999757 .5459595 .055999757 .34179688 .055999757 .1346283 .21798706-.022460938 .4039917-.022460938 .5669861-.022460938 .6649933 .116622928 .6649933 .23271179Z"/>
<path id="font_2_47" d="M.5269928 0V.0309906C.45700074 .0309906 .44898988 .038009645 .44898988 .0871582V.69433596L.30499269 .6826172V.6516113C.375 .6516113 .3829956 .64463809 .3829956 .59580996V.38035584C.35398866 .41636659 .31098939 .4423828 .25698854 .4423828 .13899231 .4423828 .033996583 .3443451 .033996583 .21531677 .033996583 .088272098 .13198853-.0107421879 .24598694-.0107421879 .30999757-.0107421879 .35499574 .023254395 .37998963 .055267335V-.0107421879L.5269928 0M.37998963 .117996219C.37998963 .099990848 .37998963 .09799194 .36898805 .08099365 .33898927 .033218385 .2939911 .011245728 .25099183 .011245728 .20599365 .011245728 .16999817 .037216188 .1459961 .075164798 .11999512 .1161499 .116989139 .17320252 .116989139 .21421814 .116989139 .25125123 .11898804 .31129457 .147995 .35632325 .16899109 .38734437 .20698548 .42037965 .26098634 .42037965 .29599 .42037965 .33799745 .405365 .36898805 .3603363 .37998963 .34332276 .37998963 .34132386 .37998963 .32330323V.117996219Z"/>
<path id="font_3_71" d="M.56999209 .25585938H.5479889C.5379944 .1559143 .5249939 .0289917 .34999085 .0289917H.2630005C.21899414 .0289917 .21699524 .035995485 .21699524 .06896973V.6056366C.21699524 .6416168 .21899414 .6536102 .30599977 .6536102H.33599855V.6826172C.30699159 .680603 .21899414 .680603 .18399048 .680603 .1539917 .680603 .06498718 .680603 .040985109 .6826172V.6536102H.06098938C.1329956 .6536102 .13598633 .6436157 .13598633 .6066437V.07595825C.13598633 .038986207 .1329956 .0289917 .06098938 .0289917H.040985109V0H.5439911L.56999209 .25585938Z"/>
<path id="font_2_27" d="M.71699526 0V.0309906H.69898989C.6389923 .0309906 .625 .037979127 .6139984 .07095337L.397995 .6958008C.3929901 .7088165 .3909912 .7158203 .375 .7158203 .35899354 .7158203 .35598756 .70980837 .35099793 .6958008L.14399719 .09791565C.12599182 .04698181 .085998538 .03199768 .03199768 .0309906V0L.13398743 .0029907227 .24899292 0V.0309906C.19898987 .0309906 .17399597 .05596924 .17399597 .0819397 .17399597 .08493042 .1749878 .09492493 .17599488 .09692383L.22200012 .2277832H.46899415L.5219879 .07495117C.522995 .07095337 .5249939 .064956668 .5249939 .060958864 .5249939 .0309906 .46899415 .0309906 .44198609 .0309906V0C.47799684 .0029907227 .5479889 .0029907227 .58599856 .0029907227L.71699526 0M.45799256 .25878907H.23298645L.34498597 .58380129 .45799256 .25878907Z"/>
<path id="font_3_104" d="M.67099 .45480348 .6529999 .6777344H.052993776L.034988405 .45480348H.056991579C.070999149 .6127472 .07998657 .6487274 .23799134 .6487274 .2559967 .6487274 .28399659 .6487274 .2919922 .6467285 .31199647 .64372256 .31298829 .6317291 .31298829 .6087494V.07696533C.31298829 .04298401 .31298829 .0289917 .21499634 .0289917H.1789856V0C.21099854 .0019989014 .31399537 .0019989014 .35299684 .0019989014 .3919983 .0019989014 .49598695 .0019989014 .5279999 0V.0289917H.49198915C.3939972 .0289917 .3939972 .04298401 .3939972 .07696533V.6087494C.3939972 .633728 .3959961 .6427307 .4119873 .6467285 .41999818 .6487274 .44898988 .6487274 .46798707 .6487274 .6259918 .6487274 .6349945 .6127472 .6489868 .45480348H.67099Z"/>
<path id="font_3_49" d="M.6380005 .2558899H.6159973C.59199526 .09996033 .56799319 .0289917 .39898683 .0289917H.2630005C.21899414 .0289917 .21699524 .035995485 .21699524 .06896973V.3388672H.30799867C.4039917 .3388672 .4149933 .3078766 .4149933 .22190857H.43699647V.48477174H.4149933C.4149933 .39883424 .4039917 .3678589 .30799867 .3678589H.21699524V.6116791C.21699524 .6446686 .21899414 .6516571 .2630005 .6516571H.3959961C.54299929 .6516571 .57398989 .6016998 .58898928 .4577942H.61099246L.58499148 .68066409H.040985109V.6516571H.06098938C.1329956 .6516571 .13598633 .6416626 .13598633 .60469058V.07597351C.13598633 .038986207 .1329956 .0289917 .06098938 .0289917H.040985109V0H.59799197L.6380005 .2558899Z"/>
<path id="font_3_115" d="M.71099856 0V.0289917C.6519928 .0289917 .6279907 .0289917 .6049957 .063964847L.3909912 .3837738 .5289917 .58465579C.54599 .6086426 .57499697 .6526184 .66999819 .6536102V.6826172C.6269989 .680603 .6159973 .680603 .5649872 .680603 .5379944 .680603 .47399903 .680603 .45098878 .6826172V.6536102C.49198915 .6506195 .5049896 .6266327 .5049896 .6096344 .5049896 .5986481 .5009918 .59265139 .49499513 .5836487L.375 .40776063 .23999024 .6076355C.23699951 .6116333 .23298645 .6186371 .23298645 .6236267 .23298645 .637619 .2539978 .6536102 .2899933 .6536102V.6826172C.2659912 .680603 .18699646 .680603 .1579895 .680603 .12998963 .680603 .05999756 .680603 .035995485 .6826172V.6536102C.11099243 .6536102 .12098694 .6486206 .14199829 .6166382L.32899476 .33979798 .16099549 .094955448C.14399719 .06996155 .11199951 .02999878 .021987915 .0289917V0C.06498718 .0019989014 .07598877 .0019989014 .1269989 .0019989014 .1539917 .0019989014 .21899414 .0019989014 .24198914 0V.0289917C.19999695 .0309906 .18699646 .05596924 .18699646 .07296753 .18699646 .08395386 .19198609 .09095764 .19799805 .09994507L.34498597 .31481935 .5069885 .07296753C.5130005 .063964847 .5139923 .06297302 .5139923 .05897522 .5139923 .04698181 .49598695 .02999878 .45700074 .0289917V0C.48098756 .0019989014 .5589905 .0019989014 .58799746 .0019989014 .6159973 .0019989014 .68699648 .0019989014 .71099856 0Z"/>
</defs>
<g>
<g>
<g clip-path="url(#clip_1)">
<g style="mix-blend-mode:soft-light">
<path transform="matrix(1.00008,0,0,-1.00002,66.51579,69.63207)" d="M42.5202 25.51204C42.5202 48.9956 23.48355 68.03226 0 68.03226-23.48355 68.03226-42.5202 48.9956-42.5202 25.51204-42.5202 2.02849-23.48355-17.00815 0-17.00815 23.48355-17.00815 42.5202 2.02849 42.5202 25.51204ZM0 25.51204" fill="#ffb3b3"/>
</g>
<g style="mix-blend-mode:soft-light">
<path transform="matrix(1.00008,0,0,-1.00002,66.51579,69.63207)" d="M20.42606-12.75584C20.42606 10.72769 1.3894 29.76434-22.09413 29.76434-45.5777 29.76434-64.61435 10.72769-64.61435-12.75584-64.61435-36.23941-45.5777-55.27606-22.09413-55.27606 1.3894-55.27606 20.42606-36.23941 20.42606-12.75584ZM-22.09413-12.75584" fill="#b3ffb3"/>
</g>
<g style="mix-blend-mode:soft-light">
<path transform="matrix(1.00008,0,0,-1.00002,66.51579,69.63207)" d="M64.61435-12.75584C64.61435 10.72769 45.5777 29.76434 22.09413 29.76434-1.3894 29.76434-20.42606 10.72769-20.42606-12.75584-20.42606-36.23941-1.3894-55.27606 22.09413-55.27606 45.5777-55.27606 64.61435-36.23941 64.61435-12.75584ZM22.09413-12.75584" fill="#b3b3ff"/>
</g>
</g>
</g>
<use data-text="T" xlink:href="#font_2_104" transform="matrix(9.963397,0,0,-9.962799,40.062677,29.54227)"/>
<use data-text="y" xlink:href="#font_2_118" transform="matrix(9.963397,0,0,-9.962799,46.987237,29.54227)"/>
<use data-text="p" xlink:href="#font_2_84" transform="matrix(9.963397,0,0,-9.962799,52.247903,29.54227)"/>
<use data-text="o" xlink:href="#font_2_81" transform="matrix(9.963397,0,0,-9.962799,58.056573,29.54227)"/>
<use data-text="g" xlink:href="#font_2_59" transform="matrix(9.963397,0,0,-9.962799,63.03826,29.54227)"/>
<use data-text="r" xlink:href="#font_2_96" transform="matrix(9.963397,0,0,-9.962799,68.01995,29.54227)"/>
<use data-text="a" xlink:href="#font_2_28" transform="matrix(9.963397,0,0,-9.962799,71.92559,29.54227)"/>
<use data-text="p" xlink:href="#font_2_84" transform="matrix(9.963397,0,0,-9.962799,76.90728,29.54227)"/>
<use data-text="h" xlink:href="#font_2_63" transform="matrix(9.963397,0,0,-9.962799,82.44692,29.54227)"/>
<use data-text="y" xlink:href="#font_2_118" transform="matrix(9.963397,0,0,-9.962799,87.71755,29.54227)"/>
<use data-text="D" xlink:href="#font_2_46" transform="matrix(9.963397,0,0,-9.962799,15.062683,93.26854)"/>
<use data-text="e" xlink:href="#font_2_50" transform="matrix(9.963397,0,0,-9.962799,22.674714,93.26854)"/>
<use data-text="s" xlink:href="#font_2_98" transform="matrix(9.963397,0,0,-9.962799,27.098465,93.26854)"/>
<use data-text="i" xlink:href="#font_2_66" transform="matrix(9.963397,0,0,-9.962799,31.024048,93.26854)"/>
<use data-text="g" xlink:href="#font_2_59" transform="matrix(9.963397,0,0,-9.962799,33.79387,93.26854)"/>
<use data-text="n" xlink:href="#font_2_77" transform="matrix(9.963397,0,0,-9.962799,38.775575,93.26854)"/>
<use data-text="C" xlink:href="#font_2_42" transform="matrix(9.963397,0,0,-9.962799,87.699489,93.37855)"/>
<use data-text="o" xlink:href="#font_2_81" transform="matrix(9.963397,0,0,-9.962799,94.89306,93.37855)"/>
<use data-text="d" xlink:href="#font_2_47" transform="matrix(9.963397,0,0,-9.962799,100.153728,93.37855)"/>
<use data-text="i" xlink:href="#font_2_66" transform="matrix(9.963397,0,0,-9.962799,105.69337,93.37855)"/>
<use data-text="n" xlink:href="#font_2_77" transform="matrix(9.963397,0,0,-9.962799,108.46319,93.37855)"/>
<use data-text="g" xlink:href="#font_2_59" transform="matrix(9.963397,0,0,-9.962799,114.00283,93.37855)"/>
<use data-text="L" xlink:href="#font_3_71" transform="matrix(14.347347,0,0,-14.346487,49.02539,72.98514)"/>
<use data-text="A" xlink:href="#font_2_27" transform="matrix(9.963397,0,0,-9.962799,52.640687,70.39209)"/>
<use data-text="T" xlink:href="#font_3_104" transform="matrix(14.347347,0,0,-14.346487,57.962114,72.98514)"/>
<use data-text="E" xlink:href="#font_3_49" transform="matrix(14.347347,0,0,-14.346487,65.713748,76.0772)"/>
<use data-text="X" xlink:href="#font_3_115" transform="matrix(14.347347,0,0,-14.346487,73.47536,72.98514)"/>
</g>
</svg>
