<svg xmlns="http://www.w3.org/2000/svg" xmlns:xlink="http://www.w3.org/1999/xlink" xmlns:inkscape="http://www.inkscape.org/namespaces/inkscape" version="1.1" width="150" height="121" viewBox="0 0 150 121">
<defs>
<path id="font_1_1" d="M.37399293 .6056366C.3829956 .6416168 .38598634 .6516113 .46499635 .6516113 .4889984 .6516113 .49699403 .6516113 .49699403 .6706085 .49699403 .6826172 .48599244 .6826172 .48199464 .6826172 .45298768 .6826172 .3789978 .6796112 .34999085 .6796112 .31999208 .6796112 .24699402 .6826172 .21699524 .6826172 .20999146 .6826172 .19699097 .6826172 .19699097 .6626129 .19699097 .6516113 .20599365 .6516113 .22499085 .6516113 .2669983 .6516113 .2939911 .6516113 .2939911 .63261416 .2939911 .6276245 .2939911 .6256256 .2919922 .6166229L.15699768 .07795715C.147995 .040985109 .14498902 .0309906 .06599426 .0309906 .042999269 .0309906 .033996583 .0309906 .033996583 .010986328 .033996583 0 .04598999 0 .04899597 0 .07798767 0 .15098572 .0029907227 .17999268 .0029907227 .20999146 .0029907227 .28399659 0 .31399537 0 .32199098 0 .33399964 0 .33399964 .018997193 .33399964 .0309906 .32598878 .0309906 .3039856 .0309906 .28599549 .0309906 .2809906 .0309906 .26098634 .032989503 .23999024 .034988405 .23599243 .038986207 .23599243 .049987794 .23599243 .05796814 .23799134 .065963748 .23999024 .07296753L.37399293 .6056366Z"/>
<path id="font_2_1" d="M.33499146 .63612368C.33499146 .6630554 .33299256 .6640625 .30499269 .6640625 .24099732 .6014404 .1499939 .6004486 .10899353 .6004486V.5644531C.1329956 .5644531 .19898987 .5644531 .2539978 .592453V.08203125C.2539978 .04899597 .2539978 .035995485 .1539917 .035995485H.115997318V0C.13398743 .0009918213 .25698854 .0039978029 .2939911 .0039978029 .32499696 .0039978029 .45098878 .0009918213 .47299195 0V.035995485H.43499757C.33499146 .035995485 .33499146 .04899597 .33499146 .08203125V.63612368Z"/>
<path id="font_2_2" d="M.5049896 .18203736H.47099305C.46798707 .16001892 .45799256 .100997928 .44499208 .09098816 .43699647 .084991458 .3600006 .084991458 .34599305 .084991458H.1619873C.2669983 .17803955 .3019867 .20603943 .3619995 .25306703 .43598939 .312088 .5049896 .374115 .5049896 .46914674 .5049896 .5900879 .39898683 .6640625 .2709961 .6640625 .14698792 .6640625 .06298828 .57710269 .06298828 .4851532 .06298828 .43414308 .10598755 .42915345 .115997318 .42915345 .13999939 .42915345 .16899109 .44615174 .16899109 .48214723 .16899109 .5001526 .1619873 .53515627 .10998535 .53515627 .14099121 .6060791 .20899964 .62805178 .2559967 .62805178 .35598756 .62805178 .4079895 .5501404 .4079895 .46914674 .4079895 .38212586 .34599305 .3130951 .31399537 .27708436L.07299805 .038986207C.06298828 .02999878 .06298828 .027999878 .06298828 0H.47499085L.5049896 .18203736Z"/>
<path id="font_2_3" d="M.272995 .33428956C.35099793 .33428956 .40699769 .2803192 .40699769 .1733551 .40699769 .04940796 .33499146 .012466431 .2769928 .012466431 .23699951 .012466431 .14898682 .0234375 .10699463 .082351688 .1539917 .084350589 .16499329 .11735535 .16499329 .13835144 .16499329 .17034912 .14099121 .19335938 .10998535 .19335938 .08198547 .19335938 .053985597 .17634583 .053985597 .13534546 .053985597 .041412355 .1579895-.01953125 .2789917-.01953125 .41799928-.01953125 .5139923 .07336426 .5139923 .1733551 .5139923 .2513275 .44999696 .32929994 .33999635 .35229493 .44499208 .39024354 .48298646 .4650879 .48298646 .5260773 .48298646 .60505679 .3919983 .6640625 .2809906 .6640625 .16999817 .6640625 .084991458 .61006167 .084991458 .5300751 .084991458 .49606324 .10699463 .47706605 .13699341 .47706605 .16799927 .47706605 .18798828 .5000763 .18798828 .5280762 .18798828 .5570679 .16799927 .57806399 .13699341 .5800781 .17199707 .62405398 .24099732 .63505557 .27799989 .63505557 .32299806 .63505557 .38598634 .6130676 .38598634 .5260773 .38598634 .48406983 .37199403 .43814088 .34599305 .4072113 .31298829 .36927796 .2849884 .3672943 .23498535 .36428834 .20999146 .3623047 .20799256 .3623047 .20298767 .3612976 .20098877 .3612976 .19299317 .3592987 .19299317 .34829713 .19299317 .33428956 .20199585 .33428956 .21899414 .33428956H.272995Z"/>
</defs>
<path transform="matrix(1.00006,0,0,-1.00005,88.72718,60.87744)" stroke-width=".3985" stroke-linecap="butt" stroke-miterlimit="10" stroke-linejoin="miter" fill="none" stroke="#000000" d="M0 0 17.12204 17.12204M39.57156 39.57156 56.69362 56.69362"/>
<path transform="matrix(1.00006,0,0,-1.00005,88.72718,60.87744)" stroke-width=".797" stroke-linecap="butt" stroke-linejoin="bevel" fill="none" stroke="#000000" d="M16.84026 16.84026 14.80702 23.22563 27.01418 18.59557 22.38411 30.80273 34.59128 26.17267 29.96121 38.37982 42.16838 33.74977 39.85335 39.85335"/>
<path transform="matrix(1.00006,0,0,-1.00005,88.72718,60.87744)" d="M1.58714 0C1.58714 .87656 .87656 1.58714 0 1.58714-.87656 1.58714-1.58714 .87656-1.58714 0-1.58714-.87656-.87656-1.58714 0-1.58714 .87656-1.58714 1.58714-.87656 1.58714 0ZM0 0"/>
<path transform="matrix(1.00006,0,0,-1.00005,88.72718,60.87744)" stroke-width=".3985" stroke-linecap="butt" stroke-miterlimit="10" stroke-linejoin="miter" fill="none" stroke="#000000" d="M1.58714 0C1.58714 .87656 .87656 1.58714 0 1.58714-.87656 1.58714-1.58714 .87656-1.58714 0-1.58714-.87656-.87656-1.58714 0-1.58714 .87656-1.58714 1.58714-.87656 1.58714 0ZM0 0"/>
<path transform="matrix(1.00006,0,0,-1.00005,88.72718,60.87744)" d="M58.28076 56.69362C58.28076 57.57018 57.57018 58.28076 56.69362 58.28076 55.81705 58.28076 55.10646 57.57018 55.10646 56.69362 55.10646 55.81705 55.81705 55.10646 56.69362 55.10646 57.57018 55.10646 58.28076 55.81705 58.28076 56.69362ZM56.69362 56.69362" fill="#ffffff"/>
<path transform="matrix(1.00006,0,0,-1.00005,88.72718,60.87744)" stroke-width=".3985" stroke-linecap="butt" stroke-miterlimit="10" stroke-linejoin="miter" fill="none" stroke="#000000" d="M58.28076 56.69362C58.28076 57.57018 57.57018 58.28076 56.69362 58.28076 55.81705 58.28076 55.10646 57.57018 55.10646 56.69362 55.10646 55.81705 55.81705 55.10646 56.69362 55.10646 57.57018 55.10646 58.28076 55.81705 58.28076 56.69362ZM56.69362 56.69362"/>
<path transform="matrix(1.00006,0,0,-1.00005,88.72718,60.87744)" d="" fill="#ffffff"/>
<path transform="matrix(1.00006,0,0,-1.00005,88.72718,60.87744)" stroke-width=".3985" stroke-linecap="butt" stroke-miterlimit="10" stroke-linejoin="miter" fill="none" stroke="#000000" d=""/>
<path transform="matrix(1.00006,0,0,-1.00005,88.72718,60.87744)" d="M46.9049 46.9049 48.30797 45.50185 49.88644 49.88644 45.50185 48.30797Z"/>
<path transform="matrix(1.00006,0,0,-1.00005,88.72718,60.87744)" stroke-width=".3985" stroke-linecap="butt" stroke-miterlimit="10" stroke-linejoin="miter" fill="none" stroke="#000000" d="M46.9049 46.9049 48.30797 45.50185 49.88644 49.88644 45.50185 48.30797Z"/>
<use data-text="I" xlink:href="#font_1_1" transform="matrix(9.963197,0,0,-9.963098,124.493328,7.727787)"/>
<use data-text="1" xlink:href="#font_2_1" transform="matrix(6.9742186,0,0,-6.9741489,128.8736,9.221863)"/>
<path transform="matrix(1.00006,0,0,-1.00005,88.72718,60.87744)" stroke-width=".3985" stroke-linecap="butt" stroke-miterlimit="10" stroke-linejoin="miter" fill="none" stroke="#000000" d="M0 0 17.12204-17.12204M39.57156-39.57156 56.69362-56.69362"/>
<path transform="matrix(1.00006,0,0,-1.00005,88.72718,60.87744)" stroke-width=".797" stroke-linecap="butt" stroke-linejoin="bevel" fill="none" stroke="#000000" d="M16.84026-16.84026 23.22563-14.80702 18.59557-27.01418 30.80273-22.38411 26.17267-34.59128 38.37982-29.96121 33.74977-42.16838 39.85335-39.85335"/>
<path transform="matrix(1.00006,0,0,-1.00005,88.72718,60.87744)" d="M1.58714 0C1.58714 .87656 .87656 1.58714 0 1.58714-.87656 1.58714-1.58714 .87656-1.58714 0-1.58714-.87656-.87656-1.58714 0-1.58714 .87656-1.58714 1.58714-.87656 1.58714 0ZM0 0"/>
<path transform="matrix(1.00006,0,0,-1.00005,88.72718,60.87744)" stroke-width=".3985" stroke-linecap="butt" stroke-miterlimit="10" stroke-linejoin="miter" fill="none" stroke="#000000" d="M1.58714 0C1.58714 .87656 .87656 1.58714 0 1.58714-.87656 1.58714-1.58714 .87656-1.58714 0-1.58714-.87656-.87656-1.58714 0-1.58714 .87656-1.58714 1.58714-.87656 1.58714 0ZM0 0"/>
<path transform="matrix(1.00006,0,0,-1.00005,88.72718,60.87744)" d="M58.28076-56.69362C58.28076-55.81705 57.57018-55.10646 56.69362-55.10646 55.81705-55.10646 55.10646-55.81705 55.10646-56.69362 55.10646-57.57018 55.81705-58.28076 56.69362-58.28076 57.57018-58.28076 58.28076-57.57018 58.28076-56.69362ZM56.69362-56.69362" fill="#ffffff"/>
<path transform="matrix(1.00006,0,0,-1.00005,88.72718,60.87744)" stroke-width=".3985" stroke-linecap="butt" stroke-miterlimit="10" stroke-linejoin="miter" fill="none" stroke="#000000" d="M58.28076-56.69362C58.28076-55.81705 57.57018-55.10646 56.69362-55.10646 55.81705-55.10646 55.10646-55.81705 55.10646-56.69362 55.10646-57.57018 55.81705-58.28076 56.69362-58.28076 57.57018-58.28076 58.28076-57.57018 58.28076-56.69362ZM56.69362-56.69362"/>
<path transform="matrix(1.00006,0,0,-1.00005,88.72718,60.87744)" d="" fill="#ffffff"/>
<path transform="matrix(1.00006,0,0,-1.00005,88.72718,60.87744)" stroke-width=".3985" stroke-linecap="butt" stroke-miterlimit="10" stroke-linejoin="miter" fill="none" stroke="#000000" d=""/>
<path transform="matrix(1.00006,0,0,-1.00005,88.72718,60.87744)" d="M46.9049-46.9049 45.50185-48.30797 49.88644-49.88644 48.30797-45.50185Z"/>
<path transform="matrix(1.00006,0,0,-1.00005,88.72718,60.87744)" stroke-width=".3985" stroke-linecap="butt" stroke-miterlimit="10" stroke-linejoin="miter" fill="none" stroke="#000000" d="M46.9049-46.9049 45.50185-48.30797 49.88644-49.88644 48.30797-45.50185Z"/>
<use data-text="I" xlink:href="#font_1_1" transform="matrix(9.963197,0,0,-9.963098,140.38228,103.9976)"/>
<use data-text="2" xlink:href="#font_2_2" transform="matrix(6.9742186,0,0,-6.9741489,144.76255,105.49167)"/>
<path transform="matrix(1.00006,0,0,-1.00005,88.72718,60.87744)" stroke-width=".3985" stroke-linecap="butt" stroke-miterlimit="10" stroke-linejoin="miter" fill="none" stroke="#000000" d="M-85.04042 0H-58.3944M-26.64601 0H0"/>
<path transform="matrix(1.00006,0,0,-1.00005,88.72718,60.87744)" stroke-width=".797" stroke-linecap="butt" stroke-linejoin="bevel" fill="none" stroke="#000000" d="M-58.7929 0-55.71548 5.95285-50.35767-5.95285-44.99986 5.95285-39.64204-5.95285-34.28423 5.95285-28.9264-5.95285-26.2475 0"/>
<path transform="matrix(1.00006,0,0,-1.00005,88.72718,60.87744)" d="M-83.45328 0C-83.45328 .87656-84.16386 1.58714-85.04042 1.58714-85.91698 1.58714-86.62756 .87656-86.62756 0-86.62756-.87656-85.91698-1.58714-85.04042-1.58714-84.16386-1.58714-83.45328-.87656-83.45328 0ZM-85.04042 0" fill="#ffffff"/>
<path transform="matrix(1.00006,0,0,-1.00005,88.72718,60.87744)" stroke-width=".3985" stroke-linecap="butt" stroke-miterlimit="10" stroke-linejoin="miter" fill="none" stroke="#000000" d="M-83.45328 0C-83.45328 .87656-84.16386 1.58714-85.04042 1.58714-85.91698 1.58714-86.62756 .87656-86.62756 0-86.62756-.87656-85.91698-1.58714-85.04042-1.58714-84.16386-1.58714-83.45328-.87656-83.45328 0ZM-85.04042 0"/>
<path transform="matrix(1.00006,0,0,-1.00005,88.72718,60.87744)" d="" fill="#ffffff"/>
<path transform="matrix(1.00006,0,0,-1.00005,88.72718,60.87744)" stroke-width=".3985" stroke-linecap="butt" stroke-miterlimit="10" stroke-linejoin="miter" fill="none" stroke="#000000" d=""/>
<path transform="matrix(1.00006,0,0,-1.00005,88.72718,60.87744)" d="M1.58714 0C1.58714 .87656 .87656 1.58714 0 1.58714-.87656 1.58714-1.58714 .87656-1.58714 0-1.58714-.87656-.87656-1.58714 0-1.58714 .87656-1.58714 1.58714-.87656 1.58714 0ZM0 0"/>
<path transform="matrix(1.00006,0,0,-1.00005,88.72718,60.87744)" stroke-width=".3985" stroke-linecap="butt" stroke-miterlimit="10" stroke-linejoin="miter" fill="none" stroke="#000000" d="M1.58714 0C1.58714 .87656 .87656 1.58714 0 1.58714-.87656 1.58714-1.58714 .87656-1.58714 0-1.58714-.87656-.87656-1.58714 0-1.58714 .87656-1.58714 1.58714-.87656 1.58714 0ZM0 0"/>
<path transform="matrix(1.00006,0,0,-1.00005,88.72718,60.87744)" d="M-15.0592 0V-1.98425L-10.84267 0-15.0592 1.98425Z"/>
<path transform="matrix(1.00006,0,0,-1.00005,88.72718,60.87744)" stroke-width=".3985" stroke-linecap="butt" stroke-miterlimit="10" stroke-linejoin="miter" fill="none" stroke="#000000" d="M-15.0592 0V-1.98425L-10.84267 0-15.0592 1.98425Z"/>
<use data-text="I" xlink:href="#font_1_1" transform="matrix(9.963197,0,0,-9.963098,70.97912,55.86319)"/>
<use data-text="3" xlink:href="#font_2_3" transform="matrix(6.9742186,0,0,-6.9741489,75.35938,57.357267)"/>
</svg>
